<?xml version="1.0" encoding="utf-8" standalone="no"?>
<!DOCTYPE svg PUBLIC "-//W3C//DTD SVG 1.1//EN"
  "http://www.w3.org/Graphics/SVG/1.1/DTD/svg11.dtd">
<svg xmlns:xlink="http://www.w3.org/1999/xlink" width="460.8pt" height="345.6pt" viewBox="0 0 460.8 345.6" xmlns="http://www.w3.org/2000/svg" version="1.1">
 <metadata>
  <rdf:RDF xmlns:dc="http://purl.org/dc/elements/1.1/" xmlns:cc="http://creativecommons.org/ns#" xmlns:rdf="http://www.w3.org/1999/02/22-rdf-syntax-ns#">
   <cc:Work>
    <dc:type rdf:resource="http://purl.org/dc/dcmitype/StillImage"/>
    <dc:date>2024-12-21T01:25:53.356927</dc:date>
    <dc:format>image/svg+xml</dc:format>
    <dc:creator>
     <cc:Agent>
      <dc:title>Matplotlib v3.9.2, https://matplotlib.org/</dc:title>
     </cc:Agent>
    </dc:creator>
   </cc:Work>
  </rdf:RDF>
 </metadata>
 <defs>
  <style type="text/css">*{stroke-linejoin: round; stroke-linecap: butt}</style>
 </defs>
 <g id="figure_1">
  <g id="patch_1">
   <path d="M 0 345.6 
L 460.8 345.6 
L 460.8 0 
L 0 0 
z
" style="fill: #ffffff"/>
  </g>
  <g id="axes_1">
   <g id="patch_2">
    <path d="M 49.078125 304.44375 
L 450 304.44375 
L 450 25.918125 
L 49.078125 25.918125 
z
" style="fill: #ffffff"/>
   </g>
   <g id="matplotlib.axis_1">
    <g id="xtick_1">
     <g id="line2d_1">
      <path d="M 64.239036 304.44375 
L 64.239036 25.918125 
" clip-path="url(#p460c9f48eb)" style="fill: none; stroke: #b0b0b0; stroke-width: 0.8; stroke-linecap: square"/>
     </g>
     <g id="line2d_2">
      <defs>
       <path id="mf8e4bfda42" d="M 0 0 
L 0 3.5 
" style="stroke: #000000; stroke-width: 0.8"/>
      </defs>
      <g>
       <use xlink:href="#mf8e4bfda42" x="64.239036" y="304.44375" style="stroke: #000000; stroke-width: 0.8"/>
      </g>
     </g>
     <g id="text_1">
      <!-- 0 -->
      <g transform="translate(61.057786 319.042187) scale(0.1 -0.1)">
       <defs>
        <path id="DejaVuSans-30" d="M 2034 4250 
Q 1547 4250 1301 3770 
Q 1056 3291 1056 2328 
Q 1056 1369 1301 889 
Q 1547 409 2034 409 
Q 2525 409 2770 889 
Q 3016 1369 3016 2328 
Q 3016 3291 2770 3770 
Q 2525 4250 2034 4250 
z
M 2034 4750 
Q 2819 4750 3233 4129 
Q 3647 3509 3647 2328 
Q 3647 1150 3233 529 
Q 2819 -91 2034 -91 
Q 1250 -91 836 529 
Q 422 1150 422 2328 
Q 422 3509 836 4129 
Q 1250 4750 2034 4750 
z
" transform="scale(0.015625)"/>
       </defs>
       <use xlink:href="#DejaVuSans-30"/>
      </g>
     </g>
    </g>
    <g id="xtick_2">
     <g id="line2d_3">
      <path d="M 125.495243 304.44375 
L 125.495243 25.918125 
" clip-path="url(#p460c9f48eb)" style="fill: none; stroke: #b0b0b0; stroke-width: 0.8; stroke-linecap: square"/>
     </g>
     <g id="line2d_4">
      <g>
       <use xlink:href="#mf8e4bfda42" x="125.495243" y="304.44375" style="stroke: #000000; stroke-width: 0.8"/>
      </g>
     </g>
     <g id="text_2">
      <!-- 20 -->
      <g transform="translate(119.132743 319.042187) scale(0.1 -0.1)">
       <defs>
        <path id="DejaVuSans-32" d="M 1228 531 
L 3431 531 
L 3431 0 
L 469 0 
L 469 531 
Q 828 903 1448 1529 
Q 2069 2156 2228 2338 
Q 2531 2678 2651 2914 
Q 2772 3150 2772 3378 
Q 2772 3750 2511 3984 
Q 2250 4219 1831 4219 
Q 1534 4219 1204 4116 
Q 875 4013 500 3803 
L 500 4441 
Q 881 4594 1212 4672 
Q 1544 4750 1819 4750 
Q 2544 4750 2975 4387 
Q 3406 4025 3406 3419 
Q 3406 3131 3298 2873 
Q 3191 2616 2906 2266 
Q 2828 2175 2409 1742 
Q 1991 1309 1228 531 
z
" transform="scale(0.015625)"/>
       </defs>
       <use xlink:href="#DejaVuSans-32"/>
       <use xlink:href="#DejaVuSans-30" x="63.623047"/>
      </g>
     </g>
    </g>
    <g id="xtick_3">
     <g id="line2d_5">
      <path d="M 186.75145 304.44375 
L 186.75145 25.918125 
" clip-path="url(#p460c9f48eb)" style="fill: none; stroke: #b0b0b0; stroke-width: 0.8; stroke-linecap: square"/>
     </g>
     <g id="line2d_6">
      <g>
       <use xlink:href="#mf8e4bfda42" x="186.75145" y="304.44375" style="stroke: #000000; stroke-width: 0.8"/>
      </g>
     </g>
     <g id="text_3">
      <!-- 40 -->
      <g transform="translate(180.38895 319.042187) scale(0.1 -0.1)">
       <defs>
        <path id="DejaVuSans-34" d="M 2419 4116 
L 825 1625 
L 2419 1625 
L 2419 4116 
z
M 2253 4666 
L 3047 4666 
L 3047 1625 
L 3713 1625 
L 3713 1100 
L 3047 1100 
L 3047 0 
L 2419 0 
L 2419 1100 
L 313 1100 
L 313 1709 
L 2253 4666 
z
" transform="scale(0.015625)"/>
       </defs>
       <use xlink:href="#DejaVuSans-34"/>
       <use xlink:href="#DejaVuSans-30" x="63.623047"/>
      </g>
     </g>
    </g>
    <g id="xtick_4">
     <g id="line2d_7">
      <path d="M 248.007657 304.44375 
L 248.007657 25.918125 
" clip-path="url(#p460c9f48eb)" style="fill: none; stroke: #b0b0b0; stroke-width: 0.8; stroke-linecap: square"/>
     </g>
     <g id="line2d_8">
      <g>
       <use xlink:href="#mf8e4bfda42" x="248.007657" y="304.44375" style="stroke: #000000; stroke-width: 0.8"/>
      </g>
     </g>
     <g id="text_4">
      <!-- 60 -->
      <g transform="translate(241.645157 319.042187) scale(0.1 -0.1)">
       <defs>
        <path id="DejaVuSans-36" d="M 2113 2584 
Q 1688 2584 1439 2293 
Q 1191 2003 1191 1497 
Q 1191 994 1439 701 
Q 1688 409 2113 409 
Q 2538 409 2786 701 
Q 3034 994 3034 1497 
Q 3034 2003 2786 2293 
Q 2538 2584 2113 2584 
z
M 3366 4563 
L 3366 3988 
Q 3128 4100 2886 4159 
Q 2644 4219 2406 4219 
Q 1781 4219 1451 3797 
Q 1122 3375 1075 2522 
Q 1259 2794 1537 2939 
Q 1816 3084 2150 3084 
Q 2853 3084 3261 2657 
Q 3669 2231 3669 1497 
Q 3669 778 3244 343 
Q 2819 -91 2113 -91 
Q 1303 -91 875 529 
Q 447 1150 447 2328 
Q 447 3434 972 4092 
Q 1497 4750 2381 4750 
Q 2619 4750 2861 4703 
Q 3103 4656 3366 4563 
z
" transform="scale(0.015625)"/>
       </defs>
       <use xlink:href="#DejaVuSans-36"/>
       <use xlink:href="#DejaVuSans-30" x="63.623047"/>
      </g>
     </g>
    </g>
    <g id="xtick_5">
     <g id="line2d_9">
      <path d="M 309.263864 304.44375 
L 309.263864 25.918125 
" clip-path="url(#p460c9f48eb)" style="fill: none; stroke: #b0b0b0; stroke-width: 0.8; stroke-linecap: square"/>
     </g>
     <g id="line2d_10">
      <g>
       <use xlink:href="#mf8e4bfda42" x="309.263864" y="304.44375" style="stroke: #000000; stroke-width: 0.8"/>
      </g>
     </g>
     <g id="text_5">
      <!-- 80 -->
      <g transform="translate(302.901364 319.042187) scale(0.1 -0.1)">
       <defs>
        <path id="DejaVuSans-38" d="M 2034 2216 
Q 1584 2216 1326 1975 
Q 1069 1734 1069 1313 
Q 1069 891 1326 650 
Q 1584 409 2034 409 
Q 2484 409 2743 651 
Q 3003 894 3003 1313 
Q 3003 1734 2745 1975 
Q 2488 2216 2034 2216 
z
M 1403 2484 
Q 997 2584 770 2862 
Q 544 3141 544 3541 
Q 544 4100 942 4425 
Q 1341 4750 2034 4750 
Q 2731 4750 3128 4425 
Q 3525 4100 3525 3541 
Q 3525 3141 3298 2862 
Q 3072 2584 2669 2484 
Q 3125 2378 3379 2068 
Q 3634 1759 3634 1313 
Q 3634 634 3220 271 
Q 2806 -91 2034 -91 
Q 1263 -91 848 271 
Q 434 634 434 1313 
Q 434 1759 690 2068 
Q 947 2378 1403 2484 
z
M 1172 3481 
Q 1172 3119 1398 2916 
Q 1625 2713 2034 2713 
Q 2441 2713 2670 2916 
Q 2900 3119 2900 3481 
Q 2900 3844 2670 4047 
Q 2441 4250 2034 4250 
Q 1625 4250 1398 4047 
Q 1172 3844 1172 3481 
z
" transform="scale(0.015625)"/>
       </defs>
       <use xlink:href="#DejaVuSans-38"/>
       <use xlink:href="#DejaVuSans-30" x="63.623047"/>
      </g>
     </g>
    </g>
    <g id="xtick_6">
     <g id="line2d_11">
      <path d="M 370.520071 304.44375 
L 370.520071 25.918125 
" clip-path="url(#p460c9f48eb)" style="fill: none; stroke: #b0b0b0; stroke-width: 0.8; stroke-linecap: square"/>
     </g>
     <g id="line2d_12">
      <g>
       <use xlink:href="#mf8e4bfda42" x="370.520071" y="304.44375" style="stroke: #000000; stroke-width: 0.8"/>
      </g>
     </g>
     <g id="text_6">
      <!-- 100 -->
      <g transform="translate(360.976321 319.042187) scale(0.1 -0.1)">
       <defs>
        <path id="DejaVuSans-31" d="M 794 531 
L 1825 531 
L 1825 4091 
L 703 3866 
L 703 4441 
L 1819 4666 
L 2450 4666 
L 2450 531 
L 3481 531 
L 3481 0 
L 794 0 
L 794 531 
z
" transform="scale(0.015625)"/>
       </defs>
       <use xlink:href="#DejaVuSans-31"/>
       <use xlink:href="#DejaVuSans-30" x="63.623047"/>
       <use xlink:href="#DejaVuSans-30" x="127.246094"/>
      </g>
     </g>
    </g>
    <g id="xtick_7">
     <g id="line2d_13">
      <path d="M 431.776278 304.44375 
L 431.776278 25.918125 
" clip-path="url(#p460c9f48eb)" style="fill: none; stroke: #b0b0b0; stroke-width: 0.8; stroke-linecap: square"/>
     </g>
     <g id="line2d_14">
      <g>
       <use xlink:href="#mf8e4bfda42" x="431.776278" y="304.44375" style="stroke: #000000; stroke-width: 0.8"/>
      </g>
     </g>
     <g id="text_7">
      <!-- 120 -->
      <g transform="translate(422.232528 319.042187) scale(0.1 -0.1)">
       <use xlink:href="#DejaVuSans-31"/>
       <use xlink:href="#DejaVuSans-32" x="63.623047"/>
       <use xlink:href="#DejaVuSans-30" x="127.246094"/>
      </g>
     </g>
    </g>
    <g id="text_8">
     <!-- Number of function evaluations $n$ -->
     <g transform="translate(165.739062 332.720312) scale(0.1 -0.1)">
      <defs>
       <path id="DejaVuSans-4e" d="M 628 4666 
L 1478 4666 
L 3547 763 
L 3547 4666 
L 4159 4666 
L 4159 0 
L 3309 0 
L 1241 3903 
L 1241 0 
L 628 0 
L 628 4666 
z
" transform="scale(0.015625)"/>
       <path id="DejaVuSans-75" d="M 544 1381 
L 544 3500 
L 1119 3500 
L 1119 1403 
Q 1119 906 1312 657 
Q 1506 409 1894 409 
Q 2359 409 2629 706 
Q 2900 1003 2900 1516 
L 2900 3500 
L 3475 3500 
L 3475 0 
L 2900 0 
L 2900 538 
Q 2691 219 2414 64 
Q 2138 -91 1772 -91 
Q 1169 -91 856 284 
Q 544 659 544 1381 
z
M 1991 3584 
L 1991 3584 
z
" transform="scale(0.015625)"/>
       <path id="DejaVuSans-6d" d="M 3328 2828 
Q 3544 3216 3844 3400 
Q 4144 3584 4550 3584 
Q 5097 3584 5394 3201 
Q 5691 2819 5691 2113 
L 5691 0 
L 5113 0 
L 5113 2094 
Q 5113 2597 4934 2840 
Q 4756 3084 4391 3084 
Q 3944 3084 3684 2787 
Q 3425 2491 3425 1978 
L 3425 0 
L 2847 0 
L 2847 2094 
Q 2847 2600 2669 2842 
Q 2491 3084 2119 3084 
Q 1678 3084 1418 2786 
Q 1159 2488 1159 1978 
L 1159 0 
L 581 0 
L 581 3500 
L 1159 3500 
L 1159 2956 
Q 1356 3278 1631 3431 
Q 1906 3584 2284 3584 
Q 2666 3584 2933 3390 
Q 3200 3197 3328 2828 
z
" transform="scale(0.015625)"/>
       <path id="DejaVuSans-62" d="M 3116 1747 
Q 3116 2381 2855 2742 
Q 2594 3103 2138 3103 
Q 1681 3103 1420 2742 
Q 1159 2381 1159 1747 
Q 1159 1113 1420 752 
Q 1681 391 2138 391 
Q 2594 391 2855 752 
Q 3116 1113 3116 1747 
z
M 1159 2969 
Q 1341 3281 1617 3432 
Q 1894 3584 2278 3584 
Q 2916 3584 3314 3078 
Q 3713 2572 3713 1747 
Q 3713 922 3314 415 
Q 2916 -91 2278 -91 
Q 1894 -91 1617 61 
Q 1341 213 1159 525 
L 1159 0 
L 581 0 
L 581 4863 
L 1159 4863 
L 1159 2969 
z
" transform="scale(0.015625)"/>
       <path id="DejaVuSans-65" d="M 3597 1894 
L 3597 1613 
L 953 1613 
Q 991 1019 1311 708 
Q 1631 397 2203 397 
Q 2534 397 2845 478 
Q 3156 559 3463 722 
L 3463 178 
Q 3153 47 2828 -22 
Q 2503 -91 2169 -91 
Q 1331 -91 842 396 
Q 353 884 353 1716 
Q 353 2575 817 3079 
Q 1281 3584 2069 3584 
Q 2775 3584 3186 3129 
Q 3597 2675 3597 1894 
z
M 3022 2063 
Q 3016 2534 2758 2815 
Q 2500 3097 2075 3097 
Q 1594 3097 1305 2825 
Q 1016 2553 972 2059 
L 3022 2063 
z
" transform="scale(0.015625)"/>
       <path id="DejaVuSans-72" d="M 2631 2963 
Q 2534 3019 2420 3045 
Q 2306 3072 2169 3072 
Q 1681 3072 1420 2755 
Q 1159 2438 1159 1844 
L 1159 0 
L 581 0 
L 581 3500 
L 1159 3500 
L 1159 2956 
Q 1341 3275 1631 3429 
Q 1922 3584 2338 3584 
Q 2397 3584 2469 3576 
Q 2541 3569 2628 3553 
L 2631 2963 
z
" transform="scale(0.015625)"/>
       <path id="DejaVuSans-20" transform="scale(0.015625)"/>
       <path id="DejaVuSans-6f" d="M 1959 3097 
Q 1497 3097 1228 2736 
Q 959 2375 959 1747 
Q 959 1119 1226 758 
Q 1494 397 1959 397 
Q 2419 397 2687 759 
Q 2956 1122 2956 1747 
Q 2956 2369 2687 2733 
Q 2419 3097 1959 3097 
z
M 1959 3584 
Q 2709 3584 3137 3096 
Q 3566 2609 3566 1747 
Q 3566 888 3137 398 
Q 2709 -91 1959 -91 
Q 1206 -91 779 398 
Q 353 888 353 1747 
Q 353 2609 779 3096 
Q 1206 3584 1959 3584 
z
" transform="scale(0.015625)"/>
       <path id="DejaVuSans-66" d="M 2375 4863 
L 2375 4384 
L 1825 4384 
Q 1516 4384 1395 4259 
Q 1275 4134 1275 3809 
L 1275 3500 
L 2222 3500 
L 2222 3053 
L 1275 3053 
L 1275 0 
L 697 0 
L 697 3053 
L 147 3053 
L 147 3500 
L 697 3500 
L 697 3744 
Q 697 4328 969 4595 
Q 1241 4863 1831 4863 
L 2375 4863 
z
" transform="scale(0.015625)"/>
       <path id="DejaVuSans-6e" d="M 3513 2113 
L 3513 0 
L 2938 0 
L 2938 2094 
Q 2938 2591 2744 2837 
Q 2550 3084 2163 3084 
Q 1697 3084 1428 2787 
Q 1159 2491 1159 1978 
L 1159 0 
L 581 0 
L 581 3500 
L 1159 3500 
L 1159 2956 
Q 1366 3272 1645 3428 
Q 1925 3584 2291 3584 
Q 2894 3584 3203 3211 
Q 3513 2838 3513 2113 
z
" transform="scale(0.015625)"/>
       <path id="DejaVuSans-63" d="M 3122 3366 
L 3122 2828 
Q 2878 2963 2633 3030 
Q 2388 3097 2138 3097 
Q 1578 3097 1268 2742 
Q 959 2388 959 1747 
Q 959 1106 1268 751 
Q 1578 397 2138 397 
Q 2388 397 2633 464 
Q 2878 531 3122 666 
L 3122 134 
Q 2881 22 2623 -34 
Q 2366 -91 2075 -91 
Q 1284 -91 818 406 
Q 353 903 353 1747 
Q 353 2603 823 3093 
Q 1294 3584 2113 3584 
Q 2378 3584 2631 3529 
Q 2884 3475 3122 3366 
z
" transform="scale(0.015625)"/>
       <path id="DejaVuSans-74" d="M 1172 4494 
L 1172 3500 
L 2356 3500 
L 2356 3053 
L 1172 3053 
L 1172 1153 
Q 1172 725 1289 603 
Q 1406 481 1766 481 
L 2356 481 
L 2356 0 
L 1766 0 
Q 1100 0 847 248 
Q 594 497 594 1153 
L 594 3053 
L 172 3053 
L 172 3500 
L 594 3500 
L 594 4494 
L 1172 4494 
z
" transform="scale(0.015625)"/>
       <path id="DejaVuSans-69" d="M 603 3500 
L 1178 3500 
L 1178 0 
L 603 0 
L 603 3500 
z
M 603 4863 
L 1178 4863 
L 1178 4134 
L 603 4134 
L 603 4863 
z
" transform="scale(0.015625)"/>
       <path id="DejaVuSans-76" d="M 191 3500 
L 800 3500 
L 1894 563 
L 2988 3500 
L 3597 3500 
L 2284 0 
L 1503 0 
L 191 3500 
z
" transform="scale(0.015625)"/>
       <path id="DejaVuSans-61" d="M 2194 1759 
Q 1497 1759 1228 1600 
Q 959 1441 959 1056 
Q 959 750 1161 570 
Q 1363 391 1709 391 
Q 2188 391 2477 730 
Q 2766 1069 2766 1631 
L 2766 1759 
L 2194 1759 
z
M 3341 1997 
L 3341 0 
L 2766 0 
L 2766 531 
Q 2569 213 2275 61 
Q 1981 -91 1556 -91 
Q 1019 -91 701 211 
Q 384 513 384 1019 
Q 384 1609 779 1909 
Q 1175 2209 1959 2209 
L 2766 2209 
L 2766 2266 
Q 2766 2663 2505 2880 
Q 2244 3097 1772 3097 
Q 1472 3097 1187 3025 
Q 903 2953 641 2809 
L 641 3341 
Q 956 3463 1253 3523 
Q 1550 3584 1831 3584 
Q 2591 3584 2966 3190 
Q 3341 2797 3341 1997 
z
" transform="scale(0.015625)"/>
       <path id="DejaVuSans-6c" d="M 603 4863 
L 1178 4863 
L 1178 0 
L 603 0 
L 603 4863 
z
" transform="scale(0.015625)"/>
       <path id="DejaVuSans-73" d="M 2834 3397 
L 2834 2853 
Q 2591 2978 2328 3040 
Q 2066 3103 1784 3103 
Q 1356 3103 1142 2972 
Q 928 2841 928 2578 
Q 928 2378 1081 2264 
Q 1234 2150 1697 2047 
L 1894 2003 
Q 2506 1872 2764 1633 
Q 3022 1394 3022 966 
Q 3022 478 2636 193 
Q 2250 -91 1575 -91 
Q 1294 -91 989 -36 
Q 684 19 347 128 
L 347 722 
Q 666 556 975 473 
Q 1284 391 1588 391 
Q 1994 391 2212 530 
Q 2431 669 2431 922 
Q 2431 1156 2273 1281 
Q 2116 1406 1581 1522 
L 1381 1569 
Q 847 1681 609 1914 
Q 372 2147 372 2553 
Q 372 3047 722 3315 
Q 1072 3584 1716 3584 
Q 2034 3584 2315 3537 
Q 2597 3491 2834 3397 
z
" transform="scale(0.015625)"/>
       <path id="DejaVuSans-Oblique-6e" d="M 3566 2113 
L 3156 0 
L 2578 0 
L 2988 2091 
Q 3016 2238 3031 2350 
Q 3047 2463 3047 2528 
Q 3047 2791 2881 2937 
Q 2716 3084 2419 3084 
Q 1956 3084 1622 2776 
Q 1288 2469 1184 1941 
L 800 0 
L 225 0 
L 903 3500 
L 1478 3500 
L 1363 2950 
Q 1603 3253 1940 3418 
Q 2278 3584 2650 3584 
Q 3113 3584 3367 3334 
Q 3622 3084 3622 2631 
Q 3622 2519 3608 2391 
Q 3594 2263 3566 2113 
z
" transform="scale(0.015625)"/>
      </defs>
      <use xlink:href="#DejaVuSans-4e" transform="translate(0 0.015625)"/>
      <use xlink:href="#DejaVuSans-75" transform="translate(74.804688 0.015625)"/>
      <use xlink:href="#DejaVuSans-6d" transform="translate(138.183594 0.015625)"/>
      <use xlink:href="#DejaVuSans-62" transform="translate(235.595703 0.015625)"/>
      <use xlink:href="#DejaVuSans-65" transform="translate(299.072266 0.015625)"/>
      <use xlink:href="#DejaVuSans-72" transform="translate(360.595703 0.015625)"/>
      <use xlink:href="#DejaVuSans-20" transform="translate(401.708984 0.015625)"/>
      <use xlink:href="#DejaVuSans-6f" transform="translate(433.496094 0.015625)"/>
      <use xlink:href="#DejaVuSans-66" transform="translate(494.677734 0.015625)"/>
      <use xlink:href="#DejaVuSans-20" transform="translate(529.882812 0.015625)"/>
      <use xlink:href="#DejaVuSans-66" transform="translate(561.669922 0.015625)"/>
      <use xlink:href="#DejaVuSans-75" transform="translate(596.875 0.015625)"/>
      <use xlink:href="#DejaVuSans-6e" transform="translate(660.253906 0.015625)"/>
      <use xlink:href="#DejaVuSans-63" transform="translate(723.632812 0.015625)"/>
      <use xlink:href="#DejaVuSans-74" transform="translate(778.613281 0.015625)"/>
      <use xlink:href="#DejaVuSans-69" transform="translate(817.822266 0.015625)"/>
      <use xlink:href="#DejaVuSans-6f" transform="translate(845.605469 0.015625)"/>
      <use xlink:href="#DejaVuSans-6e" transform="translate(906.787109 0.015625)"/>
      <use xlink:href="#DejaVuSans-20" transform="translate(970.166016 0.015625)"/>
      <use xlink:href="#DejaVuSans-65" transform="translate(1001.953125 0.015625)"/>
      <use xlink:href="#DejaVuSans-76" transform="translate(1063.476562 0.015625)"/>
      <use xlink:href="#DejaVuSans-61" transform="translate(1122.65625 0.015625)"/>
      <use xlink:href="#DejaVuSans-6c" transform="translate(1183.935547 0.015625)"/>
      <use xlink:href="#DejaVuSans-75" transform="translate(1211.71875 0.015625)"/>
      <use xlink:href="#DejaVuSans-61" transform="translate(1275.097656 0.015625)"/>
      <use xlink:href="#DejaVuSans-74" transform="translate(1336.376953 0.015625)"/>
      <use xlink:href="#DejaVuSans-69" transform="translate(1375.585938 0.015625)"/>
      <use xlink:href="#DejaVuSans-6f" transform="translate(1403.369141 0.015625)"/>
      <use xlink:href="#DejaVuSans-6e" transform="translate(1464.550781 0.015625)"/>
      <use xlink:href="#DejaVuSans-73" transform="translate(1527.929688 0.015625)"/>
      <use xlink:href="#DejaVuSans-20" transform="translate(1580.029297 0.015625)"/>
      <use xlink:href="#DejaVuSans-Oblique-6e" transform="translate(1611.816406 0.015625)"/>
     </g>
    </g>
   </g>
   <g id="matplotlib.axis_2">
    <g id="ytick_1">
     <g id="line2d_15">
      <path d="M 49.078125 291.783494 
L 450 291.783494 
" clip-path="url(#p460c9f48eb)" style="fill: none; stroke: #b0b0b0; stroke-width: 0.8; stroke-linecap: square"/>
     </g>
     <g id="line2d_16">
      <defs>
       <path id="me5f0eb1ad9" d="M 0 0 
L -3.5 0 
" style="stroke: #000000; stroke-width: 0.8"/>
      </defs>
      <g>
       <use xlink:href="#me5f0eb1ad9" x="49.078125" y="291.783494" style="stroke: #000000; stroke-width: 0.8"/>
      </g>
     </g>
     <g id="text_9">
      <!-- $\mathdefault{0}$ -->
      <g transform="translate(35.678125 295.582713) scale(0.1 -0.1)">
       <use xlink:href="#DejaVuSans-30" transform="translate(0 0.78125)"/>
      </g>
     </g>
    </g>
    <g id="ytick_2">
     <g id="line2d_17">
      <path d="M 49.078125 216.532874 
L 450 216.532874 
" clip-path="url(#p460c9f48eb)" style="fill: none; stroke: #b0b0b0; stroke-width: 0.8; stroke-linecap: square"/>
     </g>
     <g id="line2d_18">
      <g>
       <use xlink:href="#me5f0eb1ad9" x="49.078125" y="216.532874" style="stroke: #000000; stroke-width: 0.8"/>
      </g>
     </g>
     <g id="text_10">
      <!-- $\mathdefault{10^{0}}$ -->
      <g transform="translate(24.478125 220.332093) scale(0.1 -0.1)">
       <use xlink:href="#DejaVuSans-31" transform="translate(0 0.765625)"/>
       <use xlink:href="#DejaVuSans-30" transform="translate(63.623047 0.765625)"/>
       <use xlink:href="#DejaVuSans-30" transform="translate(128.203125 39.046875) scale(0.7)"/>
      </g>
     </g>
    </g>
    <g id="ytick_3">
     <g id="line2d_19">
      <path d="M 49.078125 148.807317 
L 450 148.807317 
" clip-path="url(#p460c9f48eb)" style="fill: none; stroke: #b0b0b0; stroke-width: 0.8; stroke-linecap: square"/>
     </g>
     <g id="line2d_20">
      <g>
       <use xlink:href="#me5f0eb1ad9" x="49.078125" y="148.807317" style="stroke: #000000; stroke-width: 0.8"/>
      </g>
     </g>
     <g id="text_11">
      <!-- $\mathdefault{10^{1}}$ -->
      <g transform="translate(24.478125 152.606535) scale(0.1 -0.1)">
       <use xlink:href="#DejaVuSans-31" transform="translate(0 0.684375)"/>
       <use xlink:href="#DejaVuSans-30" transform="translate(63.623047 0.684375)"/>
       <use xlink:href="#DejaVuSans-31" transform="translate(128.203125 38.965625) scale(0.7)"/>
      </g>
     </g>
    </g>
    <g id="ytick_4">
     <g id="line2d_21">
      <path d="M 49.078125 81.081759 
L 450 81.081759 
" clip-path="url(#p460c9f48eb)" style="fill: none; stroke: #b0b0b0; stroke-width: 0.8; stroke-linecap: square"/>
     </g>
     <g id="line2d_22">
      <g>
       <use xlink:href="#me5f0eb1ad9" x="49.078125" y="81.081759" style="stroke: #000000; stroke-width: 0.8"/>
      </g>
     </g>
     <g id="text_12">
      <!-- $\mathdefault{10^{2}}$ -->
      <g transform="translate(24.478125 84.880977) scale(0.1 -0.1)">
       <use xlink:href="#DejaVuSans-31" transform="translate(0 0.765625)"/>
       <use xlink:href="#DejaVuSans-30" transform="translate(63.623047 0.765625)"/>
       <use xlink:href="#DejaVuSans-32" transform="translate(128.203125 39.046875) scale(0.7)"/>
      </g>
     </g>
    </g>
    <g id="text_13">
     <!-- $\min\ f(x)$ after $n$ evaluations -->
     <g transform="translate(18.398437 233.630937) rotate(-90) scale(0.1 -0.1)">
      <defs>
       <path id="DejaVuSans-Oblique-66" d="M 3059 4863 
L 2969 4384 
L 2419 4384 
Q 2106 4384 1964 4261 
Q 1822 4138 1753 3809 
L 1691 3500 
L 2638 3500 
L 2553 3053 
L 1606 3053 
L 1013 0 
L 434 0 
L 1031 3053 
L 481 3053 
L 563 3500 
L 1113 3500 
L 1159 3744 
Q 1278 4363 1576 4613 
Q 1875 4863 2516 4863 
L 3059 4863 
z
" transform="scale(0.015625)"/>
       <path id="DejaVuSans-28" d="M 1984 4856 
Q 1566 4138 1362 3434 
Q 1159 2731 1159 2009 
Q 1159 1288 1364 580 
Q 1569 -128 1984 -844 
L 1484 -844 
Q 1016 -109 783 600 
Q 550 1309 550 2009 
Q 550 2706 781 3412 
Q 1013 4119 1484 4856 
L 1984 4856 
z
" transform="scale(0.015625)"/>
       <path id="DejaVuSans-Oblique-78" d="M 3841 3500 
L 2234 1784 
L 3219 0 
L 2559 0 
L 1819 1388 
L 531 0 
L -166 0 
L 1556 1844 
L 641 3500 
L 1300 3500 
L 1972 2234 
L 3144 3500 
L 3841 3500 
z
" transform="scale(0.015625)"/>
       <path id="DejaVuSans-29" d="M 513 4856 
L 1013 4856 
Q 1481 4119 1714 3412 
Q 1947 2706 1947 2009 
Q 1947 1309 1714 600 
Q 1481 -109 1013 -844 
L 513 -844 
Q 928 -128 1133 580 
Q 1338 1288 1338 2009 
Q 1338 2731 1133 3434 
Q 928 4138 513 4856 
z
" transform="scale(0.015625)"/>
      </defs>
      <use xlink:href="#DejaVuSans-6d" transform="translate(0 0.015625)"/>
      <use xlink:href="#DejaVuSans-69" transform="translate(97.412109 0.015625)"/>
      <use xlink:href="#DejaVuSans-6e" transform="translate(125.195312 0.015625)"/>
      <use xlink:href="#DejaVuSans-Oblique-66" transform="translate(221.044597 0.015625)"/>
      <use xlink:href="#DejaVuSans-28" transform="translate(256.249675 0.015625)"/>
      <use xlink:href="#DejaVuSans-Oblique-78" transform="translate(295.263347 0.015625)"/>
      <use xlink:href="#DejaVuSans-29" transform="translate(354.443035 0.015625)"/>
      <use xlink:href="#DejaVuSans-20" transform="translate(393.456707 0.015625)"/>
      <use xlink:href="#DejaVuSans-61" transform="translate(425.243816 0.015625)"/>
      <use xlink:href="#DejaVuSans-66" transform="translate(486.523113 0.015625)"/>
      <use xlink:href="#DejaVuSans-74" transform="translate(521.728191 0.015625)"/>
      <use xlink:href="#DejaVuSans-65" transform="translate(560.937175 0.015625)"/>
      <use xlink:href="#DejaVuSans-72" transform="translate(622.460613 0.015625)"/>
      <use xlink:href="#DejaVuSans-20" transform="translate(663.573894 0.015625)"/>
      <use xlink:href="#DejaVuSans-Oblique-6e" transform="translate(695.361003 0.015625)"/>
      <use xlink:href="#DejaVuSans-20" transform="translate(758.73991 0.015625)"/>
      <use xlink:href="#DejaVuSans-65" transform="translate(790.527019 0.015625)"/>
      <use xlink:href="#DejaVuSans-76" transform="translate(852.050457 0.015625)"/>
      <use xlink:href="#DejaVuSans-61" transform="translate(911.230144 0.015625)"/>
      <use xlink:href="#DejaVuSans-6c" transform="translate(972.509441 0.015625)"/>
      <use xlink:href="#DejaVuSans-75" transform="translate(1000.292644 0.015625)"/>
      <use xlink:href="#DejaVuSans-61" transform="translate(1063.67155 0.015625)"/>
      <use xlink:href="#DejaVuSans-74" transform="translate(1124.950847 0.015625)"/>
      <use xlink:href="#DejaVuSans-69" transform="translate(1164.159832 0.015625)"/>
      <use xlink:href="#DejaVuSans-6f" transform="translate(1191.943035 0.015625)"/>
      <use xlink:href="#DejaVuSans-6e" transform="translate(1253.124675 0.015625)"/>
      <use xlink:href="#DejaVuSans-73" transform="translate(1316.503582 0.015625)"/>
     </g>
    </g>
   </g>
   <g id="line2d_23">
    <path d="M 67.301847 153.587459 
L 70.364657 153.587459 
L 73.427467 153.587459 
L 76.490278 153.587459 
L 79.553088 175.758026 
L 82.615898 175.758026 
L 85.678709 175.758026 
L 88.741519 175.758026 
L 91.804329 175.758026 
L 94.86714 175.758026 
L 97.92995 175.758026 
L 100.99276 175.758026 
L 104.055571 175.758026 
L 107.118381 175.758026 
L 110.181192 175.758026 
L 113.244002 216.532874 
L 116.306812 291.783494 
L 119.369623 291.783494 
L 122.432433 291.783494 
L 125.495243 291.783494 
L 128.558054 291.783494 
L 131.620864 291.783494 
L 134.683674 291.783494 
L 137.746485 291.783494 
L 140.809295 291.783494 
L 143.872105 291.783494 
L 146.934916 291.783494 
L 149.997726 291.783494 
L 153.060536 291.783494 
L 156.123347 291.783494 
L 159.186157 291.783494 
L 162.248967 291.783494 
L 165.311778 291.783494 
L 168.374588 291.783494 
L 171.437399 291.783494 
L 174.500209 291.783494 
L 177.563019 291.783494 
L 180.62583 291.783494 
L 183.68864 291.783494 
L 186.75145 291.783494 
L 189.814261 291.783494 
L 192.877071 291.783494 
L 195.939881 291.783494 
L 199.002692 291.783494 
L 202.065502 291.783494 
L 205.128312 291.783494 
L 208.191123 291.783494 
" clip-path="url(#p460c9f48eb)" style="fill: none; stroke-dasharray: 7.4,3.2; stroke-dashoffset: 0; stroke: #1f77b4; stroke-opacity: 0.7; stroke-width: 2"/>
    <defs>
     <path id="med394a1a73" d="M 0 3 
C 0.795609 3 1.55874 2.683901 2.12132 2.12132 
C 2.683901 1.55874 3 0.795609 3 0 
C 3 -0.795609 2.683901 -1.55874 2.12132 -2.12132 
C 1.55874 -2.683901 0.795609 -3 0 -3 
C -0.795609 -3 -1.55874 -2.683901 -2.12132 -2.12132 
C -2.683901 -1.55874 -3 -0.795609 -3 0 
C -3 0.795609 -2.683901 1.55874 -2.12132 2.12132 
C -1.55874 2.683901 -0.795609 3 0 3 
z
" style="stroke: #1f77b4; stroke-opacity: 0.7"/>
    </defs>
    <g clip-path="url(#p460c9f48eb)">
     <use xlink:href="#med394a1a73" x="97.92995" y="175.758026" style="fill: #1f77b4; fill-opacity: 0.7; stroke: #1f77b4; stroke-opacity: 0.7"/>
     <use xlink:href="#med394a1a73" x="116.306812" y="291.783494" style="fill: #1f77b4; fill-opacity: 0.7; stroke: #1f77b4; stroke-opacity: 0.7"/>
     <use xlink:href="#med394a1a73" x="180.62583" y="291.783494" style="fill: #1f77b4; fill-opacity: 0.7; stroke: #1f77b4; stroke-opacity: 0.7"/>
    </g>
   </g>
   <g id="line2d_24">
    <path d="M 67.301847 143.264602 
L 70.364657 143.264602 
L 73.427467 143.264602 
L 76.490278 149.422976 
L 79.553088 149.422976 
L 82.615898 149.422976 
L 85.678709 149.422976 
L 88.741519 149.422976 
L 91.804329 149.422976 
L 94.86714 149.422976 
L 97.92995 149.422976 
L 100.99276 149.422976 
L 104.055571 149.422976 
L 107.118381 227.156839 
L 110.181192 227.156839 
L 113.244002 227.156839 
L 116.306812 227.156839 
L 119.369623 227.156839 
L 122.432433 227.156839 
L 125.495243 227.156839 
L 128.558054 227.156839 
L 131.620864 227.156839 
L 134.683674 227.156839 
L 137.746485 227.156839 
L 140.809295 227.156839 
L 143.872105 227.156839 
L 146.934916 227.156839 
L 149.997726 227.156839 
L 153.060536 227.156839 
L 156.123347 227.156839 
L 159.186157 227.156839 
L 162.248967 227.156839 
L 165.311778 227.156839 
L 168.374588 227.156839 
L 171.437399 227.156839 
L 174.500209 227.156839 
L 177.563019 227.156839 
L 180.62583 227.156839 
L 183.68864 227.156839 
L 186.75145 227.156839 
L 189.814261 266.012914 
L 192.877071 266.012914 
L 195.939881 266.012914 
L 199.002692 266.012914 
L 202.065502 266.012914 
L 205.128312 266.012914 
L 208.191123 266.012914 
L 211.253933 266.012914 
L 214.316743 266.012914 
L 217.379554 266.012914 
L 220.442364 266.012914 
L 223.505175 266.012914 
L 226.567985 266.012914 
L 229.630795 266.012914 
L 232.693606 266.012914 
L 235.756416 266.012914 
L 238.819226 266.012914 
L 241.882037 266.012914 
L 244.944847 266.012914 
L 248.007657 266.012914 
L 251.070468 266.012914 
L 254.133278 266.012914 
L 257.196088 266.012914 
L 260.258899 266.012914 
L 263.321709 266.012914 
L 266.384519 266.012914 
L 269.44733 266.012914 
L 272.51014 266.012914 
L 275.57295 266.012914 
L 278.635761 266.012914 
L 281.698571 266.012914 
L 284.761382 266.012914 
L 287.824192 266.012914 
L 290.887002 266.012914 
L 293.949813 266.012914 
L 297.012623 266.012914 
L 300.075433 266.012914 
L 303.138244 266.012914 
L 306.201054 266.012914 
L 309.263864 266.012914 
L 312.326675 266.012914 
L 315.389485 266.012914 
L 318.452295 266.012914 
L 321.515106 266.012914 
L 324.577916 266.012914 
L 327.640726 266.012914 
L 330.703537 266.012914 
L 333.766347 266.012914 
L 336.829158 266.012914 
L 339.891968 266.012914 
L 342.954778 266.012914 
L 346.017589 266.012914 
L 349.080399 266.012914 
L 352.143209 266.012914 
L 355.20602 266.012914 
L 358.26883 266.012914 
L 361.33164 266.012914 
L 364.394451 266.012914 
L 367.457261 266.012914 
L 370.520071 266.012914 
L 373.582882 266.012914 
L 376.645692 266.012914 
L 379.708502 266.012914 
L 382.771313 266.012914 
L 385.834123 266.012914 
L 388.896933 266.012914 
L 391.959744 266.012914 
L 395.022554 266.012914 
L 398.085365 266.012914 
L 401.148175 266.012914 
L 404.210985 266.012914 
L 407.273796 266.012914 
L 410.336606 266.012914 
L 413.399416 266.012914 
L 416.462227 266.012914 
L 419.525037 266.012914 
L 422.587847 266.012914 
L 425.650658 266.012914 
L 428.713468 266.012914 
L 431.776278 266.012914 
" clip-path="url(#p460c9f48eb)" style="fill: none; stroke-dasharray: 7.4,3.2; stroke-dashoffset: 0; stroke: #ff7f0e; stroke-opacity: 0.7; stroke-width: 2"/>
    <defs>
     <path id="m06a09ba4d0" d="M -3 3 
L 3 3 
L 3 -3 
L -3 -3 
z
" style="stroke: #ff7f0e; stroke-opacity: 0.7; stroke-linejoin: miter"/>
    </defs>
    <g clip-path="url(#p460c9f48eb)">
     <use xlink:href="#m06a09ba4d0" x="104.055571" y="149.422976" style="fill: #ff7f0e; fill-opacity: 0.7; stroke: #ff7f0e; stroke-opacity: 0.7; stroke-linejoin: miter"/>
     <use xlink:href="#m06a09ba4d0" x="159.186157" y="227.156839" style="fill: #ff7f0e; fill-opacity: 0.7; stroke: #ff7f0e; stroke-opacity: 0.7; stroke-linejoin: miter"/>
     <use xlink:href="#m06a09ba4d0" x="220.442364" y="266.012914" style="fill: #ff7f0e; fill-opacity: 0.7; stroke: #ff7f0e; stroke-opacity: 0.7; stroke-linejoin: miter"/>
     <use xlink:href="#m06a09ba4d0" x="318.452295" y="266.012914" style="fill: #ff7f0e; fill-opacity: 0.7; stroke: #ff7f0e; stroke-opacity: 0.7; stroke-linejoin: miter"/>
     <use xlink:href="#m06a09ba4d0" x="416.462227" y="266.012914" style="fill: #ff7f0e; fill-opacity: 0.7; stroke: #ff7f0e; stroke-opacity: 0.7; stroke-linejoin: miter"/>
    </g>
   </g>
   <g id="line2d_25">
    <path d="M 67.301847 38.578381 
L 70.364657 270.775229 
L 73.427467 270.775229 
L 76.490278 270.775229 
L 79.553088 270.775229 
L 82.615898 270.775229 
L 85.678709 270.775229 
L 88.741519 270.775229 
L 91.804329 270.775229 
L 94.86714 270.775229 
L 97.92995 270.775229 
L 100.99276 270.775229 
L 104.055571 270.775229 
L 107.118381 270.775229 
L 110.181192 270.775229 
L 113.244002 270.775229 
L 116.306812 270.775229 
L 119.369623 270.775229 
L 122.432433 270.775229 
L 125.495243 270.775229 
L 128.558054 270.775229 
L 131.620864 270.775229 
L 134.683674 270.775229 
L 137.746485 270.775229 
L 140.809295 270.775229 
L 143.872105 270.775229 
L 146.934916 270.775229 
L 149.997726 270.775229 
L 153.060536 270.775229 
L 156.123347 270.775229 
L 159.186157 270.775229 
L 162.248967 270.775229 
L 165.311778 270.775229 
L 168.374588 270.775229 
L 171.437399 270.775229 
L 174.500209 270.775229 
L 177.563019 270.775229 
L 180.62583 270.775229 
L 183.68864 270.775229 
L 186.75145 270.775229 
L 189.814261 270.775229 
L 192.877071 270.775229 
L 195.939881 270.775229 
L 199.002692 270.775229 
L 202.065502 270.775229 
L 205.128312 270.775229 
L 208.191123 270.775229 
L 211.253933 270.775229 
L 214.316743 270.775229 
L 217.379554 270.775229 
L 220.442364 270.775229 
L 223.505175 270.775229 
L 226.567985 271.543858 
L 229.630795 271.543858 
L 232.693606 271.543858 
L 235.756416 271.543858 
L 238.819226 271.543858 
L 241.882037 271.543858 
L 244.944847 271.543858 
L 248.007657 271.543858 
L 251.070468 271.543858 
L 254.133278 271.543858 
L 257.196088 271.543858 
L 260.258899 271.543858 
L 263.321709 271.543858 
L 266.384519 271.543858 
L 269.44733 271.543858 
L 272.51014 271.543858 
L 275.57295 271.543858 
L 278.635761 271.543858 
L 281.698571 271.543858 
L 284.761382 271.543858 
L 287.824192 271.543858 
L 290.887002 271.543858 
L 293.949813 271.543858 
L 297.012623 271.543858 
L 300.075433 271.543858 
L 303.138244 271.543858 
L 306.201054 271.543858 
L 309.263864 271.543858 
L 312.326675 271.543858 
L 315.389485 271.543858 
L 318.452295 271.543858 
L 321.515106 271.543858 
L 324.577916 271.543858 
L 327.640726 271.543858 
L 330.703537 271.543858 
L 333.766347 271.543858 
L 336.829158 271.543858 
L 339.891968 271.543858 
L 342.954778 271.543858 
L 346.017589 271.543858 
L 349.080399 271.543858 
L 352.143209 271.543858 
L 355.20602 271.543858 
L 358.26883 271.543858 
L 361.33164 271.543858 
L 364.394451 271.543858 
L 367.457261 271.543858 
L 370.520071 271.543858 
L 373.582882 285.992598 
L 376.645692 290.714209 
L 379.708502 290.714209 
L 382.771313 291.776854 
L 385.834123 291.776854 
L 388.896933 291.776854 
L 391.959744 291.776854 
L 395.022554 291.776854 
L 398.085365 291.776854 
L 401.148175 291.776854 
L 404.210985 291.776854 
L 407.273796 291.776854 
L 410.336606 291.776854 
L 413.399416 291.776854 
" clip-path="url(#p460c9f48eb)" style="fill: none; stroke-dasharray: 7.4,3.2; stroke-dashoffset: 0; stroke: #2ca02c; stroke-opacity: 0.7; stroke-width: 2"/>
    <defs>
     <path id="m00c9927e5b" d="M -3 3 
L 3 -3 
M -3 -3 
L 3 3 
" style="stroke: #2ca02c; stroke-opacity: 0.7"/>
    </defs>
    <g clip-path="url(#p460c9f48eb)">
     <use xlink:href="#m00c9927e5b" x="67.301847" y="38.578381" style="fill: #2ca02c; fill-opacity: 0.7; stroke: #2ca02c; stroke-opacity: 0.7"/>
     <use xlink:href="#m00c9927e5b" x="70.364657" y="270.775229" style="fill: #2ca02c; fill-opacity: 0.7; stroke: #2ca02c; stroke-opacity: 0.7"/>
     <use xlink:href="#m00c9927e5b" x="131.620864" y="270.775229" style="fill: #2ca02c; fill-opacity: 0.7; stroke: #2ca02c; stroke-opacity: 0.7"/>
     <use xlink:href="#m00c9927e5b" x="229.630795" y="271.543858" style="fill: #2ca02c; fill-opacity: 0.7; stroke: #2ca02c; stroke-opacity: 0.7"/>
     <use xlink:href="#m00c9927e5b" x="327.640726" y="271.543858" style="fill: #2ca02c; fill-opacity: 0.7; stroke: #2ca02c; stroke-opacity: 0.7"/>
     <use xlink:href="#m00c9927e5b" x="410.336606" y="291.776854" style="fill: #2ca02c; fill-opacity: 0.7; stroke: #2ca02c; stroke-opacity: 0.7"/>
    </g>
   </g>
   <g id="line2d_26">
    <path d="M 49.078125 291.783494 
L 450 291.783494 
" clip-path="url(#p460c9f48eb)" style="fill: none; stroke-dasharray: 3.7,1.6; stroke-dashoffset: 0; stroke: #000000"/>
   </g>
   <g id="patch_3">
    <path d="M 49.078125 304.44375 
L 49.078125 25.918125 
" style="fill: none; stroke: #000000; stroke-width: 0.8; stroke-linejoin: miter; stroke-linecap: square"/>
   </g>
   <g id="patch_4">
    <path d="M 450 304.44375 
L 450 25.918125 
" style="fill: none; stroke: #000000; stroke-width: 0.8; stroke-linejoin: miter; stroke-linecap: square"/>
   </g>
   <g id="patch_5">
    <path d="M 49.078125 304.44375 
L 450 304.44375 
" style="fill: none; stroke: #000000; stroke-width: 0.8; stroke-linejoin: miter; stroke-linecap: square"/>
   </g>
   <g id="patch_6">
    <path d="M 49.078125 25.918125 
L 450 25.918125 
" style="fill: none; stroke: #000000; stroke-width: 0.8; stroke-linejoin: miter; stroke-linecap: square"/>
   </g>
   <g id="text_14">
    <!-- Convergence -->
    <g transform="translate(209.976562 19.918125) scale(0.12 -0.12)">
     <defs>
      <path id="DejaVuSans-43" d="M 4122 4306 
L 4122 3641 
Q 3803 3938 3442 4084 
Q 3081 4231 2675 4231 
Q 1875 4231 1450 3742 
Q 1025 3253 1025 2328 
Q 1025 1406 1450 917 
Q 1875 428 2675 428 
Q 3081 428 3442 575 
Q 3803 722 4122 1019 
L 4122 359 
Q 3791 134 3420 21 
Q 3050 -91 2638 -91 
Q 1578 -91 968 557 
Q 359 1206 359 2328 
Q 359 3453 968 4101 
Q 1578 4750 2638 4750 
Q 3056 4750 3426 4639 
Q 3797 4528 4122 4306 
z
" transform="scale(0.015625)"/>
      <path id="DejaVuSans-67" d="M 2906 1791 
Q 2906 2416 2648 2759 
Q 2391 3103 1925 3103 
Q 1463 3103 1205 2759 
Q 947 2416 947 1791 
Q 947 1169 1205 825 
Q 1463 481 1925 481 
Q 2391 481 2648 825 
Q 2906 1169 2906 1791 
z
M 3481 434 
Q 3481 -459 3084 -895 
Q 2688 -1331 1869 -1331 
Q 1566 -1331 1297 -1286 
Q 1028 -1241 775 -1147 
L 775 -588 
Q 1028 -725 1275 -790 
Q 1522 -856 1778 -856 
Q 2344 -856 2625 -561 
Q 2906 -266 2906 331 
L 2906 616 
Q 2728 306 2450 153 
Q 2172 0 1784 0 
Q 1141 0 747 490 
Q 353 981 353 1791 
Q 353 2603 747 3093 
Q 1141 3584 1784 3584 
Q 2172 3584 2450 3431 
Q 2728 3278 2906 2969 
L 2906 3500 
L 3481 3500 
L 3481 434 
z
" transform="scale(0.015625)"/>
     </defs>
     <use xlink:href="#DejaVuSans-43"/>
     <use xlink:href="#DejaVuSans-6f" x="69.824219"/>
     <use xlink:href="#DejaVuSans-6e" x="131.005859"/>
     <use xlink:href="#DejaVuSans-76" x="194.384766"/>
     <use xlink:href="#DejaVuSans-65" x="253.564453"/>
     <use xlink:href="#DejaVuSans-72" x="315.087891"/>
     <use xlink:href="#DejaVuSans-67" x="354.451172"/>
     <use xlink:href="#DejaVuSans-65" x="417.927734"/>
     <use xlink:href="#DejaVuSans-6e" x="479.451172"/>
     <use xlink:href="#DejaVuSans-63" x="542.830078"/>
     <use xlink:href="#DejaVuSans-65" x="597.810547"/>
    </g>
   </g>
   <g id="legend_1">
    <g id="patch_7">
     <path d="M 329.178125 92.630625 
L 443 92.630625 
Q 445 92.630625 445 90.630625 
L 445 32.918125 
Q 445 30.918125 443 30.918125 
L 329.178125 30.918125 
Q 327.178125 30.918125 327.178125 32.918125 
L 327.178125 90.630625 
Q 327.178125 92.630625 329.178125 92.630625 
z
" style="fill: #ffffff; opacity: 0.8; stroke: #cccccc; stroke-linejoin: miter"/>
    </g>
    <g id="line2d_27">
     <path d="M 331.178125 39.016562 
L 341.178125 39.016562 
L 351.178125 39.016562 
" style="fill: none; stroke-dasharray: 7.4,3.2; stroke-dashoffset: 0; stroke: #1f77b4; stroke-opacity: 0.7; stroke-width: 2"/>
     <g>
      <use xlink:href="#med394a1a73" x="341.178125" y="39.016562" style="fill: #1f77b4; fill-opacity: 0.7; stroke: #1f77b4; stroke-opacity: 0.7"/>
     </g>
    </g>
    <g id="text_15">
     <!-- method='shgo' -->
     <g transform="translate(359.178125 42.516562) scale(0.1 -0.1)">
      <defs>
       <path id="DejaVuSans-68" d="M 3513 2113 
L 3513 0 
L 2938 0 
L 2938 2094 
Q 2938 2591 2744 2837 
Q 2550 3084 2163 3084 
Q 1697 3084 1428 2787 
Q 1159 2491 1159 1978 
L 1159 0 
L 581 0 
L 581 4863 
L 1159 4863 
L 1159 2956 
Q 1366 3272 1645 3428 
Q 1925 3584 2291 3584 
Q 2894 3584 3203 3211 
Q 3513 2838 3513 2113 
z
" transform="scale(0.015625)"/>
       <path id="DejaVuSans-64" d="M 2906 2969 
L 2906 4863 
L 3481 4863 
L 3481 0 
L 2906 0 
L 2906 525 
Q 2725 213 2448 61 
Q 2172 -91 1784 -91 
Q 1150 -91 751 415 
Q 353 922 353 1747 
Q 353 2572 751 3078 
Q 1150 3584 1784 3584 
Q 2172 3584 2448 3432 
Q 2725 3281 2906 2969 
z
M 947 1747 
Q 947 1113 1208 752 
Q 1469 391 1925 391 
Q 2381 391 2643 752 
Q 2906 1113 2906 1747 
Q 2906 2381 2643 2742 
Q 2381 3103 1925 3103 
Q 1469 3103 1208 2742 
Q 947 2381 947 1747 
z
" transform="scale(0.015625)"/>
       <path id="DejaVuSans-3d" d="M 678 2906 
L 4684 2906 
L 4684 2381 
L 678 2381 
L 678 2906 
z
M 678 1631 
L 4684 1631 
L 4684 1100 
L 678 1100 
L 678 1631 
z
" transform="scale(0.015625)"/>
       <path id="DejaVuSans-27" d="M 1147 4666 
L 1147 2931 
L 616 2931 
L 616 4666 
L 1147 4666 
z
" transform="scale(0.015625)"/>
      </defs>
      <use xlink:href="#DejaVuSans-6d"/>
      <use xlink:href="#DejaVuSans-65" x="97.412109"/>
      <use xlink:href="#DejaVuSans-74" x="158.935547"/>
      <use xlink:href="#DejaVuSans-68" x="198.144531"/>
      <use xlink:href="#DejaVuSans-6f" x="261.523438"/>
      <use xlink:href="#DejaVuSans-64" x="322.705078"/>
      <use xlink:href="#DejaVuSans-3d" x="386.181641"/>
      <use xlink:href="#DejaVuSans-27" x="469.970703"/>
      <use xlink:href="#DejaVuSans-73" x="497.460938"/>
      <use xlink:href="#DejaVuSans-68" x="549.560547"/>
      <use xlink:href="#DejaVuSans-67" x="612.939453"/>
      <use xlink:href="#DejaVuSans-6f" x="676.416016"/>
      <use xlink:href="#DejaVuSans-27" x="737.597656"/>
     </g>
    </g>
    <g id="line2d_28">
     <path d="M 331.178125 53.694687 
L 341.178125 53.694687 
L 351.178125 53.694687 
" style="fill: none; stroke-dasharray: 7.4,3.2; stroke-dashoffset: 0; stroke: #ff7f0e; stroke-opacity: 0.7; stroke-width: 2"/>
     <g>
      <use xlink:href="#m06a09ba4d0" x="341.178125" y="53.694687" style="fill: #ff7f0e; fill-opacity: 0.7; stroke: #ff7f0e; stroke-opacity: 0.7; stroke-linejoin: miter"/>
     </g>
    </g>
    <g id="text_16">
     <!-- method='sceua' -->
     <g transform="translate(359.178125 57.194687) scale(0.1 -0.1)">
      <use xlink:href="#DejaVuSans-6d"/>
      <use xlink:href="#DejaVuSans-65" x="97.412109"/>
      <use xlink:href="#DejaVuSans-74" x="158.935547"/>
      <use xlink:href="#DejaVuSans-68" x="198.144531"/>
      <use xlink:href="#DejaVuSans-6f" x="261.523438"/>
      <use xlink:href="#DejaVuSans-64" x="322.705078"/>
      <use xlink:href="#DejaVuSans-3d" x="386.181641"/>
      <use xlink:href="#DejaVuSans-27" x="469.970703"/>
      <use xlink:href="#DejaVuSans-73" x="497.460938"/>
      <use xlink:href="#DejaVuSans-63" x="549.560547"/>
      <use xlink:href="#DejaVuSans-65" x="604.541016"/>
      <use xlink:href="#DejaVuSans-75" x="666.064453"/>
      <use xlink:href="#DejaVuSans-61" x="729.443359"/>
      <use xlink:href="#DejaVuSans-27" x="790.722656"/>
     </g>
    </g>
    <g id="line2d_29">
     <path d="M 331.178125 68.372812 
L 341.178125 68.372812 
L 351.178125 68.372812 
" style="fill: none; stroke-dasharray: 7.4,3.2; stroke-dashoffset: 0; stroke: #2ca02c; stroke-opacity: 0.7; stroke-width: 2"/>
     <g>
      <use xlink:href="#m00c9927e5b" x="341.178125" y="68.372812" style="fill: #2ca02c; fill-opacity: 0.7; stroke: #2ca02c; stroke-opacity: 0.7"/>
     </g>
    </g>
    <g id="text_17">
     <!-- method='smbo' -->
     <g transform="translate(359.178125 71.872812) scale(0.1 -0.1)">
      <use xlink:href="#DejaVuSans-6d"/>
      <use xlink:href="#DejaVuSans-65" x="97.412109"/>
      <use xlink:href="#DejaVuSans-74" x="158.935547"/>
      <use xlink:href="#DejaVuSans-68" x="198.144531"/>
      <use xlink:href="#DejaVuSans-6f" x="261.523438"/>
      <use xlink:href="#DejaVuSans-64" x="322.705078"/>
      <use xlink:href="#DejaVuSans-3d" x="386.181641"/>
      <use xlink:href="#DejaVuSans-27" x="469.970703"/>
      <use xlink:href="#DejaVuSans-73" x="497.460938"/>
      <use xlink:href="#DejaVuSans-6d" x="549.560547"/>
      <use xlink:href="#DejaVuSans-62" x="646.972656"/>
      <use xlink:href="#DejaVuSans-6f" x="710.449219"/>
      <use xlink:href="#DejaVuSans-27" x="771.630859"/>
     </g>
    </g>
    <g id="line2d_30">
     <path d="M 331.178125 83.050937 
L 341.178125 83.050937 
L 351.178125 83.050937 
" style="fill: none; stroke-dasharray: 3.7,1.6; stroke-dashoffset: 0; stroke: #000000"/>
    </g>
    <g id="text_18">
     <!-- True minimum -->
     <g transform="translate(359.178125 86.550937) scale(0.1 -0.1)">
      <defs>
       <path id="DejaVuSans-54" d="M -19 4666 
L 3928 4666 
L 3928 4134 
L 2272 4134 
L 2272 0 
L 1638 0 
L 1638 4134 
L -19 4134 
L -19 4666 
z
" transform="scale(0.015625)"/>
      </defs>
      <use xlink:href="#DejaVuSans-54"/>
      <use xlink:href="#DejaVuSans-72" x="46.333984"/>
      <use xlink:href="#DejaVuSans-75" x="87.447266"/>
      <use xlink:href="#DejaVuSans-65" x="150.826172"/>
      <use xlink:href="#DejaVuSans-20" x="212.349609"/>
      <use xlink:href="#DejaVuSans-6d" x="244.136719"/>
      <use xlink:href="#DejaVuSans-69" x="341.548828"/>
      <use xlink:href="#DejaVuSans-6e" x="369.332031"/>
      <use xlink:href="#DejaVuSans-69" x="432.710938"/>
      <use xlink:href="#DejaVuSans-6d" x="460.494141"/>
      <use xlink:href="#DejaVuSans-75" x="557.90625"/>
      <use xlink:href="#DejaVuSans-6d" x="621.285156"/>
     </g>
    </g>
   </g>
  </g>
 </g>
 <defs>
  <clipPath id="p460c9f48eb">
   <rect x="49.078125" y="25.918125" width="400.921875" height="278.525625"/>
  </clipPath>
 </defs>
</svg>
