<?xml version="1.0" encoding="utf-8" standalone="no"?>
<!DOCTYPE svg PUBLIC "-//W3C//DTD SVG 1.1//EN"
  "http://www.w3.org/Graphics/SVG/1.1/DTD/svg11.dtd">
<svg xmlns:xlink="http://www.w3.org/1999/xlink" width="460.8pt" height="345.6pt" viewBox="0 0 460.8 345.6" xmlns="http://www.w3.org/2000/svg" version="1.1">
 <metadata>
  <rdf:RDF xmlns:dc="http://purl.org/dc/elements/1.1/" xmlns:cc="http://creativecommons.org/ns#" xmlns:rdf="http://www.w3.org/1999/02/22-rdf-syntax-ns#">
   <cc:Work>
    <dc:type rdf:resource="http://purl.org/dc/dcmitype/StillImage"/>
    <dc:date>2024-12-21T01:25:57.764919</dc:date>
    <dc:format>image/svg+xml</dc:format>
    <dc:creator>
     <cc:Agent>
      <dc:title>Matplotlib v3.9.2, https://matplotlib.org/</dc:title>
     </cc:Agent>
    </dc:creator>
   </cc:Work>
  </rdf:RDF>
 </metadata>
 <defs>
  <style type="text/css">*{stroke-linejoin: round; stroke-linecap: butt}</style>
 </defs>
 <g id="figure_1">
  <g id="patch_1">
   <path d="M 0 345.6 
L 460.8 345.6 
L 460.8 0 
L 0 0 
z
" style="fill: #ffffff"/>
  </g>
  <g id="axes_1">
   <g id="patch_2">
    <path d="M 44.203125 304.44375 
L 450 304.44375 
L 450 25.918125 
L 44.203125 25.918125 
z
" style="fill: #ffffff"/>
   </g>
   <g id="matplotlib.axis_1">
    <g id="xtick_1">
     <g id="line2d_1">
      <path d="M 56.287985 304.44375 
L 56.287985 25.918125 
" clip-path="url(#p47c403346c)" style="fill: none; stroke: #b0b0b0; stroke-width: 0.8; stroke-linecap: square"/>
     </g>
     <g id="line2d_2">
      <defs>
       <path id="m7339b4734a" d="M 0 0 
L 0 3.5 
" style="stroke: #000000; stroke-width: 0.8"/>
      </defs>
      <g>
       <use xlink:href="#m7339b4734a" x="56.287985" y="304.44375" style="stroke: #000000; stroke-width: 0.8"/>
      </g>
     </g>
     <g id="text_1">
      <!-- 0 -->
      <g transform="translate(53.106735 319.042187) scale(0.1 -0.1)">
       <defs>
        <path id="DejaVuSans-30" d="M 2034 4250 
Q 1547 4250 1301 3770 
Q 1056 3291 1056 2328 
Q 1056 1369 1301 889 
Q 1547 409 2034 409 
Q 2525 409 2770 889 
Q 3016 1369 3016 2328 
Q 3016 3291 2770 3770 
Q 2525 4250 2034 4250 
z
M 2034 4750 
Q 2819 4750 3233 4129 
Q 3647 3509 3647 2328 
Q 3647 1150 3233 529 
Q 2819 -91 2034 -91 
Q 1250 -91 836 529 
Q 422 1150 422 2328 
Q 422 3509 836 4129 
Q 1250 4750 2034 4750 
z
" transform="scale(0.015625)"/>
       </defs>
       <use xlink:href="#DejaVuSans-30"/>
      </g>
     </g>
    </g>
    <g id="xtick_2">
     <g id="line2d_3">
      <path d="M 119.892511 304.44375 
L 119.892511 25.918125 
" clip-path="url(#p47c403346c)" style="fill: none; stroke: #b0b0b0; stroke-width: 0.8; stroke-linecap: square"/>
     </g>
     <g id="line2d_4">
      <g>
       <use xlink:href="#m7339b4734a" x="119.892511" y="304.44375" style="stroke: #000000; stroke-width: 0.8"/>
      </g>
     </g>
     <g id="text_2">
      <!-- 10 -->
      <g transform="translate(113.530011 319.042187) scale(0.1 -0.1)">
       <defs>
        <path id="DejaVuSans-31" d="M 794 531 
L 1825 531 
L 1825 4091 
L 703 3866 
L 703 4441 
L 1819 4666 
L 2450 4666 
L 2450 531 
L 3481 531 
L 3481 0 
L 794 0 
L 794 531 
z
" transform="scale(0.015625)"/>
       </defs>
       <use xlink:href="#DejaVuSans-31"/>
       <use xlink:href="#DejaVuSans-30" x="63.623047"/>
      </g>
     </g>
    </g>
    <g id="xtick_3">
     <g id="line2d_5">
      <path d="M 183.497037 304.44375 
L 183.497037 25.918125 
" clip-path="url(#p47c403346c)" style="fill: none; stroke: #b0b0b0; stroke-width: 0.8; stroke-linecap: square"/>
     </g>
     <g id="line2d_6">
      <g>
       <use xlink:href="#m7339b4734a" x="183.497037" y="304.44375" style="stroke: #000000; stroke-width: 0.8"/>
      </g>
     </g>
     <g id="text_3">
      <!-- 20 -->
      <g transform="translate(177.134537 319.042187) scale(0.1 -0.1)">
       <defs>
        <path id="DejaVuSans-32" d="M 1228 531 
L 3431 531 
L 3431 0 
L 469 0 
L 469 531 
Q 828 903 1448 1529 
Q 2069 2156 2228 2338 
Q 2531 2678 2651 2914 
Q 2772 3150 2772 3378 
Q 2772 3750 2511 3984 
Q 2250 4219 1831 4219 
Q 1534 4219 1204 4116 
Q 875 4013 500 3803 
L 500 4441 
Q 881 4594 1212 4672 
Q 1544 4750 1819 4750 
Q 2544 4750 2975 4387 
Q 3406 4025 3406 3419 
Q 3406 3131 3298 2873 
Q 3191 2616 2906 2266 
Q 2828 2175 2409 1742 
Q 1991 1309 1228 531 
z
" transform="scale(0.015625)"/>
       </defs>
       <use xlink:href="#DejaVuSans-32"/>
       <use xlink:href="#DejaVuSans-30" x="63.623047"/>
      </g>
     </g>
    </g>
    <g id="xtick_4">
     <g id="line2d_7">
      <path d="M 247.101563 304.44375 
L 247.101563 25.918125 
" clip-path="url(#p47c403346c)" style="fill: none; stroke: #b0b0b0; stroke-width: 0.8; stroke-linecap: square"/>
     </g>
     <g id="line2d_8">
      <g>
       <use xlink:href="#m7339b4734a" x="247.101563" y="304.44375" style="stroke: #000000; stroke-width: 0.8"/>
      </g>
     </g>
     <g id="text_4">
      <!-- 30 -->
      <g transform="translate(240.739063 319.042187) scale(0.1 -0.1)">
       <defs>
        <path id="DejaVuSans-33" d="M 2597 2516 
Q 3050 2419 3304 2112 
Q 3559 1806 3559 1356 
Q 3559 666 3084 287 
Q 2609 -91 1734 -91 
Q 1441 -91 1130 -33 
Q 819 25 488 141 
L 488 750 
Q 750 597 1062 519 
Q 1375 441 1716 441 
Q 2309 441 2620 675 
Q 2931 909 2931 1356 
Q 2931 1769 2642 2001 
Q 2353 2234 1838 2234 
L 1294 2234 
L 1294 2753 
L 1863 2753 
Q 2328 2753 2575 2939 
Q 2822 3125 2822 3475 
Q 2822 3834 2567 4026 
Q 2313 4219 1838 4219 
Q 1578 4219 1281 4162 
Q 984 4106 628 3988 
L 628 4550 
Q 988 4650 1302 4700 
Q 1616 4750 1894 4750 
Q 2613 4750 3031 4423 
Q 3450 4097 3450 3541 
Q 3450 3153 3228 2886 
Q 3006 2619 2597 2516 
z
" transform="scale(0.015625)"/>
       </defs>
       <use xlink:href="#DejaVuSans-33"/>
       <use xlink:href="#DejaVuSans-30" x="63.623047"/>
      </g>
     </g>
    </g>
    <g id="xtick_5">
     <g id="line2d_9">
      <path d="M 310.706088 304.44375 
L 310.706088 25.918125 
" clip-path="url(#p47c403346c)" style="fill: none; stroke: #b0b0b0; stroke-width: 0.8; stroke-linecap: square"/>
     </g>
     <g id="line2d_10">
      <g>
       <use xlink:href="#m7339b4734a" x="310.706088" y="304.44375" style="stroke: #000000; stroke-width: 0.8"/>
      </g>
     </g>
     <g id="text_5">
      <!-- 40 -->
      <g transform="translate(304.343588 319.042187) scale(0.1 -0.1)">
       <defs>
        <path id="DejaVuSans-34" d="M 2419 4116 
L 825 1625 
L 2419 1625 
L 2419 4116 
z
M 2253 4666 
L 3047 4666 
L 3047 1625 
L 3713 1625 
L 3713 1100 
L 3047 1100 
L 3047 0 
L 2419 0 
L 2419 1100 
L 313 1100 
L 313 1709 
L 2253 4666 
z
" transform="scale(0.015625)"/>
       </defs>
       <use xlink:href="#DejaVuSans-34"/>
       <use xlink:href="#DejaVuSans-30" x="63.623047"/>
      </g>
     </g>
    </g>
    <g id="xtick_6">
     <g id="line2d_11">
      <path d="M 374.310614 304.44375 
L 374.310614 25.918125 
" clip-path="url(#p47c403346c)" style="fill: none; stroke: #b0b0b0; stroke-width: 0.8; stroke-linecap: square"/>
     </g>
     <g id="line2d_12">
      <g>
       <use xlink:href="#m7339b4734a" x="374.310614" y="304.44375" style="stroke: #000000; stroke-width: 0.8"/>
      </g>
     </g>
     <g id="text_6">
      <!-- 50 -->
      <g transform="translate(367.948114 319.042187) scale(0.1 -0.1)">
       <defs>
        <path id="DejaVuSans-35" d="M 691 4666 
L 3169 4666 
L 3169 4134 
L 1269 4134 
L 1269 2991 
Q 1406 3038 1543 3061 
Q 1681 3084 1819 3084 
Q 2600 3084 3056 2656 
Q 3513 2228 3513 1497 
Q 3513 744 3044 326 
Q 2575 -91 1722 -91 
Q 1428 -91 1123 -41 
Q 819 9 494 109 
L 494 744 
Q 775 591 1075 516 
Q 1375 441 1709 441 
Q 2250 441 2565 725 
Q 2881 1009 2881 1497 
Q 2881 1984 2565 2268 
Q 2250 2553 1709 2553 
Q 1456 2553 1204 2497 
Q 953 2441 691 2322 
L 691 4666 
z
" transform="scale(0.015625)"/>
       </defs>
       <use xlink:href="#DejaVuSans-35"/>
       <use xlink:href="#DejaVuSans-30" x="63.623047"/>
      </g>
     </g>
    </g>
    <g id="xtick_7">
     <g id="line2d_13">
      <path d="M 437.91514 304.44375 
L 437.91514 25.918125 
" clip-path="url(#p47c403346c)" style="fill: none; stroke: #b0b0b0; stroke-width: 0.8; stroke-linecap: square"/>
     </g>
     <g id="line2d_14">
      <g>
       <use xlink:href="#m7339b4734a" x="437.91514" y="304.44375" style="stroke: #000000; stroke-width: 0.8"/>
      </g>
     </g>
     <g id="text_7">
      <!-- 60 -->
      <g transform="translate(431.55264 319.042187) scale(0.1 -0.1)">
       <defs>
        <path id="DejaVuSans-36" d="M 2113 2584 
Q 1688 2584 1439 2293 
Q 1191 2003 1191 1497 
Q 1191 994 1439 701 
Q 1688 409 2113 409 
Q 2538 409 2786 701 
Q 3034 994 3034 1497 
Q 3034 2003 2786 2293 
Q 2538 2584 2113 2584 
z
M 3366 4563 
L 3366 3988 
Q 3128 4100 2886 4159 
Q 2644 4219 2406 4219 
Q 1781 4219 1451 3797 
Q 1122 3375 1075 2522 
Q 1259 2794 1537 2939 
Q 1816 3084 2150 3084 
Q 2853 3084 3261 2657 
Q 3669 2231 3669 1497 
Q 3669 778 3244 343 
Q 2819 -91 2113 -91 
Q 1303 -91 875 529 
Q 447 1150 447 2328 
Q 447 3434 972 4092 
Q 1497 4750 2381 4750 
Q 2619 4750 2861 4703 
Q 3103 4656 3366 4563 
z
" transform="scale(0.015625)"/>
       </defs>
       <use xlink:href="#DejaVuSans-36"/>
       <use xlink:href="#DejaVuSans-30" x="63.623047"/>
      </g>
     </g>
    </g>
    <g id="text_8">
     <!-- Number of function evaluations $n$ -->
     <g transform="translate(163.301562 332.720312) scale(0.1 -0.1)">
      <defs>
       <path id="DejaVuSans-4e" d="M 628 4666 
L 1478 4666 
L 3547 763 
L 3547 4666 
L 4159 4666 
L 4159 0 
L 3309 0 
L 1241 3903 
L 1241 0 
L 628 0 
L 628 4666 
z
" transform="scale(0.015625)"/>
       <path id="DejaVuSans-75" d="M 544 1381 
L 544 3500 
L 1119 3500 
L 1119 1403 
Q 1119 906 1312 657 
Q 1506 409 1894 409 
Q 2359 409 2629 706 
Q 2900 1003 2900 1516 
L 2900 3500 
L 3475 3500 
L 3475 0 
L 2900 0 
L 2900 538 
Q 2691 219 2414 64 
Q 2138 -91 1772 -91 
Q 1169 -91 856 284 
Q 544 659 544 1381 
z
M 1991 3584 
L 1991 3584 
z
" transform="scale(0.015625)"/>
       <path id="DejaVuSans-6d" d="M 3328 2828 
Q 3544 3216 3844 3400 
Q 4144 3584 4550 3584 
Q 5097 3584 5394 3201 
Q 5691 2819 5691 2113 
L 5691 0 
L 5113 0 
L 5113 2094 
Q 5113 2597 4934 2840 
Q 4756 3084 4391 3084 
Q 3944 3084 3684 2787 
Q 3425 2491 3425 1978 
L 3425 0 
L 2847 0 
L 2847 2094 
Q 2847 2600 2669 2842 
Q 2491 3084 2119 3084 
Q 1678 3084 1418 2786 
Q 1159 2488 1159 1978 
L 1159 0 
L 581 0 
L 581 3500 
L 1159 3500 
L 1159 2956 
Q 1356 3278 1631 3431 
Q 1906 3584 2284 3584 
Q 2666 3584 2933 3390 
Q 3200 3197 3328 2828 
z
" transform="scale(0.015625)"/>
       <path id="DejaVuSans-62" d="M 3116 1747 
Q 3116 2381 2855 2742 
Q 2594 3103 2138 3103 
Q 1681 3103 1420 2742 
Q 1159 2381 1159 1747 
Q 1159 1113 1420 752 
Q 1681 391 2138 391 
Q 2594 391 2855 752 
Q 3116 1113 3116 1747 
z
M 1159 2969 
Q 1341 3281 1617 3432 
Q 1894 3584 2278 3584 
Q 2916 3584 3314 3078 
Q 3713 2572 3713 1747 
Q 3713 922 3314 415 
Q 2916 -91 2278 -91 
Q 1894 -91 1617 61 
Q 1341 213 1159 525 
L 1159 0 
L 581 0 
L 581 4863 
L 1159 4863 
L 1159 2969 
z
" transform="scale(0.015625)"/>
       <path id="DejaVuSans-65" d="M 3597 1894 
L 3597 1613 
L 953 1613 
Q 991 1019 1311 708 
Q 1631 397 2203 397 
Q 2534 397 2845 478 
Q 3156 559 3463 722 
L 3463 178 
Q 3153 47 2828 -22 
Q 2503 -91 2169 -91 
Q 1331 -91 842 396 
Q 353 884 353 1716 
Q 353 2575 817 3079 
Q 1281 3584 2069 3584 
Q 2775 3584 3186 3129 
Q 3597 2675 3597 1894 
z
M 3022 2063 
Q 3016 2534 2758 2815 
Q 2500 3097 2075 3097 
Q 1594 3097 1305 2825 
Q 1016 2553 972 2059 
L 3022 2063 
z
" transform="scale(0.015625)"/>
       <path id="DejaVuSans-72" d="M 2631 2963 
Q 2534 3019 2420 3045 
Q 2306 3072 2169 3072 
Q 1681 3072 1420 2755 
Q 1159 2438 1159 1844 
L 1159 0 
L 581 0 
L 581 3500 
L 1159 3500 
L 1159 2956 
Q 1341 3275 1631 3429 
Q 1922 3584 2338 3584 
Q 2397 3584 2469 3576 
Q 2541 3569 2628 3553 
L 2631 2963 
z
" transform="scale(0.015625)"/>
       <path id="DejaVuSans-20" transform="scale(0.015625)"/>
       <path id="DejaVuSans-6f" d="M 1959 3097 
Q 1497 3097 1228 2736 
Q 959 2375 959 1747 
Q 959 1119 1226 758 
Q 1494 397 1959 397 
Q 2419 397 2687 759 
Q 2956 1122 2956 1747 
Q 2956 2369 2687 2733 
Q 2419 3097 1959 3097 
z
M 1959 3584 
Q 2709 3584 3137 3096 
Q 3566 2609 3566 1747 
Q 3566 888 3137 398 
Q 2709 -91 1959 -91 
Q 1206 -91 779 398 
Q 353 888 353 1747 
Q 353 2609 779 3096 
Q 1206 3584 1959 3584 
z
" transform="scale(0.015625)"/>
       <path id="DejaVuSans-66" d="M 2375 4863 
L 2375 4384 
L 1825 4384 
Q 1516 4384 1395 4259 
Q 1275 4134 1275 3809 
L 1275 3500 
L 2222 3500 
L 2222 3053 
L 1275 3053 
L 1275 0 
L 697 0 
L 697 3053 
L 147 3053 
L 147 3500 
L 697 3500 
L 697 3744 
Q 697 4328 969 4595 
Q 1241 4863 1831 4863 
L 2375 4863 
z
" transform="scale(0.015625)"/>
       <path id="DejaVuSans-6e" d="M 3513 2113 
L 3513 0 
L 2938 0 
L 2938 2094 
Q 2938 2591 2744 2837 
Q 2550 3084 2163 3084 
Q 1697 3084 1428 2787 
Q 1159 2491 1159 1978 
L 1159 0 
L 581 0 
L 581 3500 
L 1159 3500 
L 1159 2956 
Q 1366 3272 1645 3428 
Q 1925 3584 2291 3584 
Q 2894 3584 3203 3211 
Q 3513 2838 3513 2113 
z
" transform="scale(0.015625)"/>
       <path id="DejaVuSans-63" d="M 3122 3366 
L 3122 2828 
Q 2878 2963 2633 3030 
Q 2388 3097 2138 3097 
Q 1578 3097 1268 2742 
Q 959 2388 959 1747 
Q 959 1106 1268 751 
Q 1578 397 2138 397 
Q 2388 397 2633 464 
Q 2878 531 3122 666 
L 3122 134 
Q 2881 22 2623 -34 
Q 2366 -91 2075 -91 
Q 1284 -91 818 406 
Q 353 903 353 1747 
Q 353 2603 823 3093 
Q 1294 3584 2113 3584 
Q 2378 3584 2631 3529 
Q 2884 3475 3122 3366 
z
" transform="scale(0.015625)"/>
       <path id="DejaVuSans-74" d="M 1172 4494 
L 1172 3500 
L 2356 3500 
L 2356 3053 
L 1172 3053 
L 1172 1153 
Q 1172 725 1289 603 
Q 1406 481 1766 481 
L 2356 481 
L 2356 0 
L 1766 0 
Q 1100 0 847 248 
Q 594 497 594 1153 
L 594 3053 
L 172 3053 
L 172 3500 
L 594 3500 
L 594 4494 
L 1172 4494 
z
" transform="scale(0.015625)"/>
       <path id="DejaVuSans-69" d="M 603 3500 
L 1178 3500 
L 1178 0 
L 603 0 
L 603 3500 
z
M 603 4863 
L 1178 4863 
L 1178 4134 
L 603 4134 
L 603 4863 
z
" transform="scale(0.015625)"/>
       <path id="DejaVuSans-76" d="M 191 3500 
L 800 3500 
L 1894 563 
L 2988 3500 
L 3597 3500 
L 2284 0 
L 1503 0 
L 191 3500 
z
" transform="scale(0.015625)"/>
       <path id="DejaVuSans-61" d="M 2194 1759 
Q 1497 1759 1228 1600 
Q 959 1441 959 1056 
Q 959 750 1161 570 
Q 1363 391 1709 391 
Q 2188 391 2477 730 
Q 2766 1069 2766 1631 
L 2766 1759 
L 2194 1759 
z
M 3341 1997 
L 3341 0 
L 2766 0 
L 2766 531 
Q 2569 213 2275 61 
Q 1981 -91 1556 -91 
Q 1019 -91 701 211 
Q 384 513 384 1019 
Q 384 1609 779 1909 
Q 1175 2209 1959 2209 
L 2766 2209 
L 2766 2266 
Q 2766 2663 2505 2880 
Q 2244 3097 1772 3097 
Q 1472 3097 1187 3025 
Q 903 2953 641 2809 
L 641 3341 
Q 956 3463 1253 3523 
Q 1550 3584 1831 3584 
Q 2591 3584 2966 3190 
Q 3341 2797 3341 1997 
z
" transform="scale(0.015625)"/>
       <path id="DejaVuSans-6c" d="M 603 4863 
L 1178 4863 
L 1178 0 
L 603 0 
L 603 4863 
z
" transform="scale(0.015625)"/>
       <path id="DejaVuSans-73" d="M 2834 3397 
L 2834 2853 
Q 2591 2978 2328 3040 
Q 2066 3103 1784 3103 
Q 1356 3103 1142 2972 
Q 928 2841 928 2578 
Q 928 2378 1081 2264 
Q 1234 2150 1697 2047 
L 1894 2003 
Q 2506 1872 2764 1633 
Q 3022 1394 3022 966 
Q 3022 478 2636 193 
Q 2250 -91 1575 -91 
Q 1294 -91 989 -36 
Q 684 19 347 128 
L 347 722 
Q 666 556 975 473 
Q 1284 391 1588 391 
Q 1994 391 2212 530 
Q 2431 669 2431 922 
Q 2431 1156 2273 1281 
Q 2116 1406 1581 1522 
L 1381 1569 
Q 847 1681 609 1914 
Q 372 2147 372 2553 
Q 372 3047 722 3315 
Q 1072 3584 1716 3584 
Q 2034 3584 2315 3537 
Q 2597 3491 2834 3397 
z
" transform="scale(0.015625)"/>
       <path id="DejaVuSans-Oblique-6e" d="M 3566 2113 
L 3156 0 
L 2578 0 
L 2988 2091 
Q 3016 2238 3031 2350 
Q 3047 2463 3047 2528 
Q 3047 2791 2881 2937 
Q 2716 3084 2419 3084 
Q 1956 3084 1622 2776 
Q 1288 2469 1184 1941 
L 800 0 
L 225 0 
L 903 3500 
L 1478 3500 
L 1363 2950 
Q 1603 3253 1940 3418 
Q 2278 3584 2650 3584 
Q 3113 3584 3367 3334 
Q 3622 3084 3622 2631 
Q 3622 2519 3608 2391 
Q 3594 2263 3566 2113 
z
" transform="scale(0.015625)"/>
      </defs>
      <use xlink:href="#DejaVuSans-4e" transform="translate(0 0.015625)"/>
      <use xlink:href="#DejaVuSans-75" transform="translate(74.804688 0.015625)"/>
      <use xlink:href="#DejaVuSans-6d" transform="translate(138.183594 0.015625)"/>
      <use xlink:href="#DejaVuSans-62" transform="translate(235.595703 0.015625)"/>
      <use xlink:href="#DejaVuSans-65" transform="translate(299.072266 0.015625)"/>
      <use xlink:href="#DejaVuSans-72" transform="translate(360.595703 0.015625)"/>
      <use xlink:href="#DejaVuSans-20" transform="translate(401.708984 0.015625)"/>
      <use xlink:href="#DejaVuSans-6f" transform="translate(433.496094 0.015625)"/>
      <use xlink:href="#DejaVuSans-66" transform="translate(494.677734 0.015625)"/>
      <use xlink:href="#DejaVuSans-20" transform="translate(529.882812 0.015625)"/>
      <use xlink:href="#DejaVuSans-66" transform="translate(561.669922 0.015625)"/>
      <use xlink:href="#DejaVuSans-75" transform="translate(596.875 0.015625)"/>
      <use xlink:href="#DejaVuSans-6e" transform="translate(660.253906 0.015625)"/>
      <use xlink:href="#DejaVuSans-63" transform="translate(723.632812 0.015625)"/>
      <use xlink:href="#DejaVuSans-74" transform="translate(778.613281 0.015625)"/>
      <use xlink:href="#DejaVuSans-69" transform="translate(817.822266 0.015625)"/>
      <use xlink:href="#DejaVuSans-6f" transform="translate(845.605469 0.015625)"/>
      <use xlink:href="#DejaVuSans-6e" transform="translate(906.787109 0.015625)"/>
      <use xlink:href="#DejaVuSans-20" transform="translate(970.166016 0.015625)"/>
      <use xlink:href="#DejaVuSans-65" transform="translate(1001.953125 0.015625)"/>
      <use xlink:href="#DejaVuSans-76" transform="translate(1063.476562 0.015625)"/>
      <use xlink:href="#DejaVuSans-61" transform="translate(1122.65625 0.015625)"/>
      <use xlink:href="#DejaVuSans-6c" transform="translate(1183.935547 0.015625)"/>
      <use xlink:href="#DejaVuSans-75" transform="translate(1211.71875 0.015625)"/>
      <use xlink:href="#DejaVuSans-61" transform="translate(1275.097656 0.015625)"/>
      <use xlink:href="#DejaVuSans-74" transform="translate(1336.376953 0.015625)"/>
      <use xlink:href="#DejaVuSans-69" transform="translate(1375.585938 0.015625)"/>
      <use xlink:href="#DejaVuSans-6f" transform="translate(1403.369141 0.015625)"/>
      <use xlink:href="#DejaVuSans-6e" transform="translate(1464.550781 0.015625)"/>
      <use xlink:href="#DejaVuSans-73" transform="translate(1527.929688 0.015625)"/>
      <use xlink:href="#DejaVuSans-20" transform="translate(1580.029297 0.015625)"/>
      <use xlink:href="#DejaVuSans-Oblique-6e" transform="translate(1611.816406 0.015625)"/>
     </g>
    </g>
   </g>
   <g id="matplotlib.axis_2">
    <g id="ytick_1">
     <g id="line2d_15">
      <path d="M 44.203125 298.781973 
L 450 298.781973 
" clip-path="url(#p47c403346c)" style="fill: none; stroke: #b0b0b0; stroke-width: 0.8; stroke-linecap: square"/>
     </g>
     <g id="line2d_16">
      <defs>
       <path id="m48c26812cc" d="M 0 0 
L -3.5 0 
" style="stroke: #000000; stroke-width: 0.8"/>
      </defs>
      <g>
       <use xlink:href="#m48c26812cc" x="44.203125" y="298.781973" style="stroke: #000000; stroke-width: 0.8"/>
      </g>
     </g>
     <g id="text_9">
      <!-- 0 -->
      <g transform="translate(30.840625 302.581192) scale(0.1 -0.1)">
       <use xlink:href="#DejaVuSans-30"/>
      </g>
     </g>
    </g>
    <g id="ytick_2">
     <g id="line2d_17">
      <path d="M 44.203125 266.083914 
L 450 266.083914 
" clip-path="url(#p47c403346c)" style="fill: none; stroke: #b0b0b0; stroke-width: 0.8; stroke-linecap: square"/>
     </g>
     <g id="line2d_18">
      <g>
       <use xlink:href="#m48c26812cc" x="44.203125" y="266.083914" style="stroke: #000000; stroke-width: 0.8"/>
      </g>
     </g>
     <g id="text_10">
      <!-- 10 -->
      <g transform="translate(24.478125 269.883133) scale(0.1 -0.1)">
       <use xlink:href="#DejaVuSans-31"/>
       <use xlink:href="#DejaVuSans-30" x="63.623047"/>
      </g>
     </g>
    </g>
    <g id="ytick_3">
     <g id="line2d_19">
      <path d="M 44.203125 233.385855 
L 450 233.385855 
" clip-path="url(#p47c403346c)" style="fill: none; stroke: #b0b0b0; stroke-width: 0.8; stroke-linecap: square"/>
     </g>
     <g id="line2d_20">
      <g>
       <use xlink:href="#m48c26812cc" x="44.203125" y="233.385855" style="stroke: #000000; stroke-width: 0.8"/>
      </g>
     </g>
     <g id="text_11">
      <!-- 20 -->
      <g transform="translate(24.478125 237.185073) scale(0.1 -0.1)">
       <use xlink:href="#DejaVuSans-32"/>
       <use xlink:href="#DejaVuSans-30" x="63.623047"/>
      </g>
     </g>
    </g>
    <g id="ytick_4">
     <g id="line2d_21">
      <path d="M 44.203125 200.687795 
L 450 200.687795 
" clip-path="url(#p47c403346c)" style="fill: none; stroke: #b0b0b0; stroke-width: 0.8; stroke-linecap: square"/>
     </g>
     <g id="line2d_22">
      <g>
       <use xlink:href="#m48c26812cc" x="44.203125" y="200.687795" style="stroke: #000000; stroke-width: 0.8"/>
      </g>
     </g>
     <g id="text_12">
      <!-- 30 -->
      <g transform="translate(24.478125 204.487014) scale(0.1 -0.1)">
       <use xlink:href="#DejaVuSans-33"/>
       <use xlink:href="#DejaVuSans-30" x="63.623047"/>
      </g>
     </g>
    </g>
    <g id="ytick_5">
     <g id="line2d_23">
      <path d="M 44.203125 167.989736 
L 450 167.989736 
" clip-path="url(#p47c403346c)" style="fill: none; stroke: #b0b0b0; stroke-width: 0.8; stroke-linecap: square"/>
     </g>
     <g id="line2d_24">
      <g>
       <use xlink:href="#m48c26812cc" x="44.203125" y="167.989736" style="stroke: #000000; stroke-width: 0.8"/>
      </g>
     </g>
     <g id="text_13">
      <!-- 40 -->
      <g transform="translate(24.478125 171.788955) scale(0.1 -0.1)">
       <use xlink:href="#DejaVuSans-34"/>
       <use xlink:href="#DejaVuSans-30" x="63.623047"/>
      </g>
     </g>
    </g>
    <g id="ytick_6">
     <g id="line2d_25">
      <path d="M 44.203125 135.291677 
L 450 135.291677 
" clip-path="url(#p47c403346c)" style="fill: none; stroke: #b0b0b0; stroke-width: 0.8; stroke-linecap: square"/>
     </g>
     <g id="line2d_26">
      <g>
       <use xlink:href="#m48c26812cc" x="44.203125" y="135.291677" style="stroke: #000000; stroke-width: 0.8"/>
      </g>
     </g>
     <g id="text_14">
      <!-- 50 -->
      <g transform="translate(24.478125 139.090896) scale(0.1 -0.1)">
       <use xlink:href="#DejaVuSans-35"/>
       <use xlink:href="#DejaVuSans-30" x="63.623047"/>
      </g>
     </g>
    </g>
    <g id="ytick_7">
     <g id="line2d_27">
      <path d="M 44.203125 102.593618 
L 450 102.593618 
" clip-path="url(#p47c403346c)" style="fill: none; stroke: #b0b0b0; stroke-width: 0.8; stroke-linecap: square"/>
     </g>
     <g id="line2d_28">
      <g>
       <use xlink:href="#m48c26812cc" x="44.203125" y="102.593618" style="stroke: #000000; stroke-width: 0.8"/>
      </g>
     </g>
     <g id="text_15">
      <!-- 60 -->
      <g transform="translate(24.478125 106.392836) scale(0.1 -0.1)">
       <use xlink:href="#DejaVuSans-36"/>
       <use xlink:href="#DejaVuSans-30" x="63.623047"/>
      </g>
     </g>
    </g>
    <g id="ytick_8">
     <g id="line2d_29">
      <path d="M 44.203125 69.895558 
L 450 69.895558 
" clip-path="url(#p47c403346c)" style="fill: none; stroke: #b0b0b0; stroke-width: 0.8; stroke-linecap: square"/>
     </g>
     <g id="line2d_30">
      <g>
       <use xlink:href="#m48c26812cc" x="44.203125" y="69.895558" style="stroke: #000000; stroke-width: 0.8"/>
      </g>
     </g>
     <g id="text_16">
      <!-- 70 -->
      <g transform="translate(24.478125 73.694777) scale(0.1 -0.1)">
       <defs>
        <path id="DejaVuSans-37" d="M 525 4666 
L 3525 4666 
L 3525 4397 
L 1831 0 
L 1172 0 
L 2766 4134 
L 525 4134 
L 525 4666 
z
" transform="scale(0.015625)"/>
       </defs>
       <use xlink:href="#DejaVuSans-37"/>
       <use xlink:href="#DejaVuSans-30" x="63.623047"/>
      </g>
     </g>
    </g>
    <g id="ytick_9">
     <g id="line2d_31">
      <path d="M 44.203125 37.197499 
L 450 37.197499 
" clip-path="url(#p47c403346c)" style="fill: none; stroke: #b0b0b0; stroke-width: 0.8; stroke-linecap: square"/>
     </g>
     <g id="line2d_32">
      <g>
       <use xlink:href="#m48c26812cc" x="44.203125" y="37.197499" style="stroke: #000000; stroke-width: 0.8"/>
      </g>
     </g>
     <g id="text_17">
      <!-- 80 -->
      <g transform="translate(24.478125 40.996718) scale(0.1 -0.1)">
       <defs>
        <path id="DejaVuSans-38" d="M 2034 2216 
Q 1584 2216 1326 1975 
Q 1069 1734 1069 1313 
Q 1069 891 1326 650 
Q 1584 409 2034 409 
Q 2484 409 2743 651 
Q 3003 894 3003 1313 
Q 3003 1734 2745 1975 
Q 2488 2216 2034 2216 
z
M 1403 2484 
Q 997 2584 770 2862 
Q 544 3141 544 3541 
Q 544 4100 942 4425 
Q 1341 4750 2034 4750 
Q 2731 4750 3128 4425 
Q 3525 4100 3525 3541 
Q 3525 3141 3298 2862 
Q 3072 2584 2669 2484 
Q 3125 2378 3379 2068 
Q 3634 1759 3634 1313 
Q 3634 634 3220 271 
Q 2806 -91 2034 -91 
Q 1263 -91 848 271 
Q 434 634 434 1313 
Q 434 1759 690 2068 
Q 947 2378 1403 2484 
z
M 1172 3481 
Q 1172 3119 1398 2916 
Q 1625 2713 2034 2713 
Q 2441 2713 2670 2916 
Q 2900 3119 2900 3481 
Q 2900 3844 2670 4047 
Q 2441 4250 2034 4250 
Q 1625 4250 1398 4047 
Q 1172 3844 1172 3481 
z
" transform="scale(0.015625)"/>
       </defs>
       <use xlink:href="#DejaVuSans-38"/>
       <use xlink:href="#DejaVuSans-30" x="63.623047"/>
      </g>
     </g>
    </g>
    <g id="text_18">
     <!-- $\min\ f(x)$ after $n$ evaluations -->
     <g transform="translate(18.398438 233.630937) rotate(-90) scale(0.1 -0.1)">
      <defs>
       <path id="DejaVuSans-Oblique-66" d="M 3059 4863 
L 2969 4384 
L 2419 4384 
Q 2106 4384 1964 4261 
Q 1822 4138 1753 3809 
L 1691 3500 
L 2638 3500 
L 2553 3053 
L 1606 3053 
L 1013 0 
L 434 0 
L 1031 3053 
L 481 3053 
L 563 3500 
L 1113 3500 
L 1159 3744 
Q 1278 4363 1576 4613 
Q 1875 4863 2516 4863 
L 3059 4863 
z
" transform="scale(0.015625)"/>
       <path id="DejaVuSans-28" d="M 1984 4856 
Q 1566 4138 1362 3434 
Q 1159 2731 1159 2009 
Q 1159 1288 1364 580 
Q 1569 -128 1984 -844 
L 1484 -844 
Q 1016 -109 783 600 
Q 550 1309 550 2009 
Q 550 2706 781 3412 
Q 1013 4119 1484 4856 
L 1984 4856 
z
" transform="scale(0.015625)"/>
       <path id="DejaVuSans-Oblique-78" d="M 3841 3500 
L 2234 1784 
L 3219 0 
L 2559 0 
L 1819 1388 
L 531 0 
L -166 0 
L 1556 1844 
L 641 3500 
L 1300 3500 
L 1972 2234 
L 3144 3500 
L 3841 3500 
z
" transform="scale(0.015625)"/>
       <path id="DejaVuSans-29" d="M 513 4856 
L 1013 4856 
Q 1481 4119 1714 3412 
Q 1947 2706 1947 2009 
Q 1947 1309 1714 600 
Q 1481 -109 1013 -844 
L 513 -844 
Q 928 -128 1133 580 
Q 1338 1288 1338 2009 
Q 1338 2731 1133 3434 
Q 928 4138 513 4856 
z
" transform="scale(0.015625)"/>
      </defs>
      <use xlink:href="#DejaVuSans-6d" transform="translate(0 0.015625)"/>
      <use xlink:href="#DejaVuSans-69" transform="translate(97.412109 0.015625)"/>
      <use xlink:href="#DejaVuSans-6e" transform="translate(125.195312 0.015625)"/>
      <use xlink:href="#DejaVuSans-Oblique-66" transform="translate(221.044597 0.015625)"/>
      <use xlink:href="#DejaVuSans-28" transform="translate(256.249675 0.015625)"/>
      <use xlink:href="#DejaVuSans-Oblique-78" transform="translate(295.263347 0.015625)"/>
      <use xlink:href="#DejaVuSans-29" transform="translate(354.443035 0.015625)"/>
      <use xlink:href="#DejaVuSans-20" transform="translate(393.456707 0.015625)"/>
      <use xlink:href="#DejaVuSans-61" transform="translate(425.243816 0.015625)"/>
      <use xlink:href="#DejaVuSans-66" transform="translate(486.523113 0.015625)"/>
      <use xlink:href="#DejaVuSans-74" transform="translate(521.728191 0.015625)"/>
      <use xlink:href="#DejaVuSans-65" transform="translate(560.937175 0.015625)"/>
      <use xlink:href="#DejaVuSans-72" transform="translate(622.460613 0.015625)"/>
      <use xlink:href="#DejaVuSans-20" transform="translate(663.573894 0.015625)"/>
      <use xlink:href="#DejaVuSans-Oblique-6e" transform="translate(695.361003 0.015625)"/>
      <use xlink:href="#DejaVuSans-20" transform="translate(758.73991 0.015625)"/>
      <use xlink:href="#DejaVuSans-65" transform="translate(790.527019 0.015625)"/>
      <use xlink:href="#DejaVuSans-76" transform="translate(852.050457 0.015625)"/>
      <use xlink:href="#DejaVuSans-61" transform="translate(911.230144 0.015625)"/>
      <use xlink:href="#DejaVuSans-6c" transform="translate(972.509441 0.015625)"/>
      <use xlink:href="#DejaVuSans-75" transform="translate(1000.292644 0.015625)"/>
      <use xlink:href="#DejaVuSans-61" transform="translate(1063.67155 0.015625)"/>
      <use xlink:href="#DejaVuSans-74" transform="translate(1124.950847 0.015625)"/>
      <use xlink:href="#DejaVuSans-69" transform="translate(1164.159832 0.015625)"/>
      <use xlink:href="#DejaVuSans-6f" transform="translate(1191.943035 0.015625)"/>
      <use xlink:href="#DejaVuSans-6e" transform="translate(1253.124675 0.015625)"/>
      <use xlink:href="#DejaVuSans-73" transform="translate(1316.503582 0.015625)"/>
     </g>
    </g>
   </g>
   <g id="line2d_33">
    <path d="M 62.648438 38.578381 
L 69.00889 38.578381 
L 75.369343 38.578381 
L 81.729795 38.578381 
L 88.090248 38.578381 
L 94.4507 38.578381 
L 100.811153 38.578381 
L 107.171606 103.806996 
L 113.532058 103.806996 
L 119.892511 175.035992 
L 126.252963 248.558598 
L 132.613416 288.792017 
L 138.973869 288.792017 
L 145.334321 288.792017 
L 151.694774 288.792017 
L 158.055226 288.792017 
L 164.415679 288.792017 
L 170.776131 288.792017 
L 177.136584 288.792017 
L 183.497037 288.792017 
L 189.857489 288.792017 
L 196.217942 288.792017 
L 202.578394 288.792017 
L 208.938847 288.792017 
L 215.2993 288.792017 
L 221.659752 288.792017 
L 228.020205 288.792017 
L 234.380657 288.792017 
L 240.74111 288.792017 
L 247.101563 288.792017 
L 253.462015 288.792017 
L 259.822468 288.792017 
L 266.18292 288.792017 
L 272.543373 288.792017 
L 278.903825 288.792017 
L 285.264278 288.792017 
L 291.624731 288.792017 
L 297.985183 288.792017 
L 304.345636 288.792017 
L 310.706088 288.792017 
L 317.066541 288.792017 
L 323.426994 289.238644 
L 329.787446 289.238644 
L 336.147899 289.238644 
L 342.508351 289.238644 
L 348.868804 289.238644 
L 355.229256 289.238644 
L 361.589709 289.238644 
L 367.950162 289.238644 
L 374.310614 289.238644 
L 380.671067 289.238644 
L 387.031519 289.238644 
L 393.391972 289.238644 
L 399.752425 289.238644 
L 406.112877 289.238644 
L 412.47333 289.238644 
L 418.833782 289.238644 
L 425.194235 289.238644 
L 431.554688 289.238644 
" clip-path="url(#p47c403346c)" style="fill: none; stroke-dasharray: 7.4,3.2; stroke-dashoffset: 0; stroke: #1f77b4; stroke-opacity: 0.7; stroke-width: 2"/>
    <defs>
     <path id="m0542a7c579" d="M 0 3 
C 0.795609 3 1.55874 2.683901 2.12132 2.12132 
C 2.683901 1.55874 3 0.795609 3 0 
C 3 -0.795609 2.683901 -1.55874 2.12132 -2.12132 
C 1.55874 -2.683901 0.795609 -3 0 -3 
C -0.795609 -3 -1.55874 -2.683901 -2.12132 -2.12132 
C -2.683901 -1.55874 -3 -0.795609 -3 0 
C -3 0.795609 -2.683901 1.55874 -2.12132 2.12132 
C -1.55874 2.683901 -0.795609 3 0 3 
z
" style="stroke: #1f77b4; stroke-opacity: 0.7"/>
    </defs>
    <g clip-path="url(#p47c403346c)">
     <use xlink:href="#m0542a7c579" x="100.811153" y="38.578381" style="fill: #1f77b4; fill-opacity: 0.7; stroke: #1f77b4; stroke-opacity: 0.7"/>
     <use xlink:href="#m0542a7c579" x="119.892511" y="175.035992" style="fill: #1f77b4; fill-opacity: 0.7; stroke: #1f77b4; stroke-opacity: 0.7"/>
     <use xlink:href="#m0542a7c579" x="126.252963" y="248.558598" style="fill: #1f77b4; fill-opacity: 0.7; stroke: #1f77b4; stroke-opacity: 0.7"/>
     <use xlink:href="#m0542a7c579" x="183.497037" y="288.792017" style="fill: #1f77b4; fill-opacity: 0.7; stroke: #1f77b4; stroke-opacity: 0.7"/>
     <use xlink:href="#m0542a7c579" x="278.903825" y="288.792017" style="fill: #1f77b4; fill-opacity: 0.7; stroke: #1f77b4; stroke-opacity: 0.7"/>
     <use xlink:href="#m0542a7c579" x="380.671067" y="289.238644" style="fill: #1f77b4; fill-opacity: 0.7; stroke: #1f77b4; stroke-opacity: 0.7"/>
    </g>
   </g>
   <g id="line2d_34">
    <path d="M 62.648438 38.578381 
L 69.00889 38.578381 
L 75.369343 38.578381 
L 81.729795 38.578381 
L 88.090248 38.578381 
L 94.4507 38.578381 
L 100.811153 220.93893 
L 107.171606 220.93893 
L 113.532058 220.93893 
L 119.892511 220.93893 
L 126.252963 220.93893 
L 132.613416 220.93893 
L 138.973869 220.93893 
L 145.334321 220.93893 
L 151.694774 220.93893 
L 158.055226 220.93893 
L 164.415679 220.93893 
L 170.776131 234.478828 
L 177.136584 234.478828 
L 183.497037 255.703981 
L 189.857489 255.703981 
L 196.217942 255.703981 
L 202.578394 255.703981 
L 208.938847 255.703981 
L 215.2993 255.703981 
L 221.659752 255.703981 
L 228.020205 255.703981 
L 234.380657 258.631033 
L 240.74111 258.631033 
L 247.101563 258.631033 
L 253.462015 258.631033 
L 259.822468 258.631033 
L 266.18292 269.880654 
L 272.543373 269.880654 
L 278.903825 269.880654 
L 285.264278 269.880654 
L 291.624731 269.880654 
L 297.985183 269.880654 
L 304.345636 269.880654 
L 310.706088 291.783494 
L 317.066541 291.783494 
L 323.426994 291.783494 
L 329.787446 291.783494 
L 336.147899 291.783494 
L 342.508351 291.783494 
L 348.868804 291.783494 
L 355.229256 291.783494 
L 361.589709 291.783494 
L 367.950162 291.783494 
L 374.310614 291.783494 
L 380.671067 291.783494 
L 387.031519 291.783494 
L 393.391972 291.783494 
L 399.752425 291.783494 
L 406.112877 291.783494 
L 412.47333 291.783494 
L 418.833782 291.783494 
L 425.194235 291.783494 
L 431.554688 291.783494 
" clip-path="url(#p47c403346c)" style="fill: none; stroke-dasharray: 7.4,3.2; stroke-dashoffset: 0; stroke: #ff7f0e; stroke-opacity: 0.7; stroke-width: 2"/>
    <defs>
     <path id="m19207f617b" d="M -3 3 
L 3 3 
L 3 -3 
L -3 -3 
z
" style="stroke: #ff7f0e; stroke-opacity: 0.7; stroke-linejoin: miter"/>
    </defs>
    <g clip-path="url(#p47c403346c)">
     <use xlink:href="#m19207f617b" x="94.4507" y="38.578381" style="fill: #ff7f0e; fill-opacity: 0.7; stroke: #ff7f0e; stroke-opacity: 0.7; stroke-linejoin: miter"/>
     <use xlink:href="#m19207f617b" x="100.811153" y="220.93893" style="fill: #ff7f0e; fill-opacity: 0.7; stroke: #ff7f0e; stroke-opacity: 0.7; stroke-linejoin: miter"/>
     <use xlink:href="#m19207f617b" x="158.055226" y="220.93893" style="fill: #ff7f0e; fill-opacity: 0.7; stroke: #ff7f0e; stroke-opacity: 0.7; stroke-linejoin: miter"/>
     <use xlink:href="#m19207f617b" x="228.020205" y="255.703981" style="fill: #ff7f0e; fill-opacity: 0.7; stroke: #ff7f0e; stroke-opacity: 0.7; stroke-linejoin: miter"/>
     <use xlink:href="#m19207f617b" x="310.706088" y="291.783494" style="fill: #ff7f0e; fill-opacity: 0.7; stroke: #ff7f0e; stroke-opacity: 0.7; stroke-linejoin: miter"/>
     <use xlink:href="#m19207f617b" x="406.112877" y="291.783494" style="fill: #ff7f0e; fill-opacity: 0.7; stroke: #ff7f0e; stroke-opacity: 0.7; stroke-linejoin: miter"/>
    </g>
   </g>
   <g id="line2d_35">
    <path d="M 62.648438 38.578381 
L 69.00889 38.578381 
L 75.369343 38.578381 
L 81.729795 38.578381 
L 88.090248 38.578381 
L 94.4507 38.578381 
L 100.811153 38.578381 
L 107.171606 152.233954 
L 113.532058 152.233954 
L 119.892511 152.233954 
L 126.252963 231.784251 
L 132.613416 231.784251 
L 138.973869 231.784251 
L 145.334321 231.784251 
L 151.694774 244.164651 
L 158.055226 244.164651 
L 164.415679 244.164651 
L 170.776131 259.521954 
L 177.136584 259.521954 
L 183.497037 259.521954 
L 189.857489 259.521954 
L 196.217942 259.521954 
L 202.578394 259.521954 
L 208.938847 259.521954 
L 215.2993 259.521954 
L 221.659752 259.521954 
L 228.020205 259.521954 
L 234.380657 259.521954 
L 240.74111 259.521954 
L 247.101563 259.521954 
L 253.462015 259.521954 
L 259.822468 259.521954 
L 266.18292 259.521954 
L 272.543373 262.07375 
L 278.903825 262.07375 
L 285.264278 262.07375 
L 291.624731 272.822738 
L 297.985183 274.68635 
L 304.345636 274.68635 
L 310.706088 274.68635 
L 317.066541 274.68635 
L 323.426994 286.571957 
L 329.787446 286.571957 
L 336.147899 286.571957 
L 342.508351 286.571957 
L 348.868804 286.571957 
L 355.229256 286.571957 
L 361.589709 286.571957 
L 367.950162 286.571957 
L 374.310614 286.571957 
L 380.671067 286.571957 
L 387.031519 286.571957 
L 393.391972 286.571957 
L 399.752425 286.571957 
L 406.112877 286.571957 
L 412.47333 286.571957 
L 418.833782 286.571957 
L 425.194235 286.571957 
L 431.554688 286.571957 
" clip-path="url(#p47c403346c)" style="fill: none; stroke-dasharray: 7.4,3.2; stroke-dashoffset: 0; stroke: #2ca02c; stroke-opacity: 0.7; stroke-width: 2"/>
    <defs>
     <path id="m3eb96b57e0" d="M -3 3 
L 3 -3 
M -3 -3 
L 3 3 
" style="stroke: #2ca02c; stroke-opacity: 0.7"/>
    </defs>
    <g clip-path="url(#p47c403346c)">
     <use xlink:href="#m3eb96b57e0" x="107.171606" y="152.233954" style="fill: #2ca02c; fill-opacity: 0.7; stroke: #2ca02c; stroke-opacity: 0.7"/>
     <use xlink:href="#m3eb96b57e0" x="119.892511" y="152.233954" style="fill: #2ca02c; fill-opacity: 0.7; stroke: #2ca02c; stroke-opacity: 0.7"/>
     <use xlink:href="#m3eb96b57e0" x="164.415679" y="244.164651" style="fill: #2ca02c; fill-opacity: 0.7; stroke: #2ca02c; stroke-opacity: 0.7"/>
     <use xlink:href="#m3eb96b57e0" x="259.822468" y="259.521954" style="fill: #2ca02c; fill-opacity: 0.7; stroke: #2ca02c; stroke-opacity: 0.7"/>
     <use xlink:href="#m3eb96b57e0" x="342.508351" y="286.571957" style="fill: #2ca02c; fill-opacity: 0.7; stroke: #2ca02c; stroke-opacity: 0.7"/>
    </g>
   </g>
   <g id="line2d_36">
    <path d="M 44.203125 298.781973 
L 450 298.781973 
" clip-path="url(#p47c403346c)" style="fill: none; stroke-dasharray: 3.7,1.6; stroke-dashoffset: 0; stroke: #000000"/>
   </g>
   <g id="patch_3">
    <path d="M 44.203125 304.44375 
L 44.203125 25.918125 
" style="fill: none; stroke: #000000; stroke-width: 0.8; stroke-linejoin: miter; stroke-linecap: square"/>
   </g>
   <g id="patch_4">
    <path d="M 450 304.44375 
L 450 25.918125 
" style="fill: none; stroke: #000000; stroke-width: 0.8; stroke-linejoin: miter; stroke-linecap: square"/>
   </g>
   <g id="patch_5">
    <path d="M 44.203125 304.44375 
L 450 304.44375 
" style="fill: none; stroke: #000000; stroke-width: 0.8; stroke-linejoin: miter; stroke-linecap: square"/>
   </g>
   <g id="patch_6">
    <path d="M 44.203125 25.918125 
L 450 25.918125 
" style="fill: none; stroke: #000000; stroke-width: 0.8; stroke-linejoin: miter; stroke-linecap: square"/>
   </g>
   <g id="text_19">
    <!-- Convergence -->
    <g transform="translate(207.539062 19.918125) scale(0.12 -0.12)">
     <defs>
      <path id="DejaVuSans-43" d="M 4122 4306 
L 4122 3641 
Q 3803 3938 3442 4084 
Q 3081 4231 2675 4231 
Q 1875 4231 1450 3742 
Q 1025 3253 1025 2328 
Q 1025 1406 1450 917 
Q 1875 428 2675 428 
Q 3081 428 3442 575 
Q 3803 722 4122 1019 
L 4122 359 
Q 3791 134 3420 21 
Q 3050 -91 2638 -91 
Q 1578 -91 968 557 
Q 359 1206 359 2328 
Q 359 3453 968 4101 
Q 1578 4750 2638 4750 
Q 3056 4750 3426 4639 
Q 3797 4528 4122 4306 
z
" transform="scale(0.015625)"/>
      <path id="DejaVuSans-67" d="M 2906 1791 
Q 2906 2416 2648 2759 
Q 2391 3103 1925 3103 
Q 1463 3103 1205 2759 
Q 947 2416 947 1791 
Q 947 1169 1205 825 
Q 1463 481 1925 481 
Q 2391 481 2648 825 
Q 2906 1169 2906 1791 
z
M 3481 434 
Q 3481 -459 3084 -895 
Q 2688 -1331 1869 -1331 
Q 1566 -1331 1297 -1286 
Q 1028 -1241 775 -1147 
L 775 -588 
Q 1028 -725 1275 -790 
Q 1522 -856 1778 -856 
Q 2344 -856 2625 -561 
Q 2906 -266 2906 331 
L 2906 616 
Q 2728 306 2450 153 
Q 2172 0 1784 0 
Q 1141 0 747 490 
Q 353 981 353 1791 
Q 353 2603 747 3093 
Q 1141 3584 1784 3584 
Q 2172 3584 2450 3431 
Q 2728 3278 2906 2969 
L 2906 3500 
L 3481 3500 
L 3481 434 
z
" transform="scale(0.015625)"/>
     </defs>
     <use xlink:href="#DejaVuSans-43"/>
     <use xlink:href="#DejaVuSans-6f" x="69.824219"/>
     <use xlink:href="#DejaVuSans-6e" x="131.005859"/>
     <use xlink:href="#DejaVuSans-76" x="194.384766"/>
     <use xlink:href="#DejaVuSans-65" x="253.564453"/>
     <use xlink:href="#DejaVuSans-72" x="315.087891"/>
     <use xlink:href="#DejaVuSans-67" x="354.451172"/>
     <use xlink:href="#DejaVuSans-65" x="417.927734"/>
     <use xlink:href="#DejaVuSans-6e" x="479.451172"/>
     <use xlink:href="#DejaVuSans-63" x="542.830078"/>
     <use xlink:href="#DejaVuSans-65" x="597.810547"/>
    </g>
   </g>
   <g id="legend_1">
    <g id="patch_7">
     <path d="M 250.078125 92.630625 
L 443 92.630625 
Q 445 92.630625 445 90.630625 
L 445 32.918125 
Q 445 30.918125 443 30.918125 
L 250.078125 30.918125 
Q 248.078125 30.918125 248.078125 32.918125 
L 248.078125 90.630625 
Q 248.078125 92.630625 250.078125 92.630625 
z
" style="fill: #ffffff; opacity: 0.8; stroke: #cccccc; stroke-linejoin: miter"/>
    </g>
    <g id="line2d_37">
     <path d="M 252.078125 39.016562 
L 262.078125 39.016562 
L 272.078125 39.016562 
" style="fill: none; stroke-dasharray: 7.4,3.2; stroke-dashoffset: 0; stroke: #1f77b4; stroke-opacity: 0.7; stroke-width: 2"/>
     <g>
      <use xlink:href="#m0542a7c579" x="262.078125" y="39.016562" style="fill: #1f77b4; fill-opacity: 0.7; stroke: #1f77b4; stroke-opacity: 0.7"/>
     </g>
    </g>
    <g id="text_20">
     <!-- method='smbo', estimator='gp' -->
     <g transform="translate(280.078125 42.516562) scale(0.1 -0.1)">
      <defs>
       <path id="DejaVuSans-68" d="M 3513 2113 
L 3513 0 
L 2938 0 
L 2938 2094 
Q 2938 2591 2744 2837 
Q 2550 3084 2163 3084 
Q 1697 3084 1428 2787 
Q 1159 2491 1159 1978 
L 1159 0 
L 581 0 
L 581 4863 
L 1159 4863 
L 1159 2956 
Q 1366 3272 1645 3428 
Q 1925 3584 2291 3584 
Q 2894 3584 3203 3211 
Q 3513 2838 3513 2113 
z
" transform="scale(0.015625)"/>
       <path id="DejaVuSans-64" d="M 2906 2969 
L 2906 4863 
L 3481 4863 
L 3481 0 
L 2906 0 
L 2906 525 
Q 2725 213 2448 61 
Q 2172 -91 1784 -91 
Q 1150 -91 751 415 
Q 353 922 353 1747 
Q 353 2572 751 3078 
Q 1150 3584 1784 3584 
Q 2172 3584 2448 3432 
Q 2725 3281 2906 2969 
z
M 947 1747 
Q 947 1113 1208 752 
Q 1469 391 1925 391 
Q 2381 391 2643 752 
Q 2906 1113 2906 1747 
Q 2906 2381 2643 2742 
Q 2381 3103 1925 3103 
Q 1469 3103 1208 2742 
Q 947 2381 947 1747 
z
" transform="scale(0.015625)"/>
       <path id="DejaVuSans-3d" d="M 678 2906 
L 4684 2906 
L 4684 2381 
L 678 2381 
L 678 2906 
z
M 678 1631 
L 4684 1631 
L 4684 1100 
L 678 1100 
L 678 1631 
z
" transform="scale(0.015625)"/>
       <path id="DejaVuSans-27" d="M 1147 4666 
L 1147 2931 
L 616 2931 
L 616 4666 
L 1147 4666 
z
" transform="scale(0.015625)"/>
       <path id="DejaVuSans-2c" d="M 750 794 
L 1409 794 
L 1409 256 
L 897 -744 
L 494 -744 
L 750 256 
L 750 794 
z
" transform="scale(0.015625)"/>
       <path id="DejaVuSans-70" d="M 1159 525 
L 1159 -1331 
L 581 -1331 
L 581 3500 
L 1159 3500 
L 1159 2969 
Q 1341 3281 1617 3432 
Q 1894 3584 2278 3584 
Q 2916 3584 3314 3078 
Q 3713 2572 3713 1747 
Q 3713 922 3314 415 
Q 2916 -91 2278 -91 
Q 1894 -91 1617 61 
Q 1341 213 1159 525 
z
M 3116 1747 
Q 3116 2381 2855 2742 
Q 2594 3103 2138 3103 
Q 1681 3103 1420 2742 
Q 1159 2381 1159 1747 
Q 1159 1113 1420 752 
Q 1681 391 2138 391 
Q 2594 391 2855 752 
Q 3116 1113 3116 1747 
z
" transform="scale(0.015625)"/>
      </defs>
      <use xlink:href="#DejaVuSans-6d"/>
      <use xlink:href="#DejaVuSans-65" x="97.412109"/>
      <use xlink:href="#DejaVuSans-74" x="158.935547"/>
      <use xlink:href="#DejaVuSans-68" x="198.144531"/>
      <use xlink:href="#DejaVuSans-6f" x="261.523438"/>
      <use xlink:href="#DejaVuSans-64" x="322.705078"/>
      <use xlink:href="#DejaVuSans-3d" x="386.181641"/>
      <use xlink:href="#DejaVuSans-27" x="469.970703"/>
      <use xlink:href="#DejaVuSans-73" x="497.460938"/>
      <use xlink:href="#DejaVuSans-6d" x="549.560547"/>
      <use xlink:href="#DejaVuSans-62" x="646.972656"/>
      <use xlink:href="#DejaVuSans-6f" x="710.449219"/>
      <use xlink:href="#DejaVuSans-27" x="771.630859"/>
      <use xlink:href="#DejaVuSans-2c" x="799.121094"/>
      <use xlink:href="#DejaVuSans-20" x="830.908203"/>
      <use xlink:href="#DejaVuSans-65" x="862.695312"/>
      <use xlink:href="#DejaVuSans-73" x="924.21875"/>
      <use xlink:href="#DejaVuSans-74" x="976.318359"/>
      <use xlink:href="#DejaVuSans-69" x="1015.527344"/>
      <use xlink:href="#DejaVuSans-6d" x="1043.310547"/>
      <use xlink:href="#DejaVuSans-61" x="1140.722656"/>
      <use xlink:href="#DejaVuSans-74" x="1202.001953"/>
      <use xlink:href="#DejaVuSans-6f" x="1241.210938"/>
      <use xlink:href="#DejaVuSans-72" x="1302.392578"/>
      <use xlink:href="#DejaVuSans-3d" x="1343.505859"/>
      <use xlink:href="#DejaVuSans-27" x="1427.294922"/>
      <use xlink:href="#DejaVuSans-67" x="1454.785156"/>
      <use xlink:href="#DejaVuSans-70" x="1518.261719"/>
      <use xlink:href="#DejaVuSans-27" x="1581.738281"/>
     </g>
    </g>
    <g id="line2d_38">
     <path d="M 252.078125 53.694687 
L 262.078125 53.694687 
L 272.078125 53.694687 
" style="fill: none; stroke-dasharray: 7.4,3.2; stroke-dashoffset: 0; stroke: #ff7f0e; stroke-opacity: 0.7; stroke-width: 2"/>
     <g>
      <use xlink:href="#m19207f617b" x="262.078125" y="53.694687" style="fill: #ff7f0e; fill-opacity: 0.7; stroke: #ff7f0e; stroke-opacity: 0.7; stroke-linejoin: miter"/>
     </g>
    </g>
    <g id="text_21">
     <!-- method='smbo', estimator='et' -->
     <g transform="translate(280.078125 57.194687) scale(0.1 -0.1)">
      <use xlink:href="#DejaVuSans-6d"/>
      <use xlink:href="#DejaVuSans-65" x="97.412109"/>
      <use xlink:href="#DejaVuSans-74" x="158.935547"/>
      <use xlink:href="#DejaVuSans-68" x="198.144531"/>
      <use xlink:href="#DejaVuSans-6f" x="261.523438"/>
      <use xlink:href="#DejaVuSans-64" x="322.705078"/>
      <use xlink:href="#DejaVuSans-3d" x="386.181641"/>
      <use xlink:href="#DejaVuSans-27" x="469.970703"/>
      <use xlink:href="#DejaVuSans-73" x="497.460938"/>
      <use xlink:href="#DejaVuSans-6d" x="549.560547"/>
      <use xlink:href="#DejaVuSans-62" x="646.972656"/>
      <use xlink:href="#DejaVuSans-6f" x="710.449219"/>
      <use xlink:href="#DejaVuSans-27" x="771.630859"/>
      <use xlink:href="#DejaVuSans-2c" x="799.121094"/>
      <use xlink:href="#DejaVuSans-20" x="830.908203"/>
      <use xlink:href="#DejaVuSans-65" x="862.695312"/>
      <use xlink:href="#DejaVuSans-73" x="924.21875"/>
      <use xlink:href="#DejaVuSans-74" x="976.318359"/>
      <use xlink:href="#DejaVuSans-69" x="1015.527344"/>
      <use xlink:href="#DejaVuSans-6d" x="1043.310547"/>
      <use xlink:href="#DejaVuSans-61" x="1140.722656"/>
      <use xlink:href="#DejaVuSans-74" x="1202.001953"/>
      <use xlink:href="#DejaVuSans-6f" x="1241.210938"/>
      <use xlink:href="#DejaVuSans-72" x="1302.392578"/>
      <use xlink:href="#DejaVuSans-3d" x="1343.505859"/>
      <use xlink:href="#DejaVuSans-27" x="1427.294922"/>
      <use xlink:href="#DejaVuSans-65" x="1454.785156"/>
      <use xlink:href="#DejaVuSans-74" x="1516.308594"/>
      <use xlink:href="#DejaVuSans-27" x="1555.517578"/>
     </g>
    </g>
    <g id="line2d_39">
     <path d="M 252.078125 68.372812 
L 262.078125 68.372812 
L 272.078125 68.372812 
" style="fill: none; stroke-dasharray: 7.4,3.2; stroke-dashoffset: 0; stroke: #2ca02c; stroke-opacity: 0.7; stroke-width: 2"/>
     <g>
      <use xlink:href="#m3eb96b57e0" x="262.078125" y="68.372812" style="fill: #2ca02c; fill-opacity: 0.7; stroke: #2ca02c; stroke-opacity: 0.7"/>
     </g>
    </g>
    <g id="text_22">
     <!-- method='smbo', estimator='gb' -->
     <g transform="translate(280.078125 71.872812) scale(0.1 -0.1)">
      <use xlink:href="#DejaVuSans-6d"/>
      <use xlink:href="#DejaVuSans-65" x="97.412109"/>
      <use xlink:href="#DejaVuSans-74" x="158.935547"/>
      <use xlink:href="#DejaVuSans-68" x="198.144531"/>
      <use xlink:href="#DejaVuSans-6f" x="261.523438"/>
      <use xlink:href="#DejaVuSans-64" x="322.705078"/>
      <use xlink:href="#DejaVuSans-3d" x="386.181641"/>
      <use xlink:href="#DejaVuSans-27" x="469.970703"/>
      <use xlink:href="#DejaVuSans-73" x="497.460938"/>
      <use xlink:href="#DejaVuSans-6d" x="549.560547"/>
      <use xlink:href="#DejaVuSans-62" x="646.972656"/>
      <use xlink:href="#DejaVuSans-6f" x="710.449219"/>
      <use xlink:href="#DejaVuSans-27" x="771.630859"/>
      <use xlink:href="#DejaVuSans-2c" x="799.121094"/>
      <use xlink:href="#DejaVuSans-20" x="830.908203"/>
      <use xlink:href="#DejaVuSans-65" x="862.695312"/>
      <use xlink:href="#DejaVuSans-73" x="924.21875"/>
      <use xlink:href="#DejaVuSans-74" x="976.318359"/>
      <use xlink:href="#DejaVuSans-69" x="1015.527344"/>
      <use xlink:href="#DejaVuSans-6d" x="1043.310547"/>
      <use xlink:href="#DejaVuSans-61" x="1140.722656"/>
      <use xlink:href="#DejaVuSans-74" x="1202.001953"/>
      <use xlink:href="#DejaVuSans-6f" x="1241.210938"/>
      <use xlink:href="#DejaVuSans-72" x="1302.392578"/>
      <use xlink:href="#DejaVuSans-3d" x="1343.505859"/>
      <use xlink:href="#DejaVuSans-27" x="1427.294922"/>
      <use xlink:href="#DejaVuSans-67" x="1454.785156"/>
      <use xlink:href="#DejaVuSans-62" x="1518.261719"/>
      <use xlink:href="#DejaVuSans-27" x="1581.738281"/>
     </g>
    </g>
    <g id="line2d_40">
     <path d="M 252.078125 83.050937 
L 262.078125 83.050937 
L 272.078125 83.050937 
" style="fill: none; stroke-dasharray: 3.7,1.6; stroke-dashoffset: 0; stroke: #000000"/>
    </g>
    <g id="text_23">
     <!-- True minimum -->
     <g transform="translate(280.078125 86.550937) scale(0.1 -0.1)">
      <defs>
       <path id="DejaVuSans-54" d="M -19 4666 
L 3928 4666 
L 3928 4134 
L 2272 4134 
L 2272 0 
L 1638 0 
L 1638 4134 
L -19 4134 
L -19 4666 
z
" transform="scale(0.015625)"/>
      </defs>
      <use xlink:href="#DejaVuSans-54"/>
      <use xlink:href="#DejaVuSans-72" x="46.333984"/>
      <use xlink:href="#DejaVuSans-75" x="87.447266"/>
      <use xlink:href="#DejaVuSans-65" x="150.826172"/>
      <use xlink:href="#DejaVuSans-20" x="212.349609"/>
      <use xlink:href="#DejaVuSans-6d" x="244.136719"/>
      <use xlink:href="#DejaVuSans-69" x="341.548828"/>
      <use xlink:href="#DejaVuSans-6e" x="369.332031"/>
      <use xlink:href="#DejaVuSans-69" x="432.710938"/>
      <use xlink:href="#DejaVuSans-6d" x="460.494141"/>
      <use xlink:href="#DejaVuSans-75" x="557.90625"/>
      <use xlink:href="#DejaVuSans-6d" x="621.285156"/>
     </g>
    </g>
   </g>
  </g>
 </g>
 <defs>
  <clipPath id="p47c403346c">
   <rect x="44.203125" y="25.918125" width="405.796875" height="278.525625"/>
  </clipPath>
 </defs>
</svg>
