<?xml version="1.0" encoding="utf-8" standalone="no"?>
<!DOCTYPE svg PUBLIC "-//W3C//DTD SVG 1.1//EN"
  "http://www.w3.org/Graphics/SVG/1.1/DTD/svg11.dtd">
<svg xmlns:xlink="http://www.w3.org/1999/xlink" width="244.8pt" height="280.8pt" viewBox="0 0 244.8 280.8" xmlns="http://www.w3.org/2000/svg" version="1.1">
 <metadata>
  <rdf:RDF xmlns:dc="http://purl.org/dc/elements/1.1/" xmlns:cc="http://creativecommons.org/ns#" xmlns:rdf="http://www.w3.org/1999/02/22-rdf-syntax-ns#">
   <cc:Work>
    <dc:type rdf:resource="http://purl.org/dc/dcmitype/StillImage"/>
    <dc:date>2025-07-10T03:04:31.939806</dc:date>
    <dc:format>image/svg+xml</dc:format>
    <dc:creator>
     <cc:Agent>
      <dc:title>Matplotlib v3.10.3, https://matplotlib.org/</dc:title>
     </cc:Agent>
    </dc:creator>
   </cc:Work>
  </rdf:RDF>
 </metadata>
 <defs>
  <style type="text/css">*{stroke-linejoin: round; stroke-linecap: butt}</style>
 </defs>
 <g id="figure_1">
  <g id="patch_1">
   <path d="M 0 280.8 
L 244.8 280.8 
L 244.8 0 
L 0 0 
z
" style="fill: #ffffff"/>
  </g>
  <g id="axes_1">
   <g id="patch_2">
    <path d="M 29.873143 145.614857 
L 122.136 145.614857 
L 122.136 53.352 
L 29.873143 53.352 
z
" style="fill: #ffffff"/>
   </g>
   <g id="matplotlib.axis_1">
    <g id="xtick_1">
     <g id="line2d_1">
      <defs>
       <path id="mb162e71b20" d="M 0 0 
L 0 3.5 
" style="stroke: #000000; stroke-width: 0.8"/>
      </defs>
      <g>
       <use xlink:href="#mb162e71b20" x="42.454442" y="145.614857" style="stroke: #000000; stroke-width: 0.8"/>
      </g>
     </g>
     <g id="line2d_2">
      <defs>
       <path id="m554a847653" d="M 0 0 
L 0 -3.5 
" style="stroke: #000000; stroke-width: 0.8"/>
      </defs>
      <g>
       <use xlink:href="#m554a847653" x="42.454442" y="53.352" style="stroke: #000000; stroke-width: 0.8"/>
      </g>
     </g>
     <g id="text_1">
      <text style="font-size: 6px; font-family: 'DejaVu Sans', 'Bitstream Vera Sans', 'Computer Modern Sans Serif', 'Lucida Grande', 'Verdana', 'Geneva', 'Lucid', 'Arial', 'Helvetica', 'Avant Garde', sans-serif" transform="translate(38.473983 46.969663) rotate(-45)">−1.6</text>
     </g>
    </g>
    <g id="xtick_2">
     <g id="line2d_3">
      <g>
       <use xlink:href="#mb162e71b20" x="59.229506" y="145.614857" style="stroke: #000000; stroke-width: 0.8"/>
      </g>
     </g>
     <g id="line2d_4">
      <g>
       <use xlink:href="#m554a847653" x="59.229506" y="53.352" style="stroke: #000000; stroke-width: 0.8"/>
      </g>
     </g>
     <g id="text_2">
      <text style="font-size: 6px; font-family: 'DejaVu Sans', 'Bitstream Vera Sans', 'Computer Modern Sans Serif', 'Lucida Grande', 'Verdana', 'Geneva', 'Lucid', 'Arial', 'Helvetica', 'Avant Garde', sans-serif" transform="translate(55.249048 46.969663) rotate(-45)">−0.8</text>
     </g>
    </g>
    <g id="xtick_3">
     <g id="line2d_5">
      <g>
       <use xlink:href="#mb162e71b20" x="76.004571" y="145.614857" style="stroke: #000000; stroke-width: 0.8"/>
      </g>
     </g>
     <g id="line2d_6">
      <g>
       <use xlink:href="#m554a847653" x="76.004571" y="53.352" style="stroke: #000000; stroke-width: 0.8"/>
      </g>
     </g>
     <g id="text_3">
      <text style="font-size: 6px; font-family: 'DejaVu Sans', 'Bitstream Vera Sans', 'Computer Modern Sans Serif', 'Lucida Grande', 'Verdana', 'Geneva', 'Lucid', 'Arial', 'Helvetica', 'Avant Garde', sans-serif" transform="translate(73.801713 46.969663) rotate(-45)">0.0</text>
     </g>
    </g>
    <g id="xtick_4">
     <g id="line2d_7">
      <g>
       <use xlink:href="#mb162e71b20" x="92.779636" y="145.614857" style="stroke: #000000; stroke-width: 0.8"/>
      </g>
     </g>
     <g id="line2d_8">
      <g>
       <use xlink:href="#m554a847653" x="92.779636" y="53.352" style="stroke: #000000; stroke-width: 0.8"/>
      </g>
     </g>
     <g id="text_4">
      <text style="font-size: 6px; font-family: 'DejaVu Sans', 'Bitstream Vera Sans', 'Computer Modern Sans Serif', 'Lucida Grande', 'Verdana', 'Geneva', 'Lucid', 'Arial', 'Helvetica', 'Avant Garde', sans-serif" transform="translate(90.576778 46.969663) rotate(-45)">0.8</text>
     </g>
    </g>
    <g id="xtick_5">
     <g id="line2d_9">
      <g>
       <use xlink:href="#mb162e71b20" x="109.554701" y="145.614857" style="stroke: #000000; stroke-width: 0.8"/>
      </g>
     </g>
     <g id="line2d_10">
      <g>
       <use xlink:href="#m554a847653" x="109.554701" y="53.352" style="stroke: #000000; stroke-width: 0.8"/>
      </g>
     </g>
     <g id="text_5">
      <text style="font-size: 6px; font-family: 'DejaVu Sans', 'Bitstream Vera Sans', 'Computer Modern Sans Serif', 'Lucida Grande', 'Verdana', 'Geneva', 'Lucid', 'Arial', 'Helvetica', 'Avant Garde', sans-serif" transform="translate(107.351843 46.969663) rotate(-45)">1.6</text>
     </g>
    </g>
    <g id="text_6">
     <!-- $\mathbf{x_{0}}$ -->
     <g transform="translate(71.324571 29.443594)">
      <text>
       <tspan x="0" y="-0.625" style="font-weight: 700; font-size: 8px; font-family: 'DejaVu Sans'">x</tspan>
       <tspan x="5.236719" y="0.6875" style="font-weight: 700; font-size: 5.6px; font-family: 'DejaVu Sans'">0</tspan>
      </text>
     </g>
    </g>
   </g>
   <g id="matplotlib.axis_2">
    <g id="ytick_1">
     <g id="line2d_11">
      <defs>
       <path id="mc73dd39c9f" d="M 0 0 
L 3.5 0 
" style="stroke: #000000; stroke-width: 0.8"/>
      </defs>
      <g>
       <use xlink:href="#mc73dd39c9f" x="122.136" y="144.856086" style="stroke: #000000; stroke-width: 0.8"/>
      </g>
     </g>
     <g id="text_7">
      <text style="font-size: 6px; font-family: 'DejaVu Sans', 'Bitstream Vera Sans', 'Computer Modern Sans Serif', 'Lucida Grande', 'Verdana', 'Geneva', 'Lucid', 'Arial', 'Helvetica', 'Avant Garde', sans-serif; text-anchor: start" x="130.747872" y="146.467958" transform="rotate(-45 130.747872 146.467958)">0</text>
     </g>
    </g>
    <g id="ytick_2">
     <g id="line2d_12">
      <g>
       <use xlink:href="#mc73dd39c9f" x="122.136" y="126.334069" style="stroke: #000000; stroke-width: 0.8"/>
      </g>
     </g>
     <g id="text_8">
      <text style="font-size: 6px; font-family: 'DejaVu Sans', 'Bitstream Vera Sans', 'Computer Modern Sans Serif', 'Lucida Grande', 'Verdana', 'Geneva', 'Lucid', 'Arial', 'Helvetica', 'Avant Garde', sans-serif; text-anchor: start" x="130.747872" y="127.945941" transform="rotate(-45 130.747872 127.945941)">500</text>
     </g>
    </g>
    <g id="ytick_3">
     <g id="line2d_13">
      <g>
       <use xlink:href="#mc73dd39c9f" x="122.136" y="107.812051" style="stroke: #000000; stroke-width: 0.8"/>
      </g>
     </g>
     <g id="text_9">
      <text style="font-size: 6px; font-family: 'DejaVu Sans', 'Bitstream Vera Sans', 'Computer Modern Sans Serif', 'Lucida Grande', 'Verdana', 'Geneva', 'Lucid', 'Arial', 'Helvetica', 'Avant Garde', sans-serif; text-anchor: start" x="130.747872" y="109.423923" transform="rotate(-45 130.747872 109.423923)">1000</text>
     </g>
    </g>
    <g id="ytick_4">
     <g id="line2d_14">
      <g>
       <use xlink:href="#mc73dd39c9f" x="122.136" y="89.290034" style="stroke: #000000; stroke-width: 0.8"/>
      </g>
     </g>
     <g id="text_10">
      <text style="font-size: 6px; font-family: 'DejaVu Sans', 'Bitstream Vera Sans', 'Computer Modern Sans Serif', 'Lucida Grande', 'Verdana', 'Geneva', 'Lucid', 'Arial', 'Helvetica', 'Avant Garde', sans-serif; text-anchor: start" x="130.747872" y="90.901906" transform="rotate(-45 130.747872 90.901906)">1500</text>
     </g>
    </g>
    <g id="ytick_5">
     <g id="line2d_15">
      <g>
       <use xlink:href="#mc73dd39c9f" x="122.136" y="70.768016" style="stroke: #000000; stroke-width: 0.8"/>
      </g>
     </g>
     <g id="text_11">
      <text style="font-size: 6px; font-family: 'DejaVu Sans', 'Bitstream Vera Sans', 'Computer Modern Sans Serif', 'Lucida Grande', 'Verdana', 'Geneva', 'Lucid', 'Arial', 'Helvetica', 'Avant Garde', sans-serif; text-anchor: start" x="130.747872" y="72.379888" transform="rotate(-45 130.747872 72.379888)">2000</text>
     </g>
    </g>
   </g>
   <g id="line2d_16">
    <path d="M 29.873143 57.545766 
L 38.260675 97.83743 
L 46.648208 124.110402 
L 55.03574 136.5019 
L 63.423273 140.541365 
L 71.810805 141.311834 
L 80.198338 141.421091 
L 88.58587 140.827892 
L 96.973403 136.948323 
L 105.360935 125.570024 
L 113.748468 104.424149 
L 122.136 78.093932 
" clip-path="url(#p286ff3b339)" style="fill: none; stroke: #1f77b4; stroke-width: 1.5; stroke-linecap: square"/>
   </g>
   <g id="line2d_17">
    <path d="M 96.973403 145.614857 
L 96.973403 53.352 
" clip-path="url(#p286ff3b339)" style="fill: none; stroke-dasharray: 3.7,1.6; stroke-dashoffset: 0; stroke: #ff0000"/>
   </g>
   <g id="patch_3">
    <path d="M 29.873143 145.614857 
L 29.873143 53.352 
" style="fill: none; stroke: #000000; stroke-width: 0.8; stroke-linejoin: miter; stroke-linecap: square"/>
   </g>
   <g id="patch_4">
    <path d="M 122.136 145.614857 
L 122.136 53.352 
" style="fill: none; stroke: #000000; stroke-width: 0.8; stroke-linejoin: miter; stroke-linecap: square"/>
   </g>
   <g id="patch_5">
    <path d="M 29.873143 145.614857 
L 122.136 145.614857 
" style="fill: none; stroke: #000000; stroke-width: 0.8; stroke-linejoin: miter; stroke-linecap: square"/>
   </g>
   <g id="patch_6">
    <path d="M 29.873143 53.352 
L 122.136 53.352 
" style="fill: none; stroke: #000000; stroke-width: 0.8; stroke-linejoin: miter; stroke-linecap: square"/>
   </g>
  </g>
  <g id="axes_2">
   <g id="patch_7">
    <path d="M 29.873143 247.104 
L 122.136 247.104 
L 122.136 154.841143 
L 29.873143 154.841143 
z
" style="fill: #ffffff"/>
   </g>
   <g id="QuadContourSet_1">
    <path d="M 80.198338 201.167982 
L 88.58587 201.123501 
L 90.874241 196.778805 
L 95.211577 188.391273 
L 88.58587 184.447112 
L 84.376976 188.391273 
L 80.198338 195.28716 
L 75.968866 196.778805 
z
M 96.973403 180.003741 
L 96.973403 180.00374 
L 96.973403 180.00374 
L 96.973402 180.00374 
z
" clip-path="url(#p39f24d6865)" style="fill: #dfe318; fill-opacity: 0.8"/>
    <path d="M 71.810805 240.916278 
L 80.198338 242.84796 
L 85.479562 238.716468 
L 88.58587 235.998138 
L 91.866989 230.328935 
L 96.973403 221.941403 
L 96.973403 221.941403 
L 99.884644 213.55387 
L 102.512424 205.166338 
L 105.151873 196.778805 
L 105.360935 196.101355 
L 106.593956 188.391273 
L 107.935621 180.00374 
L 109.444302 171.616208 
L 111.426361 163.228675 
L 113.748468 156.648297 
L 114.223557 154.841143 
L 113.748468 154.841143 
L 105.360935 154.841143 
L 96.973403 154.841143 
L 88.58587 154.841143 
L 86.824588 154.841143 
L 80.198338 158.942636 
L 71.810805 157.144608 
L 69.712057 154.841143 
L 63.423273 154.841143 
L 55.03574 154.841143 
L 46.648208 154.841143 
L 38.260675 154.841143 
L 37.948043 154.841143 
L 37.581057 163.228675 
L 38.037883 171.616208 
L 38.260675 172.988141 
L 40.20388 180.00374 
L 43.064545 188.391273 
L 45.651688 196.778805 
L 46.648208 200.316143 
L 49.039764 205.166338 
L 52.349414 213.55387 
L 55.03574 221.713632 
L 55.185774 221.941403 
L 60.973293 230.328935 
L 63.423273 233.934719 
L 69.280165 238.716468 
z
M 75.968866 196.778805 
L 80.198338 195.28716 
L 84.376976 188.391273 
L 88.58587 184.447112 
L 95.211577 188.391273 
L 90.874241 196.778805 
L 88.58587 201.123501 
L 80.198338 201.167982 
z
M 96.973402 180.00374 
L 96.973403 180.00374 
L 96.973403 180.00374 
L 96.973403 180.003741 
z
" clip-path="url(#p39f24d6865)" style="fill: #9bd93c; fill-opacity: 0.8"/>
    <path d="M 63.423273 247.104 
L 71.810805 247.104 
L 80.198338 247.104 
L 88.58587 247.104 
L 96.973403 247.104 
L 98.664795 247.104 
L 101.594792 238.716468 
L 104.053459 230.328935 
L 105.360935 225.805497 
L 106.047017 221.941403 
L 107.424384 213.55387 
L 108.690902 205.166338 
L 110.015268 196.778805 
L 111.558391 188.391273 
L 113.543303 180.00374 
L 113.748468 179.267684 
L 115.459289 171.616208 
L 117.910182 163.228675 
L 121.442392 154.841143 
L 114.223557 154.841143 
L 113.748468 156.648297 
L 111.426361 163.228675 
L 109.444302 171.616208 
L 107.935621 180.00374 
L 106.593956 188.391273 
L 105.360935 196.101355 
L 105.151873 196.778805 
L 102.512424 205.166338 
L 99.884644 213.55387 
L 96.973403 221.941403 
L 96.973403 221.941403 
L 91.866989 230.328935 
L 88.58587 235.998138 
L 85.479562 238.716468 
L 80.198338 242.84796 
L 71.810805 240.916278 
L 69.280165 238.716468 
L 63.423273 233.934719 
L 60.973293 230.328935 
L 55.185774 221.941403 
L 55.03574 221.713632 
L 52.349414 213.55387 
L 49.039764 205.166338 
L 46.648208 200.316143 
L 45.651688 196.778805 
L 43.064545 188.391273 
L 40.20388 180.00374 
L 38.260675 172.988141 
L 38.037883 171.616208 
L 37.581057 163.228675 
L 37.948043 154.841143 
L 31.602349 154.841143 
L 31.89142 163.228675 
L 33.031787 171.616208 
L 34.918122 180.00374 
L 37.175985 188.391273 
L 38.260675 192.120312 
L 40.237174 196.778805 
L 43.322267 205.166338 
L 45.730573 213.55387 
L 46.648208 217.112434 
L 48.722457 221.941403 
L 52.045374 230.328935 
L 55.03574 237.909347 
L 55.61847 238.716468 
L 61.595801 247.104 
z
M 71.810805 157.144608 
L 80.198338 158.942636 
L 86.824588 154.841143 
L 80.198338 154.841143 
L 71.810805 154.841143 
L 69.712057 154.841143 
z
" clip-path="url(#p39f24d6865)" style="fill: #5cc863; fill-opacity: 0.8"/>
    <path d="M 55.03574 247.104 
L 61.595801 247.104 
L 55.61847 238.716468 
L 55.03574 237.909347 
L 52.045374 230.328935 
L 48.722457 221.941403 
L 46.648208 217.112434 
L 45.730573 213.55387 
L 43.322267 205.166338 
L 40.237174 196.778805 
L 38.260675 192.120312 
L 37.175985 188.391273 
L 34.918122 180.00374 
L 33.031787 171.616208 
L 31.89142 163.228675 
L 31.602349 154.841143 
L 29.873143 154.841143 
L 29.873143 163.228675 
L 29.873143 171.616208 
L 29.873143 177.403307 
L 30.590745 180.00374 
L 33.463905 188.391273 
L 36.222859 196.778805 
L 38.260675 203.670593 
L 38.87372 205.166338 
L 41.902248 213.55387 
L 44.295746 221.941403 
L 46.411082 230.328935 
L 46.648208 231.292274 
L 49.69935 238.716468 
L 53.104721 247.104 
z
M 105.360935 247.104 
L 113.748468 247.104 
L 121.273901 247.104 
L 114.426101 238.716468 
L 113.748468 235.903749 
L 112.888446 230.328935 
L 112.582865 221.941403 
L 112.873163 213.55387 
L 113.600163 205.166338 
L 113.748468 204.13475 
L 114.561323 196.778805 
L 115.842022 188.391273 
L 117.573526 180.00374 
L 119.957613 171.616208 
L 122.136 165.913009 
L 122.136 163.228675 
L 122.136 154.841143 
L 121.442392 154.841143 
L 117.910182 163.228675 
L 115.459289 171.616208 
L 113.748468 179.267684 
L 113.543303 180.00374 
L 111.558391 188.391273 
L 110.015268 196.778805 
L 108.690902 205.166338 
L 107.424384 213.55387 
L 106.047017 221.941403 
L 105.360935 225.805497 
L 104.053459 230.328935 
L 101.594792 238.716468 
L 98.664795 247.104 
z
" clip-path="url(#p39f24d6865)" style="fill: #2fb47c; fill-opacity: 0.8"/>
    <path d="M 46.648208 245.609838 
L 47.233139 247.104 
L 53.104721 247.104 
L 49.69935 238.716468 
L 46.648208 231.292274 
L 46.411082 230.328935 
L 44.295746 221.941403 
L 41.902248 213.55387 
L 38.87372 205.166338 
L 38.260675 203.670593 
L 36.222859 196.778805 
L 33.463905 188.391273 
L 30.590745 180.00374 
L 29.873143 177.403307 
L 29.873143 180.00374 
L 29.873143 188.391273 
L 29.873143 188.662361 
L 33.013512 196.778805 
L 35.80981 205.166338 
L 38.133064 213.55387 
L 38.260675 214.078595 
L 40.809234 221.941403 
L 43.029374 230.328935 
L 45.035225 238.716468 
z
M 122.136 247.104 
L 122.136 238.716468 
L 122.136 232.16017 
L 121.158957 230.328935 
L 118.602079 221.941403 
L 117.69491 213.55387 
L 117.689313 205.166338 
L 118.3348 196.778805 
L 119.588227 188.391273 
L 121.543844 180.00374 
L 122.136 178.122248 
L 122.136 171.616208 
L 122.136 165.913009 
L 119.957613 171.616208 
L 117.573526 180.00374 
L 115.842022 188.391273 
L 114.561323 196.778805 
L 113.748468 204.13475 
L 113.600163 205.166338 
L 112.873163 213.55387 
L 112.582865 221.941403 
L 112.888446 230.328935 
L 113.748468 235.903749 
L 114.426101 238.716468 
L 121.273901 247.104 
z
" clip-path="url(#p39f24d6865)" style="fill: #1e9c89; fill-opacity: 0.8"/>
    <path d="M 46.648208 247.104 
L 47.233139 247.104 
L 46.648208 245.609838 
L 45.035225 238.716468 
L 43.029374 230.328935 
L 40.809234 221.941403 
L 38.260675 214.078595 
L 38.133064 213.55387 
L 35.80981 205.166338 
L 33.013512 196.778805 
L 29.873143 188.662361 
L 29.873143 196.778805 
L 29.873143 196.941219 
L 32.967213 205.166338 
L 35.517111 213.55387 
L 37.580315 221.941403 
L 38.260675 225.263763 
L 39.647665 230.328935 
L 41.525717 238.716468 
L 43.124069 247.104 
z
M 122.136 232.16017 
L 122.136 230.328935 
L 122.136 221.941403 
L 122.136 213.55387 
L 122.136 210.447976 
L 121.752917 205.166338 
L 122.108277 196.778805 
L 122.136 196.590506 
L 122.136 188.391273 
L 122.136 180.00374 
L 122.136 178.122248 
L 121.543844 180.00374 
L 119.588227 188.391273 
L 118.3348 196.778805 
L 117.689313 205.166338 
L 117.69491 213.55387 
L 118.602079 221.941403 
L 121.158957 230.328935 
z
" clip-path="url(#p39f24d6865)" style="fill: #25848e; fill-opacity: 0.8"/>
    <path d="M 38.260675 240.587881 
L 39.210009 247.104 
L 43.124069 247.104 
L 41.525717 238.716468 
L 39.647665 230.328935 
L 38.260675 225.263763 
L 37.580315 221.941403 
L 35.517111 213.55387 
L 32.967213 205.166338 
L 29.873143 196.941219 
L 29.873143 204.497836 
L 30.124615 205.166338 
L 32.901157 213.55387 
L 35.051313 221.941403 
L 36.732594 230.328935 
L 38.063364 238.716468 
z
M 122.136 210.447976 
L 122.136 205.166338 
L 122.136 196.778805 
L 122.136 196.590506 
L 122.108277 196.778805 
L 121.752917 205.166338 
z
" clip-path="url(#p39f24d6865)" style="fill: #2f6c8e; fill-opacity: 0.8"/>
    <path d="M 38.260675 247.104 
L 39.210009 247.104 
L 38.260675 240.587881 
L 38.063364 238.716468 
L 36.732594 230.328935 
L 35.051313 221.941403 
L 32.901157 213.55387 
L 30.124615 205.166338 
L 29.873143 204.497836 
L 29.873143 205.166338 
L 29.873143 212.318018 
L 30.285204 213.55387 
L 32.52231 221.941403 
L 34.141992 230.328935 
L 35.230806 238.716468 
L 35.737458 247.104 
z
" clip-path="url(#p39f24d6865)" style="fill: #3b518b; fill-opacity: 0.8"/>
    <path d="M 35.230806 238.716468 
L 34.141992 230.328935 
L 32.52231 221.941403 
L 30.285204 213.55387 
L 29.873143 212.318018 
L 29.873143 213.55387 
L 29.873143 221.493613 
L 29.993308 221.941403 
L 31.551389 230.328935 
L 32.398248 238.716468 
L 32.406282 247.104 
L 35.737458 247.104 
z
" clip-path="url(#p39f24d6865)" style="fill: #463480; fill-opacity: 0.8"/>
    <path d="M 32.398248 238.716468 
L 31.551389 230.328935 
L 29.993308 221.941403 
L 29.873143 221.493613 
L 29.873143 221.941403 
L 29.873143 230.328935 
L 29.873143 238.716468 
L 29.873143 247.104 
L 32.406282 247.104 
z
" clip-path="url(#p39f24d6865)" style="fill: #471365; fill-opacity: 0.8"/>
   </g>
   <g id="PathCollection_1">
    <defs>
     <path id="m03b22908c8" d="M 0 -7.071068 
L -1.587554 -2.18508 
L -6.724985 -2.18508 
L -2.568716 0.834626 
L -4.156269 5.720614 
L -0 2.700907 
L 4.156269 5.720614 
L 2.568716 0.834626 
L 6.724985 -2.18508 
L 1.587554 -2.18508 
z
" style="stroke: #dd0000; stroke-width: 0.5"/>
    </defs>
    <g clip-path="url(#p39f24d6865)">
     <use xlink:href="#m03b22908c8" x="96.973403" y="180.00374" style="fill: #dd0000; stroke: #dd0000; stroke-width: 0.5"/>
    </g>
   </g>
   <g id="PathCollection_2">
    <defs>
     <path id="m5119399f22" d="M 0 1.732051 
C 0.459345 1.732051 0.899939 1.549551 1.224745 1.224745 
C 1.549551 0.899939 1.732051 0.459345 1.732051 0 
C 1.732051 -0.459345 1.549551 -0.899939 1.224745 -1.224745 
C 0.899939 -1.549551 0.459345 -1.732051 0 -1.732051 
C -0.459345 -1.732051 -0.899939 -1.549551 -1.224745 -1.224745 
C -1.549551 -0.899939 -1.732051 -0.459345 -1.732051 0 
C -1.732051 0.459345 -1.549551 0.899939 -1.224745 1.224745 
C -0.899939 1.549551 -0.459345 1.732051 0 1.732051 
z
"/>
    </defs>
    <g clip-path="url(#p39f24d6865)">
     <use xlink:href="#m5119399f22" x="66.788146" y="190.168853" style="fill-opacity: 0.5"/>
     <use xlink:href="#m5119399f22" x="75.592126" y="159.958419" style="fill-opacity: 0.5"/>
     <use xlink:href="#m5119399f22" x="96.834873" y="204.567031" style="fill-opacity: 0.5"/>
     <use xlink:href="#m5119399f22" x="53.384146" y="220.959289" style="fill-opacity: 0.5"/>
     <use xlink:href="#m5119399f22" x="54.736369" y="178.545395" style="fill-opacity: 0.5"/>
     <use xlink:href="#m5119399f22" x="76.79097" y="223.834474" style="fill-opacity: 0.5"/>
     <use xlink:href="#m5119399f22" x="76.746221" y="243.349473" style="fill-opacity: 0.5"/>
     <use xlink:href="#m5119399f22" x="74.463688" y="178.600759" style="fill-opacity: 0.5"/>
     <use xlink:href="#m5119399f22" x="82.933398" y="209.516288" style="fill-opacity: 0.5"/>
     <use xlink:href="#m5119399f22" x="42.551603" y="192.869881" style="fill-opacity: 0.5"/>
     <use xlink:href="#m5119399f22" x="36.221844" y="198.36524" style="fill-opacity: 0.5"/>
     <use xlink:href="#m5119399f22" x="55.321354" y="197.786291" style="fill-opacity: 0.5"/>
     <use xlink:href="#m5119399f22" x="65.814388" y="169.035283" style="fill-opacity: 0.5"/>
     <use xlink:href="#m5119399f22" x="76.719818" y="199.637627" style="fill-opacity: 0.5"/>
     <use xlink:href="#m5119399f22" x="116.966588" y="200.381264" style="fill-opacity: 0.5"/>
     <use xlink:href="#m5119399f22" x="97.959433" y="220.237308" style="fill-opacity: 0.5"/>
     <use xlink:href="#m5119399f22" x="82.8121" y="233.724128" style="fill-opacity: 0.5"/>
     <use xlink:href="#m5119399f22" x="105.82693" y="211.810582" style="fill-opacity: 0.5"/>
     <use xlink:href="#m5119399f22" x="53.676585" y="181.415403" style="fill-opacity: 0.5"/>
     <use xlink:href="#m5119399f22" x="52.923654" y="178.660986" style="fill-opacity: 0.5"/>
     <use xlink:href="#m5119399f22" x="56.696975" y="180.989097" style="fill-opacity: 0.5"/>
     <use xlink:href="#m5119399f22" x="62.492131" y="181.227912" style="fill-opacity: 0.5"/>
     <use xlink:href="#m5119399f22" x="54.425677" y="178.51394" style="fill-opacity: 0.5"/>
     <use xlink:href="#m5119399f22" x="53.850988" y="182.48583" style="fill-opacity: 0.5"/>
     <use xlink:href="#m5119399f22" x="55.555402" y="180.025912" style="fill-opacity: 0.5"/>
     <use xlink:href="#m5119399f22" x="54.731103" y="179.534906" style="fill-opacity: 0.5"/>
     <use xlink:href="#m5119399f22" x="58.481883" y="189.69531" style="fill-opacity: 0.5"/>
     <use xlink:href="#m5119399f22" x="59.584978" y="193.57278" style="fill-opacity: 0.5"/>
     <use xlink:href="#m5119399f22" x="59.573891" y="189.515635" style="fill-opacity: 0.5"/>
     <use xlink:href="#m5119399f22" x="58.068087" y="191.844142" style="fill-opacity: 0.5"/>
     <use xlink:href="#m5119399f22" x="62.593262" y="188.177235" style="fill-opacity: 0.5"/>
     <use xlink:href="#m5119399f22" x="58.066171" y="189.67362" style="fill-opacity: 0.5"/>
     <use xlink:href="#m5119399f22" x="60.619119" y="191.138377" style="fill-opacity: 0.5"/>
     <use xlink:href="#m5119399f22" x="59.715627" y="188.158869" style="fill-opacity: 0.5"/>
     <use xlink:href="#m5119399f22" x="64.007309" y="191.085288" style="fill-opacity: 0.5"/>
     <use xlink:href="#m5119399f22" x="62.568808" y="192.042569" style="fill-opacity: 0.5"/>
     <use xlink:href="#m5119399f22" x="64.611267" y="189.091004" style="fill-opacity: 0.5"/>
     <use xlink:href="#m5119399f22" x="62.166129" y="191.320768" style="fill-opacity: 0.5"/>
     <use xlink:href="#m5119399f22" x="59.808911" y="189.599881" style="fill-opacity: 0.5"/>
     <use xlink:href="#m5119399f22" x="57.840766" y="191.973586" style="fill-opacity: 0.5"/>
     <use xlink:href="#m5119399f22" x="64.215923" y="188.195707" style="fill-opacity: 0.5"/>
     <use xlink:href="#m5119399f22" x="96.467918" y="179.69053" style="fill-opacity: 0.5"/>
     <use xlink:href="#m5119399f22" x="98.397973" y="181.261525" style="fill-opacity: 0.5"/>
    </g>
   </g>
   <g id="matplotlib.axis_3">
    <g id="xtick_6">
     <g id="line2d_18">
      <g>
       <use xlink:href="#mb162e71b20" x="42.454442" y="247.104" style="stroke: #000000; stroke-width: 0.8"/>
      </g>
     </g>
     <g id="line2d_19">
      <g>
       <use xlink:href="#m554a847653" x="42.454442" y="154.841143" style="stroke: #000000; stroke-width: 0.8"/>
      </g>
     </g>
     <g id="text_12">
      <text style="font-size: 6px; font-family: 'DejaVu Sans', 'Bitstream Vera Sans', 'Computer Modern Sans Serif', 'Lucida Grande', 'Verdana', 'Geneva', 'Lucid', 'Arial', 'Helvetica', 'Avant Garde', sans-serif" transform="translate(38.473983 266.130069) rotate(-45)">−1.6</text>
     </g>
    </g>
    <g id="xtick_7">
     <g id="line2d_20">
      <g>
       <use xlink:href="#mb162e71b20" x="59.229506" y="247.104" style="stroke: #000000; stroke-width: 0.8"/>
      </g>
     </g>
     <g id="line2d_21">
      <g>
       <use xlink:href="#m554a847653" x="59.229506" y="154.841143" style="stroke: #000000; stroke-width: 0.8"/>
      </g>
     </g>
     <g id="text_13">
      <text style="font-size: 6px; font-family: 'DejaVu Sans', 'Bitstream Vera Sans', 'Computer Modern Sans Serif', 'Lucida Grande', 'Verdana', 'Geneva', 'Lucid', 'Arial', 'Helvetica', 'Avant Garde', sans-serif" transform="translate(55.249048 266.130069) rotate(-45)">−0.8</text>
     </g>
    </g>
    <g id="xtick_8">
     <g id="line2d_22">
      <g>
       <use xlink:href="#mb162e71b20" x="76.004571" y="247.104" style="stroke: #000000; stroke-width: 0.8"/>
      </g>
     </g>
     <g id="line2d_23">
      <g>
       <use xlink:href="#m554a847653" x="76.004571" y="154.841143" style="stroke: #000000; stroke-width: 0.8"/>
      </g>
     </g>
     <g id="text_14">
      <text style="font-size: 6px; font-family: 'DejaVu Sans', 'Bitstream Vera Sans', 'Computer Modern Sans Serif', 'Lucida Grande', 'Verdana', 'Geneva', 'Lucid', 'Arial', 'Helvetica', 'Avant Garde', sans-serif" transform="translate(73.801713 262.574869) rotate(-45)">0.0</text>
     </g>
    </g>
    <g id="xtick_9">
     <g id="line2d_24">
      <g>
       <use xlink:href="#mb162e71b20" x="92.779636" y="247.104" style="stroke: #000000; stroke-width: 0.8"/>
      </g>
     </g>
     <g id="line2d_25">
      <g>
       <use xlink:href="#m554a847653" x="92.779636" y="154.841143" style="stroke: #000000; stroke-width: 0.8"/>
      </g>
     </g>
     <g id="text_15">
      <text style="font-size: 6px; font-family: 'DejaVu Sans', 'Bitstream Vera Sans', 'Computer Modern Sans Serif', 'Lucida Grande', 'Verdana', 'Geneva', 'Lucid', 'Arial', 'Helvetica', 'Avant Garde', sans-serif" transform="translate(90.576778 262.574869) rotate(-45)">0.8</text>
     </g>
    </g>
    <g id="xtick_10">
     <g id="line2d_26">
      <g>
       <use xlink:href="#mb162e71b20" x="109.554701" y="247.104" style="stroke: #000000; stroke-width: 0.8"/>
      </g>
     </g>
     <g id="line2d_27">
      <g>
       <use xlink:href="#m554a847653" x="109.554701" y="154.841143" style="stroke: #000000; stroke-width: 0.8"/>
      </g>
     </g>
     <g id="text_16">
      <text style="font-size: 6px; font-family: 'DejaVu Sans', 'Bitstream Vera Sans', 'Computer Modern Sans Serif', 'Lucida Grande', 'Verdana', 'Geneva', 'Lucid', 'Arial', 'Helvetica', 'Avant Garde', sans-serif" transform="translate(107.351843 262.574869) rotate(-45)">1.6</text>
     </g>
    </g>
    <g id="text_17">
     <!-- $\mathbf{x_{0}}$ -->
     <g transform="translate(71.324571 274.091156)">
      <text>
       <tspan x="0" y="-0.625" style="font-weight: 700; font-size: 8px; font-family: 'DejaVu Sans'">x</tspan>
       <tspan x="5.236719" y="0.6875" style="font-weight: 700; font-size: 5.6px; font-family: 'DejaVu Sans'">0</tspan>
      </text>
     </g>
    </g>
   </g>
   <g id="matplotlib.axis_4">
    <g id="ytick_6">
     <g id="line2d_28">
      <defs>
       <path id="mac46b8d0e9" d="M 0 0 
L -3.5 0 
" style="stroke: #000000; stroke-width: 0.8"/>
      </defs>
      <g>
       <use xlink:href="#mac46b8d0e9" x="29.873143" y="234.522701" style="stroke: #000000; stroke-width: 0.8"/>
      </g>
     </g>
     <g id="text_18">
      <text style="font-size: 6px; font-family: 'DejaVu Sans', 'Bitstream Vera Sans', 'Computer Modern Sans Serif', 'Lucida Grande', 'Verdana', 'Geneva', 'Lucid', 'Arial', 'Helvetica', 'Avant Garde', sans-serif; text-anchor: end" x="24.373143" y="236.802233" transform="rotate(-0 24.373143 236.802233)">−1.6</text>
     </g>
    </g>
    <g id="ytick_7">
     <g id="line2d_29">
      <g>
       <use xlink:href="#mac46b8d0e9" x="29.873143" y="217.747636" style="stroke: #000000; stroke-width: 0.8"/>
      </g>
     </g>
     <g id="text_19">
      <text style="font-size: 6px; font-family: 'DejaVu Sans', 'Bitstream Vera Sans', 'Computer Modern Sans Serif', 'Lucida Grande', 'Verdana', 'Geneva', 'Lucid', 'Arial', 'Helvetica', 'Avant Garde', sans-serif; text-anchor: end" x="24.373143" y="220.027168" transform="rotate(-0 24.373143 220.027168)">−0.8</text>
     </g>
    </g>
    <g id="ytick_8">
     <g id="line2d_30">
      <g>
       <use xlink:href="#mac46b8d0e9" x="29.873143" y="200.972571" style="stroke: #000000; stroke-width: 0.8"/>
      </g>
     </g>
     <g id="text_20">
      <text style="font-size: 6px; font-family: 'DejaVu Sans', 'Bitstream Vera Sans', 'Computer Modern Sans Serif', 'Lucida Grande', 'Verdana', 'Geneva', 'Lucid', 'Arial', 'Helvetica', 'Avant Garde', sans-serif; text-anchor: end" x="24.373143" y="203.252103" transform="rotate(-0 24.373143 203.252103)">0.0</text>
     </g>
    </g>
    <g id="ytick_9">
     <g id="line2d_31">
      <g>
       <use xlink:href="#mac46b8d0e9" x="29.873143" y="184.197506" style="stroke: #000000; stroke-width: 0.8"/>
      </g>
     </g>
     <g id="text_21">
      <text style="font-size: 6px; font-family: 'DejaVu Sans', 'Bitstream Vera Sans', 'Computer Modern Sans Serif', 'Lucida Grande', 'Verdana', 'Geneva', 'Lucid', 'Arial', 'Helvetica', 'Avant Garde', sans-serif; text-anchor: end" x="24.373143" y="186.477038" transform="rotate(-0 24.373143 186.477038)">0.8</text>
     </g>
    </g>
    <g id="ytick_10">
     <g id="line2d_32">
      <g>
       <use xlink:href="#mac46b8d0e9" x="29.873143" y="167.422442" style="stroke: #000000; stroke-width: 0.8"/>
      </g>
     </g>
     <g id="text_22">
      <text style="font-size: 6px; font-family: 'DejaVu Sans', 'Bitstream Vera Sans', 'Computer Modern Sans Serif', 'Lucida Grande', 'Verdana', 'Geneva', 'Lucid', 'Arial', 'Helvetica', 'Avant Garde', sans-serif; text-anchor: end" x="24.373143" y="169.701973" transform="rotate(-0 24.373143 169.701973)">1.6</text>
     </g>
    </g>
    <g id="text_23">
     <!-- $\mathbf{x_{1}}$ -->
     <g transform="translate(7.139705 205.652571) rotate(-90)">
      <text>
       <tspan x="0" y="-0.625" style="font-weight: 700; font-size: 8px; font-family: 'DejaVu Sans'">x</tspan>
       <tspan x="5.236719" y="0.6875" style="font-weight: 700; font-size: 5.6px; font-family: 'DejaVu Sans'">1</tspan>
      </text>
     </g>
    </g>
   </g>
   <g id="patch_8">
    <path d="M 29.873143 247.104 
L 29.873143 154.841143 
" style="fill: none; stroke: #000000; stroke-width: 0.8; stroke-linejoin: miter; stroke-linecap: square"/>
   </g>
   <g id="patch_9">
    <path d="M 122.136 247.104 
L 122.136 154.841143 
" style="fill: none; stroke: #000000; stroke-width: 0.8; stroke-linejoin: miter; stroke-linecap: square"/>
   </g>
   <g id="patch_10">
    <path d="M 29.873143 247.104 
L 122.136 247.104 
" style="fill: none; stroke: #000000; stroke-width: 0.8; stroke-linejoin: miter; stroke-linecap: square"/>
   </g>
   <g id="patch_11">
    <path d="M 29.873143 154.841143 
L 122.136 154.841143 
" style="fill: none; stroke: #000000; stroke-width: 0.8; stroke-linejoin: miter; stroke-linecap: square"/>
   </g>
  </g>
  <g id="axes_3">
   <g id="patch_12">
    <path d="M 132.456 247.104 
L 224.718857 247.104 
L 224.718857 154.841143 
L 132.456 154.841143 
z
" style="fill: #ffffff"/>
   </g>
   <g id="axes_4">
    <g id="patch_13">
     <path d="M 132.456 247.104 
L 132.456 247.104 
L 132.456 154.841143 
L 132.456 154.841143 
z
" style="fill: #ffffff"/>
    </g>
    <g id="matplotlib.axis_5"/>
    <g id="matplotlib.axis_6">
     <g id="ytick_11">
      <g id="line2d_33">
       <defs>
        <path id="ma0f4bbcde3" d="M 0 0 
L -3.5 0 
" style="stroke: #ffffff; stroke-opacity: 0; stroke-width: 0.8"/>
       </defs>
       <g>
        <use xlink:href="#ma0f4bbcde3" x="132.456" y="246.345229" style="fill: #ffffff; fill-opacity: 0; stroke: #ffffff; stroke-opacity: 0; stroke-width: 0.8"/>
       </g>
      </g>
     </g>
     <g id="ytick_12">
      <g id="line2d_34">
       <g>
        <use xlink:href="#ma0f4bbcde3" x="132.456" y="209.301194" style="fill: #ffffff; fill-opacity: 0; stroke: #ffffff; stroke-opacity: 0; stroke-width: 0.8"/>
       </g>
      </g>
     </g>
     <g id="ytick_13">
      <g id="line2d_35">
       <g>
        <use xlink:href="#ma0f4bbcde3" x="132.456" y="172.257159" style="fill: #ffffff; fill-opacity: 0; stroke: #ffffff; stroke-opacity: 0; stroke-width: 0.8"/>
       </g>
      </g>
     </g>
    </g>
    <g id="patch_14">
     <path d="M 132.456 247.104 
L 132.456 154.841143 
" style="fill: none; stroke: #000000; stroke-width: 0.8; stroke-linejoin: miter; stroke-linecap: square"/>
    </g>
   </g>
   <g id="matplotlib.axis_7">
    <g id="xtick_11">
     <g id="line2d_36">
      <g>
       <use xlink:href="#mb162e71b20" x="145.037299" y="247.104" style="stroke: #000000; stroke-width: 0.8"/>
      </g>
     </g>
     <g id="line2d_37">
      <g>
       <use xlink:href="#m554a847653" x="145.037299" y="154.841143" style="stroke: #000000; stroke-width: 0.8"/>
      </g>
     </g>
     <g id="text_24">
      <text style="font-size: 6px; font-family: 'DejaVu Sans', 'Bitstream Vera Sans', 'Computer Modern Sans Serif', 'Lucida Grande', 'Verdana', 'Geneva', 'Lucid', 'Arial', 'Helvetica', 'Avant Garde', sans-serif" transform="translate(141.05684 266.130069) rotate(-45)">−1.6</text>
     </g>
     <g id="text_25">
      <text style="font-size: 6px; font-family: 'DejaVu Sans', 'Bitstream Vera Sans', 'Computer Modern Sans Serif', 'Lucida Grande', 'Verdana', 'Geneva', 'Lucid', 'Arial', 'Helvetica', 'Avant Garde', sans-serif" transform="translate(141.05684 148.458806) rotate(-45)">−1.6</text>
     </g>
    </g>
    <g id="xtick_12">
     <g id="line2d_38">
      <g>
       <use xlink:href="#mb162e71b20" x="161.812364" y="247.104" style="stroke: #000000; stroke-width: 0.8"/>
      </g>
     </g>
     <g id="line2d_39">
      <g>
       <use xlink:href="#m554a847653" x="161.812364" y="154.841143" style="stroke: #000000; stroke-width: 0.8"/>
      </g>
     </g>
     <g id="text_26">
      <text style="font-size: 6px; font-family: 'DejaVu Sans', 'Bitstream Vera Sans', 'Computer Modern Sans Serif', 'Lucida Grande', 'Verdana', 'Geneva', 'Lucid', 'Arial', 'Helvetica', 'Avant Garde', sans-serif" transform="translate(157.831905 266.130069) rotate(-45)">−0.8</text>
     </g>
     <g id="text_27">
      <text style="font-size: 6px; font-family: 'DejaVu Sans', 'Bitstream Vera Sans', 'Computer Modern Sans Serif', 'Lucida Grande', 'Verdana', 'Geneva', 'Lucid', 'Arial', 'Helvetica', 'Avant Garde', sans-serif" transform="translate(157.831905 148.458806) rotate(-45)">−0.8</text>
     </g>
    </g>
    <g id="xtick_13">
     <g id="line2d_40">
      <g>
       <use xlink:href="#mb162e71b20" x="178.587429" y="247.104" style="stroke: #000000; stroke-width: 0.8"/>
      </g>
     </g>
     <g id="line2d_41">
      <g>
       <use xlink:href="#m554a847653" x="178.587429" y="154.841143" style="stroke: #000000; stroke-width: 0.8"/>
      </g>
     </g>
     <g id="text_28">
      <text style="font-size: 6px; font-family: 'DejaVu Sans', 'Bitstream Vera Sans', 'Computer Modern Sans Serif', 'Lucida Grande', 'Verdana', 'Geneva', 'Lucid', 'Arial', 'Helvetica', 'Avant Garde', sans-serif" transform="translate(176.38457 262.574869) rotate(-45)">0.0</text>
     </g>
     <g id="text_29">
      <text style="font-size: 6px; font-family: 'DejaVu Sans', 'Bitstream Vera Sans', 'Computer Modern Sans Serif', 'Lucida Grande', 'Verdana', 'Geneva', 'Lucid', 'Arial', 'Helvetica', 'Avant Garde', sans-serif" transform="translate(176.38457 148.458806) rotate(-45)">0.0</text>
     </g>
    </g>
    <g id="xtick_14">
     <g id="line2d_42">
      <g>
       <use xlink:href="#mb162e71b20" x="195.362494" y="247.104" style="stroke: #000000; stroke-width: 0.8"/>
      </g>
     </g>
     <g id="line2d_43">
      <g>
       <use xlink:href="#m554a847653" x="195.362494" y="154.841143" style="stroke: #000000; stroke-width: 0.8"/>
      </g>
     </g>
     <g id="text_30">
      <text style="font-size: 6px; font-family: 'DejaVu Sans', 'Bitstream Vera Sans', 'Computer Modern Sans Serif', 'Lucida Grande', 'Verdana', 'Geneva', 'Lucid', 'Arial', 'Helvetica', 'Avant Garde', sans-serif" transform="translate(193.159635 262.574869) rotate(-45)">0.8</text>
     </g>
     <g id="text_31">
      <text style="font-size: 6px; font-family: 'DejaVu Sans', 'Bitstream Vera Sans', 'Computer Modern Sans Serif', 'Lucida Grande', 'Verdana', 'Geneva', 'Lucid', 'Arial', 'Helvetica', 'Avant Garde', sans-serif" transform="translate(193.159635 148.458806) rotate(-45)">0.8</text>
     </g>
    </g>
    <g id="xtick_15">
     <g id="line2d_44">
      <g>
       <use xlink:href="#mb162e71b20" x="212.137558" y="247.104" style="stroke: #000000; stroke-width: 0.8"/>
      </g>
     </g>
     <g id="line2d_45">
      <g>
       <use xlink:href="#m554a847653" x="212.137558" y="154.841143" style="stroke: #000000; stroke-width: 0.8"/>
      </g>
     </g>
     <g id="text_32">
      <text style="font-size: 6px; font-family: 'DejaVu Sans', 'Bitstream Vera Sans', 'Computer Modern Sans Serif', 'Lucida Grande', 'Verdana', 'Geneva', 'Lucid', 'Arial', 'Helvetica', 'Avant Garde', sans-serif" transform="translate(209.9347 262.574869) rotate(-45)">1.6</text>
     </g>
     <g id="text_33">
      <text style="font-size: 6px; font-family: 'DejaVu Sans', 'Bitstream Vera Sans', 'Computer Modern Sans Serif', 'Lucida Grande', 'Verdana', 'Geneva', 'Lucid', 'Arial', 'Helvetica', 'Avant Garde', sans-serif" transform="translate(209.9347 148.458806) rotate(-45)">1.6</text>
     </g>
    </g>
    <g id="text_34">
     <!-- $\mathbf{x_{1}}$ -->
     <g transform="translate(173.907429 130.932737)">
      <text>
       <tspan x="0" y="-0.625" style="font-weight: 700; font-size: 8px; font-family: 'DejaVu Sans'">x</tspan>
       <tspan x="5.236719" y="0.6875" style="font-weight: 700; font-size: 5.6px; font-family: 'DejaVu Sans'">1</tspan>
      </text>
     </g>
    </g>
   </g>
   <g id="matplotlib.axis_8">
    <g id="ytick_14">
     <g id="line2d_46">
      <g>
       <use xlink:href="#mc73dd39c9f" x="224.718857" y="246.345229" style="stroke: #000000; stroke-width: 0.8"/>
      </g>
     </g>
     <g id="text_35">
      <text style="font-size: 6px; font-family: 'DejaVu Sans', 'Bitstream Vera Sans', 'Computer Modern Sans Serif', 'Lucida Grande', 'Verdana', 'Geneva', 'Lucid', 'Arial', 'Helvetica', 'Avant Garde', sans-serif; text-anchor: start" x="233.330729" y="247.957101" transform="rotate(-45 233.330729 247.957101)">0</text>
     </g>
    </g>
    <g id="ytick_15">
     <g id="line2d_47">
      <g>
       <use xlink:href="#mc73dd39c9f" x="224.718857" y="227.823212" style="stroke: #000000; stroke-width: 0.8"/>
      </g>
     </g>
     <g id="text_36">
      <text style="font-size: 6px; font-family: 'DejaVu Sans', 'Bitstream Vera Sans', 'Computer Modern Sans Serif', 'Lucida Grande', 'Verdana', 'Geneva', 'Lucid', 'Arial', 'Helvetica', 'Avant Garde', sans-serif; text-anchor: start" x="233.330729" y="229.435084" transform="rotate(-45 233.330729 229.435084)">500</text>
     </g>
    </g>
    <g id="ytick_16">
     <g id="line2d_48">
      <g>
       <use xlink:href="#mc73dd39c9f" x="224.718857" y="209.301194" style="stroke: #000000; stroke-width: 0.8"/>
      </g>
     </g>
     <g id="text_37">
      <text style="font-size: 6px; font-family: 'DejaVu Sans', 'Bitstream Vera Sans', 'Computer Modern Sans Serif', 'Lucida Grande', 'Verdana', 'Geneva', 'Lucid', 'Arial', 'Helvetica', 'Avant Garde', sans-serif; text-anchor: start" x="233.330729" y="210.913066" transform="rotate(-45 233.330729 210.913066)">1000</text>
     </g>
    </g>
    <g id="ytick_17">
     <g id="line2d_49">
      <g>
       <use xlink:href="#mc73dd39c9f" x="224.718857" y="190.779177" style="stroke: #000000; stroke-width: 0.8"/>
      </g>
     </g>
     <g id="text_38">
      <text style="font-size: 6px; font-family: 'DejaVu Sans', 'Bitstream Vera Sans', 'Computer Modern Sans Serif', 'Lucida Grande', 'Verdana', 'Geneva', 'Lucid', 'Arial', 'Helvetica', 'Avant Garde', sans-serif; text-anchor: start" x="233.330729" y="192.391049" transform="rotate(-45 233.330729 192.391049)">1500</text>
     </g>
    </g>
    <g id="ytick_18">
     <g id="line2d_50">
      <g>
       <use xlink:href="#mc73dd39c9f" x="224.718857" y="172.257159" style="stroke: #000000; stroke-width: 0.8"/>
      </g>
     </g>
     <g id="text_39">
      <text style="font-size: 6px; font-family: 'DejaVu Sans', 'Bitstream Vera Sans', 'Computer Modern Sans Serif', 'Lucida Grande', 'Verdana', 'Geneva', 'Lucid', 'Arial', 'Helvetica', 'Avant Garde', sans-serif; text-anchor: start" x="233.330729" y="173.869031" transform="rotate(-45 233.330729 173.869031)">2000</text>
     </g>
    </g>
   </g>
   <g id="line2d_51">
    <path d="M 132.456 213.841208 
L 140.843532 219.2586 
L 149.231065 224.601729 
L 157.618597 229.463151 
L 166.00613 233.675361 
L 174.393662 237.174697 
L 182.781195 239.843336 
L 191.168727 241.447534 
L 199.55626 241.724725 
L 207.943792 240.569595 
L 216.331325 238.197869 
L 224.718857 235.173669 
" clip-path="url(#pf913e1924a)" style="fill: none; stroke: #1f77b4; stroke-width: 1.5; stroke-linecap: square"/>
   </g>
   <g id="line2d_52">
    <path d="M 199.55626 247.104 
L 199.55626 154.841143 
" clip-path="url(#pf913e1924a)" style="fill: none; stroke-dasharray: 3.7,1.6; stroke-dashoffset: 0; stroke: #ff0000"/>
   </g>
   <g id="patch_15">
    <path d="M 132.456 247.104 
L 132.456 154.841143 
" style="fill: none; stroke: #000000; stroke-width: 0.8; stroke-linejoin: miter; stroke-linecap: square"/>
   </g>
   <g id="patch_16">
    <path d="M 224.718857 247.104 
L 224.718857 154.841143 
" style="fill: none; stroke: #000000; stroke-width: 0.8; stroke-linejoin: miter; stroke-linecap: square"/>
   </g>
   <g id="patch_17">
    <path d="M 132.456 247.104 
L 224.718857 247.104 
" style="fill: none; stroke: #000000; stroke-width: 0.8; stroke-linejoin: miter; stroke-linecap: square"/>
   </g>
   <g id="patch_18">
    <path d="M 132.456 154.841143 
L 224.718857 154.841143 
" style="fill: none; stroke: #000000; stroke-width: 0.8; stroke-linejoin: miter; stroke-linecap: square"/>
   </g>
  </g>
  <g id="watermark">
   <text style="font-size: 10px; font-family: 'DejaVu Sans', 'Bitstream Vera Sans', 'Computer Modern Sans Serif', 'Lucida Grande', 'Verdana', 'Geneva', 'Lucid', 'Arial', 'Helvetica', 'Avant Garde', sans-serif; text-anchor: start; opacity: 0.01" x="2.448" y="277.992" transform="rotate(-0 2.448 277.992)">Created with SAMBO, https://sambo-optimization.github.io</text>
  </g>
  <g id="text_40">
   <text style="font-size: 10px; font-family: 'DejaVu Sans', 'Bitstream Vera Sans', 'Computer Modern Sans Serif', 'Lucida Grande', 'Verdana', 'Geneva', 'Lucid', 'Arial', 'Helvetica', 'Avant Garde', sans-serif; text-anchor: middle" x="122.4" y="13.214437" transform="rotate(-0 122.4 13.214437)">Partial dependence</text>
  </g>
 </g>
 <defs>
  <clipPath id="p286ff3b339">
   <rect x="29.873143" y="53.352" width="92.262857" height="92.262857"/>
  </clipPath>
  <clipPath id="p39f24d6865">
   <rect x="29.873143" y="154.841143" width="92.262857" height="92.262857"/>
  </clipPath>
  <clipPath id="pf913e1924a">
   <rect x="132.456" y="154.841143" width="92.262857" height="92.262857"/>
  </clipPath>
 </defs>
</svg>
