<?xml version="1.0" encoding="utf-8" standalone="no"?>
<!DOCTYPE svg PUBLIC "-//W3C//DTD SVG 1.1//EN"
  "http://www.w3.org/Graphics/SVG/1.1/DTD/svg11.dtd">
<svg xmlns:xlink="http://www.w3.org/1999/xlink" width="288pt" height="324pt" viewBox="0 0 288 324" xmlns="http://www.w3.org/2000/svg" version="1.1">
 <metadata>
  <rdf:RDF xmlns:dc="http://purl.org/dc/elements/1.1/" xmlns:cc="http://creativecommons.org/ns#" xmlns:rdf="http://www.w3.org/1999/02/22-rdf-syntax-ns#">
   <cc:Work>
    <dc:type rdf:resource="http://purl.org/dc/dcmitype/StillImage"/>
    <dc:date>2024-12-14T01:51:55.792165</dc:date>
    <dc:format>image/svg+xml</dc:format>
    <dc:creator>
     <cc:Agent>
      <dc:title>Matplotlib v3.9.4, https://matplotlib.org/</dc:title>
     </cc:Agent>
    </dc:creator>
   </cc:Work>
  </rdf:RDF>
 </metadata>
 <defs>
  <style type="text/css">*{stroke-linejoin: round; stroke-linecap: butt}</style>
 </defs>
 <g id="figure_1">
  <g id="patch_1">
   <path d="M 0 324 
L 288 324 
L 288 0 
L 0 0 
z
" style="fill: #ffffff"/>
  </g>
  <g id="axes_1">
   <g id="patch_2">
    <path d="M 31.537674 171.267907 
L 134.765581 171.267907 
L 134.765581 68.04 
L 31.537674 68.04 
z
" style="fill: #ffffff"/>
   </g>
   <g id="matplotlib.axis_1">
    <g id="xtick_1">
     <g id="line2d_1">
      <defs>
       <path id="m08d4b303a8" d="M 0 0 
L 0 3.5 
" style="stroke: #000000; stroke-width: 0.8"/>
      </defs>
      <g>
       <use xlink:href="#m08d4b303a8" x="45.614207" y="171.267907" style="stroke: #000000; stroke-width: 0.8"/>
      </g>
     </g>
     <g id="line2d_2">
      <defs>
       <path id="me5a0474e5b" d="M 0 0 
L 0 -3.5 
" style="stroke: #000000; stroke-width: 0.8"/>
      </defs>
      <g>
       <use xlink:href="#me5a0474e5b" x="45.614207" y="68.04" style="stroke: #000000; stroke-width: 0.8"/>
      </g>
     </g>
     <g id="text_1">
      <!-- −1.6 -->
      <g transform="translate(40.970339 61.510607) rotate(-45) scale(0.07 -0.07)">
       <defs>
        <path id="DejaVuSans-2212" d="M 678 2272 
L 4684 2272 
L 4684 1741 
L 678 1741 
L 678 2272 
z
" transform="scale(0.015625)"/>
        <path id="DejaVuSans-31" d="M 794 531 
L 1825 531 
L 1825 4091 
L 703 3866 
L 703 4441 
L 1819 4666 
L 2450 4666 
L 2450 531 
L 3481 531 
L 3481 0 
L 794 0 
L 794 531 
z
" transform="scale(0.015625)"/>
        <path id="DejaVuSans-2e" d="M 684 794 
L 1344 794 
L 1344 0 
L 684 0 
L 684 794 
z
" transform="scale(0.015625)"/>
        <path id="DejaVuSans-36" d="M 2113 2584 
Q 1688 2584 1439 2293 
Q 1191 2003 1191 1497 
Q 1191 994 1439 701 
Q 1688 409 2113 409 
Q 2538 409 2786 701 
Q 3034 994 3034 1497 
Q 3034 2003 2786 2293 
Q 2538 2584 2113 2584 
z
M 3366 4563 
L 3366 3988 
Q 3128 4100 2886 4159 
Q 2644 4219 2406 4219 
Q 1781 4219 1451 3797 
Q 1122 3375 1075 2522 
Q 1259 2794 1537 2939 
Q 1816 3084 2150 3084 
Q 2853 3084 3261 2657 
Q 3669 2231 3669 1497 
Q 3669 778 3244 343 
Q 2819 -91 2113 -91 
Q 1303 -91 875 529 
Q 447 1150 447 2328 
Q 447 3434 972 4092 
Q 1497 4750 2381 4750 
Q 2619 4750 2861 4703 
Q 3103 4656 3366 4563 
z
" transform="scale(0.015625)"/>
       </defs>
       <use xlink:href="#DejaVuSans-2212"/>
       <use xlink:href="#DejaVuSans-31" x="83.789062"/>
       <use xlink:href="#DejaVuSans-2e" x="147.412109"/>
       <use xlink:href="#DejaVuSans-36" x="179.199219"/>
      </g>
     </g>
    </g>
    <g id="xtick_2">
     <g id="line2d_3">
      <g>
       <use xlink:href="#m08d4b303a8" x="64.382918" y="171.267907" style="stroke: #000000; stroke-width: 0.8"/>
      </g>
     </g>
     <g id="line2d_4">
      <g>
       <use xlink:href="#me5a0474e5b" x="64.382918" y="68.04" style="stroke: #000000; stroke-width: 0.8"/>
      </g>
     </g>
     <g id="text_2">
      <!-- −0.8 -->
      <g transform="translate(59.739049 61.510607) rotate(-45) scale(0.07 -0.07)">
       <defs>
        <path id="DejaVuSans-30" d="M 2034 4250 
Q 1547 4250 1301 3770 
Q 1056 3291 1056 2328 
Q 1056 1369 1301 889 
Q 1547 409 2034 409 
Q 2525 409 2770 889 
Q 3016 1369 3016 2328 
Q 3016 3291 2770 3770 
Q 2525 4250 2034 4250 
z
M 2034 4750 
Q 2819 4750 3233 4129 
Q 3647 3509 3647 2328 
Q 3647 1150 3233 529 
Q 2819 -91 2034 -91 
Q 1250 -91 836 529 
Q 422 1150 422 2328 
Q 422 3509 836 4129 
Q 1250 4750 2034 4750 
z
" transform="scale(0.015625)"/>
        <path id="DejaVuSans-38" d="M 2034 2216 
Q 1584 2216 1326 1975 
Q 1069 1734 1069 1313 
Q 1069 891 1326 650 
Q 1584 409 2034 409 
Q 2484 409 2743 651 
Q 3003 894 3003 1313 
Q 3003 1734 2745 1975 
Q 2488 2216 2034 2216 
z
M 1403 2484 
Q 997 2584 770 2862 
Q 544 3141 544 3541 
Q 544 4100 942 4425 
Q 1341 4750 2034 4750 
Q 2731 4750 3128 4425 
Q 3525 4100 3525 3541 
Q 3525 3141 3298 2862 
Q 3072 2584 2669 2484 
Q 3125 2378 3379 2068 
Q 3634 1759 3634 1313 
Q 3634 634 3220 271 
Q 2806 -91 2034 -91 
Q 1263 -91 848 271 
Q 434 634 434 1313 
Q 434 1759 690 2068 
Q 947 2378 1403 2484 
z
M 1172 3481 
Q 1172 3119 1398 2916 
Q 1625 2713 2034 2713 
Q 2441 2713 2670 2916 
Q 2900 3119 2900 3481 
Q 2900 3844 2670 4047 
Q 2441 4250 2034 4250 
Q 1625 4250 1398 4047 
Q 1172 3844 1172 3481 
z
" transform="scale(0.015625)"/>
       </defs>
       <use xlink:href="#DejaVuSans-2212"/>
       <use xlink:href="#DejaVuSans-30" x="83.789062"/>
       <use xlink:href="#DejaVuSans-2e" x="147.412109"/>
       <use xlink:href="#DejaVuSans-38" x="179.199219"/>
      </g>
     </g>
    </g>
    <g id="xtick_3">
     <g id="line2d_5">
      <g>
       <use xlink:href="#m08d4b303a8" x="83.151628" y="171.267907" style="stroke: #000000; stroke-width: 0.8"/>
      </g>
     </g>
     <g id="line2d_6">
      <g>
       <use xlink:href="#me5a0474e5b" x="83.151628" y="68.04" style="stroke: #000000; stroke-width: 0.8"/>
      </g>
     </g>
     <g id="text_3">
      <!-- 0.0 -->
      <g transform="translate(80.581626 61.510607) rotate(-45) scale(0.07 -0.07)">
       <use xlink:href="#DejaVuSans-30"/>
       <use xlink:href="#DejaVuSans-2e" x="63.623047"/>
       <use xlink:href="#DejaVuSans-30" x="95.410156"/>
      </g>
     </g>
    </g>
    <g id="xtick_4">
     <g id="line2d_7">
      <g>
       <use xlink:href="#m08d4b303a8" x="101.920338" y="171.267907" style="stroke: #000000; stroke-width: 0.8"/>
      </g>
     </g>
     <g id="line2d_8">
      <g>
       <use xlink:href="#me5a0474e5b" x="101.920338" y="68.04" style="stroke: #000000; stroke-width: 0.8"/>
      </g>
     </g>
     <g id="text_4">
      <!-- 0.8 -->
      <g transform="translate(99.350337 61.510607) rotate(-45) scale(0.07 -0.07)">
       <use xlink:href="#DejaVuSans-30"/>
       <use xlink:href="#DejaVuSans-2e" x="63.623047"/>
       <use xlink:href="#DejaVuSans-38" x="95.410156"/>
      </g>
     </g>
    </g>
    <g id="xtick_5">
     <g id="line2d_9">
      <g>
       <use xlink:href="#m08d4b303a8" x="120.689049" y="171.267907" style="stroke: #000000; stroke-width: 0.8"/>
      </g>
     </g>
     <g id="line2d_10">
      <g>
       <use xlink:href="#me5a0474e5b" x="120.689049" y="68.04" style="stroke: #000000; stroke-width: 0.8"/>
      </g>
     </g>
     <g id="text_5">
      <!-- 1.6 -->
      <g transform="translate(118.119047 61.510607) rotate(-45) scale(0.07 -0.07)">
       <use xlink:href="#DejaVuSans-31"/>
       <use xlink:href="#DejaVuSans-2e" x="63.623047"/>
       <use xlink:href="#DejaVuSans-36" x="95.410156"/>
      </g>
     </g>
    </g>
    <g id="text_6">
     <!-- $\mathbf{x_{0}}$ -->
     <g transform="translate(77.301628 41.730194) scale(0.1 -0.1)">
      <defs>
       <path id="DejaVuSans-Bold-78" d="M 1422 1791 
L 159 3500 
L 1344 3500 
L 2059 2463 
L 2784 3500 
L 3969 3500 
L 2706 1797 
L 4031 0 
L 2847 0 
L 2059 1106 
L 1281 0 
L 97 0 
L 1422 1791 
z
" transform="scale(0.015625)"/>
       <path id="DejaVuSans-Bold-30" d="M 2944 2338 
Q 2944 3213 2780 3570 
Q 2616 3928 2228 3928 
Q 1841 3928 1675 3570 
Q 1509 3213 1509 2338 
Q 1509 1453 1675 1090 
Q 1841 728 2228 728 
Q 2613 728 2778 1090 
Q 2944 1453 2944 2338 
z
M 4147 2328 
Q 4147 1169 3647 539 
Q 3147 -91 2228 -91 
Q 1306 -91 806 539 
Q 306 1169 306 2328 
Q 306 3491 806 4120 
Q 1306 4750 2228 4750 
Q 3147 4750 3647 4120 
Q 4147 3491 4147 2328 
z
" transform="scale(0.015625)"/>
      </defs>
      <use xlink:href="#DejaVuSans-Bold-78" transform="translate(0 0.3125)"/>
      <use xlink:href="#DejaVuSans-Bold-30" transform="translate(65.458984 -16.09375) scale(0.7)"/>
     </g>
    </g>
   </g>
   <g id="matplotlib.axis_2">
    <g id="ytick_1">
     <g id="line2d_11">
      <defs>
       <path id="mda8d3a458b" d="M 0 0 
L 3.5 0 
" style="stroke: #000000; stroke-width: 0.8"/>
      </defs>
      <g>
       <use xlink:href="#mda8d3a458b" x="134.765581" y="153.553818" style="stroke: #000000; stroke-width: 0.8"/>
      </g>
     </g>
     <g id="text_7">
      <!-- 300 -->
      <g transform="translate(143.646099 155.434336) rotate(-45) scale(0.07 -0.07)">
       <defs>
        <path id="DejaVuSans-33" d="M 2597 2516 
Q 3050 2419 3304 2112 
Q 3559 1806 3559 1356 
Q 3559 666 3084 287 
Q 2609 -91 1734 -91 
Q 1441 -91 1130 -33 
Q 819 25 488 141 
L 488 750 
Q 750 597 1062 519 
Q 1375 441 1716 441 
Q 2309 441 2620 675 
Q 2931 909 2931 1356 
Q 2931 1769 2642 2001 
Q 2353 2234 1838 2234 
L 1294 2234 
L 1294 2753 
L 1863 2753 
Q 2328 2753 2575 2939 
Q 2822 3125 2822 3475 
Q 2822 3834 2567 4026 
Q 2313 4219 1838 4219 
Q 1578 4219 1281 4162 
Q 984 4106 628 3988 
L 628 4550 
Q 988 4650 1302 4700 
Q 1616 4750 1894 4750 
Q 2613 4750 3031 4423 
Q 3450 4097 3450 3541 
Q 3450 3153 3228 2886 
Q 3006 2619 2597 2516 
z
" transform="scale(0.015625)"/>
       </defs>
       <use xlink:href="#DejaVuSans-33"/>
       <use xlink:href="#DejaVuSans-30" x="63.623047"/>
       <use xlink:href="#DejaVuSans-30" x="127.246094"/>
      </g>
     </g>
    </g>
    <g id="ytick_2">
     <g id="line2d_12">
      <g>
       <use xlink:href="#mda8d3a458b" x="134.765581" y="133.922806" style="stroke: #000000; stroke-width: 0.8"/>
      </g>
     </g>
     <g id="text_8">
      <!-- 600 -->
      <g transform="translate(143.646099 135.803324) rotate(-45) scale(0.07 -0.07)">
       <use xlink:href="#DejaVuSans-36"/>
       <use xlink:href="#DejaVuSans-30" x="63.623047"/>
       <use xlink:href="#DejaVuSans-30" x="127.246094"/>
      </g>
     </g>
    </g>
    <g id="ytick_3">
     <g id="line2d_13">
      <g>
       <use xlink:href="#mda8d3a458b" x="134.765581" y="114.291794" style="stroke: #000000; stroke-width: 0.8"/>
      </g>
     </g>
     <g id="text_9">
      <!-- 900 -->
      <g transform="translate(143.646099 116.172311) rotate(-45) scale(0.07 -0.07)">
       <defs>
        <path id="DejaVuSans-39" d="M 703 97 
L 703 672 
Q 941 559 1184 500 
Q 1428 441 1663 441 
Q 2288 441 2617 861 
Q 2947 1281 2994 2138 
Q 2813 1869 2534 1725 
Q 2256 1581 1919 1581 
Q 1219 1581 811 2004 
Q 403 2428 403 3163 
Q 403 3881 828 4315 
Q 1253 4750 1959 4750 
Q 2769 4750 3195 4129 
Q 3622 3509 3622 2328 
Q 3622 1225 3098 567 
Q 2575 -91 1691 -91 
Q 1453 -91 1209 -44 
Q 966 3 703 97 
z
M 1959 2075 
Q 2384 2075 2632 2365 
Q 2881 2656 2881 3163 
Q 2881 3666 2632 3958 
Q 2384 4250 1959 4250 
Q 1534 4250 1286 3958 
Q 1038 3666 1038 3163 
Q 1038 2656 1286 2365 
Q 1534 2075 1959 2075 
z
" transform="scale(0.015625)"/>
       </defs>
       <use xlink:href="#DejaVuSans-39"/>
       <use xlink:href="#DejaVuSans-30" x="63.623047"/>
       <use xlink:href="#DejaVuSans-30" x="127.246094"/>
      </g>
     </g>
    </g>
    <g id="ytick_4">
     <g id="line2d_14">
      <g>
       <use xlink:href="#mda8d3a458b" x="134.765581" y="94.660782" style="stroke: #000000; stroke-width: 0.8"/>
      </g>
     </g>
     <g id="text_10">
      <!-- 1200 -->
      <g transform="translate(143.646099 96.541299) rotate(-45) scale(0.07 -0.07)">
       <defs>
        <path id="DejaVuSans-32" d="M 1228 531 
L 3431 531 
L 3431 0 
L 469 0 
L 469 531 
Q 828 903 1448 1529 
Q 2069 2156 2228 2338 
Q 2531 2678 2651 2914 
Q 2772 3150 2772 3378 
Q 2772 3750 2511 3984 
Q 2250 4219 1831 4219 
Q 1534 4219 1204 4116 
Q 875 4013 500 3803 
L 500 4441 
Q 881 4594 1212 4672 
Q 1544 4750 1819 4750 
Q 2544 4750 2975 4387 
Q 3406 4025 3406 3419 
Q 3406 3131 3298 2873 
Q 3191 2616 2906 2266 
Q 2828 2175 2409 1742 
Q 1991 1309 1228 531 
z
" transform="scale(0.015625)"/>
       </defs>
       <use xlink:href="#DejaVuSans-31"/>
       <use xlink:href="#DejaVuSans-32" x="63.623047"/>
       <use xlink:href="#DejaVuSans-30" x="127.246094"/>
       <use xlink:href="#DejaVuSans-30" x="190.869141"/>
      </g>
     </g>
    </g>
    <g id="ytick_5">
     <g id="line2d_15">
      <g>
       <use xlink:href="#mda8d3a458b" x="134.765581" y="75.029769" style="stroke: #000000; stroke-width: 0.8"/>
      </g>
     </g>
     <g id="text_11">
      <!-- 1500 -->
      <g transform="translate(143.646099 76.910287) rotate(-45) scale(0.07 -0.07)">
       <defs>
        <path id="DejaVuSans-35" d="M 691 4666 
L 3169 4666 
L 3169 4134 
L 1269 4134 
L 1269 2991 
Q 1406 3038 1543 3061 
Q 1681 3084 1819 3084 
Q 2600 3084 3056 2656 
Q 3513 2228 3513 1497 
Q 3513 744 3044 326 
Q 2575 -91 1722 -91 
Q 1428 -91 1123 -41 
Q 819 9 494 109 
L 494 744 
Q 775 591 1075 516 
Q 1375 441 1709 441 
Q 2250 441 2565 725 
Q 2881 1009 2881 1497 
Q 2881 1984 2565 2268 
Q 2250 2553 1709 2553 
Q 1456 2553 1204 2497 
Q 953 2441 691 2322 
L 691 4666 
z
" transform="scale(0.015625)"/>
       </defs>
       <use xlink:href="#DejaVuSans-31"/>
       <use xlink:href="#DejaVuSans-35" x="63.623047"/>
       <use xlink:href="#DejaVuSans-30" x="127.246094"/>
       <use xlink:href="#DejaVuSans-30" x="190.869141"/>
      </g>
     </g>
    </g>
   </g>
   <g id="line2d_16">
    <path d="M 31.537674 72.732178 
L 40.92203 113.561202 
L 50.306385 144.462666 
L 59.69074 160.0317 
L 69.075095 165.336543 
L 78.45945 166.350544 
L 87.843805 166.575729 
L 97.228161 166.273348 
L 106.612516 160.285575 
L 115.996871 141.764269 
L 125.381226 112.351102 
L 134.765581 85.286138 
" clip-path="url(#p4a9d8787e2)" style="fill: none; stroke: #1f77b4; stroke-width: 1.5; stroke-linecap: square"/>
   </g>
   <g id="line2d_17">
    <path d="M 106.612516 171.267907 
L 106.612516 68.04 
" clip-path="url(#p4a9d8787e2)" style="fill: none; stroke-dasharray: 3.7,1.6; stroke-dashoffset: 0; stroke: #ff0000"/>
   </g>
   <g id="patch_3">
    <path d="M 31.537674 171.267907 
L 31.537674 68.04 
" style="fill: none; stroke: #000000; stroke-width: 0.8; stroke-linejoin: miter; stroke-linecap: square"/>
   </g>
   <g id="patch_4">
    <path d="M 134.765581 171.267907 
L 134.765581 68.04 
" style="fill: none; stroke: #000000; stroke-width: 0.8; stroke-linejoin: miter; stroke-linecap: square"/>
   </g>
   <g id="patch_5">
    <path d="M 31.537674 171.267907 
L 134.765581 171.267907 
" style="fill: none; stroke: #000000; stroke-width: 0.8; stroke-linejoin: miter; stroke-linecap: square"/>
   </g>
   <g id="patch_6">
    <path d="M 31.537674 68.04 
L 134.765581 68.04 
" style="fill: none; stroke: #000000; stroke-width: 0.8; stroke-linejoin: miter; stroke-linecap: square"/>
   </g>
  </g>
  <g id="axes_2">
   <g id="patch_7">
    <path d="M 31.537674 289.98 
L 134.765581 289.98 
L 134.765581 186.752093 
L 31.537674 186.752093 
z
" style="fill: #ffffff"/>
   </g>
   <g id="QuadContourSet_1">
    <path d="M 87.843805 239.931333 
L 97.228161 241.449194 
L 100.636699 233.673869 
L 103.251475 224.289514 
L 106.612516 214.905159 
L 106.612516 214.905159 
L 106.612516 214.905158 
L 106.612515 214.905159 
L 97.228161 217.150806 
L 90.928738 224.289514 
L 87.843805 230.297873 
L 81.009895 233.673869 
z
" clip-path="url(#p99e0f59226)" style="fill: #dfe318; fill-opacity: 0.8"/>
    <path d="M 78.45945 275.284873 
L 87.843805 274.996098 
L 92.119957 271.21129 
L 97.228161 265.586047 
L 99.370356 261.826934 
L 105.744103 252.442579 
L 106.612516 251.232432 
L 108.925228 243.058224 
L 110.709188 233.673869 
L 112.816726 224.289514 
L 115.996871 216.554661 
L 116.506378 214.905159 
L 120.322955 205.520803 
L 125.381226 197.300194 
L 126.548408 196.136448 
L 134.765581 187.082397 
L 134.765581 186.752093 
L 125.381226 186.752093 
L 115.996871 186.752093 
L 109.10523 186.752093 
L 106.612516 188.349348 
L 97.325022 196.136448 
L 97.228161 196.214693 
L 87.843805 202.006127 
L 78.45945 200.992759 
L 73.233388 196.136448 
L 69.075095 190.356152 
L 65.406084 186.752093 
L 59.69074 186.752093 
L 53.158466 186.752093 
L 50.306385 189.603291 
L 48.247036 196.136448 
L 44.756287 205.520803 
L 45.17127 214.905159 
L 48.862879 224.289514 
L 50.306385 228.059933 
L 53.714184 233.673869 
L 57.009745 243.058224 
L 59.69074 251.908906 
L 60.075078 252.442579 
L 67.18975 261.826934 
L 69.075095 265.047269 
L 74.51202 271.21129 
z
M 81.009895 233.673869 
L 87.843805 230.297873 
L 90.928738 224.289514 
L 97.228161 217.150806 
L 106.612515 214.905159 
L 106.612516 214.905158 
L 106.612516 214.905159 
L 106.612516 214.905159 
L 103.251475 224.289514 
L 100.636699 233.673869 
L 97.228161 241.449194 
L 87.843805 239.931333 
z
" clip-path="url(#p99e0f59226)" style="fill: #9bd93c; fill-opacity: 0.8"/>
    <path d="M 69.075095 288.361295 
L 74.54918 289.98 
L 78.45945 289.98 
L 81.632855 289.98 
L 87.843805 288.878294 
L 97.228161 284.212562 
L 100.917106 280.595645 
L 106.146832 271.21129 
L 106.612516 270.390332 
L 109.781415 261.826934 
L 112.49 252.442579 
L 114.429013 243.058224 
L 115.996871 235.023367 
L 116.154914 233.673869 
L 117.965465 224.289514 
L 121.558159 214.905159 
L 125.381226 208.770927 
L 128.350577 205.520803 
L 134.765581 199.115975 
L 134.765581 196.136448 
L 134.765581 187.082397 
L 126.548408 196.136448 
L 125.381226 197.300194 
L 120.322955 205.520803 
L 116.506378 214.905159 
L 115.996871 216.554661 
L 112.816726 224.289514 
L 110.709188 233.673869 
L 108.925228 243.058224 
L 106.612516 251.232432 
L 105.744103 252.442579 
L 99.370356 261.826934 
L 97.228161 265.586047 
L 92.119957 271.21129 
L 87.843805 274.996098 
L 78.45945 275.284873 
L 74.51202 271.21129 
L 69.075095 265.047269 
L 67.18975 261.826934 
L 60.075078 252.442579 
L 59.69074 251.908906 
L 57.009745 243.058224 
L 53.714184 233.673869 
L 50.306385 228.059933 
L 48.862879 224.289514 
L 45.17127 214.905159 
L 44.756287 205.520803 
L 48.247036 196.136448 
L 50.306385 189.603291 
L 53.158466 186.752093 
L 50.306385 186.752093 
L 40.92203 186.752093 
L 38.447434 186.752093 
L 37.736307 196.136448 
L 36.720266 205.520803 
L 38.752798 214.905159 
L 40.92203 219.31665 
L 43.612161 224.289514 
L 48.109383 233.673869 
L 50.306385 242.208013 
L 50.678922 243.058224 
L 53.748541 252.442579 
L 57.007806 261.826934 
L 59.69074 268.907671 
L 61.105813 271.21129 
L 64.725278 280.595645 
z
M 78.45945 200.992759 
L 87.843805 202.006127 
L 97.228161 196.214693 
L 97.325022 196.136448 
L 106.612516 188.349348 
L 109.10523 186.752093 
L 106.612516 186.752093 
L 97.228161 186.752093 
L 87.843805 186.752093 
L 78.45945 186.752093 
L 69.075095 186.752093 
L 65.406084 186.752093 
L 69.075095 190.356152 
L 73.233388 196.136448 
z
" clip-path="url(#p99e0f59226)" style="fill: #5cc863; fill-opacity: 0.8"/>
    <path d="M 40.92203 289.98 
L 50.306385 289.98 
L 59.69074 289.98 
L 69.075095 289.98 
L 74.54918 289.98 
L 69.075095 288.361295 
L 64.725278 280.595645 
L 61.105813 271.21129 
L 59.69074 268.907671 
L 57.007806 261.826934 
L 53.748541 252.442579 
L 50.678922 243.058224 
L 50.306385 242.208013 
L 48.109383 233.673869 
L 43.612161 224.289514 
L 40.92203 219.31665 
L 38.752798 214.905159 
L 36.720266 205.520803 
L 37.736307 196.136448 
L 38.447434 186.752093 
L 31.537674 186.752093 
L 31.537674 196.136448 
L 31.537674 205.520803 
L 31.537674 208.519004 
L 33.980011 214.905159 
L 39.272882 224.289514 
L 40.92203 227.512357 
L 44.389852 233.673869 
L 47.337172 243.058224 
L 48.850562 252.442579 
L 50.124127 261.826934 
L 50.306385 263.806499 
L 51.701365 271.21129 
L 50.438579 280.595645 
L 50.306385 280.798072 
L 40.92203 286.654085 
L 31.537674 287.51455 
L 31.537674 289.98 
z
M 87.843805 289.98 
L 97.228161 289.98 
L 106.612516 289.98 
L 115.996871 289.98 
L 125.381226 289.98 
L 134.765581 289.98 
L 134.765581 280.595645 
L 134.765581 279.201712 
L 125.381226 279.661978 
L 117.802191 271.21129 
L 117.46699 261.826934 
L 117.9449 252.442579 
L 118.490956 243.058224 
L 119.458119 233.673869 
L 121.700497 224.289514 
L 125.381226 216.762836 
L 126.578233 214.905159 
L 134.765581 206.219143 
L 134.765581 205.520803 
L 134.765581 199.115975 
L 128.350577 205.520803 
L 125.381226 208.770927 
L 121.558159 214.905159 
L 117.965465 224.289514 
L 116.154914 233.673869 
L 115.996871 235.023367 
L 114.429013 243.058224 
L 112.49 252.442579 
L 109.781415 261.826934 
L 106.612516 270.390332 
L 106.146832 271.21129 
L 100.917106 280.595645 
L 97.228161 284.212562 
L 87.843805 288.878294 
L 81.632855 289.98 
z
" clip-path="url(#p99e0f59226)" style="fill: #2fb47c; fill-opacity: 0.8"/>
    <path d="M 40.92203 286.654085 
L 50.306385 280.798072 
L 50.438579 280.595645 
L 51.701365 271.21129 
L 50.306385 263.806499 
L 50.124127 261.826934 
L 48.850562 252.442579 
L 47.337172 243.058224 
L 44.389852 233.673869 
L 40.92203 227.512357 
L 39.272882 224.289514 
L 33.980011 214.905159 
L 31.537674 208.519004 
L 31.537674 214.905159 
L 31.537674 217.485751 
L 35.891153 224.289514 
L 40.743969 233.673869 
L 40.92203 234.250624 
L 44.182312 243.058224 
L 45.507829 252.442579 
L 45.66211 261.826934 
L 43.919848 271.21129 
L 40.92203 275.678085 
L 31.537674 280.425129 
L 31.537674 280.595645 
L 31.537674 287.51455 
z
M 125.381226 279.661978 
L 134.765581 279.201712 
L 134.765581 271.21129 
L 134.765581 270.523804 
L 125.381226 264.316242 
L 124.290697 261.826934 
L 122.367657 252.442579 
L 121.978547 243.058224 
L 122.761324 233.673869 
L 125.381226 224.458438 
L 125.436966 224.289514 
L 131.49965 214.905159 
L 134.765581 211.440309 
L 134.765581 206.219143 
L 126.578233 214.905159 
L 125.381226 216.762836 
L 121.700497 224.289514 
L 119.458119 233.673869 
L 118.490956 243.058224 
L 117.9449 252.442579 
L 117.46699 261.826934 
L 117.802191 271.21129 
z
" clip-path="url(#p99e0f59226)" style="fill: #1e9c89; fill-opacity: 0.8"/>
    <path d="M 40.92203 275.678085 
L 43.919848 271.21129 
L 45.66211 261.826934 
L 45.507829 252.442579 
L 44.182312 243.058224 
L 40.92203 234.250624 
L 40.743969 233.673869 
L 35.891153 224.289514 
L 31.537674 217.485751 
L 31.537674 222.770832 
L 32.509423 224.289514 
L 38.112736 233.673869 
L 40.92203 242.773426 
L 41.027452 243.058224 
L 42.165096 252.442579 
L 41.200093 261.826934 
L 40.92203 262.706826 
L 36.487763 271.21129 
L 31.537674 274.915742 
L 31.537674 280.425129 
z
M 125.381226 264.316242 
L 134.765581 270.523804 
L 134.765581 263.281224 
L 132.955414 261.826934 
L 127.004552 252.442579 
L 125.473693 243.058224 
L 126.103936 233.673869 
L 129.270886 224.289514 
L 134.765581 216.689071 
L 134.765581 214.905159 
L 134.765581 211.440309 
L 131.49965 214.905159 
L 125.436966 224.289514 
L 125.381226 224.458438 
L 122.761324 233.673869 
L 121.978547 243.058224 
L 122.367657 252.442579 
L 124.290697 261.826934 
z
" clip-path="url(#p99e0f59226)" style="fill: #25848e; fill-opacity: 0.8"/>
    <path d="M 36.487763 271.21129 
L 40.92203 262.706826 
L 41.200093 261.826934 
L 42.165096 252.442579 
L 41.027452 243.058224 
L 40.92203 242.773426 
L 38.112736 233.673869 
L 32.509423 224.289514 
L 31.537674 222.770832 
L 31.537674 224.289514 
L 31.537674 227.313586 
L 35.481503 233.673869 
L 38.599654 243.058224 
L 39.232043 252.442579 
L 37.327527 261.826934 
L 31.537674 269.538579 
L 31.537674 271.21129 
L 31.537674 274.915742 
z
M 134.765581 263.281224 
L 134.765581 261.826934 
L 134.765581 256.155929 
L 132.099383 252.442579 
L 129.271603 243.058224 
L 129.597643 233.673869 
L 133.104805 224.289514 
L 134.765581 221.992273 
L 134.765581 216.689071 
L 129.270886 224.289514 
L 126.103936 233.673869 
L 125.473693 243.058224 
L 127.004552 252.442579 
L 132.955414 261.826934 
z
" clip-path="url(#p99e0f59226)" style="fill: #2f6c8e; fill-opacity: 0.8"/>
    <path d="M 37.327527 261.826934 
L 39.232043 252.442579 
L 38.599654 243.058224 
L 35.481503 233.673869 
L 31.537674 227.313586 
L 31.537674 231.557022 
L 32.850271 233.673869 
L 36.19699 243.058224 
L 36.541532 252.442579 
L 33.494136 261.826934 
L 31.537674 264.432793 
L 31.537674 269.538579 
z
M 134.765581 256.155929 
L 134.765581 252.442579 
L 134.765581 247.597399 
L 133.069512 243.058224 
L 133.09135 233.673869 
L 134.765581 229.374667 
L 134.765581 224.289514 
L 134.765581 221.992273 
L 133.104805 224.289514 
L 129.597643 233.673869 
L 129.271603 243.058224 
L 132.099383 252.442579 
z
" clip-path="url(#p99e0f59226)" style="fill: #3b518b; fill-opacity: 0.8"/>
    <path d="M 33.494136 261.826934 
L 36.541532 252.442579 
L 36.19699 243.058224 
L 32.850271 233.673869 
L 31.537674 231.557022 
L 31.537674 233.673869 
L 31.537674 236.93895 
L 33.794327 243.058224 
L 33.851022 252.442579 
L 31.537674 258.421955 
L 31.537674 261.826934 
L 31.537674 264.432793 
z
M 134.765581 247.597399 
L 134.765581 243.058224 
L 134.765581 233.673869 
L 134.765581 229.374667 
L 133.09135 233.673869 
L 133.069512 243.058224 
z
" clip-path="url(#p99e0f59226)" style="fill: #463480; fill-opacity: 0.8"/>
    <path d="M 33.851022 252.442579 
L 33.794327 243.058224 
L 31.537674 236.93895 
L 31.537674 243.058224 
L 31.537674 252.442579 
L 31.537674 258.421955 
z
" clip-path="url(#p99e0f59226)" style="fill: #471365; fill-opacity: 0.8"/>
   </g>
   <g id="PathCollection_1">
    <defs>
     <path id="m06834657e1" d="M 0 -7.071068 
L -1.587554 -2.18508 
L -6.724985 -2.18508 
L -2.568716 0.834626 
L -4.156269 5.720614 
L -0 2.700907 
L 4.156269 5.720614 
L 2.568716 0.834626 
L 6.724985 -2.18508 
L 1.587554 -2.18508 
z
" style="stroke: #dd0000; stroke-width: 0.5"/>
    </defs>
    <g clip-path="url(#p99e0f59226)">
     <use xlink:href="#m06834657e1" x="106.612516" y="214.905159" style="fill: #dd0000; stroke: #dd0000; stroke-width: 0.5"/>
    </g>
   </g>
   <g id="PathCollection_2">
    <defs>
     <path id="mac974f9d37" d="M 0 1.732051 
C 0.459345 1.732051 0.899939 1.549551 1.224745 1.224745 
C 1.549551 0.899939 1.732051 0.459345 1.732051 0 
C 1.732051 -0.459345 1.549551 -0.899939 1.224745 -1.224745 
C 0.899939 -1.549551 0.459345 -1.732051 0 -1.732051 
C -0.459345 -1.732051 -0.899939 -1.549551 -1.224745 -1.224745 
C -1.549551 -0.899939 -1.732051 -0.459345 -1.732051 0 
C -1.732051 0.459345 -1.549551 0.899939 -1.224745 1.224745 
C -0.899939 1.549551 -0.459345 1.732051 0 1.732051 
z
"/>
    </defs>
    <g clip-path="url(#p99e0f59226)">
     <use xlink:href="#mac974f9d37" x="71.056968" y="226.119145" style="fill-opacity: 0.4"/>
     <use xlink:href="#mac974f9d37" x="83.074916" y="190.397386" style="fill-opacity: 0.4"/>
     <use xlink:href="#mac974f9d37" x="108.298704" y="237.930028" style="fill-opacity: 0.4"/>
     <use xlink:href="#mac974f9d37" x="58.995157" y="263.119251" style="fill-opacity: 0.4"/>
     <use xlink:href="#mac974f9d37" x="59.859932" y="217.379208" style="fill-opacity: 0.4"/>
     <use xlink:href="#mac974f9d37" x="70.230347" y="272.684095" style="fill-opacity: 0.4"/>
     <use xlink:href="#mac974f9d37" x="83.48801" y="264.869987" style="fill-opacity: 0.4"/>
     <use xlink:href="#mac974f9d37" x="83.986752" y="282.865971" style="fill-opacity: 0.4"/>
     <use xlink:href="#mac974f9d37" x="83.531467" y="216.410985" style="fill-opacity: 0.4"/>
     <use xlink:href="#mac974f9d37" x="94.356441" y="249.126391" style="fill-opacity: 0.4"/>
     <use xlink:href="#mac974f9d37" x="50.039644" y="228.113281" style="fill-opacity: 0.4"/>
     <use xlink:href="#mac974f9d37" x="44.744444" y="253.300098" style="fill-opacity: 0.4"/>
     <use xlink:href="#mac974f9d37" x="36.427009" y="239.622362" style="fill-opacity: 0.4"/>
     <use xlink:href="#mac974f9d37" x="61.612844" y="237.401412" style="fill-opacity: 0.4"/>
     <use xlink:href="#mac974f9d37" x="71.591008" y="203.936863" style="fill-opacity: 0.4"/>
     <use xlink:href="#mac974f9d37" x="84.519491" y="239.099693" style="fill-opacity: 0.4"/>
     <use xlink:href="#mac974f9d37" x="130.329649" y="237.113593" style="fill-opacity: 0.4"/>
     <use xlink:href="#mac974f9d37" x="106.371354" y="260.506651" style="fill-opacity: 0.4"/>
     <use xlink:href="#mac974f9d37" x="93.700199" y="272.404528" style="fill-opacity: 0.4"/>
     <use xlink:href="#mac974f9d37" x="118.658626" y="251.123453" style="fill-opacity: 0.4"/>
     <use xlink:href="#mac974f9d37" x="55.233445" y="213.250752" style="fill-opacity: 0.4"/>
     <use xlink:href="#mac974f9d37" x="60.816579" y="215.253284" style="fill-opacity: 0.4"/>
     <use xlink:href="#mac974f9d37" x="57.981769" y="214.533799" style="fill-opacity: 0.4"/>
     <use xlink:href="#mac974f9d37" x="71.13959" y="214.557848" style="fill-opacity: 0.4"/>
     <use xlink:href="#mac974f9d37" x="61.763364" y="214.054717" style="fill-opacity: 0.4"/>
     <use xlink:href="#mac974f9d37" x="58.857657" y="212.368057" style="fill-opacity: 0.4"/>
     <use xlink:href="#mac974f9d37" x="62.011342" y="212.638731" style="fill-opacity: 0.4"/>
     <use xlink:href="#mac974f9d37" x="58.617452" y="214.322941" style="fill-opacity: 0.4"/>
     <use xlink:href="#mac974f9d37" x="66.304276" y="227.149013" style="fill-opacity: 0.4"/>
     <use xlink:href="#mac974f9d37" x="61.978464" y="227.305286" style="fill-opacity: 0.4"/>
     <use xlink:href="#mac974f9d37" x="65.473808" y="228.471946" style="fill-opacity: 0.4"/>
     <use xlink:href="#mac974f9d37" x="63.890361" y="224.770501" style="fill-opacity: 0.4"/>
     <use xlink:href="#mac974f9d37" x="64.544975" y="220.096471" style="fill-opacity: 0.4"/>
     <use xlink:href="#mac974f9d37" x="67.187343" y="226.097048" style="fill-opacity: 0.4"/>
     <use xlink:href="#mac974f9d37" x="67.17376" y="227.449448" style="fill-opacity: 0.4"/>
     <use xlink:href="#mac974f9d37" x="64.589961" y="226.404928" style="fill-opacity: 0.4"/>
     <use xlink:href="#mac974f9d37" x="65.653226" y="227.848848" style="fill-opacity: 0.4"/>
     <use xlink:href="#mac974f9d37" x="69.282341" y="226.341012" style="fill-opacity: 0.4"/>
     <use xlink:href="#mac974f9d37" x="67.661665" y="226.08173" style="fill-opacity: 0.4"/>
     <use xlink:href="#mac974f9d37" x="65.850443" y="227.391667" style="fill-opacity: 0.4"/>
     <use xlink:href="#mac974f9d37" x="66.735422" y="223.263311" style="fill-opacity: 0.4"/>
     <use xlink:href="#mac974f9d37" x="67.125028" y="226.662427" style="fill-opacity: 0.4"/>
     <use xlink:href="#mac974f9d37" x="62.728185" y="225.99175" style="fill-opacity: 0.4"/>
     <use xlink:href="#mac974f9d37" x="104.67365" y="214.767763" style="fill-opacity: 0.4"/>
     <use xlink:href="#mac974f9d37" x="106.423396" y="214.162905" style="fill-opacity: 0.4"/>
    </g>
   </g>
   <g id="matplotlib.axis_3">
    <g id="xtick_6">
     <g id="line2d_18">
      <g>
       <use xlink:href="#m08d4b303a8" x="45.614207" y="289.98" style="stroke: #000000; stroke-width: 0.8"/>
      </g>
     </g>
     <g id="line2d_19">
      <g>
       <use xlink:href="#me5a0474e5b" x="45.614207" y="186.752093" style="stroke: #000000; stroke-width: 0.8"/>
      </g>
     </g>
     <g id="text_12">
      <!-- −1.6 -->
      <g transform="translate(40.970339 311.260414) rotate(-45) scale(0.07 -0.07)">
       <use xlink:href="#DejaVuSans-2212"/>
       <use xlink:href="#DejaVuSans-31" x="83.789062"/>
       <use xlink:href="#DejaVuSans-2e" x="147.412109"/>
       <use xlink:href="#DejaVuSans-36" x="179.199219"/>
      </g>
     </g>
    </g>
    <g id="xtick_7">
     <g id="line2d_20">
      <g>
       <use xlink:href="#m08d4b303a8" x="64.382918" y="289.98" style="stroke: #000000; stroke-width: 0.8"/>
      </g>
     </g>
     <g id="line2d_21">
      <g>
       <use xlink:href="#me5a0474e5b" x="64.382918" y="186.752093" style="stroke: #000000; stroke-width: 0.8"/>
      </g>
     </g>
     <g id="text_13">
      <!-- −0.8 -->
      <g transform="translate(59.739049 311.260414) rotate(-45) scale(0.07 -0.07)">
       <use xlink:href="#DejaVuSans-2212"/>
       <use xlink:href="#DejaVuSans-30" x="83.789062"/>
       <use xlink:href="#DejaVuSans-2e" x="147.412109"/>
       <use xlink:href="#DejaVuSans-38" x="179.199219"/>
      </g>
     </g>
    </g>
    <g id="xtick_8">
     <g id="line2d_22">
      <g>
       <use xlink:href="#m08d4b303a8" x="83.151628" y="289.98" style="stroke: #000000; stroke-width: 0.8"/>
      </g>
     </g>
     <g id="line2d_23">
      <g>
       <use xlink:href="#me5a0474e5b" x="83.151628" y="186.752093" style="stroke: #000000; stroke-width: 0.8"/>
      </g>
     </g>
     <g id="text_14">
      <!-- 0.0 -->
      <g transform="translate(80.581626 307.11268) rotate(-45) scale(0.07 -0.07)">
       <use xlink:href="#DejaVuSans-30"/>
       <use xlink:href="#DejaVuSans-2e" x="63.623047"/>
       <use xlink:href="#DejaVuSans-30" x="95.410156"/>
      </g>
     </g>
    </g>
    <g id="xtick_9">
     <g id="line2d_24">
      <g>
       <use xlink:href="#m08d4b303a8" x="101.920338" y="289.98" style="stroke: #000000; stroke-width: 0.8"/>
      </g>
     </g>
     <g id="line2d_25">
      <g>
       <use xlink:href="#me5a0474e5b" x="101.920338" y="186.752093" style="stroke: #000000; stroke-width: 0.8"/>
      </g>
     </g>
     <g id="text_15">
      <!-- 0.8 -->
      <g transform="translate(99.350337 307.11268) rotate(-45) scale(0.07 -0.07)">
       <use xlink:href="#DejaVuSans-30"/>
       <use xlink:href="#DejaVuSans-2e" x="63.623047"/>
       <use xlink:href="#DejaVuSans-38" x="95.410156"/>
      </g>
     </g>
    </g>
    <g id="xtick_10">
     <g id="line2d_26">
      <g>
       <use xlink:href="#m08d4b303a8" x="120.689049" y="289.98" style="stroke: #000000; stroke-width: 0.8"/>
      </g>
     </g>
     <g id="line2d_27">
      <g>
       <use xlink:href="#me5a0474e5b" x="120.689049" y="186.752093" style="stroke: #000000; stroke-width: 0.8"/>
      </g>
     </g>
     <g id="text_16">
      <!-- 1.6 -->
      <g transform="translate(118.119047 307.11268) rotate(-45) scale(0.07 -0.07)">
       <use xlink:href="#DejaVuSans-31"/>
       <use xlink:href="#DejaVuSans-2e" x="63.623047"/>
       <use xlink:href="#DejaVuSans-36" x="95.410156"/>
      </g>
     </g>
    </g>
    <g id="text_17">
     <!-- $\mathbf{x_{0}}$ -->
     <g transform="translate(77.301628 319.888244) scale(0.1 -0.1)">
      <use xlink:href="#DejaVuSans-Bold-78" transform="translate(0 0.3125)"/>
      <use xlink:href="#DejaVuSans-Bold-30" transform="translate(65.458984 -16.09375) scale(0.7)"/>
     </g>
    </g>
   </g>
   <g id="matplotlib.axis_4">
    <g id="ytick_6">
     <g id="line2d_28">
      <defs>
       <path id="mff3388c295" d="M 0 0 
L -3.5 0 
" style="stroke: #000000; stroke-width: 0.8"/>
      </defs>
      <g>
       <use xlink:href="#mff3388c295" x="31.537674" y="275.903467" style="stroke: #000000; stroke-width: 0.8"/>
      </g>
     </g>
     <g id="text_18">
      <!-- −1.6 -->
      <g transform="translate(9.039706 278.56292) scale(0.07 -0.07)">
       <use xlink:href="#DejaVuSans-2212"/>
       <use xlink:href="#DejaVuSans-31" x="83.789062"/>
       <use xlink:href="#DejaVuSans-2e" x="147.412109"/>
       <use xlink:href="#DejaVuSans-36" x="179.199219"/>
      </g>
     </g>
    </g>
    <g id="ytick_7">
     <g id="line2d_29">
      <g>
       <use xlink:href="#mff3388c295" x="31.537674" y="257.134757" style="stroke: #000000; stroke-width: 0.8"/>
      </g>
     </g>
     <g id="text_19">
      <!-- −0.8 -->
      <g transform="translate(9.039706 259.79421) scale(0.07 -0.07)">
       <use xlink:href="#DejaVuSans-2212"/>
       <use xlink:href="#DejaVuSans-30" x="83.789062"/>
       <use xlink:href="#DejaVuSans-2e" x="147.412109"/>
       <use xlink:href="#DejaVuSans-38" x="179.199219"/>
      </g>
     </g>
    </g>
    <g id="ytick_8">
     <g id="line2d_30">
      <g>
       <use xlink:href="#mff3388c295" x="31.537674" y="238.366047" style="stroke: #000000; stroke-width: 0.8"/>
      </g>
     </g>
     <g id="text_20">
      <!-- 0.0 -->
      <g transform="translate(14.905487 241.0255) scale(0.07 -0.07)">
       <use xlink:href="#DejaVuSans-30"/>
       <use xlink:href="#DejaVuSans-2e" x="63.623047"/>
       <use xlink:href="#DejaVuSans-30" x="95.410156"/>
      </g>
     </g>
    </g>
    <g id="ytick_9">
     <g id="line2d_31">
      <g>
       <use xlink:href="#mff3388c295" x="31.537674" y="219.597336" style="stroke: #000000; stroke-width: 0.8"/>
      </g>
     </g>
     <g id="text_21">
      <!-- 0.8 -->
      <g transform="translate(14.905487 222.256789) scale(0.07 -0.07)">
       <use xlink:href="#DejaVuSans-30"/>
       <use xlink:href="#DejaVuSans-2e" x="63.623047"/>
       <use xlink:href="#DejaVuSans-38" x="95.410156"/>
      </g>
     </g>
    </g>
    <g id="ytick_10">
     <g id="line2d_32">
      <g>
       <use xlink:href="#mff3388c295" x="31.537674" y="200.828626" style="stroke: #000000; stroke-width: 0.8"/>
      </g>
     </g>
     <g id="text_22">
      <!-- 1.6 -->
      <g transform="translate(14.905487 203.488079) scale(0.07 -0.07)">
       <use xlink:href="#DejaVuSans-31"/>
       <use xlink:href="#DejaVuSans-2e" x="63.623047"/>
       <use xlink:href="#DejaVuSans-36" x="95.410156"/>
      </g>
     </g>
    </g>
    <g id="text_23">
     <!-- $\mathbf{x_{1}}$ -->
     <g transform="translate(6.960018 244.216047) rotate(-90) scale(0.1 -0.1)">
      <defs>
       <path id="DejaVuSans-Bold-31" d="M 750 831 
L 1813 831 
L 1813 3847 
L 722 3622 
L 722 4441 
L 1806 4666 
L 2950 4666 
L 2950 831 
L 4013 831 
L 4013 0 
L 750 0 
L 750 831 
z
" transform="scale(0.015625)"/>
      </defs>
      <use xlink:href="#DejaVuSans-Bold-78" transform="translate(0 0.3125)"/>
      <use xlink:href="#DejaVuSans-Bold-31" transform="translate(65.458984 -16.09375) scale(0.7)"/>
     </g>
    </g>
   </g>
   <g id="patch_8">
    <path d="M 31.537674 289.98 
L 31.537674 186.752093 
" style="fill: none; stroke: #000000; stroke-width: 0.8; stroke-linejoin: miter; stroke-linecap: square"/>
   </g>
   <g id="patch_9">
    <path d="M 134.765581 289.98 
L 134.765581 186.752093 
" style="fill: none; stroke: #000000; stroke-width: 0.8; stroke-linejoin: miter; stroke-linecap: square"/>
   </g>
   <g id="patch_10">
    <path d="M 31.537674 289.98 
L 134.765581 289.98 
" style="fill: none; stroke: #000000; stroke-width: 0.8; stroke-linejoin: miter; stroke-linecap: square"/>
   </g>
   <g id="patch_11">
    <path d="M 31.537674 186.752093 
L 134.765581 186.752093 
" style="fill: none; stroke: #000000; stroke-width: 0.8; stroke-linejoin: miter; stroke-linecap: square"/>
   </g>
  </g>
  <g id="axes_3">
   <g id="patch_12">
    <path d="M 153.234419 289.98 
L 256.462326 289.98 
L 256.462326 186.752093 
L 153.234419 186.752093 
z
" style="fill: #ffffff"/>
   </g>
   <g id="axes_4">
    <g id="patch_13">
     <path d="M 153.234419 289.98 
L 153.234419 289.98 
L 153.234419 186.752093 
L 153.234419 186.752093 
z
" style="fill: #ffffff"/>
    </g>
    <g id="matplotlib.axis_5"/>
    <g id="matplotlib.axis_6">
     <g id="ytick_11">
      <g id="line2d_33">
       <defs>
        <path id="mfaa4e420c1" d="M 0 0 
L -3.5 0 
" style="stroke: #ffffff; stroke-opacity: 0; stroke-width: 0.8"/>
       </defs>
       <g>
        <use xlink:href="#mfaa4e420c1" x="153.234419" y="259.17857" style="fill: #ffffff; fill-opacity: 0; stroke: #ffffff; stroke-opacity: 0; stroke-width: 0.8"/>
       </g>
      </g>
     </g>
     <g id="ytick_12">
      <g id="line2d_34">
       <g>
        <use xlink:href="#mfaa4e420c1" x="153.234419" y="226.460216" style="fill: #ffffff; fill-opacity: 0; stroke: #ffffff; stroke-opacity: 0; stroke-width: 0.8"/>
       </g>
      </g>
     </g>
     <g id="ytick_13">
      <g id="line2d_35">
       <g>
        <use xlink:href="#mfaa4e420c1" x="153.234419" y="193.741863" style="fill: #ffffff; fill-opacity: 0; stroke: #ffffff; stroke-opacity: 0; stroke-width: 0.8"/>
       </g>
      </g>
     </g>
    </g>
    <g id="patch_14">
     <path d="M 153.234419 289.98 
L 153.234419 186.752093 
" style="fill: none; stroke: #000000; stroke-width: 0.8; stroke-linejoin: miter; stroke-linecap: square"/>
    </g>
   </g>
   <g id="matplotlib.axis_7">
    <g id="xtick_11">
     <g id="line2d_36">
      <g>
       <use xlink:href="#m08d4b303a8" x="167.310951" y="289.98" style="stroke: #000000; stroke-width: 0.8"/>
      </g>
     </g>
     <g id="line2d_37">
      <g>
       <use xlink:href="#me5a0474e5b" x="167.310951" y="186.752093" style="stroke: #000000; stroke-width: 0.8"/>
      </g>
     </g>
     <g id="text_24">
      <!-- −1.6 -->
      <g transform="translate(162.667083 311.260414) rotate(-45) scale(0.07 -0.07)">
       <use xlink:href="#DejaVuSans-2212"/>
       <use xlink:href="#DejaVuSans-31" x="83.789062"/>
       <use xlink:href="#DejaVuSans-2e" x="147.412109"/>
       <use xlink:href="#DejaVuSans-36" x="179.199219"/>
      </g>
     </g>
     <g id="text_25">
      <!-- −1.6 -->
      <g transform="translate(162.667083 180.2227) rotate(-45) scale(0.07 -0.07)">
       <use xlink:href="#DejaVuSans-2212"/>
       <use xlink:href="#DejaVuSans-31" x="83.789062"/>
       <use xlink:href="#DejaVuSans-2e" x="147.412109"/>
       <use xlink:href="#DejaVuSans-36" x="179.199219"/>
      </g>
     </g>
    </g>
    <g id="xtick_12">
     <g id="line2d_38">
      <g>
       <use xlink:href="#m08d4b303a8" x="186.079662" y="289.98" style="stroke: #000000; stroke-width: 0.8"/>
      </g>
     </g>
     <g id="line2d_39">
      <g>
       <use xlink:href="#me5a0474e5b" x="186.079662" y="186.752093" style="stroke: #000000; stroke-width: 0.8"/>
      </g>
     </g>
     <g id="text_26">
      <!-- −0.8 -->
      <g transform="translate(181.435793 311.260414) rotate(-45) scale(0.07 -0.07)">
       <use xlink:href="#DejaVuSans-2212"/>
       <use xlink:href="#DejaVuSans-30" x="83.789062"/>
       <use xlink:href="#DejaVuSans-2e" x="147.412109"/>
       <use xlink:href="#DejaVuSans-38" x="179.199219"/>
      </g>
     </g>
     <g id="text_27">
      <!-- −0.8 -->
      <g transform="translate(181.435793 180.2227) rotate(-45) scale(0.07 -0.07)">
       <use xlink:href="#DejaVuSans-2212"/>
       <use xlink:href="#DejaVuSans-30" x="83.789062"/>
       <use xlink:href="#DejaVuSans-2e" x="147.412109"/>
       <use xlink:href="#DejaVuSans-38" x="179.199219"/>
      </g>
     </g>
    </g>
    <g id="xtick_13">
     <g id="line2d_40">
      <g>
       <use xlink:href="#m08d4b303a8" x="204.848372" y="289.98" style="stroke: #000000; stroke-width: 0.8"/>
      </g>
     </g>
     <g id="line2d_41">
      <g>
       <use xlink:href="#me5a0474e5b" x="204.848372" y="186.752093" style="stroke: #000000; stroke-width: 0.8"/>
      </g>
     </g>
     <g id="text_28">
      <!-- 0.0 -->
      <g transform="translate(202.27837 307.11268) rotate(-45) scale(0.07 -0.07)">
       <use xlink:href="#DejaVuSans-30"/>
       <use xlink:href="#DejaVuSans-2e" x="63.623047"/>
       <use xlink:href="#DejaVuSans-30" x="95.410156"/>
      </g>
     </g>
     <g id="text_29">
      <!-- 0.0 -->
      <g transform="translate(202.27837 180.2227) rotate(-45) scale(0.07 -0.07)">
       <use xlink:href="#DejaVuSans-30"/>
       <use xlink:href="#DejaVuSans-2e" x="63.623047"/>
       <use xlink:href="#DejaVuSans-30" x="95.410156"/>
      </g>
     </g>
    </g>
    <g id="xtick_14">
     <g id="line2d_42">
      <g>
       <use xlink:href="#m08d4b303a8" x="223.617082" y="289.98" style="stroke: #000000; stroke-width: 0.8"/>
      </g>
     </g>
     <g id="line2d_43">
      <g>
       <use xlink:href="#me5a0474e5b" x="223.617082" y="186.752093" style="stroke: #000000; stroke-width: 0.8"/>
      </g>
     </g>
     <g id="text_30">
      <!-- 0.8 -->
      <g transform="translate(221.047081 307.11268) rotate(-45) scale(0.07 -0.07)">
       <use xlink:href="#DejaVuSans-30"/>
       <use xlink:href="#DejaVuSans-2e" x="63.623047"/>
       <use xlink:href="#DejaVuSans-38" x="95.410156"/>
      </g>
     </g>
     <g id="text_31">
      <!-- 0.8 -->
      <g transform="translate(221.047081 180.2227) rotate(-45) scale(0.07 -0.07)">
       <use xlink:href="#DejaVuSans-30"/>
       <use xlink:href="#DejaVuSans-2e" x="63.623047"/>
       <use xlink:href="#DejaVuSans-38" x="95.410156"/>
      </g>
     </g>
    </g>
    <g id="xtick_15">
     <g id="line2d_44">
      <g>
       <use xlink:href="#m08d4b303a8" x="242.385793" y="289.98" style="stroke: #000000; stroke-width: 0.8"/>
      </g>
     </g>
     <g id="line2d_45">
      <g>
       <use xlink:href="#me5a0474e5b" x="242.385793" y="186.752093" style="stroke: #000000; stroke-width: 0.8"/>
      </g>
     </g>
     <g id="text_32">
      <!-- 1.6 -->
      <g transform="translate(239.815791 307.11268) rotate(-45) scale(0.07 -0.07)">
       <use xlink:href="#DejaVuSans-31"/>
       <use xlink:href="#DejaVuSans-2e" x="63.623047"/>
       <use xlink:href="#DejaVuSans-36" x="95.410156"/>
      </g>
     </g>
     <g id="text_33">
      <!-- 1.6 -->
      <g transform="translate(239.815791 180.2227) rotate(-45) scale(0.07 -0.07)">
       <use xlink:href="#DejaVuSans-31"/>
       <use xlink:href="#DejaVuSans-2e" x="63.623047"/>
       <use xlink:href="#DejaVuSans-36" x="95.410156"/>
      </g>
     </g>
    </g>
    <g id="text_34">
     <!-- $\mathbf{x_{1}}$ -->
     <g transform="translate(198.998372 160.442287) scale(0.1 -0.1)">
      <use xlink:href="#DejaVuSans-Bold-78" transform="translate(0 0.3125)"/>
      <use xlink:href="#DejaVuSans-Bold-31" transform="translate(65.458984 -16.09375) scale(0.7)"/>
     </g>
    </g>
   </g>
   <g id="matplotlib.axis_8">
    <g id="ytick_14">
     <g id="line2d_46">
      <g>
       <use xlink:href="#mda8d3a458b" x="256.462326" y="272.265911" style="stroke: #000000; stroke-width: 0.8"/>
      </g>
     </g>
     <g id="text_35">
      <!-- 300 -->
      <g transform="translate(265.342843 274.146429) rotate(-45) scale(0.07 -0.07)">
       <use xlink:href="#DejaVuSans-33"/>
       <use xlink:href="#DejaVuSans-30" x="63.623047"/>
       <use xlink:href="#DejaVuSans-30" x="127.246094"/>
      </g>
     </g>
    </g>
    <g id="ytick_15">
     <g id="line2d_47">
      <g>
       <use xlink:href="#mda8d3a458b" x="256.462326" y="252.634899" style="stroke: #000000; stroke-width: 0.8"/>
      </g>
     </g>
     <g id="text_36">
      <!-- 600 -->
      <g transform="translate(265.342843 254.515417) rotate(-45) scale(0.07 -0.07)">
       <use xlink:href="#DejaVuSans-36"/>
       <use xlink:href="#DejaVuSans-30" x="63.623047"/>
       <use xlink:href="#DejaVuSans-30" x="127.246094"/>
      </g>
     </g>
    </g>
    <g id="ytick_16">
     <g id="line2d_48">
      <g>
       <use xlink:href="#mda8d3a458b" x="256.462326" y="233.003887" style="stroke: #000000; stroke-width: 0.8"/>
      </g>
     </g>
     <g id="text_37">
      <!-- 900 -->
      <g transform="translate(265.342843 234.884404) rotate(-45) scale(0.07 -0.07)">
       <use xlink:href="#DejaVuSans-39"/>
       <use xlink:href="#DejaVuSans-30" x="63.623047"/>
       <use xlink:href="#DejaVuSans-30" x="127.246094"/>
      </g>
     </g>
    </g>
    <g id="ytick_17">
     <g id="line2d_49">
      <g>
       <use xlink:href="#mda8d3a458b" x="256.462326" y="213.372875" style="stroke: #000000; stroke-width: 0.8"/>
      </g>
     </g>
     <g id="text_38">
      <!-- 1200 -->
      <g transform="translate(265.342843 215.253392) rotate(-45) scale(0.07 -0.07)">
       <use xlink:href="#DejaVuSans-31"/>
       <use xlink:href="#DejaVuSans-32" x="63.623047"/>
       <use xlink:href="#DejaVuSans-30" x="127.246094"/>
       <use xlink:href="#DejaVuSans-30" x="190.869141"/>
      </g>
     </g>
    </g>
    <g id="ytick_18">
     <g id="line2d_50">
      <g>
       <use xlink:href="#mda8d3a458b" x="256.462326" y="193.741863" style="stroke: #000000; stroke-width: 0.8"/>
      </g>
     </g>
     <g id="text_39">
      <!-- 1500 -->
      <g transform="translate(265.342843 195.62238) rotate(-45) scale(0.07 -0.07)">
       <use xlink:href="#DejaVuSans-31"/>
       <use xlink:href="#DejaVuSans-35" x="63.623047"/>
       <use xlink:href="#DejaVuSans-30" x="127.246094"/>
       <use xlink:href="#DejaVuSans-30" x="190.869141"/>
      </g>
     </g>
    </g>
   </g>
   <g id="line2d_51">
    <path d="M 153.234419 254.472427 
L 162.618774 257.972039 
L 172.003129 261.686663 
L 181.387484 266.0783 
L 190.771839 271.138136 
L 200.156195 275.885434 
L 209.54055 279.923993 
L 218.924905 283.256648 
L 228.30926 284.640537 
L 237.693615 282.364394 
L 247.07797 276.822842 
L 256.462326 270.851193 
" clip-path="url(#p79d564b76b)" style="fill: none; stroke: #1f77b4; stroke-width: 1.5; stroke-linecap: square"/>
   </g>
   <g id="line2d_52">
    <path d="M 228.30926 289.98 
L 228.30926 186.752093 
" clip-path="url(#p79d564b76b)" style="fill: none; stroke-dasharray: 3.7,1.6; stroke-dashoffset: 0; stroke: #ff0000"/>
   </g>
   <g id="patch_15">
    <path d="M 153.234419 289.98 
L 153.234419 186.752093 
" style="fill: none; stroke: #000000; stroke-width: 0.8; stroke-linejoin: miter; stroke-linecap: square"/>
   </g>
   <g id="patch_16">
    <path d="M 256.462326 289.98 
L 256.462326 186.752093 
" style="fill: none; stroke: #000000; stroke-width: 0.8; stroke-linejoin: miter; stroke-linecap: square"/>
   </g>
   <g id="patch_17">
    <path d="M 153.234419 289.98 
L 256.462326 289.98 
" style="fill: none; stroke: #000000; stroke-width: 0.8; stroke-linejoin: miter; stroke-linecap: square"/>
   </g>
   <g id="patch_18">
    <path d="M 153.234419 186.752093 
L 256.462326 186.752093 
" style="fill: none; stroke: #000000; stroke-width: 0.8; stroke-linejoin: miter; stroke-linecap: square"/>
   </g>
  </g>
  <g id="text_40">
   <!-- Partial dependence -->
   <g transform="translate(86.140312 15.598125) scale(0.12 -0.12)">
    <defs>
     <path id="DejaVuSans-50" d="M 1259 4147 
L 1259 2394 
L 2053 2394 
Q 2494 2394 2734 2622 
Q 2975 2850 2975 3272 
Q 2975 3691 2734 3919 
Q 2494 4147 2053 4147 
L 1259 4147 
z
M 628 4666 
L 2053 4666 
Q 2838 4666 3239 4311 
Q 3641 3956 3641 3272 
Q 3641 2581 3239 2228 
Q 2838 1875 2053 1875 
L 1259 1875 
L 1259 0 
L 628 0 
L 628 4666 
z
" transform="scale(0.015625)"/>
     <path id="DejaVuSans-61" d="M 2194 1759 
Q 1497 1759 1228 1600 
Q 959 1441 959 1056 
Q 959 750 1161 570 
Q 1363 391 1709 391 
Q 2188 391 2477 730 
Q 2766 1069 2766 1631 
L 2766 1759 
L 2194 1759 
z
M 3341 1997 
L 3341 0 
L 2766 0 
L 2766 531 
Q 2569 213 2275 61 
Q 1981 -91 1556 -91 
Q 1019 -91 701 211 
Q 384 513 384 1019 
Q 384 1609 779 1909 
Q 1175 2209 1959 2209 
L 2766 2209 
L 2766 2266 
Q 2766 2663 2505 2880 
Q 2244 3097 1772 3097 
Q 1472 3097 1187 3025 
Q 903 2953 641 2809 
L 641 3341 
Q 956 3463 1253 3523 
Q 1550 3584 1831 3584 
Q 2591 3584 2966 3190 
Q 3341 2797 3341 1997 
z
" transform="scale(0.015625)"/>
     <path id="DejaVuSans-72" d="M 2631 2963 
Q 2534 3019 2420 3045 
Q 2306 3072 2169 3072 
Q 1681 3072 1420 2755 
Q 1159 2438 1159 1844 
L 1159 0 
L 581 0 
L 581 3500 
L 1159 3500 
L 1159 2956 
Q 1341 3275 1631 3429 
Q 1922 3584 2338 3584 
Q 2397 3584 2469 3576 
Q 2541 3569 2628 3553 
L 2631 2963 
z
" transform="scale(0.015625)"/>
     <path id="DejaVuSans-74" d="M 1172 4494 
L 1172 3500 
L 2356 3500 
L 2356 3053 
L 1172 3053 
L 1172 1153 
Q 1172 725 1289 603 
Q 1406 481 1766 481 
L 2356 481 
L 2356 0 
L 1766 0 
Q 1100 0 847 248 
Q 594 497 594 1153 
L 594 3053 
L 172 3053 
L 172 3500 
L 594 3500 
L 594 4494 
L 1172 4494 
z
" transform="scale(0.015625)"/>
     <path id="DejaVuSans-69" d="M 603 3500 
L 1178 3500 
L 1178 0 
L 603 0 
L 603 3500 
z
M 603 4863 
L 1178 4863 
L 1178 4134 
L 603 4134 
L 603 4863 
z
" transform="scale(0.015625)"/>
     <path id="DejaVuSans-6c" d="M 603 4863 
L 1178 4863 
L 1178 0 
L 603 0 
L 603 4863 
z
" transform="scale(0.015625)"/>
     <path id="DejaVuSans-20" transform="scale(0.015625)"/>
     <path id="DejaVuSans-64" d="M 2906 2969 
L 2906 4863 
L 3481 4863 
L 3481 0 
L 2906 0 
L 2906 525 
Q 2725 213 2448 61 
Q 2172 -91 1784 -91 
Q 1150 -91 751 415 
Q 353 922 353 1747 
Q 353 2572 751 3078 
Q 1150 3584 1784 3584 
Q 2172 3584 2448 3432 
Q 2725 3281 2906 2969 
z
M 947 1747 
Q 947 1113 1208 752 
Q 1469 391 1925 391 
Q 2381 391 2643 752 
Q 2906 1113 2906 1747 
Q 2906 2381 2643 2742 
Q 2381 3103 1925 3103 
Q 1469 3103 1208 2742 
Q 947 2381 947 1747 
z
" transform="scale(0.015625)"/>
     <path id="DejaVuSans-65" d="M 3597 1894 
L 3597 1613 
L 953 1613 
Q 991 1019 1311 708 
Q 1631 397 2203 397 
Q 2534 397 2845 478 
Q 3156 559 3463 722 
L 3463 178 
Q 3153 47 2828 -22 
Q 2503 -91 2169 -91 
Q 1331 -91 842 396 
Q 353 884 353 1716 
Q 353 2575 817 3079 
Q 1281 3584 2069 3584 
Q 2775 3584 3186 3129 
Q 3597 2675 3597 1894 
z
M 3022 2063 
Q 3016 2534 2758 2815 
Q 2500 3097 2075 3097 
Q 1594 3097 1305 2825 
Q 1016 2553 972 2059 
L 3022 2063 
z
" transform="scale(0.015625)"/>
     <path id="DejaVuSans-70" d="M 1159 525 
L 1159 -1331 
L 581 -1331 
L 581 3500 
L 1159 3500 
L 1159 2969 
Q 1341 3281 1617 3432 
Q 1894 3584 2278 3584 
Q 2916 3584 3314 3078 
Q 3713 2572 3713 1747 
Q 3713 922 3314 415 
Q 2916 -91 2278 -91 
Q 1894 -91 1617 61 
Q 1341 213 1159 525 
z
M 3116 1747 
Q 3116 2381 2855 2742 
Q 2594 3103 2138 3103 
Q 1681 3103 1420 2742 
Q 1159 2381 1159 1747 
Q 1159 1113 1420 752 
Q 1681 391 2138 391 
Q 2594 391 2855 752 
Q 3116 1113 3116 1747 
z
" transform="scale(0.015625)"/>
     <path id="DejaVuSans-6e" d="M 3513 2113 
L 3513 0 
L 2938 0 
L 2938 2094 
Q 2938 2591 2744 2837 
Q 2550 3084 2163 3084 
Q 1697 3084 1428 2787 
Q 1159 2491 1159 1978 
L 1159 0 
L 581 0 
L 581 3500 
L 1159 3500 
L 1159 2956 
Q 1366 3272 1645 3428 
Q 1925 3584 2291 3584 
Q 2894 3584 3203 3211 
Q 3513 2838 3513 2113 
z
" transform="scale(0.015625)"/>
     <path id="DejaVuSans-63" d="M 3122 3366 
L 3122 2828 
Q 2878 2963 2633 3030 
Q 2388 3097 2138 3097 
Q 1578 3097 1268 2742 
Q 959 2388 959 1747 
Q 959 1106 1268 751 
Q 1578 397 2138 397 
Q 2388 397 2633 464 
Q 2878 531 3122 666 
L 3122 134 
Q 2881 22 2623 -34 
Q 2366 -91 2075 -91 
Q 1284 -91 818 406 
Q 353 903 353 1747 
Q 353 2603 823 3093 
Q 1294 3584 2113 3584 
Q 2378 3584 2631 3529 
Q 2884 3475 3122 3366 
z
" transform="scale(0.015625)"/>
    </defs>
    <use xlink:href="#DejaVuSans-50"/>
    <use xlink:href="#DejaVuSans-61" x="55.802734"/>
    <use xlink:href="#DejaVuSans-72" x="117.082031"/>
    <use xlink:href="#DejaVuSans-74" x="158.195312"/>
    <use xlink:href="#DejaVuSans-69" x="197.404297"/>
    <use xlink:href="#DejaVuSans-61" x="225.1875"/>
    <use xlink:href="#DejaVuSans-6c" x="286.466797"/>
    <use xlink:href="#DejaVuSans-20" x="314.25"/>
    <use xlink:href="#DejaVuSans-64" x="346.037109"/>
    <use xlink:href="#DejaVuSans-65" x="409.513672"/>
    <use xlink:href="#DejaVuSans-70" x="471.037109"/>
    <use xlink:href="#DejaVuSans-65" x="534.513672"/>
    <use xlink:href="#DejaVuSans-6e" x="596.037109"/>
    <use xlink:href="#DejaVuSans-64" x="659.416016"/>
    <use xlink:href="#DejaVuSans-65" x="722.892578"/>
    <use xlink:href="#DejaVuSans-6e" x="784.416016"/>
    <use xlink:href="#DejaVuSans-63" x="847.794922"/>
    <use xlink:href="#DejaVuSans-65" x="902.775391"/>
   </g>
  </g>
 </g>
 <defs>
  <clipPath id="p4a9d8787e2">
   <rect x="31.537674" y="68.04" width="103.227907" height="103.227907"/>
  </clipPath>
  <clipPath id="p99e0f59226">
   <rect x="31.537674" y="186.752093" width="103.227907" height="103.227907"/>
  </clipPath>
  <clipPath id="p79d564b76b">
   <rect x="153.234419" y="186.752093" width="103.227907" height="103.227907"/>
  </clipPath>
 </defs>
</svg>
