<?xml version="1.0" encoding="utf-8" standalone="no"?>
<!DOCTYPE svg PUBLIC "-//W3C//DTD SVG 1.1//EN"
  "http://www.w3.org/Graphics/SVG/1.1/DTD/svg11.dtd">
<svg xmlns:xlink="http://www.w3.org/1999/xlink" width="302.4pt" height="338.4pt" viewBox="0 0 302.4 338.4" xmlns="http://www.w3.org/2000/svg" version="1.1">
 <metadata>
  <rdf:RDF xmlns:dc="http://purl.org/dc/elements/1.1/" xmlns:cc="http://creativecommons.org/ns#" xmlns:rdf="http://www.w3.org/1999/02/22-rdf-syntax-ns#">
   <cc:Work>
    <dc:type rdf:resource="http://purl.org/dc/dcmitype/StillImage"/>
    <dc:date>2024-12-21T01:25:53.899269</dc:date>
    <dc:format>image/svg+xml</dc:format>
    <dc:creator>
     <cc:Agent>
      <dc:title>Matplotlib v3.9.2, https://matplotlib.org/</dc:title>
     </cc:Agent>
    </dc:creator>
   </cc:Work>
  </rdf:RDF>
 </metadata>
 <defs>
  <style type="text/css">*{stroke-linejoin: round; stroke-linecap: butt}</style>
 </defs>
 <g id="figure_1">
  <g id="patch_1">
   <path d="M 0 338.4 
L 302.4 338.4 
L 302.4 0 
L 0 0 
z
" style="fill: #ffffff"/>
  </g>
  <g id="axes_1">
   <g id="patch_2">
    <path d="M 33.440571 181.446857 
L 143.823429 181.446857 
L 143.823429 71.064 
L 33.440571 71.064 
z
" style="fill: #ffffff"/>
   </g>
   <g id="matplotlib.axis_1">
    <g id="xtick_1">
     <g id="line2d_1">
      <defs>
       <path id="m0ceb9ea4d5" d="M 0 0 
L 0 3.5 
" style="stroke: #000000; stroke-width: 0.8"/>
      </defs>
      <g>
       <use xlink:href="#m0ceb9ea4d5" x="48.492779" y="181.446857" style="stroke: #000000; stroke-width: 0.8"/>
      </g>
     </g>
     <g id="line2d_2">
      <defs>
       <path id="m842f1fc4bc" d="M 0 0 
L 0 -3.5 
" style="stroke: #000000; stroke-width: 0.8"/>
      </defs>
      <g>
       <use xlink:href="#m842f1fc4bc" x="48.492779" y="71.064" style="stroke: #000000; stroke-width: 0.8"/>
      </g>
     </g>
     <g id="text_1">
      <!-- −1.6 -->
      <g transform="translate(43.848911 64.534607) rotate(-45) scale(0.07 -0.07)">
       <defs>
        <path id="DejaVuSans-2212" d="M 678 2272 
L 4684 2272 
L 4684 1741 
L 678 1741 
L 678 2272 
z
" transform="scale(0.015625)"/>
        <path id="DejaVuSans-31" d="M 794 531 
L 1825 531 
L 1825 4091 
L 703 3866 
L 703 4441 
L 1819 4666 
L 2450 4666 
L 2450 531 
L 3481 531 
L 3481 0 
L 794 0 
L 794 531 
z
" transform="scale(0.015625)"/>
        <path id="DejaVuSans-2e" d="M 684 794 
L 1344 794 
L 1344 0 
L 684 0 
L 684 794 
z
" transform="scale(0.015625)"/>
        <path id="DejaVuSans-36" d="M 2113 2584 
Q 1688 2584 1439 2293 
Q 1191 2003 1191 1497 
Q 1191 994 1439 701 
Q 1688 409 2113 409 
Q 2538 409 2786 701 
Q 3034 994 3034 1497 
Q 3034 2003 2786 2293 
Q 2538 2584 2113 2584 
z
M 3366 4563 
L 3366 3988 
Q 3128 4100 2886 4159 
Q 2644 4219 2406 4219 
Q 1781 4219 1451 3797 
Q 1122 3375 1075 2522 
Q 1259 2794 1537 2939 
Q 1816 3084 2150 3084 
Q 2853 3084 3261 2657 
Q 3669 2231 3669 1497 
Q 3669 778 3244 343 
Q 2819 -91 2113 -91 
Q 1303 -91 875 529 
Q 447 1150 447 2328 
Q 447 3434 972 4092 
Q 1497 4750 2381 4750 
Q 2619 4750 2861 4703 
Q 3103 4656 3366 4563 
z
" transform="scale(0.015625)"/>
       </defs>
       <use xlink:href="#DejaVuSans-2212"/>
       <use xlink:href="#DejaVuSans-31" x="83.789062"/>
       <use xlink:href="#DejaVuSans-2e" x="147.412109"/>
       <use xlink:href="#DejaVuSans-36" x="179.199219"/>
      </g>
     </g>
    </g>
    <g id="xtick_2">
     <g id="line2d_3">
      <g>
       <use xlink:href="#m0ceb9ea4d5" x="68.56239" y="181.446857" style="stroke: #000000; stroke-width: 0.8"/>
      </g>
     </g>
     <g id="line2d_4">
      <g>
       <use xlink:href="#m842f1fc4bc" x="68.56239" y="71.064" style="stroke: #000000; stroke-width: 0.8"/>
      </g>
     </g>
     <g id="text_2">
      <!-- −0.8 -->
      <g transform="translate(63.918521 64.534607) rotate(-45) scale(0.07 -0.07)">
       <defs>
        <path id="DejaVuSans-30" d="M 2034 4250 
Q 1547 4250 1301 3770 
Q 1056 3291 1056 2328 
Q 1056 1369 1301 889 
Q 1547 409 2034 409 
Q 2525 409 2770 889 
Q 3016 1369 3016 2328 
Q 3016 3291 2770 3770 
Q 2525 4250 2034 4250 
z
M 2034 4750 
Q 2819 4750 3233 4129 
Q 3647 3509 3647 2328 
Q 3647 1150 3233 529 
Q 2819 -91 2034 -91 
Q 1250 -91 836 529 
Q 422 1150 422 2328 
Q 422 3509 836 4129 
Q 1250 4750 2034 4750 
z
" transform="scale(0.015625)"/>
        <path id="DejaVuSans-38" d="M 2034 2216 
Q 1584 2216 1326 1975 
Q 1069 1734 1069 1313 
Q 1069 891 1326 650 
Q 1584 409 2034 409 
Q 2484 409 2743 651 
Q 3003 894 3003 1313 
Q 3003 1734 2745 1975 
Q 2488 2216 2034 2216 
z
M 1403 2484 
Q 997 2584 770 2862 
Q 544 3141 544 3541 
Q 544 4100 942 4425 
Q 1341 4750 2034 4750 
Q 2731 4750 3128 4425 
Q 3525 4100 3525 3541 
Q 3525 3141 3298 2862 
Q 3072 2584 2669 2484 
Q 3125 2378 3379 2068 
Q 3634 1759 3634 1313 
Q 3634 634 3220 271 
Q 2806 -91 2034 -91 
Q 1263 -91 848 271 
Q 434 634 434 1313 
Q 434 1759 690 2068 
Q 947 2378 1403 2484 
z
M 1172 3481 
Q 1172 3119 1398 2916 
Q 1625 2713 2034 2713 
Q 2441 2713 2670 2916 
Q 2900 3119 2900 3481 
Q 2900 3844 2670 4047 
Q 2441 4250 2034 4250 
Q 1625 4250 1398 4047 
Q 1172 3844 1172 3481 
z
" transform="scale(0.015625)"/>
       </defs>
       <use xlink:href="#DejaVuSans-2212"/>
       <use xlink:href="#DejaVuSans-30" x="83.789062"/>
       <use xlink:href="#DejaVuSans-2e" x="147.412109"/>
       <use xlink:href="#DejaVuSans-38" x="179.199219"/>
      </g>
     </g>
    </g>
    <g id="xtick_3">
     <g id="line2d_5">
      <g>
       <use xlink:href="#m0ceb9ea4d5" x="88.632" y="181.446857" style="stroke: #000000; stroke-width: 0.8"/>
      </g>
     </g>
     <g id="line2d_6">
      <g>
       <use xlink:href="#m842f1fc4bc" x="88.632" y="71.064" style="stroke: #000000; stroke-width: 0.8"/>
      </g>
     </g>
     <g id="text_3">
      <!-- 0.0 -->
      <g transform="translate(86.061998 64.534607) rotate(-45) scale(0.07 -0.07)">
       <use xlink:href="#DejaVuSans-30"/>
       <use xlink:href="#DejaVuSans-2e" x="63.623047"/>
       <use xlink:href="#DejaVuSans-30" x="95.410156"/>
      </g>
     </g>
    </g>
    <g id="xtick_4">
     <g id="line2d_7">
      <g>
       <use xlink:href="#m0ceb9ea4d5" x="108.70161" y="181.446857" style="stroke: #000000; stroke-width: 0.8"/>
      </g>
     </g>
     <g id="line2d_8">
      <g>
       <use xlink:href="#m842f1fc4bc" x="108.70161" y="71.064" style="stroke: #000000; stroke-width: 0.8"/>
      </g>
     </g>
     <g id="text_4">
      <!-- 0.8 -->
      <g transform="translate(106.131609 64.534607) rotate(-45) scale(0.07 -0.07)">
       <use xlink:href="#DejaVuSans-30"/>
       <use xlink:href="#DejaVuSans-2e" x="63.623047"/>
       <use xlink:href="#DejaVuSans-38" x="95.410156"/>
      </g>
     </g>
    </g>
    <g id="xtick_5">
     <g id="line2d_9">
      <g>
       <use xlink:href="#m0ceb9ea4d5" x="128.771221" y="181.446857" style="stroke: #000000; stroke-width: 0.8"/>
      </g>
     </g>
     <g id="line2d_10">
      <g>
       <use xlink:href="#m842f1fc4bc" x="128.771221" y="71.064" style="stroke: #000000; stroke-width: 0.8"/>
      </g>
     </g>
     <g id="text_5">
      <!-- 1.6 -->
      <g transform="translate(126.201219 64.534607) rotate(-45) scale(0.07 -0.07)">
       <use xlink:href="#DejaVuSans-31"/>
       <use xlink:href="#DejaVuSans-2e" x="63.623047"/>
       <use xlink:href="#DejaVuSans-36" x="95.410156"/>
      </g>
     </g>
    </g>
    <g id="text_6">
     <!-- $\mathbf{x_{0}}$ -->
     <g transform="translate(82.782 44.754194) scale(0.1 -0.1)">
      <defs>
       <path id="DejaVuSans-Bold-78" d="M 1422 1791 
L 159 3500 
L 1344 3500 
L 2059 2463 
L 2784 3500 
L 3969 3500 
L 2706 1797 
L 4031 0 
L 2847 0 
L 2059 1106 
L 1281 0 
L 97 0 
L 1422 1791 
z
" transform="scale(0.015625)"/>
       <path id="DejaVuSans-Bold-30" d="M 2944 2338 
Q 2944 3213 2780 3570 
Q 2616 3928 2228 3928 
Q 1841 3928 1675 3570 
Q 1509 3213 1509 2338 
Q 1509 1453 1675 1090 
Q 1841 728 2228 728 
Q 2613 728 2778 1090 
Q 2944 1453 2944 2338 
z
M 4147 2328 
Q 4147 1169 3647 539 
Q 3147 -91 2228 -91 
Q 1306 -91 806 539 
Q 306 1169 306 2328 
Q 306 3491 806 4120 
Q 1306 4750 2228 4750 
Q 3147 4750 3647 4120 
Q 4147 3491 4147 2328 
z
" transform="scale(0.015625)"/>
      </defs>
      <use xlink:href="#DejaVuSans-Bold-78" transform="translate(0 0.3125)"/>
      <use xlink:href="#DejaVuSans-Bold-30" transform="translate(65.458984 -16.09375) scale(0.7)"/>
     </g>
    </g>
   </g>
   <g id="matplotlib.axis_2">
    <g id="ytick_1">
     <g id="line2d_11">
      <defs>
       <path id="m4b1df4fcf2" d="M 0 0 
L 3.5 0 
" style="stroke: #000000; stroke-width: 0.8"/>
      </defs>
      <g>
       <use xlink:href="#m4b1df4fcf2" x="143.823429" y="162.504967" style="stroke: #000000; stroke-width: 0.8"/>
      </g>
     </g>
     <g id="text_7">
      <!-- 300 -->
      <g transform="translate(152.703946 164.385484) rotate(-45) scale(0.07 -0.07)">
       <defs>
        <path id="DejaVuSans-33" d="M 2597 2516 
Q 3050 2419 3304 2112 
Q 3559 1806 3559 1356 
Q 3559 666 3084 287 
Q 2609 -91 1734 -91 
Q 1441 -91 1130 -33 
Q 819 25 488 141 
L 488 750 
Q 750 597 1062 519 
Q 1375 441 1716 441 
Q 2309 441 2620 675 
Q 2931 909 2931 1356 
Q 2931 1769 2642 2001 
Q 2353 2234 1838 2234 
L 1294 2234 
L 1294 2753 
L 1863 2753 
Q 2328 2753 2575 2939 
Q 2822 3125 2822 3475 
Q 2822 3834 2567 4026 
Q 2313 4219 1838 4219 
Q 1578 4219 1281 4162 
Q 984 4106 628 3988 
L 628 4550 
Q 988 4650 1302 4700 
Q 1616 4750 1894 4750 
Q 2613 4750 3031 4423 
Q 3450 4097 3450 3541 
Q 3450 3153 3228 2886 
Q 3006 2619 2597 2516 
z
" transform="scale(0.015625)"/>
       </defs>
       <use xlink:href="#DejaVuSans-33"/>
       <use xlink:href="#DejaVuSans-30" x="63.623047"/>
       <use xlink:href="#DejaVuSans-30" x="127.246094"/>
      </g>
     </g>
    </g>
    <g id="ytick_2">
     <g id="line2d_12">
      <g>
       <use xlink:href="#m4b1df4fcf2" x="143.823429" y="141.513286" style="stroke: #000000; stroke-width: 0.8"/>
      </g>
     </g>
     <g id="text_8">
      <!-- 600 -->
      <g transform="translate(152.703946 143.393804) rotate(-45) scale(0.07 -0.07)">
       <use xlink:href="#DejaVuSans-36"/>
       <use xlink:href="#DejaVuSans-30" x="63.623047"/>
       <use xlink:href="#DejaVuSans-30" x="127.246094"/>
      </g>
     </g>
    </g>
    <g id="ytick_3">
     <g id="line2d_13">
      <g>
       <use xlink:href="#m4b1df4fcf2" x="143.823429" y="120.521606" style="stroke: #000000; stroke-width: 0.8"/>
      </g>
     </g>
     <g id="text_9">
      <!-- 900 -->
      <g transform="translate(152.703946 122.402123) rotate(-45) scale(0.07 -0.07)">
       <defs>
        <path id="DejaVuSans-39" d="M 703 97 
L 703 672 
Q 941 559 1184 500 
Q 1428 441 1663 441 
Q 2288 441 2617 861 
Q 2947 1281 2994 2138 
Q 2813 1869 2534 1725 
Q 2256 1581 1919 1581 
Q 1219 1581 811 2004 
Q 403 2428 403 3163 
Q 403 3881 828 4315 
Q 1253 4750 1959 4750 
Q 2769 4750 3195 4129 
Q 3622 3509 3622 2328 
Q 3622 1225 3098 567 
Q 2575 -91 1691 -91 
Q 1453 -91 1209 -44 
Q 966 3 703 97 
z
M 1959 2075 
Q 2384 2075 2632 2365 
Q 2881 2656 2881 3163 
Q 2881 3666 2632 3958 
Q 2384 4250 1959 4250 
Q 1534 4250 1286 3958 
Q 1038 3666 1038 3163 
Q 1038 2656 1286 2365 
Q 1534 2075 1959 2075 
z
" transform="scale(0.015625)"/>
       </defs>
       <use xlink:href="#DejaVuSans-39"/>
       <use xlink:href="#DejaVuSans-30" x="63.623047"/>
       <use xlink:href="#DejaVuSans-30" x="127.246094"/>
      </g>
     </g>
    </g>
    <g id="ytick_4">
     <g id="line2d_14">
      <g>
       <use xlink:href="#m4b1df4fcf2" x="143.823429" y="99.529926" style="stroke: #000000; stroke-width: 0.8"/>
      </g>
     </g>
     <g id="text_10">
      <!-- 1200 -->
      <g transform="translate(152.703946 101.410443) rotate(-45) scale(0.07 -0.07)">
       <defs>
        <path id="DejaVuSans-32" d="M 1228 531 
L 3431 531 
L 3431 0 
L 469 0 
L 469 531 
Q 828 903 1448 1529 
Q 2069 2156 2228 2338 
Q 2531 2678 2651 2914 
Q 2772 3150 2772 3378 
Q 2772 3750 2511 3984 
Q 2250 4219 1831 4219 
Q 1534 4219 1204 4116 
Q 875 4013 500 3803 
L 500 4441 
Q 881 4594 1212 4672 
Q 1544 4750 1819 4750 
Q 2544 4750 2975 4387 
Q 3406 4025 3406 3419 
Q 3406 3131 3298 2873 
Q 3191 2616 2906 2266 
Q 2828 2175 2409 1742 
Q 1991 1309 1228 531 
z
" transform="scale(0.015625)"/>
       </defs>
       <use xlink:href="#DejaVuSans-31"/>
       <use xlink:href="#DejaVuSans-32" x="63.623047"/>
       <use xlink:href="#DejaVuSans-30" x="127.246094"/>
       <use xlink:href="#DejaVuSans-30" x="190.869141"/>
      </g>
     </g>
    </g>
    <g id="ytick_5">
     <g id="line2d_15">
      <g>
       <use xlink:href="#m4b1df4fcf2" x="143.823429" y="78.538246" style="stroke: #000000; stroke-width: 0.8"/>
      </g>
     </g>
     <g id="text_11">
      <!-- 1500 -->
      <g transform="translate(152.703946 80.418763) rotate(-45) scale(0.07 -0.07)">
       <defs>
        <path id="DejaVuSans-35" d="M 691 4666 
L 3169 4666 
L 3169 4134 
L 1269 4134 
L 1269 2991 
Q 1406 3038 1543 3061 
Q 1681 3084 1819 3084 
Q 2600 3084 3056 2656 
Q 3513 2228 3513 1497 
Q 3513 744 3044 326 
Q 2575 -91 1722 -91 
Q 1428 -91 1123 -41 
Q 819 9 494 109 
L 494 744 
Q 775 591 1075 516 
Q 1375 441 1709 441 
Q 2250 441 2565 725 
Q 2881 1009 2881 1497 
Q 2881 1984 2565 2268 
Q 2250 2553 1709 2553 
Q 1456 2553 1204 2497 
Q 953 2441 691 2322 
L 691 4666 
z
" transform="scale(0.015625)"/>
       </defs>
       <use xlink:href="#DejaVuSans-31"/>
       <use xlink:href="#DejaVuSans-35" x="63.623047"/>
       <use xlink:href="#DejaVuSans-30" x="127.246094"/>
       <use xlink:href="#DejaVuSans-30" x="190.869141"/>
      </g>
     </g>
    </g>
   </g>
   <g id="line2d_16">
    <path d="M 33.440571 76.081403 
L 43.475377 119.740375 
L 53.510182 152.783687 
L 63.544987 169.431844 
L 73.579792 175.104378 
L 83.614597 176.188661 
L 93.649403 176.429455 
L 103.684208 176.106115 
L 113.719013 169.703316 
L 123.753818 149.898258 
L 133.788623 118.4464 
L 143.823429 89.505505 
" clip-path="url(#p40d3f5aa8e)" style="fill: none; stroke: #1f77b4; stroke-width: 1.5; stroke-linecap: square"/>
   </g>
   <g id="line2d_17">
    <path d="M 113.719013 181.446857 
L 113.719013 71.064 
" clip-path="url(#p40d3f5aa8e)" style="fill: none; stroke-dasharray: 3.7,1.6; stroke-dashoffset: 0; stroke: #ff0000"/>
   </g>
   <g id="patch_3">
    <path d="M 33.440571 181.446857 
L 33.440571 71.064 
" style="fill: none; stroke: #000000; stroke-width: 0.8; stroke-linejoin: miter; stroke-linecap: square"/>
   </g>
   <g id="patch_4">
    <path d="M 143.823429 181.446857 
L 143.823429 71.064 
" style="fill: none; stroke: #000000; stroke-width: 0.8; stroke-linejoin: miter; stroke-linecap: square"/>
   </g>
   <g id="patch_5">
    <path d="M 33.440571 181.446857 
L 143.823429 181.446857 
" style="fill: none; stroke: #000000; stroke-width: 0.8; stroke-linejoin: miter; stroke-linecap: square"/>
   </g>
   <g id="patch_6">
    <path d="M 33.440571 71.064 
L 143.823429 71.064 
" style="fill: none; stroke: #000000; stroke-width: 0.8; stroke-linejoin: miter; stroke-linecap: square"/>
   </g>
  </g>
  <g id="axes_2">
   <g id="patch_7">
    <path d="M 33.440571 302.868 
L 143.823429 302.868 
L 143.823429 192.485143 
L 33.440571 192.485143 
z
" style="fill: #ffffff"/>
   </g>
   <g id="QuadContourSet_1">
    <path d="M 93.649403 249.350352 
L 103.684208 250.973419 
L 107.329 242.659169 
L 110.125011 232.624364 
L 113.719013 222.589559 
L 113.719013 222.589558 
L 113.719013 222.589558 
L 113.719012 222.589558 
L 103.684208 224.990857 
L 96.948159 232.624364 
L 93.649403 239.049175 
L 86.341819 242.659169 
z
" clip-path="url(#p71a26be0dc)" style="fill: #dfe318; fill-opacity: 0.8"/>
    <path d="M 83.614597 287.154322 
L 93.649403 286.845531 
L 98.221943 282.79839 
L 103.684208 276.783249 
L 105.974883 272.763584 
L 112.790408 262.728779 
L 113.719013 261.434754 
L 116.192025 252.693974 
L 118.099635 242.659169 
L 120.35325 232.624364 
L 123.753818 224.353392 
L 124.29864 222.589558 
L 128.379752 212.554753 
L 133.788623 203.764355 
L 135.036705 202.519948 
L 143.823429 192.838341 
L 143.823429 192.485143 
L 133.788623 192.485143 
L 123.753818 192.485143 
L 116.384503 192.485143 
L 113.719013 194.193107 
L 103.787782 202.519948 
L 103.684208 202.603616 
L 93.649403 208.796467 
L 83.614597 207.71286 
L 78.026305 202.519948 
L 73.579792 196.339007 
L 69.656474 192.485143 
L 63.544987 192.485143 
L 56.559947 192.485143 
L 53.510182 195.533964 
L 51.308095 202.519948 
L 47.575394 212.554753 
L 48.019141 222.589558 
L 51.966624 232.624364 
L 53.510182 236.656119 
L 57.154183 242.659169 
L 60.678167 252.693974 
L 63.544987 262.158116 
L 63.955965 262.728779 
L 71.563769 272.763584 
L 73.579792 276.207127 
L 79.393563 282.79839 
z
M 86.341819 242.659169 
L 93.649403 239.049175 
L 96.948159 232.624364 
L 103.684208 224.990857 
L 113.719012 222.589558 
L 113.719013 222.589558 
L 113.719013 222.589558 
L 113.719013 222.589559 
L 110.125011 232.624364 
L 107.329 242.659169 
L 103.684208 250.973419 
L 93.649403 249.350352 
z
" clip-path="url(#p71a26be0dc)" style="fill: #9bd93c; fill-opacity: 0.8"/>
    <path d="M 73.579792 301.137099 
L 79.433298 302.868 
L 83.614597 302.868 
L 87.007958 302.868 
L 93.649403 301.689932 
L 103.684208 296.700808 
L 107.628842 292.833195 
L 113.221052 282.79839 
L 113.719013 281.92053 
L 117.107555 272.763584 
L 120.003878 262.728779 
L 122.077289 252.693974 
L 123.753818 244.102203 
L 123.922815 242.659169 
L 125.858859 232.624364 
L 129.700571 222.589558 
L 133.788623 216.030149 
L 136.963786 212.554753 
L 143.823429 205.705992 
L 143.823429 202.519948 
L 143.823429 192.838341 
L 135.036705 202.519948 
L 133.788623 203.764355 
L 128.379752 212.554753 
L 124.29864 222.589558 
L 123.753818 224.353392 
L 120.35325 232.624364 
L 118.099635 242.659169 
L 116.192025 252.693974 
L 113.719013 261.434754 
L 112.790408 262.728779 
L 105.974883 272.763584 
L 103.684208 276.783249 
L 98.221943 282.79839 
L 93.649403 286.845531 
L 83.614597 287.154322 
L 79.393563 282.79839 
L 73.579792 276.207127 
L 71.563769 272.763584 
L 63.955965 262.728779 
L 63.544987 262.158116 
L 60.678167 252.693974 
L 57.154183 242.659169 
L 53.510182 236.656119 
L 51.966624 232.624364 
L 48.019141 222.589558 
L 47.575394 212.554753 
L 51.308095 202.519948 
L 53.510182 195.533964 
L 56.559947 192.485143 
L 53.510182 192.485143 
L 43.475377 192.485143 
L 40.829262 192.485143 
L 40.068845 202.519948 
L 38.98238 212.554753 
L 41.155791 222.589558 
L 43.475377 227.30682 
L 46.351967 232.624364 
L 51.160902 242.659169 
L 53.510182 251.784833 
L 53.90854 252.693974 
L 57.190921 262.728779 
L 60.676093 272.763584 
L 63.544987 280.335103 
L 65.058142 282.79839 
L 68.92848 292.833195 
z
M 83.614597 207.71286 
L 93.649403 208.796467 
L 103.684208 202.603616 
L 103.787782 202.519948 
L 113.719013 194.193107 
L 116.384503 192.485143 
L 113.719013 192.485143 
L 103.684208 192.485143 
L 93.649403 192.485143 
L 83.614597 192.485143 
L 73.579792 192.485143 
L 69.656474 192.485143 
L 73.579792 196.339007 
L 78.026305 202.519948 
z
" clip-path="url(#p71a26be0dc)" style="fill: #5cc863; fill-opacity: 0.8"/>
    <path d="M 43.475377 302.868 
L 53.510182 302.868 
L 63.544987 302.868 
L 73.579792 302.868 
L 79.433298 302.868 
L 73.579792 301.137099 
L 68.92848 292.833195 
L 65.058142 282.79839 
L 63.544987 280.335103 
L 60.676093 272.763584 
L 57.190921 262.728779 
L 53.90854 252.693974 
L 53.510182 251.784833 
L 51.160902 242.659169 
L 46.351967 232.624364 
L 43.475377 227.30682 
L 41.155791 222.589558 
L 38.98238 212.554753 
L 40.068845 202.519948 
L 40.829262 192.485143 
L 33.440571 192.485143 
L 33.440571 202.519948 
L 33.440571 212.554753 
L 33.440571 215.760766 
L 36.052192 222.589558 
L 41.711923 232.624364 
L 43.475377 236.07059 
L 47.183562 242.659169 
L 50.335167 252.693974 
L 51.953453 262.728779 
L 53.315291 272.763584 
L 53.510182 274.880356 
L 55.001851 282.79839 
L 53.651538 292.833195 
L 53.510182 293.049653 
L 43.475377 299.311559 
L 33.440571 300.231665 
L 33.440571 302.868 
z
M 93.649403 302.868 
L 103.684208 302.868 
L 113.719013 302.868 
L 123.753818 302.868 
L 133.788623 302.868 
L 143.823429 302.868 
L 143.823429 292.833195 
L 143.823429 291.342646 
L 133.788623 291.834813 
L 125.684269 282.79839 
L 125.325834 272.763584 
L 125.836869 262.728779 
L 126.420773 252.693974 
L 127.454973 242.659169 
L 129.852774 232.624364 
L 133.788623 224.575995 
L 135.068597 222.589558 
L 143.823429 213.301497 
L 143.823429 212.554753 
L 143.823429 205.705992 
L 136.963786 212.554753 
L 133.788623 216.030149 
L 129.700571 222.589558 
L 125.858859 232.624364 
L 123.922815 242.659169 
L 123.753818 244.102203 
L 122.077289 252.693974 
L 120.003878 262.728779 
L 117.107555 272.763584 
L 113.719013 281.92053 
L 113.221052 282.79839 
L 107.628842 292.833195 
L 103.684208 296.700808 
L 93.649403 301.689932 
L 87.007958 302.868 
z
" clip-path="url(#p71a26be0dc)" style="fill: #2fb47c; fill-opacity: 0.8"/>
    <path d="M 43.475377 299.311559 
L 53.510182 293.049653 
L 53.651538 292.833195 
L 55.001851 282.79839 
L 53.510182 274.880356 
L 53.315291 272.763584 
L 51.953453 262.728779 
L 50.335167 252.693974 
L 47.183562 242.659169 
L 43.475377 236.07059 
L 41.711923 232.624364 
L 36.052192 222.589558 
L 33.440571 215.760766 
L 33.440571 222.589558 
L 33.440571 225.349018 
L 38.095799 232.624364 
L 43.284974 242.659169 
L 43.475377 243.2759 
L 46.961637 252.693974 
L 48.379028 262.728779 
L 48.544002 272.763584 
L 46.68098 282.79839 
L 43.475377 287.574788 
L 33.440571 292.65086 
L 33.440571 292.833195 
L 33.440571 300.231665 
z
M 133.788623 291.834813 
L 143.823429 291.342646 
L 143.823429 282.79839 
L 143.823429 282.063252 
L 133.788623 275.425431 
L 132.622507 272.763584 
L 130.566178 262.728779 
L 130.150097 252.693974 
L 130.98713 242.659169 
L 133.788623 232.804996 
L 133.848227 232.624364 
L 140.331128 222.589558 
L 143.823429 218.884553 
L 143.823429 213.301497 
L 135.068597 222.589558 
L 133.788623 224.575995 
L 129.852774 232.624364 
L 127.454973 242.659169 
L 126.420773 252.693974 
L 125.836869 262.728779 
L 125.325834 272.763584 
L 125.684269 282.79839 
z
" clip-path="url(#p71a26be0dc)" style="fill: #1e9c89; fill-opacity: 0.8"/>
    <path d="M 43.475377 287.574788 
L 46.68098 282.79839 
L 48.544002 272.763584 
L 48.379028 262.728779 
L 46.961637 252.693974 
L 43.475377 243.2759 
L 43.284974 242.659169 
L 38.095799 232.624364 
L 33.440571 225.349018 
L 33.440571 231.000418 
L 34.479675 232.624364 
L 40.471365 242.659169 
L 43.475377 252.389436 
L 43.588106 252.693974 
L 44.804603 262.728779 
L 43.772713 272.763584 
L 43.475377 273.704464 
L 38.733761 282.79839 
L 33.440571 286.759606 
L 33.440571 292.65086 
z
M 133.788623 275.425431 
L 143.823429 282.063252 
L 143.823429 274.318674 
L 141.887795 272.763584 
L 135.524466 262.728779 
L 133.8875 252.693974 
L 134.561426 242.659169 
L 137.947884 232.624364 
L 143.823429 224.497117 
L 143.823429 222.589558 
L 143.823429 218.884553 
L 140.331128 222.589558 
L 133.848227 232.624364 
L 133.788623 232.804996 
L 130.98713 242.659169 
L 130.150097 252.693974 
L 130.566178 262.728779 
L 132.622507 272.763584 
z
" clip-path="url(#p71a26be0dc)" style="fill: #25848e; fill-opacity: 0.8"/>
    <path d="M 38.733761 282.79839 
L 43.475377 273.704464 
L 43.772713 272.763584 
L 44.804603 262.728779 
L 43.588106 252.693974 
L 43.475377 252.389436 
L 40.471365 242.659169 
L 34.479675 232.624364 
L 33.440571 231.000418 
L 33.440571 232.624364 
L 33.440571 235.858041 
L 37.657756 242.659169 
L 40.992032 252.693974 
L 41.668253 262.728779 
L 39.631731 272.763584 
L 33.440571 281.00974 
L 33.440571 282.79839 
L 33.440571 286.759606 
z
M 143.823429 274.318674 
L 143.823429 272.763584 
L 143.823429 266.699509 
L 140.97243 262.728779 
L 137.948651 252.693974 
L 138.297289 242.659169 
L 142.04754 232.624364 
L 143.823429 230.167897 
L 143.823429 224.497117 
L 137.947884 232.624364 
L 134.561426 242.659169 
L 133.8875 252.693974 
L 135.524466 262.728779 
L 141.887795 272.763584 
z
" clip-path="url(#p71a26be0dc)" style="fill: #2f6c8e; fill-opacity: 0.8"/>
    <path d="M 39.631731 272.763584 
L 41.668253 262.728779 
L 40.992032 252.693974 
L 37.657756 242.659169 
L 33.440571 235.858041 
L 33.440571 240.395598 
L 34.844147 242.659169 
L 38.422835 252.693974 
L 38.791257 262.728779 
L 35.53264 272.763584 
L 33.440571 275.550061 
L 33.440571 281.00974 
z
M 143.823429 266.699509 
L 143.823429 262.728779 
L 143.823429 257.547769 
L 142.009801 252.693974 
L 142.033152 242.659169 
L 143.823429 238.06198 
L 143.823429 232.624364 
L 143.823429 230.167897 
L 142.04754 232.624364 
L 138.297289 242.659169 
L 137.948651 252.693974 
L 140.97243 262.728779 
z
" clip-path="url(#p71a26be0dc)" style="fill: #3b518b; fill-opacity: 0.8"/>
    <path d="M 35.53264 272.763584 
L 38.791257 262.728779 
L 38.422835 252.693974 
L 34.844147 242.659169 
L 33.440571 240.395598 
L 33.440571 242.659169 
L 33.440571 246.150559 
L 35.853637 252.693974 
L 35.914262 262.728779 
L 33.440571 269.122598 
L 33.440571 272.763584 
L 33.440571 275.550061 
z
M 143.823429 257.547769 
L 143.823429 252.693974 
L 143.823429 242.659169 
L 143.823429 238.06198 
L 142.033152 242.659169 
L 142.009801 252.693974 
z
" clip-path="url(#p71a26be0dc)" style="fill: #463480; fill-opacity: 0.8"/>
    <path d="M 35.914262 262.728779 
L 35.853637 252.693974 
L 33.440571 246.150559 
L 33.440571 252.693974 
L 33.440571 262.728779 
L 33.440571 269.122598 
z
" clip-path="url(#p71a26be0dc)" style="fill: #471365; fill-opacity: 0.8"/>
   </g>
   <g id="PathCollection_1">
    <defs>
     <path id="mf4725404e7" d="M 0 -7.071068 
L -1.587554 -2.18508 
L -6.724985 -2.18508 
L -2.568716 0.834626 
L -4.156269 5.720614 
L -0 2.700907 
L 4.156269 5.720614 
L 2.568716 0.834626 
L 6.724985 -2.18508 
L 1.587554 -2.18508 
z
" style="stroke: #dd0000; stroke-width: 0.5"/>
    </defs>
    <g clip-path="url(#p71a26be0dc)">
     <use xlink:href="#mf4725404e7" x="113.719013" y="222.589558" style="fill: #dd0000; stroke: #dd0000; stroke-width: 0.5"/>
    </g>
   </g>
   <g id="PathCollection_2">
    <defs>
     <path id="m80a721cd8f" d="M 0 1.732051 
C 0.459345 1.732051 0.899939 1.549551 1.224745 1.224745 
C 1.549551 0.899939 1.732051 0.459345 1.732051 0 
C 1.732051 -0.459345 1.549551 -0.899939 1.224745 -1.224745 
C 0.899939 -1.549551 0.459345 -1.732051 0 -1.732051 
C -0.459345 -1.732051 -0.899939 -1.549551 -1.224745 -1.224745 
C -1.549551 -0.899939 -1.732051 -0.459345 -1.732051 0 
C -1.732051 0.459345 -1.549551 0.899939 -1.224745 1.224745 
C -0.899939 1.549551 -0.459345 1.732051 0 1.732051 
z
"/>
    </defs>
    <g clip-path="url(#p71a26be0dc)">
     <use xlink:href="#m80a721cd8f" x="76.514647" y="232.547421" style="fill-opacity: 0.4"/>
     <use xlink:href="#m80a721cd8f" x="88.50803" y="196.64827" style="fill-opacity: 0.4"/>
     <use xlink:href="#m80a721cd8f" x="114.101209" y="249.113053" style="fill-opacity: 0.4"/>
     <use xlink:href="#m80a721cd8f" x="61.944286" y="267.624035" style="fill-opacity: 0.4"/>
     <use xlink:href="#m80a721cd8f" x="65.45081" y="221.311767" style="fill-opacity: 0.4"/>
     <use xlink:href="#m80a721cd8f" x="78.390566" y="284.63415" style="fill-opacity: 0.4"/>
     <use xlink:href="#m80a721cd8f" x="88.496637" y="273.085749" style="fill-opacity: 0.4"/>
     <use xlink:href="#m80a721cd8f" x="86.556565" y="296.469267" style="fill-opacity: 0.4"/>
     <use xlink:href="#m80a721cd8f" x="89.501554" y="218.971893" style="fill-opacity: 0.4"/>
     <use xlink:href="#m80a721cd8f" x="102.147867" y="257.613242" style="fill-opacity: 0.4"/>
     <use xlink:href="#m80a721cd8f" x="49.943337" y="236.316902" style="fill-opacity: 0.4"/>
     <use xlink:href="#m80a721cd8f" x="50.26596" y="258.995293" style="fill-opacity: 0.4"/>
     <use xlink:href="#m80a721cd8f" x="39.2433" y="249.28131" style="fill-opacity: 0.4"/>
     <use xlink:href="#m80a721cd8f" x="63.989118" y="248.501615" style="fill-opacity: 0.4"/>
     <use xlink:href="#m80a721cd8f" x="78.127356" y="210.7693" style="fill-opacity: 0.4"/>
     <use xlink:href="#m80a721cd8f" x="89.047505" y="248.854029" style="fill-opacity: 0.4"/>
     <use xlink:href="#m80a721cd8f" x="136.174139" y="245.089134" style="fill-opacity: 0.4"/>
     <use xlink:href="#m80a721cd8f" x="111.630152" y="273.260885" style="fill-opacity: 0.4"/>
     <use xlink:href="#m80a721cd8f" x="100.308414" y="285.226156" style="fill-opacity: 0.4"/>
     <use xlink:href="#m80a721cd8f" x="126.000478" y="258.103262" style="fill-opacity: 0.4"/>
     <use xlink:href="#m80a721cd8f" x="64.024179" y="224.054499" style="fill-opacity: 0.4"/>
     <use xlink:href="#m80a721cd8f" x="64.31406" y="222.236391" style="fill-opacity: 0.4"/>
     <use xlink:href="#m80a721cd8f" x="63.205047" y="224.582862" style="fill-opacity: 0.4"/>
     <use xlink:href="#m80a721cd8f" x="74.190697" y="220.03887" style="fill-opacity: 0.4"/>
     <use xlink:href="#m80a721cd8f" x="66.18496" y="223.389202" style="fill-opacity: 0.4"/>
     <use xlink:href="#m80a721cd8f" x="65.060846" y="223.307472" style="fill-opacity: 0.4"/>
     <use xlink:href="#m80a721cd8f" x="65.728969" y="224.50854" style="fill-opacity: 0.4"/>
     <use xlink:href="#m80a721cd8f" x="65.743923" y="221.029037" style="fill-opacity: 0.4"/>
     <use xlink:href="#m80a721cd8f" x="71.047214" y="234.434002" style="fill-opacity: 0.4"/>
     <use xlink:href="#m80a721cd8f" x="70.302953" y="237.636634" style="fill-opacity: 0.4"/>
     <use xlink:href="#m80a721cd8f" x="69.321555" y="235.1223" style="fill-opacity: 0.4"/>
     <use xlink:href="#m80a721cd8f" x="72.910514" y="232.522278" style="fill-opacity: 0.4"/>
     <use xlink:href="#m80a721cd8f" x="72.373353" y="233.940057" style="fill-opacity: 0.4"/>
     <use xlink:href="#m80a721cd8f" x="71.850095" y="237.767366" style="fill-opacity: 0.4"/>
     <use xlink:href="#m80a721cd8f" x="72.983778" y="235.328627" style="fill-opacity: 0.4"/>
     <use xlink:href="#m80a721cd8f" x="71.966722" y="234.443463" style="fill-opacity: 0.4"/>
     <use xlink:href="#m80a721cd8f" x="67.601766" y="236.325614" style="fill-opacity: 0.4"/>
     <use xlink:href="#m80a721cd8f" x="72.709062" y="239.229909" style="fill-opacity: 0.4"/>
     <use xlink:href="#m80a721cd8f" x="73.614741" y="236.387096" style="fill-opacity: 0.4"/>
     <use xlink:href="#m80a721cd8f" x="69.574776" y="237.440759" style="fill-opacity: 0.4"/>
     <use xlink:href="#m80a721cd8f" x="72.786489" y="235.204934" style="fill-opacity: 0.4"/>
     <use xlink:href="#m80a721cd8f" x="71.733445" y="235.128423" style="fill-opacity: 0.4"/>
     <use xlink:href="#m80a721cd8f" x="71.947956" y="232.370489" style="fill-opacity: 0.4"/>
     <use xlink:href="#m80a721cd8f" x="113.704112" y="223.692832" style="fill-opacity: 0.4"/>
     <use xlink:href="#m80a721cd8f" x="112.760901" y="220.102736" style="fill-opacity: 0.4"/>
    </g>
   </g>
   <g id="matplotlib.axis_3">
    <g id="xtick_6">
     <g id="line2d_18">
      <g>
       <use xlink:href="#m0ceb9ea4d5" x="48.492779" y="302.868" style="stroke: #000000; stroke-width: 0.8"/>
      </g>
     </g>
     <g id="line2d_19">
      <g>
       <use xlink:href="#m842f1fc4bc" x="48.492779" y="192.485143" style="stroke: #000000; stroke-width: 0.8"/>
      </g>
     </g>
     <g id="text_12">
      <!-- −1.6 -->
      <g transform="translate(43.848911 324.148414) rotate(-45) scale(0.07 -0.07)">
       <use xlink:href="#DejaVuSans-2212"/>
       <use xlink:href="#DejaVuSans-31" x="83.789062"/>
       <use xlink:href="#DejaVuSans-2e" x="147.412109"/>
       <use xlink:href="#DejaVuSans-36" x="179.199219"/>
      </g>
     </g>
    </g>
    <g id="xtick_7">
     <g id="line2d_20">
      <g>
       <use xlink:href="#m0ceb9ea4d5" x="68.56239" y="302.868" style="stroke: #000000; stroke-width: 0.8"/>
      </g>
     </g>
     <g id="line2d_21">
      <g>
       <use xlink:href="#m842f1fc4bc" x="68.56239" y="192.485143" style="stroke: #000000; stroke-width: 0.8"/>
      </g>
     </g>
     <g id="text_13">
      <!-- −0.8 -->
      <g transform="translate(63.918521 324.148414) rotate(-45) scale(0.07 -0.07)">
       <use xlink:href="#DejaVuSans-2212"/>
       <use xlink:href="#DejaVuSans-30" x="83.789062"/>
       <use xlink:href="#DejaVuSans-2e" x="147.412109"/>
       <use xlink:href="#DejaVuSans-38" x="179.199219"/>
      </g>
     </g>
    </g>
    <g id="xtick_8">
     <g id="line2d_22">
      <g>
       <use xlink:href="#m0ceb9ea4d5" x="88.632" y="302.868" style="stroke: #000000; stroke-width: 0.8"/>
      </g>
     </g>
     <g id="line2d_23">
      <g>
       <use xlink:href="#m842f1fc4bc" x="88.632" y="192.485143" style="stroke: #000000; stroke-width: 0.8"/>
      </g>
     </g>
     <g id="text_14">
      <!-- 0.0 -->
      <g transform="translate(86.061998 320.00068) rotate(-45) scale(0.07 -0.07)">
       <use xlink:href="#DejaVuSans-30"/>
       <use xlink:href="#DejaVuSans-2e" x="63.623047"/>
       <use xlink:href="#DejaVuSans-30" x="95.410156"/>
      </g>
     </g>
    </g>
    <g id="xtick_9">
     <g id="line2d_24">
      <g>
       <use xlink:href="#m0ceb9ea4d5" x="108.70161" y="302.868" style="stroke: #000000; stroke-width: 0.8"/>
      </g>
     </g>
     <g id="line2d_25">
      <g>
       <use xlink:href="#m842f1fc4bc" x="108.70161" y="192.485143" style="stroke: #000000; stroke-width: 0.8"/>
      </g>
     </g>
     <g id="text_15">
      <!-- 0.8 -->
      <g transform="translate(106.131609 320.00068) rotate(-45) scale(0.07 -0.07)">
       <use xlink:href="#DejaVuSans-30"/>
       <use xlink:href="#DejaVuSans-2e" x="63.623047"/>
       <use xlink:href="#DejaVuSans-38" x="95.410156"/>
      </g>
     </g>
    </g>
    <g id="xtick_10">
     <g id="line2d_26">
      <g>
       <use xlink:href="#m0ceb9ea4d5" x="128.771221" y="302.868" style="stroke: #000000; stroke-width: 0.8"/>
      </g>
     </g>
     <g id="line2d_27">
      <g>
       <use xlink:href="#m842f1fc4bc" x="128.771221" y="192.485143" style="stroke: #000000; stroke-width: 0.8"/>
      </g>
     </g>
     <g id="text_16">
      <!-- 1.6 -->
      <g transform="translate(126.201219 320.00068) rotate(-45) scale(0.07 -0.07)">
       <use xlink:href="#DejaVuSans-31"/>
       <use xlink:href="#DejaVuSans-2e" x="63.623047"/>
       <use xlink:href="#DejaVuSans-36" x="95.410156"/>
      </g>
     </g>
    </g>
    <g id="text_17">
     <!-- $\mathbf{x_{0}}$ -->
     <g transform="translate(82.782 332.776244) scale(0.1 -0.1)">
      <use xlink:href="#DejaVuSans-Bold-78" transform="translate(0 0.3125)"/>
      <use xlink:href="#DejaVuSans-Bold-30" transform="translate(65.458984 -16.09375) scale(0.7)"/>
     </g>
    </g>
   </g>
   <g id="matplotlib.axis_4">
    <g id="ytick_6">
     <g id="line2d_28">
      <defs>
       <path id="md7c24451ec" d="M 0 0 
L -3.5 0 
" style="stroke: #000000; stroke-width: 0.8"/>
      </defs>
      <g>
       <use xlink:href="#md7c24451ec" x="33.440571" y="287.815792" style="stroke: #000000; stroke-width: 0.8"/>
      </g>
     </g>
     <g id="text_18">
      <!-- −1.6 -->
      <g transform="translate(10.942603 290.475245) scale(0.07 -0.07)">
       <use xlink:href="#DejaVuSans-2212"/>
       <use xlink:href="#DejaVuSans-31" x="83.789062"/>
       <use xlink:href="#DejaVuSans-2e" x="147.412109"/>
       <use xlink:href="#DejaVuSans-36" x="179.199219"/>
      </g>
     </g>
    </g>
    <g id="ytick_7">
     <g id="line2d_29">
      <g>
       <use xlink:href="#md7c24451ec" x="33.440571" y="267.746182" style="stroke: #000000; stroke-width: 0.8"/>
      </g>
     </g>
     <g id="text_19">
      <!-- −0.8 -->
      <g transform="translate(10.942603 270.405635) scale(0.07 -0.07)">
       <use xlink:href="#DejaVuSans-2212"/>
       <use xlink:href="#DejaVuSans-30" x="83.789062"/>
       <use xlink:href="#DejaVuSans-2e" x="147.412109"/>
       <use xlink:href="#DejaVuSans-38" x="179.199219"/>
      </g>
     </g>
    </g>
    <g id="ytick_8">
     <g id="line2d_30">
      <g>
       <use xlink:href="#md7c24451ec" x="33.440571" y="247.676571" style="stroke: #000000; stroke-width: 0.8"/>
      </g>
     </g>
     <g id="text_20">
      <!-- 0.0 -->
      <g transform="translate(16.808384 250.336025) scale(0.07 -0.07)">
       <use xlink:href="#DejaVuSans-30"/>
       <use xlink:href="#DejaVuSans-2e" x="63.623047"/>
       <use xlink:href="#DejaVuSans-30" x="95.410156"/>
      </g>
     </g>
    </g>
    <g id="ytick_9">
     <g id="line2d_31">
      <g>
       <use xlink:href="#md7c24451ec" x="33.440571" y="227.606961" style="stroke: #000000; stroke-width: 0.8"/>
      </g>
     </g>
     <g id="text_21">
      <!-- 0.8 -->
      <g transform="translate(16.808384 230.266414) scale(0.07 -0.07)">
       <use xlink:href="#DejaVuSans-30"/>
       <use xlink:href="#DejaVuSans-2e" x="63.623047"/>
       <use xlink:href="#DejaVuSans-38" x="95.410156"/>
      </g>
     </g>
    </g>
    <g id="ytick_10">
     <g id="line2d_32">
      <g>
       <use xlink:href="#md7c24451ec" x="33.440571" y="207.537351" style="stroke: #000000; stroke-width: 0.8"/>
      </g>
     </g>
     <g id="text_22">
      <!-- 1.6 -->
      <g transform="translate(16.808384 210.196804) scale(0.07 -0.07)">
       <use xlink:href="#DejaVuSans-31"/>
       <use xlink:href="#DejaVuSans-2e" x="63.623047"/>
       <use xlink:href="#DejaVuSans-36" x="95.410156"/>
      </g>
     </g>
    </g>
    <g id="text_23">
     <!-- $\mathbf{x_{1}}$ -->
     <g transform="translate(8.862915 253.526571) rotate(-90) scale(0.1 -0.1)">
      <defs>
       <path id="DejaVuSans-Bold-31" d="M 750 831 
L 1813 831 
L 1813 3847 
L 722 3622 
L 722 4441 
L 1806 4666 
L 2950 4666 
L 2950 831 
L 4013 831 
L 4013 0 
L 750 0 
L 750 831 
z
" transform="scale(0.015625)"/>
      </defs>
      <use xlink:href="#DejaVuSans-Bold-78" transform="translate(0 0.3125)"/>
      <use xlink:href="#DejaVuSans-Bold-31" transform="translate(65.458984 -16.09375) scale(0.7)"/>
     </g>
    </g>
   </g>
   <g id="patch_8">
    <path d="M 33.440571 302.868 
L 33.440571 192.485143 
" style="fill: none; stroke: #000000; stroke-width: 0.8; stroke-linejoin: miter; stroke-linecap: square"/>
   </g>
   <g id="patch_9">
    <path d="M 143.823429 302.868 
L 143.823429 192.485143 
" style="fill: none; stroke: #000000; stroke-width: 0.8; stroke-linejoin: miter; stroke-linecap: square"/>
   </g>
   <g id="patch_10">
    <path d="M 33.440571 302.868 
L 143.823429 302.868 
" style="fill: none; stroke: #000000; stroke-width: 0.8; stroke-linejoin: miter; stroke-linecap: square"/>
   </g>
   <g id="patch_11">
    <path d="M 33.440571 192.485143 
L 143.823429 192.485143 
" style="fill: none; stroke: #000000; stroke-width: 0.8; stroke-linejoin: miter; stroke-linecap: square"/>
   </g>
  </g>
  <g id="axes_3">
   <g id="patch_12">
    <path d="M 158.576571 302.868 
L 268.959429 302.868 
L 268.959429 192.485143 
L 158.576571 192.485143 
z
" style="fill: #ffffff"/>
   </g>
   <g id="axes_4">
    <g id="patch_13">
     <path d="M 158.576571 302.868 
L 158.576571 302.868 
L 158.576571 192.485143 
L 158.576571 192.485143 
z
" style="fill: #ffffff"/>
    </g>
    <g id="matplotlib.axis_5"/>
    <g id="matplotlib.axis_6">
     <g id="ytick_11">
      <g id="line2d_33">
       <defs>
        <path id="m3b8725fcb5" d="M 0 0 
L -3.5 0 
" style="stroke: #ffffff; stroke-opacity: 0; stroke-width: 0.8"/>
       </defs>
       <g>
        <use xlink:href="#m3b8725fcb5" x="158.576571" y="269.931656" style="fill: #ffffff; fill-opacity: 0; stroke: #ffffff; stroke-opacity: 0; stroke-width: 0.8"/>
       </g>
      </g>
     </g>
     <g id="ytick_12">
      <g id="line2d_34">
       <g>
        <use xlink:href="#m3b8725fcb5" x="158.576571" y="234.945522" style="fill: #ffffff; fill-opacity: 0; stroke: #ffffff; stroke-opacity: 0; stroke-width: 0.8"/>
       </g>
      </g>
     </g>
     <g id="ytick_13">
      <g id="line2d_35">
       <g>
        <use xlink:href="#m3b8725fcb5" x="158.576571" y="199.959388" style="fill: #ffffff; fill-opacity: 0; stroke: #ffffff; stroke-opacity: 0; stroke-width: 0.8"/>
       </g>
      </g>
     </g>
    </g>
    <g id="patch_14">
     <path d="M 158.576571 302.868 
L 158.576571 192.485143 
" style="fill: none; stroke: #000000; stroke-width: 0.8; stroke-linejoin: miter; stroke-linecap: square"/>
    </g>
   </g>
   <g id="matplotlib.axis_7">
    <g id="xtick_11">
     <g id="line2d_36">
      <g>
       <use xlink:href="#m0ceb9ea4d5" x="173.628779" y="302.868" style="stroke: #000000; stroke-width: 0.8"/>
      </g>
     </g>
     <g id="line2d_37">
      <g>
       <use xlink:href="#m842f1fc4bc" x="173.628779" y="192.485143" style="stroke: #000000; stroke-width: 0.8"/>
      </g>
     </g>
     <g id="text_24">
      <!-- −1.6 -->
      <g transform="translate(168.984911 324.148414) rotate(-45) scale(0.07 -0.07)">
       <use xlink:href="#DejaVuSans-2212"/>
       <use xlink:href="#DejaVuSans-31" x="83.789062"/>
       <use xlink:href="#DejaVuSans-2e" x="147.412109"/>
       <use xlink:href="#DejaVuSans-36" x="179.199219"/>
      </g>
     </g>
     <g id="text_25">
      <!-- −1.6 -->
      <g transform="translate(168.984911 185.95575) rotate(-45) scale(0.07 -0.07)">
       <use xlink:href="#DejaVuSans-2212"/>
       <use xlink:href="#DejaVuSans-31" x="83.789062"/>
       <use xlink:href="#DejaVuSans-2e" x="147.412109"/>
       <use xlink:href="#DejaVuSans-36" x="179.199219"/>
      </g>
     </g>
    </g>
    <g id="xtick_12">
     <g id="line2d_38">
      <g>
       <use xlink:href="#m0ceb9ea4d5" x="193.69839" y="302.868" style="stroke: #000000; stroke-width: 0.8"/>
      </g>
     </g>
     <g id="line2d_39">
      <g>
       <use xlink:href="#m842f1fc4bc" x="193.69839" y="192.485143" style="stroke: #000000; stroke-width: 0.8"/>
      </g>
     </g>
     <g id="text_26">
      <!-- −0.8 -->
      <g transform="translate(189.054521 324.148414) rotate(-45) scale(0.07 -0.07)">
       <use xlink:href="#DejaVuSans-2212"/>
       <use xlink:href="#DejaVuSans-30" x="83.789062"/>
       <use xlink:href="#DejaVuSans-2e" x="147.412109"/>
       <use xlink:href="#DejaVuSans-38" x="179.199219"/>
      </g>
     </g>
     <g id="text_27">
      <!-- −0.8 -->
      <g transform="translate(189.054521 185.95575) rotate(-45) scale(0.07 -0.07)">
       <use xlink:href="#DejaVuSans-2212"/>
       <use xlink:href="#DejaVuSans-30" x="83.789062"/>
       <use xlink:href="#DejaVuSans-2e" x="147.412109"/>
       <use xlink:href="#DejaVuSans-38" x="179.199219"/>
      </g>
     </g>
    </g>
    <g id="xtick_13">
     <g id="line2d_40">
      <g>
       <use xlink:href="#m0ceb9ea4d5" x="213.768" y="302.868" style="stroke: #000000; stroke-width: 0.8"/>
      </g>
     </g>
     <g id="line2d_41">
      <g>
       <use xlink:href="#m842f1fc4bc" x="213.768" y="192.485143" style="stroke: #000000; stroke-width: 0.8"/>
      </g>
     </g>
     <g id="text_28">
      <!-- 0.0 -->
      <g transform="translate(211.197998 320.00068) rotate(-45) scale(0.07 -0.07)">
       <use xlink:href="#DejaVuSans-30"/>
       <use xlink:href="#DejaVuSans-2e" x="63.623047"/>
       <use xlink:href="#DejaVuSans-30" x="95.410156"/>
      </g>
     </g>
     <g id="text_29">
      <!-- 0.0 -->
      <g transform="translate(211.197998 185.95575) rotate(-45) scale(0.07 -0.07)">
       <use xlink:href="#DejaVuSans-30"/>
       <use xlink:href="#DejaVuSans-2e" x="63.623047"/>
       <use xlink:href="#DejaVuSans-30" x="95.410156"/>
      </g>
     </g>
    </g>
    <g id="xtick_14">
     <g id="line2d_42">
      <g>
       <use xlink:href="#m0ceb9ea4d5" x="233.83761" y="302.868" style="stroke: #000000; stroke-width: 0.8"/>
      </g>
     </g>
     <g id="line2d_43">
      <g>
       <use xlink:href="#m842f1fc4bc" x="233.83761" y="192.485143" style="stroke: #000000; stroke-width: 0.8"/>
      </g>
     </g>
     <g id="text_30">
      <!-- 0.8 -->
      <g transform="translate(231.267609 320.00068) rotate(-45) scale(0.07 -0.07)">
       <use xlink:href="#DejaVuSans-30"/>
       <use xlink:href="#DejaVuSans-2e" x="63.623047"/>
       <use xlink:href="#DejaVuSans-38" x="95.410156"/>
      </g>
     </g>
     <g id="text_31">
      <!-- 0.8 -->
      <g transform="translate(231.267609 185.95575) rotate(-45) scale(0.07 -0.07)">
       <use xlink:href="#DejaVuSans-30"/>
       <use xlink:href="#DejaVuSans-2e" x="63.623047"/>
       <use xlink:href="#DejaVuSans-38" x="95.410156"/>
      </g>
     </g>
    </g>
    <g id="xtick_15">
     <g id="line2d_44">
      <g>
       <use xlink:href="#m0ceb9ea4d5" x="253.907221" y="302.868" style="stroke: #000000; stroke-width: 0.8"/>
      </g>
     </g>
     <g id="line2d_45">
      <g>
       <use xlink:href="#m842f1fc4bc" x="253.907221" y="192.485143" style="stroke: #000000; stroke-width: 0.8"/>
      </g>
     </g>
     <g id="text_32">
      <!-- 1.6 -->
      <g transform="translate(251.337219 320.00068) rotate(-45) scale(0.07 -0.07)">
       <use xlink:href="#DejaVuSans-31"/>
       <use xlink:href="#DejaVuSans-2e" x="63.623047"/>
       <use xlink:href="#DejaVuSans-36" x="95.410156"/>
      </g>
     </g>
     <g id="text_33">
      <!-- 1.6 -->
      <g transform="translate(251.337219 185.95575) rotate(-45) scale(0.07 -0.07)">
       <use xlink:href="#DejaVuSans-31"/>
       <use xlink:href="#DejaVuSans-2e" x="63.623047"/>
       <use xlink:href="#DejaVuSans-36" x="95.410156"/>
      </g>
     </g>
    </g>
    <g id="text_34">
     <!-- $\mathbf{x_{1}}$ -->
     <g transform="translate(207.918 166.175336) scale(0.1 -0.1)">
      <use xlink:href="#DejaVuSans-Bold-78" transform="translate(0 0.3125)"/>
      <use xlink:href="#DejaVuSans-Bold-31" transform="translate(65.458984 -16.09375) scale(0.7)"/>
     </g>
    </g>
   </g>
   <g id="matplotlib.axis_8">
    <g id="ytick_14">
     <g id="line2d_46">
      <g>
       <use xlink:href="#m4b1df4fcf2" x="268.959429" y="283.92611" style="stroke: #000000; stroke-width: 0.8"/>
      </g>
     </g>
     <g id="text_35">
      <!-- 300 -->
      <g transform="translate(277.839946 285.806627) rotate(-45) scale(0.07 -0.07)">
       <use xlink:href="#DejaVuSans-33"/>
       <use xlink:href="#DejaVuSans-30" x="63.623047"/>
       <use xlink:href="#DejaVuSans-30" x="127.246094"/>
      </g>
     </g>
    </g>
    <g id="ytick_15">
     <g id="line2d_47">
      <g>
       <use xlink:href="#m4b1df4fcf2" x="268.959429" y="262.934429" style="stroke: #000000; stroke-width: 0.8"/>
      </g>
     </g>
     <g id="text_36">
      <!-- 600 -->
      <g transform="translate(277.839946 264.814947) rotate(-45) scale(0.07 -0.07)">
       <use xlink:href="#DejaVuSans-36"/>
       <use xlink:href="#DejaVuSans-30" x="63.623047"/>
       <use xlink:href="#DejaVuSans-30" x="127.246094"/>
      </g>
     </g>
    </g>
    <g id="ytick_16">
     <g id="line2d_48">
      <g>
       <use xlink:href="#m4b1df4fcf2" x="268.959429" y="241.942749" style="stroke: #000000; stroke-width: 0.8"/>
      </g>
     </g>
     <g id="text_37">
      <!-- 900 -->
      <g transform="translate(277.839946 243.823266) rotate(-45) scale(0.07 -0.07)">
       <use xlink:href="#DejaVuSans-39"/>
       <use xlink:href="#DejaVuSans-30" x="63.623047"/>
       <use xlink:href="#DejaVuSans-30" x="127.246094"/>
      </g>
     </g>
    </g>
    <g id="ytick_17">
     <g id="line2d_49">
      <g>
       <use xlink:href="#m4b1df4fcf2" x="268.959429" y="220.951069" style="stroke: #000000; stroke-width: 0.8"/>
      </g>
     </g>
     <g id="text_38">
      <!-- 1200 -->
      <g transform="translate(277.839946 222.831586) rotate(-45) scale(0.07 -0.07)">
       <use xlink:href="#DejaVuSans-31"/>
       <use xlink:href="#DejaVuSans-32" x="63.623047"/>
       <use xlink:href="#DejaVuSans-30" x="127.246094"/>
       <use xlink:href="#DejaVuSans-30" x="190.869141"/>
      </g>
     </g>
    </g>
    <g id="ytick_18">
     <g id="line2d_50">
      <g>
       <use xlink:href="#m4b1df4fcf2" x="268.959429" y="199.959388" style="stroke: #000000; stroke-width: 0.8"/>
      </g>
     </g>
     <g id="text_39">
      <!-- 1500 -->
      <g transform="translate(277.839946 201.839906) rotate(-45) scale(0.07 -0.07)">
       <use xlink:href="#DejaVuSans-31"/>
       <use xlink:href="#DejaVuSans-35" x="63.623047"/>
       <use xlink:href="#DejaVuSans-30" x="127.246094"/>
       <use xlink:href="#DejaVuSans-30" x="190.869141"/>
      </g>
     </g>
    </g>
   </g>
   <g id="line2d_51">
    <path d="M 158.576571 264.89932 
L 168.611377 268.641497 
L 178.646182 272.613591 
L 188.680987 277.309621 
L 198.715792 282.720165 
L 208.750597 287.796509 
L 218.785403 292.114989 
L 228.820208 295.678638 
L 238.855013 297.158448 
L 248.889818 294.724539 
L 258.924623 288.798891 
L 268.959429 282.413334 
" clip-path="url(#p53278a9d83)" style="fill: none; stroke: #1f77b4; stroke-width: 1.5; stroke-linecap: square"/>
   </g>
   <g id="line2d_52">
    <path d="M 238.855013 302.868 
L 238.855013 192.485143 
" clip-path="url(#p53278a9d83)" style="fill: none; stroke-dasharray: 3.7,1.6; stroke-dashoffset: 0; stroke: #ff0000"/>
   </g>
   <g id="patch_15">
    <path d="M 158.576571 302.868 
L 158.576571 192.485143 
" style="fill: none; stroke: #000000; stroke-width: 0.8; stroke-linejoin: miter; stroke-linecap: square"/>
   </g>
   <g id="patch_16">
    <path d="M 268.959429 302.868 
L 268.959429 192.485143 
" style="fill: none; stroke: #000000; stroke-width: 0.8; stroke-linejoin: miter; stroke-linecap: square"/>
   </g>
   <g id="patch_17">
    <path d="M 158.576571 302.868 
L 268.959429 302.868 
" style="fill: none; stroke: #000000; stroke-width: 0.8; stroke-linejoin: miter; stroke-linecap: square"/>
   </g>
   <g id="patch_18">
    <path d="M 158.576571 192.485143 
L 268.959429 192.485143 
" style="fill: none; stroke: #000000; stroke-width: 0.8; stroke-linejoin: miter; stroke-linecap: square"/>
   </g>
  </g>
  <g id="text_40">
   <!-- Partial dependence -->
   <g transform="translate(93.340313 15.886125) scale(0.12 -0.12)">
    <defs>
     <path id="DejaVuSans-50" d="M 1259 4147 
L 1259 2394 
L 2053 2394 
Q 2494 2394 2734 2622 
Q 2975 2850 2975 3272 
Q 2975 3691 2734 3919 
Q 2494 4147 2053 4147 
L 1259 4147 
z
M 628 4666 
L 2053 4666 
Q 2838 4666 3239 4311 
Q 3641 3956 3641 3272 
Q 3641 2581 3239 2228 
Q 2838 1875 2053 1875 
L 1259 1875 
L 1259 0 
L 628 0 
L 628 4666 
z
" transform="scale(0.015625)"/>
     <path id="DejaVuSans-61" d="M 2194 1759 
Q 1497 1759 1228 1600 
Q 959 1441 959 1056 
Q 959 750 1161 570 
Q 1363 391 1709 391 
Q 2188 391 2477 730 
Q 2766 1069 2766 1631 
L 2766 1759 
L 2194 1759 
z
M 3341 1997 
L 3341 0 
L 2766 0 
L 2766 531 
Q 2569 213 2275 61 
Q 1981 -91 1556 -91 
Q 1019 -91 701 211 
Q 384 513 384 1019 
Q 384 1609 779 1909 
Q 1175 2209 1959 2209 
L 2766 2209 
L 2766 2266 
Q 2766 2663 2505 2880 
Q 2244 3097 1772 3097 
Q 1472 3097 1187 3025 
Q 903 2953 641 2809 
L 641 3341 
Q 956 3463 1253 3523 
Q 1550 3584 1831 3584 
Q 2591 3584 2966 3190 
Q 3341 2797 3341 1997 
z
" transform="scale(0.015625)"/>
     <path id="DejaVuSans-72" d="M 2631 2963 
Q 2534 3019 2420 3045 
Q 2306 3072 2169 3072 
Q 1681 3072 1420 2755 
Q 1159 2438 1159 1844 
L 1159 0 
L 581 0 
L 581 3500 
L 1159 3500 
L 1159 2956 
Q 1341 3275 1631 3429 
Q 1922 3584 2338 3584 
Q 2397 3584 2469 3576 
Q 2541 3569 2628 3553 
L 2631 2963 
z
" transform="scale(0.015625)"/>
     <path id="DejaVuSans-74" d="M 1172 4494 
L 1172 3500 
L 2356 3500 
L 2356 3053 
L 1172 3053 
L 1172 1153 
Q 1172 725 1289 603 
Q 1406 481 1766 481 
L 2356 481 
L 2356 0 
L 1766 0 
Q 1100 0 847 248 
Q 594 497 594 1153 
L 594 3053 
L 172 3053 
L 172 3500 
L 594 3500 
L 594 4494 
L 1172 4494 
z
" transform="scale(0.015625)"/>
     <path id="DejaVuSans-69" d="M 603 3500 
L 1178 3500 
L 1178 0 
L 603 0 
L 603 3500 
z
M 603 4863 
L 1178 4863 
L 1178 4134 
L 603 4134 
L 603 4863 
z
" transform="scale(0.015625)"/>
     <path id="DejaVuSans-6c" d="M 603 4863 
L 1178 4863 
L 1178 0 
L 603 0 
L 603 4863 
z
" transform="scale(0.015625)"/>
     <path id="DejaVuSans-20" transform="scale(0.015625)"/>
     <path id="DejaVuSans-64" d="M 2906 2969 
L 2906 4863 
L 3481 4863 
L 3481 0 
L 2906 0 
L 2906 525 
Q 2725 213 2448 61 
Q 2172 -91 1784 -91 
Q 1150 -91 751 415 
Q 353 922 353 1747 
Q 353 2572 751 3078 
Q 1150 3584 1784 3584 
Q 2172 3584 2448 3432 
Q 2725 3281 2906 2969 
z
M 947 1747 
Q 947 1113 1208 752 
Q 1469 391 1925 391 
Q 2381 391 2643 752 
Q 2906 1113 2906 1747 
Q 2906 2381 2643 2742 
Q 2381 3103 1925 3103 
Q 1469 3103 1208 2742 
Q 947 2381 947 1747 
z
" transform="scale(0.015625)"/>
     <path id="DejaVuSans-65" d="M 3597 1894 
L 3597 1613 
L 953 1613 
Q 991 1019 1311 708 
Q 1631 397 2203 397 
Q 2534 397 2845 478 
Q 3156 559 3463 722 
L 3463 178 
Q 3153 47 2828 -22 
Q 2503 -91 2169 -91 
Q 1331 -91 842 396 
Q 353 884 353 1716 
Q 353 2575 817 3079 
Q 1281 3584 2069 3584 
Q 2775 3584 3186 3129 
Q 3597 2675 3597 1894 
z
M 3022 2063 
Q 3016 2534 2758 2815 
Q 2500 3097 2075 3097 
Q 1594 3097 1305 2825 
Q 1016 2553 972 2059 
L 3022 2063 
z
" transform="scale(0.015625)"/>
     <path id="DejaVuSans-70" d="M 1159 525 
L 1159 -1331 
L 581 -1331 
L 581 3500 
L 1159 3500 
L 1159 2969 
Q 1341 3281 1617 3432 
Q 1894 3584 2278 3584 
Q 2916 3584 3314 3078 
Q 3713 2572 3713 1747 
Q 3713 922 3314 415 
Q 2916 -91 2278 -91 
Q 1894 -91 1617 61 
Q 1341 213 1159 525 
z
M 3116 1747 
Q 3116 2381 2855 2742 
Q 2594 3103 2138 3103 
Q 1681 3103 1420 2742 
Q 1159 2381 1159 1747 
Q 1159 1113 1420 752 
Q 1681 391 2138 391 
Q 2594 391 2855 752 
Q 3116 1113 3116 1747 
z
" transform="scale(0.015625)"/>
     <path id="DejaVuSans-6e" d="M 3513 2113 
L 3513 0 
L 2938 0 
L 2938 2094 
Q 2938 2591 2744 2837 
Q 2550 3084 2163 3084 
Q 1697 3084 1428 2787 
Q 1159 2491 1159 1978 
L 1159 0 
L 581 0 
L 581 3500 
L 1159 3500 
L 1159 2956 
Q 1366 3272 1645 3428 
Q 1925 3584 2291 3584 
Q 2894 3584 3203 3211 
Q 3513 2838 3513 2113 
z
" transform="scale(0.015625)"/>
     <path id="DejaVuSans-63" d="M 3122 3366 
L 3122 2828 
Q 2878 2963 2633 3030 
Q 2388 3097 2138 3097 
Q 1578 3097 1268 2742 
Q 959 2388 959 1747 
Q 959 1106 1268 751 
Q 1578 397 2138 397 
Q 2388 397 2633 464 
Q 2878 531 3122 666 
L 3122 134 
Q 2881 22 2623 -34 
Q 2366 -91 2075 -91 
Q 1284 -91 818 406 
Q 353 903 353 1747 
Q 353 2603 823 3093 
Q 1294 3584 2113 3584 
Q 2378 3584 2631 3529 
Q 2884 3475 3122 3366 
z
" transform="scale(0.015625)"/>
    </defs>
    <use xlink:href="#DejaVuSans-50"/>
    <use xlink:href="#DejaVuSans-61" x="55.802734"/>
    <use xlink:href="#DejaVuSans-72" x="117.082031"/>
    <use xlink:href="#DejaVuSans-74" x="158.195312"/>
    <use xlink:href="#DejaVuSans-69" x="197.404297"/>
    <use xlink:href="#DejaVuSans-61" x="225.1875"/>
    <use xlink:href="#DejaVuSans-6c" x="286.466797"/>
    <use xlink:href="#DejaVuSans-20" x="314.25"/>
    <use xlink:href="#DejaVuSans-64" x="346.037109"/>
    <use xlink:href="#DejaVuSans-65" x="409.513672"/>
    <use xlink:href="#DejaVuSans-70" x="471.037109"/>
    <use xlink:href="#DejaVuSans-65" x="534.513672"/>
    <use xlink:href="#DejaVuSans-6e" x="596.037109"/>
    <use xlink:href="#DejaVuSans-64" x="659.416016"/>
    <use xlink:href="#DejaVuSans-65" x="722.892578"/>
    <use xlink:href="#DejaVuSans-6e" x="784.416016"/>
    <use xlink:href="#DejaVuSans-63" x="847.794922"/>
    <use xlink:href="#DejaVuSans-65" x="902.775391"/>
   </g>
  </g>
 </g>
 <defs>
  <clipPath id="p40d3f5aa8e">
   <rect x="33.440571" y="71.064" width="110.382857" height="110.382857"/>
  </clipPath>
  <clipPath id="p71a26be0dc">
   <rect x="33.440571" y="192.485143" width="110.382857" height="110.382857"/>
  </clipPath>
  <clipPath id="p53278a9d83">
   <rect x="158.576571" y="192.485143" width="110.382857" height="110.382857"/>
  </clipPath>
 </defs>
</svg>
