<?xml version="1.0" encoding="utf-8" standalone="no"?>
<!DOCTYPE svg PUBLIC "-//W3C//DTD SVG 1.1//EN"
  "http://www.w3.org/Graphics/SVG/1.1/DTD/svg11.dtd">
<svg xmlns:xlink="http://www.w3.org/1999/xlink" width="460.8pt" height="345.6pt" viewBox="0 0 460.8 345.6" xmlns="http://www.w3.org/2000/svg" version="1.1">
 <metadata>
  <rdf:RDF xmlns:dc="http://purl.org/dc/elements/1.1/" xmlns:cc="http://creativecommons.org/ns#" xmlns:rdf="http://www.w3.org/1999/02/22-rdf-syntax-ns#">
   <cc:Work>
    <dc:type rdf:resource="http://purl.org/dc/dcmitype/StillImage"/>
    <dc:date>2025-01-21T03:31:29.496628</dc:date>
    <dc:format>image/svg+xml</dc:format>
    <dc:creator>
     <cc:Agent>
      <dc:title>Matplotlib v3.10.0, https://matplotlib.org/</dc:title>
     </cc:Agent>
    </dc:creator>
   </cc:Work>
  </rdf:RDF>
 </metadata>
 <defs>
  <style type="text/css">*{stroke-linejoin: round; stroke-linecap: butt}</style>
 </defs>
 <g id="figure_1">
  <g id="patch_1">
   <path d="M 0 345.6 
L 460.8 345.6 
L 460.8 0 
L 0 0 
z
" style="fill: #ffffff"/>
  </g>
  <g id="axes_1">
   <g id="patch_2">
    <path d="M 100.3 304.44375 
L 450 304.44375 
L 450 25.918125 
L 100.3 25.918125 
z
" style="fill: #ffffff"/>
   </g>
   <g id="matplotlib.axis_1">
    <g id="xtick_1">
     <g id="line2d_1">
      <path d="M 112.984252 304.44375 
L 112.984252 25.918125 
" clip-path="url(#p0713dec394)" style="fill: none; stroke: #b0b0b0; stroke-width: 0.8; stroke-linecap: square"/>
     </g>
     <g id="line2d_2">
      <defs>
       <path id="m22dab7faa3" d="M 0 0 
L 0 3.5 
" style="stroke: #000000; stroke-width: 0.8"/>
      </defs>
      <g>
       <use xlink:href="#m22dab7faa3" x="112.984252" y="304.44375" style="stroke: #000000; stroke-width: 0.8"/>
      </g>
     </g>
     <g id="text_1">
      <text style="font-size: 10px; font-family: 'DejaVu Sans', 'Bitstream Vera Sans', 'Computer Modern Sans Serif', 'Lucida Grande', 'Verdana', 'Geneva', 'Lucid', 'Arial', 'Helvetica', 'Avant Garde', sans-serif; text-anchor: middle" x="112.984252" y="319.042187" transform="rotate(-0 112.984252 319.042187)">0</text>
     </g>
    </g>
    <g id="xtick_2">
     <g id="line2d_3">
      <path d="M 177.20831 304.44375 
L 177.20831 25.918125 
" clip-path="url(#p0713dec394)" style="fill: none; stroke: #b0b0b0; stroke-width: 0.8; stroke-linecap: square"/>
     </g>
     <g id="line2d_4">
      <g>
       <use xlink:href="#m22dab7faa3" x="177.20831" y="304.44375" style="stroke: #000000; stroke-width: 0.8"/>
      </g>
     </g>
     <g id="text_2">
      <text style="font-size: 10px; font-family: 'DejaVu Sans', 'Bitstream Vera Sans', 'Computer Modern Sans Serif', 'Lucida Grande', 'Verdana', 'Geneva', 'Lucid', 'Arial', 'Helvetica', 'Avant Garde', sans-serif; text-anchor: middle" x="177.20831" y="319.042187" transform="rotate(-0 177.20831 319.042187)">20</text>
     </g>
    </g>
    <g id="xtick_3">
     <g id="line2d_5">
      <path d="M 241.432369 304.44375 
L 241.432369 25.918125 
" clip-path="url(#p0713dec394)" style="fill: none; stroke: #b0b0b0; stroke-width: 0.8; stroke-linecap: square"/>
     </g>
     <g id="line2d_6">
      <g>
       <use xlink:href="#m22dab7faa3" x="241.432369" y="304.44375" style="stroke: #000000; stroke-width: 0.8"/>
      </g>
     </g>
     <g id="text_3">
      <text style="font-size: 10px; font-family: 'DejaVu Sans', 'Bitstream Vera Sans', 'Computer Modern Sans Serif', 'Lucida Grande', 'Verdana', 'Geneva', 'Lucid', 'Arial', 'Helvetica', 'Avant Garde', sans-serif; text-anchor: middle" x="241.432369" y="319.042187" transform="rotate(-0 241.432369 319.042187)">40</text>
     </g>
    </g>
    <g id="xtick_4">
     <g id="line2d_7">
      <path d="M 305.656428 304.44375 
L 305.656428 25.918125 
" clip-path="url(#p0713dec394)" style="fill: none; stroke: #b0b0b0; stroke-width: 0.8; stroke-linecap: square"/>
     </g>
     <g id="line2d_8">
      <g>
       <use xlink:href="#m22dab7faa3" x="305.656428" y="304.44375" style="stroke: #000000; stroke-width: 0.8"/>
      </g>
     </g>
     <g id="text_4">
      <text style="font-size: 10px; font-family: 'DejaVu Sans', 'Bitstream Vera Sans', 'Computer Modern Sans Serif', 'Lucida Grande', 'Verdana', 'Geneva', 'Lucid', 'Arial', 'Helvetica', 'Avant Garde', sans-serif; text-anchor: middle" x="305.656428" y="319.042187" transform="rotate(-0 305.656428 319.042187)">60</text>
     </g>
    </g>
    <g id="xtick_5">
     <g id="line2d_9">
      <path d="M 369.880487 304.44375 
L 369.880487 25.918125 
" clip-path="url(#p0713dec394)" style="fill: none; stroke: #b0b0b0; stroke-width: 0.8; stroke-linecap: square"/>
     </g>
     <g id="line2d_10">
      <g>
       <use xlink:href="#m22dab7faa3" x="369.880487" y="304.44375" style="stroke: #000000; stroke-width: 0.8"/>
      </g>
     </g>
     <g id="text_5">
      <text style="font-size: 10px; font-family: 'DejaVu Sans', 'Bitstream Vera Sans', 'Computer Modern Sans Serif', 'Lucida Grande', 'Verdana', 'Geneva', 'Lucid', 'Arial', 'Helvetica', 'Avant Garde', sans-serif; text-anchor: middle" x="369.880487" y="319.042187" transform="rotate(-0 369.880487 319.042187)">80</text>
     </g>
    </g>
    <g id="xtick_6">
     <g id="line2d_11">
      <path d="M 434.104545 304.44375 
L 434.104545 25.918125 
" clip-path="url(#p0713dec394)" style="fill: none; stroke: #b0b0b0; stroke-width: 0.8; stroke-linecap: square"/>
     </g>
     <g id="line2d_12">
      <g>
       <use xlink:href="#m22dab7faa3" x="434.104545" y="304.44375" style="stroke: #000000; stroke-width: 0.8"/>
      </g>
     </g>
     <g id="text_6">
      <text style="font-size: 10px; font-family: 'DejaVu Sans', 'Bitstream Vera Sans', 'Computer Modern Sans Serif', 'Lucida Grande', 'Verdana', 'Geneva', 'Lucid', 'Arial', 'Helvetica', 'Avant Garde', sans-serif; text-anchor: middle" x="434.104545" y="319.042187" transform="rotate(-0 434.104545 319.042187)">100</text>
     </g>
    </g>
    <g id="text_7">
     <!-- Number of function evaluations $n$ -->
     <g transform="translate(191.35 332.720312)">
      <text>
       <tspan x="0" y="-0.40625" style="font-size: 10px; font-family: 'DejaVu Sans'">N</tspan>
       <tspan x="7.480469" y="-0.40625" style="font-size: 10px; font-family: 'DejaVu Sans'">u</tspan>
       <tspan x="13.818359" y="-0.40625" style="font-size: 10px; font-family: 'DejaVu Sans'">m</tspan>
       <tspan x="23.55957" y="-0.40625" style="font-size: 10px; font-family: 'DejaVu Sans'">b</tspan>
       <tspan x="29.907227" y="-0.40625" style="font-size: 10px; font-family: 'DejaVu Sans'">e</tspan>
       <tspan x="36.05957" y="-0.40625" style="font-size: 10px; font-family: 'DejaVu Sans'">r</tspan>
       <tspan x="40.170898" y="-0.40625" style="font-size: 10px; font-family: 'DejaVu Sans'"> </tspan>
       <tspan x="43.349609" y="-0.40625" style="font-size: 10px; font-family: 'DejaVu Sans'">o</tspan>
       <tspan x="49.467773" y="-0.40625" style="font-size: 10px; font-family: 'DejaVu Sans'">f</tspan>
       <tspan x="52.988281" y="-0.40625" style="font-size: 10px; font-family: 'DejaVu Sans'"> </tspan>
       <tspan x="56.166992" y="-0.40625" style="font-size: 10px; font-family: 'DejaVu Sans'">f</tspan>
       <tspan x="59.6875" y="-0.40625" style="font-size: 10px; font-family: 'DejaVu Sans'">u</tspan>
       <tspan x="66.025391" y="-0.40625" style="font-size: 10px; font-family: 'DejaVu Sans'">n</tspan>
       <tspan x="72.363281" y="-0.40625" style="font-size: 10px; font-family: 'DejaVu Sans'">c</tspan>
       <tspan x="77.861328" y="-0.40625" style="font-size: 10px; font-family: 'DejaVu Sans'">t</tspan>
       <tspan x="81.782227" y="-0.40625" style="font-size: 10px; font-family: 'DejaVu Sans'">i</tspan>
       <tspan x="84.560547" y="-0.40625" style="font-size: 10px; font-family: 'DejaVu Sans'">o</tspan>
       <tspan x="90.678711" y="-0.40625" style="font-size: 10px; font-family: 'DejaVu Sans'">n</tspan>
       <tspan x="97.016602" y="-0.40625" style="font-size: 10px; font-family: 'DejaVu Sans'"> </tspan>
       <tspan x="100.195312" y="-0.40625" style="font-size: 10px; font-family: 'DejaVu Sans'">e</tspan>
       <tspan x="106.347656" y="-0.40625" style="font-size: 10px; font-family: 'DejaVu Sans'">v</tspan>
       <tspan x="112.265625" y="-0.40625" style="font-size: 10px; font-family: 'DejaVu Sans'">a</tspan>
       <tspan x="118.393555" y="-0.40625" style="font-size: 10px; font-family: 'DejaVu Sans'">l</tspan>
       <tspan x="121.171875" y="-0.40625" style="font-size: 10px; font-family: 'DejaVu Sans'">u</tspan>
       <tspan x="127.509766" y="-0.40625" style="font-size: 10px; font-family: 'DejaVu Sans'">a</tspan>
       <tspan x="133.637695" y="-0.40625" style="font-size: 10px; font-family: 'DejaVu Sans'">t</tspan>
       <tspan x="137.558594" y="-0.40625" style="font-size: 10px; font-family: 'DejaVu Sans'">i</tspan>
       <tspan x="140.336914" y="-0.40625" style="font-size: 10px; font-family: 'DejaVu Sans'">o</tspan>
       <tspan x="146.455078" y="-0.40625" style="font-size: 10px; font-family: 'DejaVu Sans'">n</tspan>
       <tspan x="152.792969" y="-0.40625" style="font-size: 10px; font-family: 'DejaVu Sans'">s</tspan>
       <tspan x="158.00293" y="-0.40625" style="font-size: 10px; font-family: 'DejaVu Sans'"> </tspan>
       <tspan x="161.181641" y="-0.40625" style="font-style: oblique; font-size: 10px; font-family: 'DejaVu Sans'">n</tspan>
      </text>
     </g>
    </g>
   </g>
   <g id="matplotlib.axis_2">
    <g id="ytick_1">
     <g id="line2d_13">
      <path d="M 100.3 291.907903 
L 450 291.907903 
" clip-path="url(#p0713dec394)" style="fill: none; stroke: #b0b0b0; stroke-width: 0.8; stroke-linecap: square"/>
     </g>
     <g id="line2d_14">
      <defs>
       <path id="ma089b83c52" d="M 0 0 
L -3.5 0 
" style="stroke: #000000; stroke-width: 0.8"/>
      </defs>
      <g>
       <use xlink:href="#ma089b83c52" x="100.3" y="291.907903" style="stroke: #000000; stroke-width: 0.8"/>
      </g>
     </g>
     <g id="text_8">
      <!-- $0$ -->
      <g transform="translate(86.9 295.707122)">
       <text>
        <tspan x="0" y="-0.578125" style="font-size: 10px; font-family: 'DejaVu Sans'">0</tspan>
       </text>
      </g>
     </g>
    </g>
    <g id="ytick_2">
     <g id="line2d_15">
      <path d="M 100.3 255.317114 
L 450 255.317114 
" clip-path="url(#p0713dec394)" style="fill: none; stroke: #b0b0b0; stroke-width: 0.8; stroke-linecap: square"/>
     </g>
     <g id="line2d_16">
      <g>
       <use xlink:href="#ma089b83c52" x="100.3" y="255.317114" style="stroke: #000000; stroke-width: 0.8"/>
      </g>
     </g>
     <g id="text_9">
      <!-- $2.5e+03$ -->
      <g transform="translate(46.2 259.116333)">
       <text>
        <tspan x="0" y="-0.578125" style="font-size: 10px; font-family: 'DejaVu Sans'">2</tspan>
        <tspan x="6.362305" y="-0.578125" style="font-size: 10px; font-family: 'DejaVu Sans'">.</tspan>
        <tspan x="9.541016" y="-0.578125" style="font-size: 10px; font-family: 'DejaVu Sans'">5</tspan>
        <tspan x="24.003906" y="-0.578125" style="font-size: 10px; font-family: 'DejaVu Sans'">+</tspan>
        <tspan x="34.331055" y="-0.578125" style="font-size: 10px; font-family: 'DejaVu Sans'">0</tspan>
        <tspan x="40.693359" y="-0.578125" style="font-size: 10px; font-family: 'DejaVu Sans'">3</tspan>
        <tspan x="15.90332" y="-0.578125" style="font-style: oblique; font-size: 10px; font-family: 'DejaVu Sans'">e</tspan>
       </text>
      </g>
     </g>
    </g>
    <g id="ytick_3">
     <g id="line2d_17">
      <path d="M 100.3 218.726325 
L 450 218.726325 
" clip-path="url(#p0713dec394)" style="fill: none; stroke: #b0b0b0; stroke-width: 0.8; stroke-linecap: square"/>
     </g>
     <g id="line2d_18">
      <g>
       <use xlink:href="#ma089b83c52" x="100.3" y="218.726325" style="stroke: #000000; stroke-width: 0.8"/>
      </g>
     </g>
     <g id="text_10">
      <!-- $5e+03$ -->
      <g transform="translate(55.7 222.525544)">
       <text>
        <tspan x="0" y="-0.578125" style="font-size: 10px; font-family: 'DejaVu Sans'">5</tspan>
        <tspan x="14.462891" y="-0.578125" style="font-size: 10px; font-family: 'DejaVu Sans'">+</tspan>
        <tspan x="24.790039" y="-0.578125" style="font-size: 10px; font-family: 'DejaVu Sans'">0</tspan>
        <tspan x="31.152344" y="-0.578125" style="font-size: 10px; font-family: 'DejaVu Sans'">3</tspan>
        <tspan x="6.362305" y="-0.578125" style="font-style: oblique; font-size: 10px; font-family: 'DejaVu Sans'">e</tspan>
       </text>
      </g>
     </g>
    </g>
    <g id="ytick_4">
     <g id="line2d_19">
      <path d="M 100.3 182.135536 
L 450 182.135536 
" clip-path="url(#p0713dec394)" style="fill: none; stroke: #b0b0b0; stroke-width: 0.8; stroke-linecap: square"/>
     </g>
     <g id="line2d_20">
      <g>
       <use xlink:href="#ma089b83c52" x="100.3" y="182.135536" style="stroke: #000000; stroke-width: 0.8"/>
      </g>
     </g>
     <g id="text_11">
      <!-- $7.5e+03$ -->
      <g transform="translate(46.2 185.934755)">
       <text>
        <tspan x="0" y="-0.578125" style="font-size: 10px; font-family: 'DejaVu Sans'">7</tspan>
        <tspan x="6.362305" y="-0.578125" style="font-size: 10px; font-family: 'DejaVu Sans'">.</tspan>
        <tspan x="9.541016" y="-0.578125" style="font-size: 10px; font-family: 'DejaVu Sans'">5</tspan>
        <tspan x="24.003906" y="-0.578125" style="font-size: 10px; font-family: 'DejaVu Sans'">+</tspan>
        <tspan x="34.331055" y="-0.578125" style="font-size: 10px; font-family: 'DejaVu Sans'">0</tspan>
        <tspan x="40.693359" y="-0.578125" style="font-size: 10px; font-family: 'DejaVu Sans'">3</tspan>
        <tspan x="15.90332" y="-0.578125" style="font-style: oblique; font-size: 10px; font-family: 'DejaVu Sans'">e</tspan>
       </text>
      </g>
     </g>
    </g>
    <g id="ytick_5">
     <g id="line2d_21">
      <path d="M 100.3 145.544747 
L 450 145.544747 
" clip-path="url(#p0713dec394)" style="fill: none; stroke: #b0b0b0; stroke-width: 0.8; stroke-linecap: square"/>
     </g>
     <g id="line2d_22">
      <g>
       <use xlink:href="#ma089b83c52" x="100.3" y="145.544747" style="stroke: #000000; stroke-width: 0.8"/>
      </g>
     </g>
     <g id="text_12">
      <!-- $1e+04$ -->
      <g transform="translate(55.7 149.343966)">
       <text>
        <tspan x="0" y="-0.578125" style="font-size: 10px; font-family: 'DejaVu Sans'">1</tspan>
        <tspan x="14.462891" y="-0.578125" style="font-size: 10px; font-family: 'DejaVu Sans'">+</tspan>
        <tspan x="24.790039" y="-0.578125" style="font-size: 10px; font-family: 'DejaVu Sans'">0</tspan>
        <tspan x="31.152344" y="-0.578125" style="font-size: 10px; font-family: 'DejaVu Sans'">4</tspan>
        <tspan x="6.362305" y="-0.578125" style="font-style: oblique; font-size: 10px; font-family: 'DejaVu Sans'">e</tspan>
       </text>
      </g>
     </g>
    </g>
    <g id="ytick_6">
     <g id="line2d_23">
      <path d="M 100.3 108.953958 
L 450 108.953958 
" clip-path="url(#p0713dec394)" style="fill: none; stroke: #b0b0b0; stroke-width: 0.8; stroke-linecap: square"/>
     </g>
     <g id="line2d_24">
      <g>
       <use xlink:href="#ma089b83c52" x="100.3" y="108.953958" style="stroke: #000000; stroke-width: 0.8"/>
      </g>
     </g>
     <g id="text_13">
      <!-- $1.25e+04$ -->
      <g transform="translate(40.4 112.753177)">
       <text>
        <tspan x="0" y="-0.578125" style="font-size: 10px; font-family: 'DejaVu Sans'">1</tspan>
        <tspan x="6.362305" y="-0.578125" style="font-size: 10px; font-family: 'DejaVu Sans'">.</tspan>
        <tspan x="9.041016" y="-0.578125" style="font-size: 10px; font-family: 'DejaVu Sans'">2</tspan>
        <tspan x="15.40332" y="-0.578125" style="font-size: 10px; font-family: 'DejaVu Sans'">5</tspan>
        <tspan x="29.866211" y="-0.578125" style="font-size: 10px; font-family: 'DejaVu Sans'">+</tspan>
        <tspan x="40.193359" y="-0.578125" style="font-size: 10px; font-family: 'DejaVu Sans'">0</tspan>
        <tspan x="46.555664" y="-0.578125" style="font-size: 10px; font-family: 'DejaVu Sans'">4</tspan>
        <tspan x="21.765625" y="-0.578125" style="font-style: oblique; font-size: 10px; font-family: 'DejaVu Sans'">e</tspan>
       </text>
      </g>
     </g>
    </g>
    <g id="ytick_7">
     <g id="line2d_25">
      <path d="M 100.3 72.363169 
L 450 72.363169 
" clip-path="url(#p0713dec394)" style="fill: none; stroke: #b0b0b0; stroke-width: 0.8; stroke-linecap: square"/>
     </g>
     <g id="line2d_26">
      <g>
       <use xlink:href="#ma089b83c52" x="100.3" y="72.363169" style="stroke: #000000; stroke-width: 0.8"/>
      </g>
     </g>
     <g id="text_14">
      <!-- $1.5e+04$ -->
      <g transform="translate(46.2 76.162388)">
       <text>
        <tspan x="0" y="-0.578125" style="font-size: 10px; font-family: 'DejaVu Sans'">1</tspan>
        <tspan x="6.362305" y="-0.578125" style="font-size: 10px; font-family: 'DejaVu Sans'">.</tspan>
        <tspan x="9.541016" y="-0.578125" style="font-size: 10px; font-family: 'DejaVu Sans'">5</tspan>
        <tspan x="24.003906" y="-0.578125" style="font-size: 10px; font-family: 'DejaVu Sans'">+</tspan>
        <tspan x="34.331055" y="-0.578125" style="font-size: 10px; font-family: 'DejaVu Sans'">0</tspan>
        <tspan x="40.693359" y="-0.578125" style="font-size: 10px; font-family: 'DejaVu Sans'">4</tspan>
        <tspan x="15.90332" y="-0.578125" style="font-style: oblique; font-size: 10px; font-family: 'DejaVu Sans'">e</tspan>
       </text>
      </g>
     </g>
    </g>
    <g id="ytick_8">
     <g id="line2d_27">
      <path d="M 100.3 35.77238 
L 450 35.77238 
" clip-path="url(#p0713dec394)" style="fill: none; stroke: #b0b0b0; stroke-width: 0.8; stroke-linecap: square"/>
     </g>
     <g id="line2d_28">
      <g>
       <use xlink:href="#ma089b83c52" x="100.3" y="35.77238" style="stroke: #000000; stroke-width: 0.8"/>
      </g>
     </g>
     <g id="text_15">
      <!-- $1.75e+04$ -->
      <g transform="translate(40.6 39.571599)">
       <text>
        <tspan x="0" y="-0.578125" style="font-size: 10px; font-family: 'DejaVu Sans'">1</tspan>
        <tspan x="6.362305" y="-0.578125" style="font-size: 10px; font-family: 'DejaVu Sans'">.</tspan>
        <tspan x="8.791016" y="-0.578125" style="font-size: 10px; font-family: 'DejaVu Sans'">7</tspan>
        <tspan x="15.15332" y="-0.578125" style="font-size: 10px; font-family: 'DejaVu Sans'">5</tspan>
        <tspan x="29.616211" y="-0.578125" style="font-size: 10px; font-family: 'DejaVu Sans'">+</tspan>
        <tspan x="39.943359" y="-0.578125" style="font-size: 10px; font-family: 'DejaVu Sans'">0</tspan>
        <tspan x="46.305664" y="-0.578125" style="font-size: 10px; font-family: 'DejaVu Sans'">4</tspan>
        <tspan x="21.515625" y="-0.578125" style="font-style: oblique; font-size: 10px; font-family: 'DejaVu Sans'">e</tspan>
       </text>
      </g>
     </g>
    </g>
    <g id="text_16">
     <!-- Cumulative regret after $n$ evaluations: $\ \sum_t^n{\,\left[\,f\,\left(x_t\right) - f_{\mathrm{opt}}\,\right]}$ -->
     <g transform="translate(26.8 299.380937) rotate(-90)">
      <text>
       <tspan x="0" y="-0.0375" style="font-size: 10px; font-family: 'DejaVu Sans'">C</tspan>
       <tspan x="6.982422" y="-0.0375" style="font-size: 10px; font-family: 'DejaVu Sans'">u</tspan>
       <tspan x="13.320312" y="-0.0375" style="font-size: 10px; font-family: 'DejaVu Sans'">m</tspan>
       <tspan x="23.061523" y="-0.0375" style="font-size: 10px; font-family: 'DejaVu Sans'">u</tspan>
       <tspan x="29.399414" y="-0.0375" style="font-size: 10px; font-family: 'DejaVu Sans'">l</tspan>
       <tspan x="32.177734" y="-0.0375" style="font-size: 10px; font-family: 'DejaVu Sans'">a</tspan>
       <tspan x="38.305664" y="-0.0375" style="font-size: 10px; font-family: 'DejaVu Sans'">t</tspan>
       <tspan x="42.226562" y="-0.0375" style="font-size: 10px; font-family: 'DejaVu Sans'">i</tspan>
       <tspan x="45.004883" y="-0.0375" style="font-size: 10px; font-family: 'DejaVu Sans'">v</tspan>
       <tspan x="50.922852" y="-0.0375" style="font-size: 10px; font-family: 'DejaVu Sans'">e</tspan>
       <tspan x="57.075195" y="-0.0375" style="font-size: 10px; font-family: 'DejaVu Sans'"> </tspan>
       <tspan x="60.253906" y="-0.0375" style="font-size: 10px; font-family: 'DejaVu Sans'">r</tspan>
       <tspan x="64.365234" y="-0.0375" style="font-size: 10px; font-family: 'DejaVu Sans'">e</tspan>
       <tspan x="70.517578" y="-0.0375" style="font-size: 10px; font-family: 'DejaVu Sans'">g</tspan>
       <tspan x="76.865234" y="-0.0375" style="font-size: 10px; font-family: 'DejaVu Sans'">r</tspan>
       <tspan x="80.976562" y="-0.0375" style="font-size: 10px; font-family: 'DejaVu Sans'">e</tspan>
       <tspan x="87.128906" y="-0.0375" style="font-size: 10px; font-family: 'DejaVu Sans'">t</tspan>
       <tspan x="91.049805" y="-0.0375" style="font-size: 10px; font-family: 'DejaVu Sans'"> </tspan>
       <tspan x="94.228516" y="-0.0375" style="font-size: 10px; font-family: 'DejaVu Sans'">a</tspan>
       <tspan x="100.356445" y="-0.0375" style="font-size: 10px; font-family: 'DejaVu Sans'">f</tspan>
       <tspan x="103.876953" y="-0.0375" style="font-size: 10px; font-family: 'DejaVu Sans'">t</tspan>
       <tspan x="107.797852" y="-0.0375" style="font-size: 10px; font-family: 'DejaVu Sans'">e</tspan>
       <tspan x="113.950195" y="-0.0375" style="font-size: 10px; font-family: 'DejaVu Sans'">r</tspan>
       <tspan x="118.061523" y="-0.0375" style="font-size: 10px; font-family: 'DejaVu Sans'"> </tspan>
       <tspan x="127.578125" y="-0.0375" style="font-size: 10px; font-family: 'DejaVu Sans'"> </tspan>
       <tspan x="130.756836" y="-0.0375" style="font-size: 10px; font-family: 'DejaVu Sans'">e</tspan>
       <tspan x="136.90918" y="-0.0375" style="font-size: 10px; font-family: 'DejaVu Sans'">v</tspan>
       <tspan x="142.827148" y="-0.0375" style="font-size: 10px; font-family: 'DejaVu Sans'">a</tspan>
       <tspan x="148.955078" y="-0.0375" style="font-size: 10px; font-family: 'DejaVu Sans'">l</tspan>
       <tspan x="151.733398" y="-0.0375" style="font-size: 10px; font-family: 'DejaVu Sans'">u</tspan>
       <tspan x="158.071289" y="-0.0375" style="font-size: 10px; font-family: 'DejaVu Sans'">a</tspan>
       <tspan x="164.199219" y="-0.0375" style="font-size: 10px; font-family: 'DejaVu Sans'">t</tspan>
       <tspan x="168.120117" y="-0.0375" style="font-size: 10px; font-family: 'DejaVu Sans'">i</tspan>
       <tspan x="170.898438" y="-0.0375" style="font-size: 10px; font-family: 'DejaVu Sans'">o</tspan>
       <tspan x="177.016602" y="-0.0375" style="font-size: 10px; font-family: 'DejaVu Sans'">n</tspan>
       <tspan x="183.354492" y="-0.0375" style="font-size: 10px; font-family: 'DejaVu Sans'">s</tspan>
       <tspan x="188.564453" y="-0.0375" style="font-size: 10px; font-family: 'DejaVu Sans'">:</tspan>
       <tspan x="191.933594" y="-0.0375" style="font-size: 10px; font-family: 'DejaVu Sans'"> </tspan>
       <tspan x="219.164295" y="-0.0375" style="font-size: 10px; font-family: 'DejaVu Sans'">(</tspan>
       <tspan x="232.001698" y="-0.0375" style="font-size: 10px; font-family: 'DejaVu Sans'">)</tspan>
       <tspan x="237.851307" y="-0.0375" style="font-size: 10px; font-family: 'DejaVu Sans'">−</tspan>
       <tspan x="121.240234" y="-0.0375" style="font-style: oblique; font-size: 10px; font-family: 'DejaVu Sans'">n</tspan>
       <tspan x="214.02022" y="-0.0375" style="font-style: oblique; font-size: 10px; font-family: 'DejaVu Sans'">f</tspan>
       <tspan x="223.065662" y="-0.0375" style="font-style: oblique; font-size: 10px; font-family: 'DejaVu Sans'">x</tspan>
       <tspan x="248.178455" y="-0.0375" style="font-style: oblique; font-size: 10px; font-family: 'DejaVu Sans'">f</tspan>
       <tspan x="201.359343" y="-12.084375" style="font-style: oblique; font-size: 7px; font-family: 'DejaVu Sans'">n</tspan>
       <tspan x="201.359343" y="9.467188" style="font-style: oblique; font-size: 7px; font-family: 'DejaVu Sans'">t</tspan>
       <tspan x="228.983631" y="1.603125" style="font-style: oblique; font-size: 7px; font-family: 'DejaVu Sans'">t</tspan>
       <tspan x="198.359343" y="-0.0375" style="font-size: 10px; font-family: 'DejaVu Sans Display'">∑</tspan>
       <tspan x="209.04541" y="1.589062" style="font-size: 8.692503px; font-family: 'STIXSizeOneSym'">[</tspan>
       <tspan x="265.066672" y="1.589062" style="font-size: 8.692503px; font-family: 'STIXSizeOneSym'">]</tspan>
       <tspan x="251.698963" y="1.603125" style="font-size: 7px; font-family: 'DejaVu Sans'">o</tspan>
       <tspan x="255.981678" y="1.603125" style="font-size: 7px; font-family: 'DejaVu Sans'">p</tspan>
       <tspan x="260.425037" y="1.603125" style="font-size: 7px; font-family: 'DejaVu Sans'">t</tspan>
      </text>
     </g>
    </g>
   </g>
   <g id="line2d_29">
    <path d="M 116.195455 291.783494 
L 119.406657 285.914332 
L 122.61786 284.4507 
L 125.829063 278.537629 
L 129.040266 278.479083 
L 132.251469 277.000816 
L 135.462672 271.131653 
L 138.673875 269.653385 
L 141.885078 268.826433 
L 145.096281 264.252585 
L 148.307484 240.702753 
L 151.518687 239.180576 
L 154.72989 236.86072 
L 157.941093 236.846084 
L 161.152296 236.846084 
L 164.363499 213.413343 
L 167.574702 207.558816 
L 170.785904 203.072786 
L 173.997107 192.000413 
L 177.20831 191.941868 
L 180.419513 191.883322 
L 183.630716 191.824777 
L 186.841919 190.968556 
L 190.053122 190.898988 
L 193.264325 190.840589 
L 196.475528 190.78219 
L 199.686731 190.723791 
L 202.897934 190.674998 
L 206.109137 190.626204 
L 209.32034 190.577411 
L 212.531543 190.531886 
L 215.742746 190.486362 
L 218.953949 190.440837 
L 222.165152 190.398337 
L 225.376354 190.355836 
L 228.587557 190.313335 
L 231.79876 190.270895 
L 235.009963 190.228454 
L 238.221166 190.186013 
L 241.432369 190.143574 
L 244.643572 190.101136 
L 247.854775 190.058697 
L 251.065978 190.058697 
L 254.277181 190.058697 
L 257.488384 190.058697 
" clip-path="url(#p0713dec394)" style="fill: none; stroke-dasharray: 7.4,3.2; stroke-dashoffset: 0; stroke: #1f77b4; stroke-opacity: 0.7; stroke-width: 2"/>
    <defs>
     <path id="m870afa9df8" d="M 0 3 
C 0.795609 3 1.55874 2.683901 2.12132 2.12132 
C 2.683901 1.55874 3 0.795609 3 0 
C 3 -0.795609 2.683901 -1.55874 2.12132 -2.12132 
C 1.55874 -2.683901 0.795609 -3 0 -3 
C -0.795609 -3 -1.55874 -2.683901 -2.12132 -2.12132 
C -2.683901 -1.55874 -3 -0.795609 -3 0 
C -3 0.795609 -2.683901 1.55874 -2.12132 2.12132 
C -1.55874 2.683901 -0.795609 3 0 3 
z
" style="stroke: #1f77b4; stroke-opacity: 0.7"/>
    </defs>
    <g clip-path="url(#p0713dec394)">
     <use xlink:href="#m870afa9df8" x="145.096281" y="264.252585" style="fill: #1f77b4; fill-opacity: 0.7; stroke: #1f77b4; stroke-opacity: 0.7"/>
     <use xlink:href="#m870afa9df8" x="180.419513" y="191.883322" style="fill: #1f77b4; fill-opacity: 0.7; stroke: #1f77b4; stroke-opacity: 0.7"/>
    </g>
   </g>
   <g id="line2d_30">
    <path d="M 116.195455 291.618153 
L 119.406657 282.269986 
L 122.61786 277.692604 
L 125.829063 274.560268 
L 129.040266 272.834706 
L 132.251469 272.523478 
L 135.462672 272.435662 
L 138.673875 268.523062 
L 141.885078 268.480374 
L 145.096281 267.68594 
L 148.307484 267.669273 
L 151.518687 263.124667 
L 154.72989 263.102859 
L 157.941093 262.608144 
L 161.152296 255.213567 
L 164.363499 254.952364 
L 167.574702 253.343737 
L 170.785904 240.856039 
L 173.997107 240.469339 
L 177.20831 223.008488 
L 180.419513 222.988559 
L 183.630716 222.965185 
L 186.841919 204.621445 
L 190.053122 204.265597 
L 193.264325 190.545791 
L 196.475528 189.936184 
L 199.686731 189.912809 
L 202.897934 187.634145 
L 206.109137 187.398453 
L 209.32034 187.198876 
L 212.531543 183.684908 
L 215.742746 183.654944 
L 218.953949 183.635673 
L 222.165152 183.572589 
L 225.376354 178.348631 
L 228.587557 177.782568 
L 231.79876 176.169752 
L 235.009963 176.139787 
L 238.221166 176.120516 
L 241.432369 175.904676 
L 244.643572 175.903472 
L 247.854775 172.537478 
L 251.065978 171.981611 
L 254.277181 167.256637 
L 257.488384 167.235335 
L 260.699587 167.23264 
L 263.91079 162.978433 
L 267.121993 162.510486 
L 270.333196 162.504787 
L 273.544399 160.642288 
L 276.755601 154.26663 
L 279.966804 153.336217 
L 283.178007 147.266723 
L 286.38921 131.590313 
L 289.600413 130.506569 
L 292.811616 128.937454 
L 296.022819 128.773512 
L 299.234022 128.603274 
L 302.445225 128.343115 
L 305.656428 128.299287 
L 308.867631 119.539887 
L 312.078834 119.44626 
L 315.290037 119.089801 
L 318.50124 119.087578 
L 321.712443 118.495891 
L 324.923646 118.4314 
L 328.134848 117.874451 
L 331.346051 114.439412 
L 334.557254 114.41811 
L 337.768457 114.415415 
L 340.97966 107.6375 
L 344.190863 105.350123 
L 347.402066 105.015491 
L 350.613269 81.939533 
L 353.824472 79.225676 
L 357.035675 77.548143 
L 360.246878 77.160338 
L 363.458081 75.143257 
L 366.669284 75.1267 
L 369.880487 73.818305 
L 373.09169 66.426654 
L 376.302893 65.793779 
L 379.514096 65.049893 
L 382.725298 65.028591 
L 385.936501 65.025896 
L 389.147704 62.198399 
L 392.358907 62.145554 
L 395.57011 62.008678 
L 398.781313 61.938931 
L 401.992516 61.93891 
L 405.203719 60.286389 
L 408.414922 60.162969 
L 411.626125 59.184973 
L 414.837328 52.66259 
L 418.048531 52.642909 
L 421.259734 44.64428 
L 424.470937 44.559363 
L 427.68214 44.555008 
L 430.893343 38.651786 
L 434.104545 38.578381 
" clip-path="url(#p0713dec394)" style="fill: none; stroke-dasharray: 7.4,3.2; stroke-dashoffset: 0; stroke: #ff7f0e; stroke-opacity: 0.7; stroke-width: 2"/>
    <defs>
     <path id="mfa32c41f4e" d="M -3 3 
L 3 3 
L 3 -3 
L -3 -3 
z
" style="stroke: #ff7f0e; stroke-opacity: 0.7; stroke-linejoin: miter"/>
    </defs>
    <g clip-path="url(#p0713dec394)">
     <use xlink:href="#mfa32c41f4e" x="164.363499" y="254.952364" style="fill: #ff7f0e; fill-opacity: 0.7; stroke: #ff7f0e; stroke-opacity: 0.7; stroke-linejoin: miter"/>
     <use xlink:href="#mfa32c41f4e" x="202.897934" y="187.634145" style="fill: #ff7f0e; fill-opacity: 0.7; stroke: #ff7f0e; stroke-opacity: 0.7; stroke-linejoin: miter"/>
     <use xlink:href="#mfa32c41f4e" x="276.755601" y="154.26663" style="fill: #ff7f0e; fill-opacity: 0.7; stroke: #ff7f0e; stroke-opacity: 0.7; stroke-linejoin: miter"/>
     <use xlink:href="#mfa32c41f4e" x="337.768457" y="114.415415" style="fill: #ff7f0e; fill-opacity: 0.7; stroke: #ff7f0e; stroke-opacity: 0.7; stroke-linejoin: miter"/>
     <use xlink:href="#mfa32c41f4e" x="395.57011" y="62.008678" style="fill: #ff7f0e; fill-opacity: 0.7; stroke: #ff7f0e; stroke-opacity: 0.7; stroke-linejoin: miter"/>
    </g>
   </g>
   <g id="line2d_31">
    <path d="M 116.195455 288.253347 
L 119.406657 287.136345 
L 122.61786 280.149393 
L 125.829063 275.266013 
L 129.040266 271.500775 
L 132.251469 269.272325 
L 135.462672 266.967851 
L 138.673875 266.957572 
L 141.885078 259.638043 
L 145.096281 258.640876 
L 148.307484 258.135561 
L 151.518687 253.026014 
L 154.72989 252.45224 
L 157.941093 252.215123 
L 161.152296 231.412712 
L 164.363499 228.849663 
L 167.574702 226.685142 
L 170.785904 220.64543 
L 173.997107 220.569829 
L 177.20831 220.546597 
L 180.419513 197.307541 
L 183.630716 193.327106 
L 186.841919 192.311601 
L 190.053122 189.619724 
L 193.264325 184.541044 
L 196.475528 163.535188 
L 199.686731 162.081865 
L 202.897934 161.463513 
L 206.109137 150.15748 
L 209.32034 148.926224 
L 212.531543 148.863962 
L 215.742746 148.851757 
L 218.953949 148.850284 
L 222.165152 148.849927 
L 225.376354 148.849133 
L 228.587557 148.847788 
L 231.79876 148.847772 
L 235.009963 148.847738 
L 238.221166 148.846673 
L 241.432369 148.846565 
L 244.643572 148.846452 
L 247.854775 148.846448 
L 251.065978 148.846422 
L 254.277181 148.846414 
L 257.488384 148.846401 
L 260.699587 148.846394 
L 263.91079 148.846305 
" clip-path="url(#p0713dec394)" style="fill: none; stroke-dasharray: 7.4,3.2; stroke-dashoffset: 0; stroke: #2ca02c; stroke-opacity: 0.7; stroke-width: 2"/>
    <defs>
     <path id="mec6a3b1721" d="M -3 3 
L 3 -3 
M -3 -3 
L 3 3 
" style="stroke: #2ca02c; stroke-opacity: 0.7"/>
    </defs>
    <g clip-path="url(#p0713dec394)">
     <use xlink:href="#mec6a3b1721" x="167.574702" y="226.685142" style="fill: #2ca02c; fill-opacity: 0.7; stroke: #2ca02c; stroke-opacity: 0.7"/>
     <use xlink:href="#mec6a3b1721" x="206.109137" y="150.15748" style="fill: #2ca02c; fill-opacity: 0.7; stroke: #2ca02c; stroke-opacity: 0.7"/>
    </g>
   </g>
   <g id="patch_3">
    <path d="M 100.3 304.44375 
L 100.3 25.918125 
" style="fill: none; stroke: #000000; stroke-width: 0.8; stroke-linejoin: miter; stroke-linecap: square"/>
   </g>
   <g id="patch_4">
    <path d="M 450 304.44375 
L 450 25.918125 
" style="fill: none; stroke: #000000; stroke-width: 0.8; stroke-linejoin: miter; stroke-linecap: square"/>
   </g>
   <g id="patch_5">
    <path d="M 100.3 304.44375 
L 450 304.44375 
" style="fill: none; stroke: #000000; stroke-width: 0.8; stroke-linejoin: miter; stroke-linecap: square"/>
   </g>
   <g id="patch_6">
    <path d="M 100.3 25.918125 
L 450 25.918125 
" style="fill: none; stroke: #000000; stroke-width: 0.8; stroke-linejoin: miter; stroke-linecap: square"/>
   </g>
   <g id="text_17">
    <text style="font-size: 12px; font-family: 'DejaVu Sans', 'Bitstream Vera Sans', 'Computer Modern Sans Serif', 'Lucida Grande', 'Verdana', 'Geneva', 'Lucid', 'Arial', 'Helvetica', 'Avant Garde', sans-serif; text-anchor: middle" x="275.15" y="19.918125" transform="rotate(-0 275.15 19.918125)">Cumulative regret</text>
   </g>
   <g id="legend_1">
    <g id="patch_7">
     <path d="M 329.178125 299.44375 
L 443 299.44375 
Q 445 299.44375 445 297.44375 
L 445 254.409375 
Q 445 252.409375 443 252.409375 
L 329.178125 252.409375 
Q 327.178125 252.409375 327.178125 254.409375 
L 327.178125 297.44375 
Q 327.178125 299.44375 329.178125 299.44375 
z
" style="fill: #ffffff; opacity: 0.8; stroke: #cccccc; stroke-linejoin: miter"/>
    </g>
    <g id="line2d_32">
     <path d="M 331.178125 260.507812 
L 341.178125 260.507812 
L 351.178125 260.507812 
" style="fill: none; stroke-dasharray: 7.4,3.2; stroke-dashoffset: 0; stroke: #1f77b4; stroke-opacity: 0.7; stroke-width: 2"/>
     <g>
      <use xlink:href="#m870afa9df8" x="341.178125" y="260.507812" style="fill: #1f77b4; fill-opacity: 0.7; stroke: #1f77b4; stroke-opacity: 0.7"/>
     </g>
    </g>
    <g id="text_18">
     <text style="font-size: 10px; font-family: 'DejaVu Sans', 'Bitstream Vera Sans', 'Computer Modern Sans Serif', 'Lucida Grande', 'Verdana', 'Geneva', 'Lucid', 'Arial', 'Helvetica', 'Avant Garde', sans-serif; text-anchor: start" x="359.178125" y="264.007812" transform="rotate(-0 359.178125 264.007812)">method='shgo'</text>
    </g>
    <g id="line2d_33">
     <path d="M 331.178125 275.185937 
L 341.178125 275.185937 
L 351.178125 275.185937 
" style="fill: none; stroke-dasharray: 7.4,3.2; stroke-dashoffset: 0; stroke: #ff7f0e; stroke-opacity: 0.7; stroke-width: 2"/>
     <g>
      <use xlink:href="#mfa32c41f4e" x="341.178125" y="275.185937" style="fill: #ff7f0e; fill-opacity: 0.7; stroke: #ff7f0e; stroke-opacity: 0.7; stroke-linejoin: miter"/>
     </g>
    </g>
    <g id="text_19">
     <text style="font-size: 10px; font-family: 'DejaVu Sans', 'Bitstream Vera Sans', 'Computer Modern Sans Serif', 'Lucida Grande', 'Verdana', 'Geneva', 'Lucid', 'Arial', 'Helvetica', 'Avant Garde', sans-serif; text-anchor: start" x="359.178125" y="278.685937" transform="rotate(-0 359.178125 278.685937)">method='sceua'</text>
    </g>
    <g id="line2d_34">
     <path d="M 331.178125 289.864062 
L 341.178125 289.864062 
L 351.178125 289.864062 
" style="fill: none; stroke-dasharray: 7.4,3.2; stroke-dashoffset: 0; stroke: #2ca02c; stroke-opacity: 0.7; stroke-width: 2"/>
     <g>
      <use xlink:href="#mec6a3b1721" x="341.178125" y="289.864062" style="fill: #2ca02c; fill-opacity: 0.7; stroke: #2ca02c; stroke-opacity: 0.7"/>
     </g>
    </g>
    <g id="text_20">
     <text style="font-size: 10px; font-family: 'DejaVu Sans', 'Bitstream Vera Sans', 'Computer Modern Sans Serif', 'Lucida Grande', 'Verdana', 'Geneva', 'Lucid', 'Arial', 'Helvetica', 'Avant Garde', sans-serif; text-anchor: start" x="359.178125" y="293.364062" transform="rotate(-0 359.178125 293.364062)">method='smbo'</text>
    </g>
   </g>
  </g>
  <g id="watermark">
   <text style="font-size: 10px; font-family: 'DejaVu Sans', 'Bitstream Vera Sans', 'Computer Modern Sans Serif', 'Lucida Grande', 'Verdana', 'Geneva', 'Lucid', 'Arial', 'Helvetica', 'Avant Garde', sans-serif; text-anchor: start; opacity: 0.01" x="4.608" y="342.144" transform="rotate(-0 4.608 342.144)">Created with SAMBO, https://sambo-optimization.github.io</text>
  </g>
 </g>
 <defs>
  <clipPath id="p0713dec394">
   <rect x="100.3" y="25.918125" width="349.7" height="278.525625"/>
  </clipPath>
 </defs>
</svg>
