<?xml version="1.0" encoding="utf-8" standalone="no"?>
<!DOCTYPE svg PUBLIC "-//W3C//DTD SVG 1.1//EN"
  "http://www.w3.org/Graphics/SVG/1.1/DTD/svg11.dtd">
<svg xmlns:xlink="http://www.w3.org/1999/xlink" width="460.8pt" height="345.6pt" viewBox="0 0 460.8 345.6" xmlns="http://www.w3.org/2000/svg" version="1.1">
 <metadata>
  <rdf:RDF xmlns:dc="http://purl.org/dc/elements/1.1/" xmlns:cc="http://creativecommons.org/ns#" xmlns:rdf="http://www.w3.org/1999/02/22-rdf-syntax-ns#">
   <cc:Work>
    <dc:type rdf:resource="http://purl.org/dc/dcmitype/StillImage"/>
    <dc:date>2025-01-21T03:26:48.649408</dc:date>
    <dc:format>image/svg+xml</dc:format>
    <dc:creator>
     <cc:Agent>
      <dc:title>Matplotlib v3.10.0, https://matplotlib.org/</dc:title>
     </cc:Agent>
    </dc:creator>
   </cc:Work>
  </rdf:RDF>
 </metadata>
 <defs>
  <style type="text/css">*{stroke-linejoin: round; stroke-linecap: butt}</style>
 </defs>
 <g id="figure_1">
  <g id="patch_1">
   <path d="M 0 345.6 
L 460.8 345.6 
L 460.8 0 
L 0 0 
z
" style="fill: #ffffff"/>
  </g>
  <g id="axes_1">
   <g id="patch_2">
    <path d="M 94.5 304.44375 
L 450 304.44375 
L 450 25.918125 
L 94.5 25.918125 
z
" style="fill: #ffffff"/>
   </g>
   <g id="matplotlib.axis_1">
    <g id="xtick_1">
     <g id="line2d_1">
      <path d="M 107.943277 304.44375 
L 107.943277 25.918125 
" clip-path="url(#p277e6c0c98)" style="fill: none; stroke: #b0b0b0; stroke-width: 0.8; stroke-linecap: square"/>
     </g>
     <g id="line2d_2">
      <defs>
       <path id="mddca7ea8fc" d="M 0 0 
L 0 3.5 
" style="stroke: #000000; stroke-width: 0.8"/>
      </defs>
      <g>
       <use xlink:href="#mddca7ea8fc" x="107.943277" y="304.44375" style="stroke: #000000; stroke-width: 0.8"/>
      </g>
     </g>
     <g id="text_1">
      <text style="font-size: 10px; font-family: 'DejaVu Sans', 'Bitstream Vera Sans', 'Computer Modern Sans Serif', 'Lucida Grande', 'Verdana', 'Geneva', 'Lucid', 'Arial', 'Helvetica', 'Avant Garde', sans-serif; text-anchor: middle" x="107.943277" y="319.042187" transform="rotate(-0 107.943277 319.042187)">0</text>
     </g>
    </g>
    <g id="xtick_2">
     <g id="line2d_3">
      <path d="M 162.259549 304.44375 
L 162.259549 25.918125 
" clip-path="url(#p277e6c0c98)" style="fill: none; stroke: #b0b0b0; stroke-width: 0.8; stroke-linecap: square"/>
     </g>
     <g id="line2d_4">
      <g>
       <use xlink:href="#mddca7ea8fc" x="162.259549" y="304.44375" style="stroke: #000000; stroke-width: 0.8"/>
      </g>
     </g>
     <g id="text_2">
      <text style="font-size: 10px; font-family: 'DejaVu Sans', 'Bitstream Vera Sans', 'Computer Modern Sans Serif', 'Lucida Grande', 'Verdana', 'Geneva', 'Lucid', 'Arial', 'Helvetica', 'Avant Garde', sans-serif; text-anchor: middle" x="162.259549" y="319.042187" transform="rotate(-0 162.259549 319.042187)">20</text>
     </g>
    </g>
    <g id="xtick_3">
     <g id="line2d_5">
      <path d="M 216.575821 304.44375 
L 216.575821 25.918125 
" clip-path="url(#p277e6c0c98)" style="fill: none; stroke: #b0b0b0; stroke-width: 0.8; stroke-linecap: square"/>
     </g>
     <g id="line2d_6">
      <g>
       <use xlink:href="#mddca7ea8fc" x="216.575821" y="304.44375" style="stroke: #000000; stroke-width: 0.8"/>
      </g>
     </g>
     <g id="text_3">
      <text style="font-size: 10px; font-family: 'DejaVu Sans', 'Bitstream Vera Sans', 'Computer Modern Sans Serif', 'Lucida Grande', 'Verdana', 'Geneva', 'Lucid', 'Arial', 'Helvetica', 'Avant Garde', sans-serif; text-anchor: middle" x="216.575821" y="319.042187" transform="rotate(-0 216.575821 319.042187)">40</text>
     </g>
    </g>
    <g id="xtick_4">
     <g id="line2d_7">
      <path d="M 270.892093 304.44375 
L 270.892093 25.918125 
" clip-path="url(#p277e6c0c98)" style="fill: none; stroke: #b0b0b0; stroke-width: 0.8; stroke-linecap: square"/>
     </g>
     <g id="line2d_8">
      <g>
       <use xlink:href="#mddca7ea8fc" x="270.892093" y="304.44375" style="stroke: #000000; stroke-width: 0.8"/>
      </g>
     </g>
     <g id="text_4">
      <text style="font-size: 10px; font-family: 'DejaVu Sans', 'Bitstream Vera Sans', 'Computer Modern Sans Serif', 'Lucida Grande', 'Verdana', 'Geneva', 'Lucid', 'Arial', 'Helvetica', 'Avant Garde', sans-serif; text-anchor: middle" x="270.892093" y="319.042187" transform="rotate(-0 270.892093 319.042187)">60</text>
     </g>
    </g>
    <g id="xtick_5">
     <g id="line2d_9">
      <path d="M 325.208365 304.44375 
L 325.208365 25.918125 
" clip-path="url(#p277e6c0c98)" style="fill: none; stroke: #b0b0b0; stroke-width: 0.8; stroke-linecap: square"/>
     </g>
     <g id="line2d_10">
      <g>
       <use xlink:href="#mddca7ea8fc" x="325.208365" y="304.44375" style="stroke: #000000; stroke-width: 0.8"/>
      </g>
     </g>
     <g id="text_5">
      <text style="font-size: 10px; font-family: 'DejaVu Sans', 'Bitstream Vera Sans', 'Computer Modern Sans Serif', 'Lucida Grande', 'Verdana', 'Geneva', 'Lucid', 'Arial', 'Helvetica', 'Avant Garde', sans-serif; text-anchor: middle" x="325.208365" y="319.042187" transform="rotate(-0 325.208365 319.042187)">80</text>
     </g>
    </g>
    <g id="xtick_6">
     <g id="line2d_11">
      <path d="M 379.524637 304.44375 
L 379.524637 25.918125 
" clip-path="url(#p277e6c0c98)" style="fill: none; stroke: #b0b0b0; stroke-width: 0.8; stroke-linecap: square"/>
     </g>
     <g id="line2d_12">
      <g>
       <use xlink:href="#mddca7ea8fc" x="379.524637" y="304.44375" style="stroke: #000000; stroke-width: 0.8"/>
      </g>
     </g>
     <g id="text_6">
      <text style="font-size: 10px; font-family: 'DejaVu Sans', 'Bitstream Vera Sans', 'Computer Modern Sans Serif', 'Lucida Grande', 'Verdana', 'Geneva', 'Lucid', 'Arial', 'Helvetica', 'Avant Garde', sans-serif; text-anchor: middle" x="379.524637" y="319.042187" transform="rotate(-0 379.524637 319.042187)">100</text>
     </g>
    </g>
    <g id="xtick_7">
     <g id="line2d_13">
      <path d="M 433.840909 304.44375 
L 433.840909 25.918125 
" clip-path="url(#p277e6c0c98)" style="fill: none; stroke: #b0b0b0; stroke-width: 0.8; stroke-linecap: square"/>
     </g>
     <g id="line2d_14">
      <g>
       <use xlink:href="#mddca7ea8fc" x="433.840909" y="304.44375" style="stroke: #000000; stroke-width: 0.8"/>
      </g>
     </g>
     <g id="text_7">
      <text style="font-size: 10px; font-family: 'DejaVu Sans', 'Bitstream Vera Sans', 'Computer Modern Sans Serif', 'Lucida Grande', 'Verdana', 'Geneva', 'Lucid', 'Arial', 'Helvetica', 'Avant Garde', sans-serif; text-anchor: middle" x="433.840909" y="319.042187" transform="rotate(-0 433.840909 319.042187)">120</text>
     </g>
    </g>
    <g id="text_8">
     <!-- Number of function evaluations $n$ -->
     <g transform="translate(188.45 332.720312)">
      <text>
       <tspan x="0" y="-0.40625" style="font-size: 10px; font-family: 'DejaVu Sans'">N</tspan>
       <tspan x="7.480469" y="-0.40625" style="font-size: 10px; font-family: 'DejaVu Sans'">u</tspan>
       <tspan x="13.818359" y="-0.40625" style="font-size: 10px; font-family: 'DejaVu Sans'">m</tspan>
       <tspan x="23.55957" y="-0.40625" style="font-size: 10px; font-family: 'DejaVu Sans'">b</tspan>
       <tspan x="29.907227" y="-0.40625" style="font-size: 10px; font-family: 'DejaVu Sans'">e</tspan>
       <tspan x="36.05957" y="-0.40625" style="font-size: 10px; font-family: 'DejaVu Sans'">r</tspan>
       <tspan x="40.170898" y="-0.40625" style="font-size: 10px; font-family: 'DejaVu Sans'"> </tspan>
       <tspan x="43.349609" y="-0.40625" style="font-size: 10px; font-family: 'DejaVu Sans'">o</tspan>
       <tspan x="49.467773" y="-0.40625" style="font-size: 10px; font-family: 'DejaVu Sans'">f</tspan>
       <tspan x="52.988281" y="-0.40625" style="font-size: 10px; font-family: 'DejaVu Sans'"> </tspan>
       <tspan x="56.166992" y="-0.40625" style="font-size: 10px; font-family: 'DejaVu Sans'">f</tspan>
       <tspan x="59.6875" y="-0.40625" style="font-size: 10px; font-family: 'DejaVu Sans'">u</tspan>
       <tspan x="66.025391" y="-0.40625" style="font-size: 10px; font-family: 'DejaVu Sans'">n</tspan>
       <tspan x="72.363281" y="-0.40625" style="font-size: 10px; font-family: 'DejaVu Sans'">c</tspan>
       <tspan x="77.861328" y="-0.40625" style="font-size: 10px; font-family: 'DejaVu Sans'">t</tspan>
       <tspan x="81.782227" y="-0.40625" style="font-size: 10px; font-family: 'DejaVu Sans'">i</tspan>
       <tspan x="84.560547" y="-0.40625" style="font-size: 10px; font-family: 'DejaVu Sans'">o</tspan>
       <tspan x="90.678711" y="-0.40625" style="font-size: 10px; font-family: 'DejaVu Sans'">n</tspan>
       <tspan x="97.016602" y="-0.40625" style="font-size: 10px; font-family: 'DejaVu Sans'"> </tspan>
       <tspan x="100.195312" y="-0.40625" style="font-size: 10px; font-family: 'DejaVu Sans'">e</tspan>
       <tspan x="106.347656" y="-0.40625" style="font-size: 10px; font-family: 'DejaVu Sans'">v</tspan>
       <tspan x="112.265625" y="-0.40625" style="font-size: 10px; font-family: 'DejaVu Sans'">a</tspan>
       <tspan x="118.393555" y="-0.40625" style="font-size: 10px; font-family: 'DejaVu Sans'">l</tspan>
       <tspan x="121.171875" y="-0.40625" style="font-size: 10px; font-family: 'DejaVu Sans'">u</tspan>
       <tspan x="127.509766" y="-0.40625" style="font-size: 10px; font-family: 'DejaVu Sans'">a</tspan>
       <tspan x="133.637695" y="-0.40625" style="font-size: 10px; font-family: 'DejaVu Sans'">t</tspan>
       <tspan x="137.558594" y="-0.40625" style="font-size: 10px; font-family: 'DejaVu Sans'">i</tspan>
       <tspan x="140.336914" y="-0.40625" style="font-size: 10px; font-family: 'DejaVu Sans'">o</tspan>
       <tspan x="146.455078" y="-0.40625" style="font-size: 10px; font-family: 'DejaVu Sans'">n</tspan>
       <tspan x="152.792969" y="-0.40625" style="font-size: 10px; font-family: 'DejaVu Sans'">s</tspan>
       <tspan x="158.00293" y="-0.40625" style="font-size: 10px; font-family: 'DejaVu Sans'"> </tspan>
       <tspan x="161.181641" y="-0.40625" style="font-style: oblique; font-size: 10px; font-family: 'DejaVu Sans'">n</tspan>
      </text>
     </g>
    </g>
   </g>
   <g id="matplotlib.axis_2">
    <g id="ytick_1">
     <g id="line2d_15">
      <path d="M 94.5 291.87507 
L 450 291.87507 
" clip-path="url(#p277e6c0c98)" style="fill: none; stroke: #b0b0b0; stroke-width: 0.8; stroke-linecap: square"/>
     </g>
     <g id="line2d_16">
      <defs>
       <path id="m8fefe4da45" d="M 0 0 
L -3.5 0 
" style="stroke: #000000; stroke-width: 0.8"/>
      </defs>
      <g>
       <use xlink:href="#m8fefe4da45" x="94.5" y="291.87507" style="stroke: #000000; stroke-width: 0.8"/>
      </g>
     </g>
     <g id="text_9">
      <!-- $0$ -->
      <g transform="translate(81.1 295.674289)">
       <text>
        <tspan x="0" y="-0.578125" style="font-size: 10px; font-family: 'DejaVu Sans'">0</tspan>
       </text>
      </g>
     </g>
    </g>
    <g id="ytick_2">
     <g id="line2d_17">
      <path d="M 94.5 253.951473 
L 450 253.951473 
" clip-path="url(#p277e6c0c98)" style="fill: none; stroke: #b0b0b0; stroke-width: 0.8; stroke-linecap: square"/>
     </g>
     <g id="line2d_18">
      <g>
       <use xlink:href="#m8fefe4da45" x="94.5" y="253.951473" style="stroke: #000000; stroke-width: 0.8"/>
      </g>
     </g>
     <g id="text_10">
      <!-- $5e+03$ -->
      <g transform="translate(49.9 257.750692)">
       <text>
        <tspan x="0" y="-0.578125" style="font-size: 10px; font-family: 'DejaVu Sans'">5</tspan>
        <tspan x="14.462891" y="-0.578125" style="font-size: 10px; font-family: 'DejaVu Sans'">+</tspan>
        <tspan x="24.790039" y="-0.578125" style="font-size: 10px; font-family: 'DejaVu Sans'">0</tspan>
        <tspan x="31.152344" y="-0.578125" style="font-size: 10px; font-family: 'DejaVu Sans'">3</tspan>
        <tspan x="6.362305" y="-0.578125" style="font-style: oblique; font-size: 10px; font-family: 'DejaVu Sans'">e</tspan>
       </text>
      </g>
     </g>
    </g>
    <g id="ytick_3">
     <g id="line2d_19">
      <path d="M 94.5 216.027876 
L 450 216.027876 
" clip-path="url(#p277e6c0c98)" style="fill: none; stroke: #b0b0b0; stroke-width: 0.8; stroke-linecap: square"/>
     </g>
     <g id="line2d_20">
      <g>
       <use xlink:href="#m8fefe4da45" x="94.5" y="216.027876" style="stroke: #000000; stroke-width: 0.8"/>
      </g>
     </g>
     <g id="text_11">
      <!-- $1e+04$ -->
      <g transform="translate(49.9 219.827094)">
       <text>
        <tspan x="0" y="-0.578125" style="font-size: 10px; font-family: 'DejaVu Sans'">1</tspan>
        <tspan x="14.462891" y="-0.578125" style="font-size: 10px; font-family: 'DejaVu Sans'">+</tspan>
        <tspan x="24.790039" y="-0.578125" style="font-size: 10px; font-family: 'DejaVu Sans'">0</tspan>
        <tspan x="31.152344" y="-0.578125" style="font-size: 10px; font-family: 'DejaVu Sans'">4</tspan>
        <tspan x="6.362305" y="-0.578125" style="font-style: oblique; font-size: 10px; font-family: 'DejaVu Sans'">e</tspan>
       </text>
      </g>
     </g>
    </g>
    <g id="ytick_4">
     <g id="line2d_21">
      <path d="M 94.5 178.104278 
L 450 178.104278 
" clip-path="url(#p277e6c0c98)" style="fill: none; stroke: #b0b0b0; stroke-width: 0.8; stroke-linecap: square"/>
     </g>
     <g id="line2d_22">
      <g>
       <use xlink:href="#m8fefe4da45" x="94.5" y="178.104278" style="stroke: #000000; stroke-width: 0.8"/>
      </g>
     </g>
     <g id="text_12">
      <!-- $1.5e+04$ -->
      <g transform="translate(40.4 181.903497)">
       <text>
        <tspan x="0" y="-0.578125" style="font-size: 10px; font-family: 'DejaVu Sans'">1</tspan>
        <tspan x="6.362305" y="-0.578125" style="font-size: 10px; font-family: 'DejaVu Sans'">.</tspan>
        <tspan x="9.541016" y="-0.578125" style="font-size: 10px; font-family: 'DejaVu Sans'">5</tspan>
        <tspan x="24.003906" y="-0.578125" style="font-size: 10px; font-family: 'DejaVu Sans'">+</tspan>
        <tspan x="34.331055" y="-0.578125" style="font-size: 10px; font-family: 'DejaVu Sans'">0</tspan>
        <tspan x="40.693359" y="-0.578125" style="font-size: 10px; font-family: 'DejaVu Sans'">4</tspan>
        <tspan x="15.90332" y="-0.578125" style="font-style: oblique; font-size: 10px; font-family: 'DejaVu Sans'">e</tspan>
       </text>
      </g>
     </g>
    </g>
    <g id="ytick_5">
     <g id="line2d_23">
      <path d="M 94.5 140.180681 
L 450 140.180681 
" clip-path="url(#p277e6c0c98)" style="fill: none; stroke: #b0b0b0; stroke-width: 0.8; stroke-linecap: square"/>
     </g>
     <g id="line2d_24">
      <g>
       <use xlink:href="#m8fefe4da45" x="94.5" y="140.180681" style="stroke: #000000; stroke-width: 0.8"/>
      </g>
     </g>
     <g id="text_13">
      <!-- $2e+04$ -->
      <g transform="translate(49.9 143.9799)">
       <text>
        <tspan x="0" y="-0.578125" style="font-size: 10px; font-family: 'DejaVu Sans'">2</tspan>
        <tspan x="14.462891" y="-0.578125" style="font-size: 10px; font-family: 'DejaVu Sans'">+</tspan>
        <tspan x="24.790039" y="-0.578125" style="font-size: 10px; font-family: 'DejaVu Sans'">0</tspan>
        <tspan x="31.152344" y="-0.578125" style="font-size: 10px; font-family: 'DejaVu Sans'">4</tspan>
        <tspan x="6.362305" y="-0.578125" style="font-style: oblique; font-size: 10px; font-family: 'DejaVu Sans'">e</tspan>
       </text>
      </g>
     </g>
    </g>
    <g id="ytick_6">
     <g id="line2d_25">
      <path d="M 94.5 102.257084 
L 450 102.257084 
" clip-path="url(#p277e6c0c98)" style="fill: none; stroke: #b0b0b0; stroke-width: 0.8; stroke-linecap: square"/>
     </g>
     <g id="line2d_26">
      <g>
       <use xlink:href="#m8fefe4da45" x="94.5" y="102.257084" style="stroke: #000000; stroke-width: 0.8"/>
      </g>
     </g>
     <g id="text_14">
      <!-- $2.5e+04$ -->
      <g transform="translate(40.4 106.056303)">
       <text>
        <tspan x="0" y="-0.578125" style="font-size: 10px; font-family: 'DejaVu Sans'">2</tspan>
        <tspan x="6.362305" y="-0.578125" style="font-size: 10px; font-family: 'DejaVu Sans'">.</tspan>
        <tspan x="9.541016" y="-0.578125" style="font-size: 10px; font-family: 'DejaVu Sans'">5</tspan>
        <tspan x="24.003906" y="-0.578125" style="font-size: 10px; font-family: 'DejaVu Sans'">+</tspan>
        <tspan x="34.331055" y="-0.578125" style="font-size: 10px; font-family: 'DejaVu Sans'">0</tspan>
        <tspan x="40.693359" y="-0.578125" style="font-size: 10px; font-family: 'DejaVu Sans'">4</tspan>
        <tspan x="15.90332" y="-0.578125" style="font-style: oblique; font-size: 10px; font-family: 'DejaVu Sans'">e</tspan>
       </text>
      </g>
     </g>
    </g>
    <g id="ytick_7">
     <g id="line2d_27">
      <path d="M 94.5 64.333487 
L 450 64.333487 
" clip-path="url(#p277e6c0c98)" style="fill: none; stroke: #b0b0b0; stroke-width: 0.8; stroke-linecap: square"/>
     </g>
     <g id="line2d_28">
      <g>
       <use xlink:href="#m8fefe4da45" x="94.5" y="64.333487" style="stroke: #000000; stroke-width: 0.8"/>
      </g>
     </g>
     <g id="text_15">
      <!-- $3e+04$ -->
      <g transform="translate(49.9 68.132705)">
       <text>
        <tspan x="0" y="-0.578125" style="font-size: 10px; font-family: 'DejaVu Sans'">3</tspan>
        <tspan x="14.462891" y="-0.578125" style="font-size: 10px; font-family: 'DejaVu Sans'">+</tspan>
        <tspan x="24.790039" y="-0.578125" style="font-size: 10px; font-family: 'DejaVu Sans'">0</tspan>
        <tspan x="31.152344" y="-0.578125" style="font-size: 10px; font-family: 'DejaVu Sans'">4</tspan>
        <tspan x="6.362305" y="-0.578125" style="font-style: oblique; font-size: 10px; font-family: 'DejaVu Sans'">e</tspan>
       </text>
      </g>
     </g>
    </g>
    <g id="ytick_8">
     <g id="line2d_29">
      <path d="M 94.5 26.409889 
L 450 26.409889 
" clip-path="url(#p277e6c0c98)" style="fill: none; stroke: #b0b0b0; stroke-width: 0.8; stroke-linecap: square"/>
     </g>
     <g id="line2d_30">
      <g>
       <use xlink:href="#m8fefe4da45" x="94.5" y="26.409889" style="stroke: #000000; stroke-width: 0.8"/>
      </g>
     </g>
     <g id="text_16">
      <!-- $3.5e+04$ -->
      <g transform="translate(40.4 30.209108)">
       <text>
        <tspan x="0" y="-0.578125" style="font-size: 10px; font-family: 'DejaVu Sans'">3</tspan>
        <tspan x="6.362305" y="-0.578125" style="font-size: 10px; font-family: 'DejaVu Sans'">.</tspan>
        <tspan x="9.541016" y="-0.578125" style="font-size: 10px; font-family: 'DejaVu Sans'">5</tspan>
        <tspan x="24.003906" y="-0.578125" style="font-size: 10px; font-family: 'DejaVu Sans'">+</tspan>
        <tspan x="34.331055" y="-0.578125" style="font-size: 10px; font-family: 'DejaVu Sans'">0</tspan>
        <tspan x="40.693359" y="-0.578125" style="font-size: 10px; font-family: 'DejaVu Sans'">4</tspan>
        <tspan x="15.90332" y="-0.578125" style="font-style: oblique; font-size: 10px; font-family: 'DejaVu Sans'">e</tspan>
       </text>
      </g>
     </g>
    </g>
    <g id="text_17">
     <!-- Cumulative regret after $n$ evaluations: $\ \sum_t^n{\,\left[\,f\,\left(x_t\right) - f_{\mathrm{opt}}\,\right]}$ -->
     <g transform="translate(26.8 299.380937) rotate(-90)">
      <text>
       <tspan x="0" y="-0.0375" style="font-size: 10px; font-family: 'DejaVu Sans'">C</tspan>
       <tspan x="6.982422" y="-0.0375" style="font-size: 10px; font-family: 'DejaVu Sans'">u</tspan>
       <tspan x="13.320312" y="-0.0375" style="font-size: 10px; font-family: 'DejaVu Sans'">m</tspan>
       <tspan x="23.061523" y="-0.0375" style="font-size: 10px; font-family: 'DejaVu Sans'">u</tspan>
       <tspan x="29.399414" y="-0.0375" style="font-size: 10px; font-family: 'DejaVu Sans'">l</tspan>
       <tspan x="32.177734" y="-0.0375" style="font-size: 10px; font-family: 'DejaVu Sans'">a</tspan>
       <tspan x="38.305664" y="-0.0375" style="font-size: 10px; font-family: 'DejaVu Sans'">t</tspan>
       <tspan x="42.226562" y="-0.0375" style="font-size: 10px; font-family: 'DejaVu Sans'">i</tspan>
       <tspan x="45.004883" y="-0.0375" style="font-size: 10px; font-family: 'DejaVu Sans'">v</tspan>
       <tspan x="50.922852" y="-0.0375" style="font-size: 10px; font-family: 'DejaVu Sans'">e</tspan>
       <tspan x="57.075195" y="-0.0375" style="font-size: 10px; font-family: 'DejaVu Sans'"> </tspan>
       <tspan x="60.253906" y="-0.0375" style="font-size: 10px; font-family: 'DejaVu Sans'">r</tspan>
       <tspan x="64.365234" y="-0.0375" style="font-size: 10px; font-family: 'DejaVu Sans'">e</tspan>
       <tspan x="70.517578" y="-0.0375" style="font-size: 10px; font-family: 'DejaVu Sans'">g</tspan>
       <tspan x="76.865234" y="-0.0375" style="font-size: 10px; font-family: 'DejaVu Sans'">r</tspan>
       <tspan x="80.976562" y="-0.0375" style="font-size: 10px; font-family: 'DejaVu Sans'">e</tspan>
       <tspan x="87.128906" y="-0.0375" style="font-size: 10px; font-family: 'DejaVu Sans'">t</tspan>
       <tspan x="91.049805" y="-0.0375" style="font-size: 10px; font-family: 'DejaVu Sans'"> </tspan>
       <tspan x="94.228516" y="-0.0375" style="font-size: 10px; font-family: 'DejaVu Sans'">a</tspan>
       <tspan x="100.356445" y="-0.0375" style="font-size: 10px; font-family: 'DejaVu Sans'">f</tspan>
       <tspan x="103.876953" y="-0.0375" style="font-size: 10px; font-family: 'DejaVu Sans'">t</tspan>
       <tspan x="107.797852" y="-0.0375" style="font-size: 10px; font-family: 'DejaVu Sans'">e</tspan>
       <tspan x="113.950195" y="-0.0375" style="font-size: 10px; font-family: 'DejaVu Sans'">r</tspan>
       <tspan x="118.061523" y="-0.0375" style="font-size: 10px; font-family: 'DejaVu Sans'"> </tspan>
       <tspan x="127.578125" y="-0.0375" style="font-size: 10px; font-family: 'DejaVu Sans'"> </tspan>
       <tspan x="130.756836" y="-0.0375" style="font-size: 10px; font-family: 'DejaVu Sans'">e</tspan>
       <tspan x="136.90918" y="-0.0375" style="font-size: 10px; font-family: 'DejaVu Sans'">v</tspan>
       <tspan x="142.827148" y="-0.0375" style="font-size: 10px; font-family: 'DejaVu Sans'">a</tspan>
       <tspan x="148.955078" y="-0.0375" style="font-size: 10px; font-family: 'DejaVu Sans'">l</tspan>
       <tspan x="151.733398" y="-0.0375" style="font-size: 10px; font-family: 'DejaVu Sans'">u</tspan>
       <tspan x="158.071289" y="-0.0375" style="font-size: 10px; font-family: 'DejaVu Sans'">a</tspan>
       <tspan x="164.199219" y="-0.0375" style="font-size: 10px; font-family: 'DejaVu Sans'">t</tspan>
       <tspan x="168.120117" y="-0.0375" style="font-size: 10px; font-family: 'DejaVu Sans'">i</tspan>
       <tspan x="170.898438" y="-0.0375" style="font-size: 10px; font-family: 'DejaVu Sans'">o</tspan>
       <tspan x="177.016602" y="-0.0375" style="font-size: 10px; font-family: 'DejaVu Sans'">n</tspan>
       <tspan x="183.354492" y="-0.0375" style="font-size: 10px; font-family: 'DejaVu Sans'">s</tspan>
       <tspan x="188.564453" y="-0.0375" style="font-size: 10px; font-family: 'DejaVu Sans'">:</tspan>
       <tspan x="191.933594" y="-0.0375" style="font-size: 10px; font-family: 'DejaVu Sans'"> </tspan>
       <tspan x="219.164295" y="-0.0375" style="font-size: 10px; font-family: 'DejaVu Sans'">(</tspan>
       <tspan x="232.001698" y="-0.0375" style="font-size: 10px; font-family: 'DejaVu Sans'">)</tspan>
       <tspan x="237.851307" y="-0.0375" style="font-size: 10px; font-family: 'DejaVu Sans'">−</tspan>
       <tspan x="121.240234" y="-0.0375" style="font-style: oblique; font-size: 10px; font-family: 'DejaVu Sans'">n</tspan>
       <tspan x="214.02022" y="-0.0375" style="font-style: oblique; font-size: 10px; font-family: 'DejaVu Sans'">f</tspan>
       <tspan x="223.065662" y="-0.0375" style="font-style: oblique; font-size: 10px; font-family: 'DejaVu Sans'">x</tspan>
       <tspan x="248.178455" y="-0.0375" style="font-style: oblique; font-size: 10px; font-family: 'DejaVu Sans'">f</tspan>
       <tspan x="201.359343" y="-12.084375" style="font-style: oblique; font-size: 7px; font-family: 'DejaVu Sans'">n</tspan>
       <tspan x="201.359343" y="9.467188" style="font-style: oblique; font-size: 7px; font-family: 'DejaVu Sans'">t</tspan>
       <tspan x="228.983631" y="1.603125" style="font-style: oblique; font-size: 7px; font-family: 'DejaVu Sans'">t</tspan>
       <tspan x="198.359343" y="-0.0375" style="font-size: 10px; font-family: 'DejaVu Sans Display'">∑</tspan>
       <tspan x="209.04541" y="1.589062" style="font-size: 8.692503px; font-family: 'STIXSizeOneSym'">[</tspan>
       <tspan x="265.066672" y="1.589062" style="font-size: 8.692503px; font-family: 'STIXSizeOneSym'">]</tspan>
       <tspan x="251.698963" y="1.603125" style="font-size: 7px; font-family: 'DejaVu Sans'">o</tspan>
       <tspan x="255.981678" y="1.603125" style="font-size: 7px; font-family: 'DejaVu Sans'">p</tspan>
       <tspan x="260.425037" y="1.603125" style="font-size: 7px; font-family: 'DejaVu Sans'">t</tspan>
      </text>
     </g>
    </g>
   </g>
   <g id="line2d_31">
    <path d="M 110.659091 287.818549 
L 113.374905 287.754079 
L 116.090718 287.310373 
L 118.806532 284.2689 
L 121.522345 282.554753 
L 124.238159 281.796282 
L 126.953972 280.609273 
L 129.669786 278.902711 
L 132.3856 277.715702 
L 135.101413 274.651476 
L 137.817227 274.621137 
L 140.53304 263.592362 
L 143.248854 255.265644 
L 145.964668 252.925758 
L 148.680481 252.159701 
L 151.396295 249.118229 
L 154.112108 244.377779 
L 156.827922 243.611723 
L 159.543736 243.183186 
L 162.259549 243.133885 
L 164.975363 235.120629 
L 167.691176 232.750404 
L 170.40699 226.967056 
L 173.122804 224.474883 
L 175.838617 212.271069 
L 178.554431 211.482258 
L 181.270244 207.425737 
L 183.986058 206.223559 
L 186.701872 206.215974 
L 189.417685 206.215974 
L 192.133499 194.072839 
L 194.849312 191.038951 
L 197.565126 188.714234 
L 200.28094 182.976394 
L 202.996753 180.651677 
L 205.712567 176.810017 
L 208.42838 170.809911 
L 211.144194 170.802327 
L 213.860008 170.794742 
L 216.575821 170.787157 
L 219.291635 170.737856 
L 222.007448 170.731006 
L 224.723262 170.724156 
L 227.439076 170.717306 
L 230.154889 170.707147 
L 232.870703 170.702262 
L 235.586516 170.697376 
L 238.30233 170.692491 
L 241.018144 170.673913 
L 243.733957 170.669514 
L 246.449771 170.665115 
L 249.165584 170.660716 
L 251.881398 170.651756 
L 254.597212 170.647869 
L 257.313025 170.643981 
L 260.028839 170.640094 
L 262.744652 170.635037 
L 265.460466 170.631552 
L 268.17628 170.628067 
L 270.892093 170.624583 
L 273.607907 170.621514 
L 276.32372 170.618446 
L 279.039534 170.615377 
L 281.755348 170.61295 
L 284.471161 170.610523 
L 287.186975 170.608095 
L 289.902788 170.606197 
L 292.618602 170.604299 
L 295.334416 170.6024 
L 298.050229 170.600504 
L 300.766043 170.598608 
L 303.481856 170.596712 
L 306.19767 170.566373 
L 308.913484 170.536034 
L 311.629297 170.505695 
L 314.345111 170.061991 
L 317.060924 170.02594 
L 319.776738 169.995677 
L 322.492552 169.965414 
L 325.208365 169.935151 
L 327.924179 169.909865 
L 330.639992 169.88458 
L 333.355806 169.859295 
L 336.07162 169.835703 
L 338.787433 169.812112 
L 341.503247 169.788521 
L 344.21906 169.766496 
L 346.934874 169.744472 
L 349.650688 169.722447 
L 352.366501 169.700454 
L 355.082315 169.678461 
L 357.798128 169.656467 
L 360.513942 169.634475 
L 363.229756 169.612483 
L 365.945569 169.590491 
L 368.661383 169.590491 
L 371.377196 169.590491 
L 374.09301 169.590491 
" clip-path="url(#p277e6c0c98)" style="fill: none; stroke-dasharray: 7.4,3.2; stroke-dashoffset: 0; stroke: #1f77b4; stroke-opacity: 0.7; stroke-width: 2"/>
    <defs>
     <path id="m753be02651" d="M 0 3 
C 0.795609 3 1.55874 2.683901 2.12132 2.12132 
C 2.683901 1.55874 3 0.795609 3 0 
C 3 -0.795609 2.683901 -1.55874 2.12132 -2.12132 
C 1.55874 -2.683901 0.795609 -3 0 -3 
C -0.795609 -3 -1.55874 -2.683901 -2.12132 -2.12132 
C -2.683901 -1.55874 -3 -0.795609 -3 0 
C -3 0.795609 -2.683901 1.55874 -2.12132 2.12132 
C -1.55874 2.683901 -0.795609 3 0 3 
z
" style="stroke: #1f77b4; stroke-opacity: 0.7"/>
    </defs>
    <g clip-path="url(#p277e6c0c98)">
     <use xlink:href="#m753be02651" x="140.53304" y="263.592362" style="fill: #1f77b4; fill-opacity: 0.7; stroke: #1f77b4; stroke-opacity: 0.7"/>
     <use xlink:href="#m753be02651" x="192.133499" y="194.072839" style="fill: #1f77b4; fill-opacity: 0.7; stroke: #1f77b4; stroke-opacity: 0.7"/>
     <use xlink:href="#m753be02651" x="265.460466" y="170.631552" style="fill: #1f77b4; fill-opacity: 0.7; stroke: #1f77b4; stroke-opacity: 0.7"/>
     <use xlink:href="#m753be02651" x="357.798128" y="169.656467" style="fill: #1f77b4; fill-opacity: 0.7; stroke: #1f77b4; stroke-opacity: 0.7"/>
    </g>
   </g>
   <g id="line2d_32">
    <path d="M 110.659091 291.783494 
L 113.374905 281.152595 
L 116.090718 277.167783 
L 118.806532 277.093506 
L 121.522345 275.108032 
L 124.238159 274.979652 
L 126.953972 274.286539 
L 129.669786 271.924779 
L 132.3856 269.379677 
L 135.101413 265.854694 
L 137.817227 263.553069 
L 140.53304 261.127075 
L 143.248854 261.022837 
L 145.964668 261.016323 
L 148.680481 252.482388 
L 151.396295 252.394019 
L 154.112108 249.535994 
L 156.827922 249.375381 
L 159.543736 244.29164 
L 162.259549 239.602972 
L 164.975363 239.584803 
L 167.691176 239.321015 
L 170.40699 239.10716 
L 173.122804 232.418918 
L 175.838617 232.398069 
L 178.554431 231.581225 
L 181.270244 231.567872 
L 183.986058 231.555156 
L 186.701872 231.192936 
L 189.417685 231.170866 
L 192.133499 229.533755 
L 194.849312 228.800597 
L 197.565126 225.819702 
L 200.28094 225.722413 
L 202.996753 225.70751 
L 205.712567 224.734356 
L 208.42838 221.639328 
L 211.144194 221.478165 
L 213.860008 220.033826 
L 216.575821 217.710706 
L 219.291635 217.708109 
L 222.007448 215.417025 
L 224.723262 215.403364 
L 227.439076 215.170111 
L 230.154889 207.235805 
L 232.870703 206.993794 
L 235.586516 206.943075 
L 238.30233 197.887083 
L 241.018144 197.528442 
L 243.733957 197.129914 
L 246.449771 197.095637 
L 249.165584 196.050116 
L 251.881398 195.985661 
L 254.597212 193.384807 
L 257.313025 192.004781 
L 260.028839 191.606802 
L 262.744652 184.050488 
L 265.460466 183.831065 
L 268.17628 182.459419 
L 270.892093 182.422302 
L 273.607907 180.626163 
L 276.32372 178.856683 
L 279.039534 178.684115 
L 281.755348 178.506998 
L 284.471161 178.369982 
L 287.186975 177.385538 
L 289.902788 174.046341 
L 292.618602 173.988483 
L 295.334416 173.15157 
L 298.050229 173.042021 
L 300.766043 170.757081 
L 303.481856 169.649711 
L 306.19767 169.552482 
L 308.913484 168.424239 
L 311.629297 166.879769 
L 314.345111 166.620423 
L 317.060924 166.556456 
L 319.776738 166.549976 
L 322.492552 166.518381 
L 325.208365 166.172341 
L 327.924179 166.164612 
L 330.639992 165.162083 
L 333.355806 164.179924 
L 336.07162 163.580232 
L 338.787433 162.360614 
L 341.503247 162.353779 
L 344.21906 161.870575 
L 346.934874 161.788942 
L 349.650688 160.599995 
L 352.366501 160.506649 
L 355.082315 156.012022 
L 357.798128 155.181276 
L 360.513942 155.105024 
L 363.229756 155.088746 
L 365.945569 153.741045 
L 368.661383 153.68121 
L 371.377196 153.292588 
L 374.09301 153.273503 
L 376.808824 153.104413 
L 379.524637 152.723656 
L 382.240451 152.692826 
L 384.956264 145.576976 
L 387.672078 145.570557 
L 390.387892 142.461353 
L 393.103705 142.330319 
L 395.819519 142.198766 
L 398.535332 142.183066 
L 401.251146 141.640093 
L 403.96696 140.202939 
L 406.682773 140.146631 
L 409.398587 139.037702 
L 412.1144 135.836976 
L 414.830214 135.754982 
L 417.546028 134.41902 
L 420.261841 134.345092 
L 422.977655 134.130766 
L 425.693468 134.085008 
L 428.409282 126.827645 
L 431.125095 126.620567 
L 433.840909 126.584997 
" clip-path="url(#p277e6c0c98)" style="fill: none; stroke-dasharray: 7.4,3.2; stroke-dashoffset: 0; stroke: #ff7f0e; stroke-opacity: 0.7; stroke-width: 2"/>
    <defs>
     <path id="m0cca60dbc1" d="M -3 3 
L 3 3 
L 3 -3 
L -3 -3 
z
" style="stroke: #ff7f0e; stroke-opacity: 0.7; stroke-linejoin: miter"/>
    </defs>
    <g clip-path="url(#p277e6c0c98)">
     <use xlink:href="#m0cca60dbc1" x="154.112108" y="249.535994" style="fill: #ff7f0e; fill-opacity: 0.7; stroke: #ff7f0e; stroke-opacity: 0.7; stroke-linejoin: miter"/>
     <use xlink:href="#m0cca60dbc1" x="227.439076" y="215.170111" style="fill: #ff7f0e; fill-opacity: 0.7; stroke: #ff7f0e; stroke-opacity: 0.7; stroke-linejoin: miter"/>
     <use xlink:href="#m0cca60dbc1" x="295.334416" y="173.15157" style="fill: #ff7f0e; fill-opacity: 0.7; stroke: #ff7f0e; stroke-opacity: 0.7; stroke-linejoin: miter"/>
     <use xlink:href="#m0cca60dbc1" x="382.240451" y="152.692826" style="fill: #ff7f0e; fill-opacity: 0.7; stroke: #ff7f0e; stroke-opacity: 0.7; stroke-linejoin: miter"/>
    </g>
   </g>
   <g id="line2d_33">
    <path d="M 110.659091 288.657544 
L 113.374905 288.655427 
L 116.090718 286.225539 
L 118.806532 276.739683 
L 121.522345 273.324609 
L 124.238159 272.246866 
L 126.953972 270.95663 
L 129.669786 270.561427 
L 132.3856 270.452603 
L 135.101413 269.57852 
L 137.817227 269.262771 
L 140.53304 269.083976 
L 143.248854 266.773732 
L 145.964668 255.489951 
L 148.680481 255.313949 
L 151.396295 255.09553 
L 154.112108 255.089363 
L 156.827922 253.887406 
L 159.543736 253.073278 
L 162.259549 248.890375 
L 164.975363 247.561845 
L 167.691176 247.22523 
L 170.40699 245.738171 
L 173.122804 245.666369 
L 175.838617 245.615067 
L 178.554431 245.370558 
L 181.270244 240.252052 
L 183.986058 238.849828 
L 186.701872 233.34967 
L 189.417685 230.68645 
L 192.133499 230.24466 
L 194.849312 224.576212 
L 197.565126 217.899238 
L 200.28094 215.537804 
L 202.996753 204.82006 
L 205.712567 203.268218 
L 208.42838 203.184785 
L 211.144194 202.626741 
L 213.860008 202.5317 
L 216.575821 200.45145 
L 219.291635 199.83404 
L 222.007448 199.617049 
L 224.723262 198.70351 
L 227.439076 195.114551 
L 230.154889 192.145956 
L 232.870703 191.992385 
L 235.586516 189.420576 
L 238.30233 188.925129 
L 241.018144 188.607246 
L 243.733957 184.386732 
L 246.449771 173.771515 
L 249.165584 166.703898 
L 251.881398 166.701858 
L 254.597212 161.024779 
L 257.313025 151.351142 
L 260.028839 149.809001 
L 262.744652 149.390224 
L 265.460466 147.674138 
L 268.17628 147.021534 
L 270.892093 142.745077 
L 273.607907 139.81044 
L 276.32372 139.786774 
L 279.039534 137.576119 
L 281.755348 135.546803 
L 284.471161 129.921332 
L 287.186975 128.660952 
L 289.902788 125.546847 
L 292.618602 113.924675 
L 295.334416 113.833596 
L 298.050229 113.311529 
L 300.766043 109.266194 
L 303.481856 101.563629 
L 306.19767 101.396585 
L 308.913484 99.977368 
L 311.629297 98.377073 
L 314.345111 98.288748 
L 317.060924 98.180088 
L 319.776738 98.156614 
L 322.492552 95.245664 
L 325.208365 91.377208 
L 327.924179 83.467558 
L 330.639992 76.305865 
L 333.355806 75.242569 
L 336.07162 71.437626 
L 338.787433 70.740678 
L 341.503247 68.52204 
L 344.21906 68.365059 
L 346.934874 67.167445 
L 349.650688 65.005063 
L 352.366501 63.77973 
L 355.082315 63.273499 
L 357.798128 60.700982 
L 360.513942 59.992947 
L 363.229756 55.609021 
L 365.945569 53.552706 
L 368.661383 48.901143 
L 371.377196 45.967041 
L 374.09301 43.368145 
L 376.808824 40.769922 
L 379.524637 38.579988 
L 382.240451 38.579404 
L 384.956264 38.579296 
L 387.672078 38.579048 
L 390.387892 38.579047 
L 393.103705 38.578877 
L 395.819519 38.57886 
L 398.535332 38.578472 
L 401.251146 38.578466 
L 403.96696 38.578454 
L 406.682773 38.578451 
L 409.398587 38.578434 
L 412.1144 38.578403 
L 414.830214 38.578389 
L 417.546028 38.578381 
" clip-path="url(#p277e6c0c98)" style="fill: none; stroke-dasharray: 7.4,3.2; stroke-dashoffset: 0; stroke: #2ca02c; stroke-opacity: 0.7; stroke-width: 2"/>
    <defs>
     <path id="mcbe65944a5" d="M -3 3 
L 3 -3 
M -3 -3 
L 3 3 
" style="stroke: #2ca02c; stroke-opacity: 0.7"/>
    </defs>
    <g clip-path="url(#p277e6c0c98)">
     <use xlink:href="#mcbe65944a5" x="178.554431" y="245.370558" style="fill: #2ca02c; fill-opacity: 0.7; stroke: #2ca02c; stroke-opacity: 0.7"/>
     <use xlink:href="#mcbe65944a5" x="238.30233" y="188.925129" style="fill: #2ca02c; fill-opacity: 0.7; stroke: #2ca02c; stroke-opacity: 0.7"/>
     <use xlink:href="#mcbe65944a5" x="289.902788" y="125.546847" style="fill: #2ca02c; fill-opacity: 0.7; stroke: #2ca02c; stroke-opacity: 0.7"/>
     <use xlink:href="#mcbe65944a5" x="344.21906" y="68.365059" style="fill: #2ca02c; fill-opacity: 0.7; stroke: #2ca02c; stroke-opacity: 0.7"/>
    </g>
   </g>
   <g id="patch_3">
    <path d="M 94.5 304.44375 
L 94.5 25.918125 
" style="fill: none; stroke: #000000; stroke-width: 0.8; stroke-linejoin: miter; stroke-linecap: square"/>
   </g>
   <g id="patch_4">
    <path d="M 450 304.44375 
L 450 25.918125 
" style="fill: none; stroke: #000000; stroke-width: 0.8; stroke-linejoin: miter; stroke-linecap: square"/>
   </g>
   <g id="patch_5">
    <path d="M 94.5 304.44375 
L 450 304.44375 
" style="fill: none; stroke: #000000; stroke-width: 0.8; stroke-linejoin: miter; stroke-linecap: square"/>
   </g>
   <g id="patch_6">
    <path d="M 94.5 25.918125 
L 450 25.918125 
" style="fill: none; stroke: #000000; stroke-width: 0.8; stroke-linejoin: miter; stroke-linecap: square"/>
   </g>
   <g id="text_18">
    <text style="font-size: 12px; font-family: 'DejaVu Sans', 'Bitstream Vera Sans', 'Computer Modern Sans Serif', 'Lucida Grande', 'Verdana', 'Geneva', 'Lucid', 'Arial', 'Helvetica', 'Avant Garde', sans-serif; text-anchor: middle" x="272.25" y="19.918125" transform="rotate(-0 272.25 19.918125)">Cumulative regret</text>
   </g>
   <g id="legend_1">
    <g id="patch_7">
     <path d="M 381.673437 299.44375 
L 443 299.44375 
Q 445 299.44375 445 297.44375 
L 445 254.409375 
Q 445 252.409375 443 252.409375 
L 381.673437 252.409375 
Q 379.673437 252.409375 379.673437 254.409375 
L 379.673437 297.44375 
Q 379.673437 299.44375 381.673437 299.44375 
z
" style="fill: #ffffff; opacity: 0.8; stroke: #cccccc; stroke-linejoin: miter"/>
    </g>
    <g id="line2d_34">
     <path d="M 383.673437 260.507812 
L 393.673437 260.507812 
L 403.673437 260.507812 
" style="fill: none; stroke-dasharray: 7.4,3.2; stroke-dashoffset: 0; stroke: #1f77b4; stroke-opacity: 0.7; stroke-width: 2"/>
     <g>
      <use xlink:href="#m753be02651" x="393.673437" y="260.507812" style="fill: #1f77b4; fill-opacity: 0.7; stroke: #1f77b4; stroke-opacity: 0.7"/>
     </g>
    </g>
    <g id="text_19">
     <text style="font-size: 10px; font-family: 'DejaVu Sans', 'Bitstream Vera Sans', 'Computer Modern Sans Serif', 'Lucida Grande', 'Verdana', 'Geneva', 'Lucid', 'Arial', 'Helvetica', 'Avant Garde', sans-serif; text-anchor: start" x="411.673437" y="264.007812" transform="rotate(-0 411.673437 264.007812)">shgo</text>
    </g>
    <g id="line2d_35">
     <path d="M 383.673437 275.185937 
L 393.673437 275.185937 
L 403.673437 275.185937 
" style="fill: none; stroke-dasharray: 7.4,3.2; stroke-dashoffset: 0; stroke: #ff7f0e; stroke-opacity: 0.7; stroke-width: 2"/>
     <g>
      <use xlink:href="#m0cca60dbc1" x="393.673437" y="275.185937" style="fill: #ff7f0e; fill-opacity: 0.7; stroke: #ff7f0e; stroke-opacity: 0.7; stroke-linejoin: miter"/>
     </g>
    </g>
    <g id="text_20">
     <text style="font-size: 10px; font-family: 'DejaVu Sans', 'Bitstream Vera Sans', 'Computer Modern Sans Serif', 'Lucida Grande', 'Verdana', 'Geneva', 'Lucid', 'Arial', 'Helvetica', 'Avant Garde', sans-serif; text-anchor: start" x="411.673437" y="278.685937" transform="rotate(-0 411.673437 278.685937)">sceua</text>
    </g>
    <g id="line2d_36">
     <path d="M 383.673437 289.864062 
L 393.673437 289.864062 
L 403.673437 289.864062 
" style="fill: none; stroke-dasharray: 7.4,3.2; stroke-dashoffset: 0; stroke: #2ca02c; stroke-opacity: 0.7; stroke-width: 2"/>
     <g>
      <use xlink:href="#mcbe65944a5" x="393.673437" y="289.864062" style="fill: #2ca02c; fill-opacity: 0.7; stroke: #2ca02c; stroke-opacity: 0.7"/>
     </g>
    </g>
    <g id="text_21">
     <text style="font-size: 10px; font-family: 'DejaVu Sans', 'Bitstream Vera Sans', 'Computer Modern Sans Serif', 'Lucida Grande', 'Verdana', 'Geneva', 'Lucid', 'Arial', 'Helvetica', 'Avant Garde', sans-serif; text-anchor: start" x="411.673437" y="293.364062" transform="rotate(-0 411.673437 293.364062)">smbo</text>
    </g>
   </g>
  </g>
  <g id="watermark">
   <text style="font-size: 10px; font-family: 'DejaVu Sans', 'Bitstream Vera Sans', 'Computer Modern Sans Serif', 'Lucida Grande', 'Verdana', 'Geneva', 'Lucid', 'Arial', 'Helvetica', 'Avant Garde', sans-serif; text-anchor: start; opacity: 0.01" x="4.608" y="342.144" transform="rotate(-0 4.608 342.144)">Created with SAMBO, https://sambo-optimization.github.io</text>
  </g>
 </g>
 <defs>
  <clipPath id="p277e6c0c98">
   <rect x="94.5" y="25.918125" width="355.5" height="278.525625"/>
  </clipPath>
 </defs>
</svg>
