<?xml version="1.0" encoding="utf-8" standalone="no"?>
<!DOCTYPE svg PUBLIC "-//W3C//DTD SVG 1.1//EN"
  "http://www.w3.org/Graphics/SVG/1.1/DTD/svg11.dtd">
<svg xmlns:xlink="http://www.w3.org/1999/xlink" width="460.8pt" height="345.6pt" viewBox="0 0 460.8 345.6" xmlns="http://www.w3.org/2000/svg" version="1.1">
 <metadata>
  <rdf:RDF xmlns:dc="http://purl.org/dc/elements/1.1/" xmlns:cc="http://creativecommons.org/ns#" xmlns:rdf="http://www.w3.org/1999/02/22-rdf-syntax-ns#">
   <cc:Work>
    <dc:type rdf:resource="http://purl.org/dc/dcmitype/StillImage"/>
    <dc:date>2024-12-21T01:25:52.874749</dc:date>
    <dc:format>image/svg+xml</dc:format>
    <dc:creator>
     <cc:Agent>
      <dc:title>Matplotlib v3.9.2, https://matplotlib.org/</dc:title>
     </cc:Agent>
    </dc:creator>
   </cc:Work>
  </rdf:RDF>
 </metadata>
 <defs>
  <style type="text/css">*{stroke-linejoin: round; stroke-linecap: butt}</style>
 </defs>
 <g id="figure_1">
  <g id="patch_1">
   <path d="M 0 345.6 
L 460.8 345.6 
L 460.8 0 
L 0 0 
z
" style="fill: #ffffff"/>
  </g>
  <g id="axes_1">
   <g id="patch_2">
    <path d="M 94.5 304.44375 
L 450 304.44375 
L 450 25.918125 
L 94.5 25.918125 
z
" style="fill: #ffffff"/>
   </g>
   <g id="matplotlib.axis_1">
    <g id="xtick_1">
     <g id="line2d_1">
      <path d="M 107.943277 304.44375 
L 107.943277 25.918125 
" clip-path="url(#pb27707be57)" style="fill: none; stroke: #b0b0b0; stroke-width: 0.8; stroke-linecap: square"/>
     </g>
     <g id="line2d_2">
      <defs>
       <path id="m53d775e9c2" d="M 0 0 
L 0 3.5 
" style="stroke: #000000; stroke-width: 0.8"/>
      </defs>
      <g>
       <use xlink:href="#m53d775e9c2" x="107.943277" y="304.44375" style="stroke: #000000; stroke-width: 0.8"/>
      </g>
     </g>
     <g id="text_1">
      <!-- 0 -->
      <g transform="translate(104.762027 319.042187) scale(0.1 -0.1)">
       <defs>
        <path id="DejaVuSans-30" d="M 2034 4250 
Q 1547 4250 1301 3770 
Q 1056 3291 1056 2328 
Q 1056 1369 1301 889 
Q 1547 409 2034 409 
Q 2525 409 2770 889 
Q 3016 1369 3016 2328 
Q 3016 3291 2770 3770 
Q 2525 4250 2034 4250 
z
M 2034 4750 
Q 2819 4750 3233 4129 
Q 3647 3509 3647 2328 
Q 3647 1150 3233 529 
Q 2819 -91 2034 -91 
Q 1250 -91 836 529 
Q 422 1150 422 2328 
Q 422 3509 836 4129 
Q 1250 4750 2034 4750 
z
" transform="scale(0.015625)"/>
       </defs>
       <use xlink:href="#DejaVuSans-30"/>
      </g>
     </g>
    </g>
    <g id="xtick_2">
     <g id="line2d_3">
      <path d="M 162.259549 304.44375 
L 162.259549 25.918125 
" clip-path="url(#pb27707be57)" style="fill: none; stroke: #b0b0b0; stroke-width: 0.8; stroke-linecap: square"/>
     </g>
     <g id="line2d_4">
      <g>
       <use xlink:href="#m53d775e9c2" x="162.259549" y="304.44375" style="stroke: #000000; stroke-width: 0.8"/>
      </g>
     </g>
     <g id="text_2">
      <!-- 20 -->
      <g transform="translate(155.897049 319.042187) scale(0.1 -0.1)">
       <defs>
        <path id="DejaVuSans-32" d="M 1228 531 
L 3431 531 
L 3431 0 
L 469 0 
L 469 531 
Q 828 903 1448 1529 
Q 2069 2156 2228 2338 
Q 2531 2678 2651 2914 
Q 2772 3150 2772 3378 
Q 2772 3750 2511 3984 
Q 2250 4219 1831 4219 
Q 1534 4219 1204 4116 
Q 875 4013 500 3803 
L 500 4441 
Q 881 4594 1212 4672 
Q 1544 4750 1819 4750 
Q 2544 4750 2975 4387 
Q 3406 4025 3406 3419 
Q 3406 3131 3298 2873 
Q 3191 2616 2906 2266 
Q 2828 2175 2409 1742 
Q 1991 1309 1228 531 
z
" transform="scale(0.015625)"/>
       </defs>
       <use xlink:href="#DejaVuSans-32"/>
       <use xlink:href="#DejaVuSans-30" x="63.623047"/>
      </g>
     </g>
    </g>
    <g id="xtick_3">
     <g id="line2d_5">
      <path d="M 216.575821 304.44375 
L 216.575821 25.918125 
" clip-path="url(#pb27707be57)" style="fill: none; stroke: #b0b0b0; stroke-width: 0.8; stroke-linecap: square"/>
     </g>
     <g id="line2d_6">
      <g>
       <use xlink:href="#m53d775e9c2" x="216.575821" y="304.44375" style="stroke: #000000; stroke-width: 0.8"/>
      </g>
     </g>
     <g id="text_3">
      <!-- 40 -->
      <g transform="translate(210.213321 319.042187) scale(0.1 -0.1)">
       <defs>
        <path id="DejaVuSans-34" d="M 2419 4116 
L 825 1625 
L 2419 1625 
L 2419 4116 
z
M 2253 4666 
L 3047 4666 
L 3047 1625 
L 3713 1625 
L 3713 1100 
L 3047 1100 
L 3047 0 
L 2419 0 
L 2419 1100 
L 313 1100 
L 313 1709 
L 2253 4666 
z
" transform="scale(0.015625)"/>
       </defs>
       <use xlink:href="#DejaVuSans-34"/>
       <use xlink:href="#DejaVuSans-30" x="63.623047"/>
      </g>
     </g>
    </g>
    <g id="xtick_4">
     <g id="line2d_7">
      <path d="M 270.892093 304.44375 
L 270.892093 25.918125 
" clip-path="url(#pb27707be57)" style="fill: none; stroke: #b0b0b0; stroke-width: 0.8; stroke-linecap: square"/>
     </g>
     <g id="line2d_8">
      <g>
       <use xlink:href="#m53d775e9c2" x="270.892093" y="304.44375" style="stroke: #000000; stroke-width: 0.8"/>
      </g>
     </g>
     <g id="text_4">
      <!-- 60 -->
      <g transform="translate(264.529593 319.042187) scale(0.1 -0.1)">
       <defs>
        <path id="DejaVuSans-36" d="M 2113 2584 
Q 1688 2584 1439 2293 
Q 1191 2003 1191 1497 
Q 1191 994 1439 701 
Q 1688 409 2113 409 
Q 2538 409 2786 701 
Q 3034 994 3034 1497 
Q 3034 2003 2786 2293 
Q 2538 2584 2113 2584 
z
M 3366 4563 
L 3366 3988 
Q 3128 4100 2886 4159 
Q 2644 4219 2406 4219 
Q 1781 4219 1451 3797 
Q 1122 3375 1075 2522 
Q 1259 2794 1537 2939 
Q 1816 3084 2150 3084 
Q 2853 3084 3261 2657 
Q 3669 2231 3669 1497 
Q 3669 778 3244 343 
Q 2819 -91 2113 -91 
Q 1303 -91 875 529 
Q 447 1150 447 2328 
Q 447 3434 972 4092 
Q 1497 4750 2381 4750 
Q 2619 4750 2861 4703 
Q 3103 4656 3366 4563 
z
" transform="scale(0.015625)"/>
       </defs>
       <use xlink:href="#DejaVuSans-36"/>
       <use xlink:href="#DejaVuSans-30" x="63.623047"/>
      </g>
     </g>
    </g>
    <g id="xtick_5">
     <g id="line2d_9">
      <path d="M 325.208365 304.44375 
L 325.208365 25.918125 
" clip-path="url(#pb27707be57)" style="fill: none; stroke: #b0b0b0; stroke-width: 0.8; stroke-linecap: square"/>
     </g>
     <g id="line2d_10">
      <g>
       <use xlink:href="#m53d775e9c2" x="325.208365" y="304.44375" style="stroke: #000000; stroke-width: 0.8"/>
      </g>
     </g>
     <g id="text_5">
      <!-- 80 -->
      <g transform="translate(318.845865 319.042187) scale(0.1 -0.1)">
       <defs>
        <path id="DejaVuSans-38" d="M 2034 2216 
Q 1584 2216 1326 1975 
Q 1069 1734 1069 1313 
Q 1069 891 1326 650 
Q 1584 409 2034 409 
Q 2484 409 2743 651 
Q 3003 894 3003 1313 
Q 3003 1734 2745 1975 
Q 2488 2216 2034 2216 
z
M 1403 2484 
Q 997 2584 770 2862 
Q 544 3141 544 3541 
Q 544 4100 942 4425 
Q 1341 4750 2034 4750 
Q 2731 4750 3128 4425 
Q 3525 4100 3525 3541 
Q 3525 3141 3298 2862 
Q 3072 2584 2669 2484 
Q 3125 2378 3379 2068 
Q 3634 1759 3634 1313 
Q 3634 634 3220 271 
Q 2806 -91 2034 -91 
Q 1263 -91 848 271 
Q 434 634 434 1313 
Q 434 1759 690 2068 
Q 947 2378 1403 2484 
z
M 1172 3481 
Q 1172 3119 1398 2916 
Q 1625 2713 2034 2713 
Q 2441 2713 2670 2916 
Q 2900 3119 2900 3481 
Q 2900 3844 2670 4047 
Q 2441 4250 2034 4250 
Q 1625 4250 1398 4047 
Q 1172 3844 1172 3481 
z
" transform="scale(0.015625)"/>
       </defs>
       <use xlink:href="#DejaVuSans-38"/>
       <use xlink:href="#DejaVuSans-30" x="63.623047"/>
      </g>
     </g>
    </g>
    <g id="xtick_6">
     <g id="line2d_11">
      <path d="M 379.524637 304.44375 
L 379.524637 25.918125 
" clip-path="url(#pb27707be57)" style="fill: none; stroke: #b0b0b0; stroke-width: 0.8; stroke-linecap: square"/>
     </g>
     <g id="line2d_12">
      <g>
       <use xlink:href="#m53d775e9c2" x="379.524637" y="304.44375" style="stroke: #000000; stroke-width: 0.8"/>
      </g>
     </g>
     <g id="text_6">
      <!-- 100 -->
      <g transform="translate(369.980887 319.042187) scale(0.1 -0.1)">
       <defs>
        <path id="DejaVuSans-31" d="M 794 531 
L 1825 531 
L 1825 4091 
L 703 3866 
L 703 4441 
L 1819 4666 
L 2450 4666 
L 2450 531 
L 3481 531 
L 3481 0 
L 794 0 
L 794 531 
z
" transform="scale(0.015625)"/>
       </defs>
       <use xlink:href="#DejaVuSans-31"/>
       <use xlink:href="#DejaVuSans-30" x="63.623047"/>
       <use xlink:href="#DejaVuSans-30" x="127.246094"/>
      </g>
     </g>
    </g>
    <g id="xtick_7">
     <g id="line2d_13">
      <path d="M 433.840909 304.44375 
L 433.840909 25.918125 
" clip-path="url(#pb27707be57)" style="fill: none; stroke: #b0b0b0; stroke-width: 0.8; stroke-linecap: square"/>
     </g>
     <g id="line2d_14">
      <g>
       <use xlink:href="#m53d775e9c2" x="433.840909" y="304.44375" style="stroke: #000000; stroke-width: 0.8"/>
      </g>
     </g>
     <g id="text_7">
      <!-- 120 -->
      <g transform="translate(424.297159 319.042187) scale(0.1 -0.1)">
       <use xlink:href="#DejaVuSans-31"/>
       <use xlink:href="#DejaVuSans-32" x="63.623047"/>
       <use xlink:href="#DejaVuSans-30" x="127.246094"/>
      </g>
     </g>
    </g>
    <g id="text_8">
     <!-- Number of function evaluations $n$ -->
     <g transform="translate(188.45 332.720312) scale(0.1 -0.1)">
      <defs>
       <path id="DejaVuSans-4e" d="M 628 4666 
L 1478 4666 
L 3547 763 
L 3547 4666 
L 4159 4666 
L 4159 0 
L 3309 0 
L 1241 3903 
L 1241 0 
L 628 0 
L 628 4666 
z
" transform="scale(0.015625)"/>
       <path id="DejaVuSans-75" d="M 544 1381 
L 544 3500 
L 1119 3500 
L 1119 1403 
Q 1119 906 1312 657 
Q 1506 409 1894 409 
Q 2359 409 2629 706 
Q 2900 1003 2900 1516 
L 2900 3500 
L 3475 3500 
L 3475 0 
L 2900 0 
L 2900 538 
Q 2691 219 2414 64 
Q 2138 -91 1772 -91 
Q 1169 -91 856 284 
Q 544 659 544 1381 
z
M 1991 3584 
L 1991 3584 
z
" transform="scale(0.015625)"/>
       <path id="DejaVuSans-6d" d="M 3328 2828 
Q 3544 3216 3844 3400 
Q 4144 3584 4550 3584 
Q 5097 3584 5394 3201 
Q 5691 2819 5691 2113 
L 5691 0 
L 5113 0 
L 5113 2094 
Q 5113 2597 4934 2840 
Q 4756 3084 4391 3084 
Q 3944 3084 3684 2787 
Q 3425 2491 3425 1978 
L 3425 0 
L 2847 0 
L 2847 2094 
Q 2847 2600 2669 2842 
Q 2491 3084 2119 3084 
Q 1678 3084 1418 2786 
Q 1159 2488 1159 1978 
L 1159 0 
L 581 0 
L 581 3500 
L 1159 3500 
L 1159 2956 
Q 1356 3278 1631 3431 
Q 1906 3584 2284 3584 
Q 2666 3584 2933 3390 
Q 3200 3197 3328 2828 
z
" transform="scale(0.015625)"/>
       <path id="DejaVuSans-62" d="M 3116 1747 
Q 3116 2381 2855 2742 
Q 2594 3103 2138 3103 
Q 1681 3103 1420 2742 
Q 1159 2381 1159 1747 
Q 1159 1113 1420 752 
Q 1681 391 2138 391 
Q 2594 391 2855 752 
Q 3116 1113 3116 1747 
z
M 1159 2969 
Q 1341 3281 1617 3432 
Q 1894 3584 2278 3584 
Q 2916 3584 3314 3078 
Q 3713 2572 3713 1747 
Q 3713 922 3314 415 
Q 2916 -91 2278 -91 
Q 1894 -91 1617 61 
Q 1341 213 1159 525 
L 1159 0 
L 581 0 
L 581 4863 
L 1159 4863 
L 1159 2969 
z
" transform="scale(0.015625)"/>
       <path id="DejaVuSans-65" d="M 3597 1894 
L 3597 1613 
L 953 1613 
Q 991 1019 1311 708 
Q 1631 397 2203 397 
Q 2534 397 2845 478 
Q 3156 559 3463 722 
L 3463 178 
Q 3153 47 2828 -22 
Q 2503 -91 2169 -91 
Q 1331 -91 842 396 
Q 353 884 353 1716 
Q 353 2575 817 3079 
Q 1281 3584 2069 3584 
Q 2775 3584 3186 3129 
Q 3597 2675 3597 1894 
z
M 3022 2063 
Q 3016 2534 2758 2815 
Q 2500 3097 2075 3097 
Q 1594 3097 1305 2825 
Q 1016 2553 972 2059 
L 3022 2063 
z
" transform="scale(0.015625)"/>
       <path id="DejaVuSans-72" d="M 2631 2963 
Q 2534 3019 2420 3045 
Q 2306 3072 2169 3072 
Q 1681 3072 1420 2755 
Q 1159 2438 1159 1844 
L 1159 0 
L 581 0 
L 581 3500 
L 1159 3500 
L 1159 2956 
Q 1341 3275 1631 3429 
Q 1922 3584 2338 3584 
Q 2397 3584 2469 3576 
Q 2541 3569 2628 3553 
L 2631 2963 
z
" transform="scale(0.015625)"/>
       <path id="DejaVuSans-20" transform="scale(0.015625)"/>
       <path id="DejaVuSans-6f" d="M 1959 3097 
Q 1497 3097 1228 2736 
Q 959 2375 959 1747 
Q 959 1119 1226 758 
Q 1494 397 1959 397 
Q 2419 397 2687 759 
Q 2956 1122 2956 1747 
Q 2956 2369 2687 2733 
Q 2419 3097 1959 3097 
z
M 1959 3584 
Q 2709 3584 3137 3096 
Q 3566 2609 3566 1747 
Q 3566 888 3137 398 
Q 2709 -91 1959 -91 
Q 1206 -91 779 398 
Q 353 888 353 1747 
Q 353 2609 779 3096 
Q 1206 3584 1959 3584 
z
" transform="scale(0.015625)"/>
       <path id="DejaVuSans-66" d="M 2375 4863 
L 2375 4384 
L 1825 4384 
Q 1516 4384 1395 4259 
Q 1275 4134 1275 3809 
L 1275 3500 
L 2222 3500 
L 2222 3053 
L 1275 3053 
L 1275 0 
L 697 0 
L 697 3053 
L 147 3053 
L 147 3500 
L 697 3500 
L 697 3744 
Q 697 4328 969 4595 
Q 1241 4863 1831 4863 
L 2375 4863 
z
" transform="scale(0.015625)"/>
       <path id="DejaVuSans-6e" d="M 3513 2113 
L 3513 0 
L 2938 0 
L 2938 2094 
Q 2938 2591 2744 2837 
Q 2550 3084 2163 3084 
Q 1697 3084 1428 2787 
Q 1159 2491 1159 1978 
L 1159 0 
L 581 0 
L 581 3500 
L 1159 3500 
L 1159 2956 
Q 1366 3272 1645 3428 
Q 1925 3584 2291 3584 
Q 2894 3584 3203 3211 
Q 3513 2838 3513 2113 
z
" transform="scale(0.015625)"/>
       <path id="DejaVuSans-63" d="M 3122 3366 
L 3122 2828 
Q 2878 2963 2633 3030 
Q 2388 3097 2138 3097 
Q 1578 3097 1268 2742 
Q 959 2388 959 1747 
Q 959 1106 1268 751 
Q 1578 397 2138 397 
Q 2388 397 2633 464 
Q 2878 531 3122 666 
L 3122 134 
Q 2881 22 2623 -34 
Q 2366 -91 2075 -91 
Q 1284 -91 818 406 
Q 353 903 353 1747 
Q 353 2603 823 3093 
Q 1294 3584 2113 3584 
Q 2378 3584 2631 3529 
Q 2884 3475 3122 3366 
z
" transform="scale(0.015625)"/>
       <path id="DejaVuSans-74" d="M 1172 4494 
L 1172 3500 
L 2356 3500 
L 2356 3053 
L 1172 3053 
L 1172 1153 
Q 1172 725 1289 603 
Q 1406 481 1766 481 
L 2356 481 
L 2356 0 
L 1766 0 
Q 1100 0 847 248 
Q 594 497 594 1153 
L 594 3053 
L 172 3053 
L 172 3500 
L 594 3500 
L 594 4494 
L 1172 4494 
z
" transform="scale(0.015625)"/>
       <path id="DejaVuSans-69" d="M 603 3500 
L 1178 3500 
L 1178 0 
L 603 0 
L 603 3500 
z
M 603 4863 
L 1178 4863 
L 1178 4134 
L 603 4134 
L 603 4863 
z
" transform="scale(0.015625)"/>
       <path id="DejaVuSans-76" d="M 191 3500 
L 800 3500 
L 1894 563 
L 2988 3500 
L 3597 3500 
L 2284 0 
L 1503 0 
L 191 3500 
z
" transform="scale(0.015625)"/>
       <path id="DejaVuSans-61" d="M 2194 1759 
Q 1497 1759 1228 1600 
Q 959 1441 959 1056 
Q 959 750 1161 570 
Q 1363 391 1709 391 
Q 2188 391 2477 730 
Q 2766 1069 2766 1631 
L 2766 1759 
L 2194 1759 
z
M 3341 1997 
L 3341 0 
L 2766 0 
L 2766 531 
Q 2569 213 2275 61 
Q 1981 -91 1556 -91 
Q 1019 -91 701 211 
Q 384 513 384 1019 
Q 384 1609 779 1909 
Q 1175 2209 1959 2209 
L 2766 2209 
L 2766 2266 
Q 2766 2663 2505 2880 
Q 2244 3097 1772 3097 
Q 1472 3097 1187 3025 
Q 903 2953 641 2809 
L 641 3341 
Q 956 3463 1253 3523 
Q 1550 3584 1831 3584 
Q 2591 3584 2966 3190 
Q 3341 2797 3341 1997 
z
" transform="scale(0.015625)"/>
       <path id="DejaVuSans-6c" d="M 603 4863 
L 1178 4863 
L 1178 0 
L 603 0 
L 603 4863 
z
" transform="scale(0.015625)"/>
       <path id="DejaVuSans-73" d="M 2834 3397 
L 2834 2853 
Q 2591 2978 2328 3040 
Q 2066 3103 1784 3103 
Q 1356 3103 1142 2972 
Q 928 2841 928 2578 
Q 928 2378 1081 2264 
Q 1234 2150 1697 2047 
L 1894 2003 
Q 2506 1872 2764 1633 
Q 3022 1394 3022 966 
Q 3022 478 2636 193 
Q 2250 -91 1575 -91 
Q 1294 -91 989 -36 
Q 684 19 347 128 
L 347 722 
Q 666 556 975 473 
Q 1284 391 1588 391 
Q 1994 391 2212 530 
Q 2431 669 2431 922 
Q 2431 1156 2273 1281 
Q 2116 1406 1581 1522 
L 1381 1569 
Q 847 1681 609 1914 
Q 372 2147 372 2553 
Q 372 3047 722 3315 
Q 1072 3584 1716 3584 
Q 2034 3584 2315 3537 
Q 2597 3491 2834 3397 
z
" transform="scale(0.015625)"/>
       <path id="DejaVuSans-Oblique-6e" d="M 3566 2113 
L 3156 0 
L 2578 0 
L 2988 2091 
Q 3016 2238 3031 2350 
Q 3047 2463 3047 2528 
Q 3047 2791 2881 2937 
Q 2716 3084 2419 3084 
Q 1956 3084 1622 2776 
Q 1288 2469 1184 1941 
L 800 0 
L 225 0 
L 903 3500 
L 1478 3500 
L 1363 2950 
Q 1603 3253 1940 3418 
Q 2278 3584 2650 3584 
Q 3113 3584 3367 3334 
Q 3622 3084 3622 2631 
Q 3622 2519 3608 2391 
Q 3594 2263 3566 2113 
z
" transform="scale(0.015625)"/>
      </defs>
      <use xlink:href="#DejaVuSans-4e" transform="translate(0 0.015625)"/>
      <use xlink:href="#DejaVuSans-75" transform="translate(74.804688 0.015625)"/>
      <use xlink:href="#DejaVuSans-6d" transform="translate(138.183594 0.015625)"/>
      <use xlink:href="#DejaVuSans-62" transform="translate(235.595703 0.015625)"/>
      <use xlink:href="#DejaVuSans-65" transform="translate(299.072266 0.015625)"/>
      <use xlink:href="#DejaVuSans-72" transform="translate(360.595703 0.015625)"/>
      <use xlink:href="#DejaVuSans-20" transform="translate(401.708984 0.015625)"/>
      <use xlink:href="#DejaVuSans-6f" transform="translate(433.496094 0.015625)"/>
      <use xlink:href="#DejaVuSans-66" transform="translate(494.677734 0.015625)"/>
      <use xlink:href="#DejaVuSans-20" transform="translate(529.882812 0.015625)"/>
      <use xlink:href="#DejaVuSans-66" transform="translate(561.669922 0.015625)"/>
      <use xlink:href="#DejaVuSans-75" transform="translate(596.875 0.015625)"/>
      <use xlink:href="#DejaVuSans-6e" transform="translate(660.253906 0.015625)"/>
      <use xlink:href="#DejaVuSans-63" transform="translate(723.632812 0.015625)"/>
      <use xlink:href="#DejaVuSans-74" transform="translate(778.613281 0.015625)"/>
      <use xlink:href="#DejaVuSans-69" transform="translate(817.822266 0.015625)"/>
      <use xlink:href="#DejaVuSans-6f" transform="translate(845.605469 0.015625)"/>
      <use xlink:href="#DejaVuSans-6e" transform="translate(906.787109 0.015625)"/>
      <use xlink:href="#DejaVuSans-20" transform="translate(970.166016 0.015625)"/>
      <use xlink:href="#DejaVuSans-65" transform="translate(1001.953125 0.015625)"/>
      <use xlink:href="#DejaVuSans-76" transform="translate(1063.476562 0.015625)"/>
      <use xlink:href="#DejaVuSans-61" transform="translate(1122.65625 0.015625)"/>
      <use xlink:href="#DejaVuSans-6c" transform="translate(1183.935547 0.015625)"/>
      <use xlink:href="#DejaVuSans-75" transform="translate(1211.71875 0.015625)"/>
      <use xlink:href="#DejaVuSans-61" transform="translate(1275.097656 0.015625)"/>
      <use xlink:href="#DejaVuSans-74" transform="translate(1336.376953 0.015625)"/>
      <use xlink:href="#DejaVuSans-69" transform="translate(1375.585938 0.015625)"/>
      <use xlink:href="#DejaVuSans-6f" transform="translate(1403.369141 0.015625)"/>
      <use xlink:href="#DejaVuSans-6e" transform="translate(1464.550781 0.015625)"/>
      <use xlink:href="#DejaVuSans-73" transform="translate(1527.929688 0.015625)"/>
      <use xlink:href="#DejaVuSans-20" transform="translate(1580.029297 0.015625)"/>
      <use xlink:href="#DejaVuSans-Oblique-6e" transform="translate(1611.816406 0.015625)"/>
     </g>
    </g>
   </g>
   <g id="matplotlib.axis_2">
    <g id="ytick_1">
     <g id="line2d_15">
      <path d="M 94.5 291.847957 
L 450 291.847957 
" clip-path="url(#pb27707be57)" style="fill: none; stroke: #b0b0b0; stroke-width: 0.8; stroke-linecap: square"/>
     </g>
     <g id="line2d_16">
      <defs>
       <path id="m9f8f473eb5" d="M 0 0 
L -3.5 0 
" style="stroke: #000000; stroke-width: 0.8"/>
      </defs>
      <g>
       <use xlink:href="#m9f8f473eb5" x="94.5" y="291.847957" style="stroke: #000000; stroke-width: 0.8"/>
      </g>
     </g>
     <g id="text_9">
      <!-- $0$ -->
      <g transform="translate(81.1 295.647176) scale(0.1 -0.1)">
       <use xlink:href="#DejaVuSans-30" transform="translate(0 0.78125)"/>
      </g>
     </g>
    </g>
    <g id="ytick_2">
     <g id="line2d_17">
      <path d="M 94.5 253.928464 
L 450 253.928464 
" clip-path="url(#pb27707be57)" style="fill: none; stroke: #b0b0b0; stroke-width: 0.8; stroke-linecap: square"/>
     </g>
     <g id="line2d_18">
      <g>
       <use xlink:href="#m9f8f473eb5" x="94.5" y="253.928464" style="stroke: #000000; stroke-width: 0.8"/>
      </g>
     </g>
     <g id="text_10">
      <!-- $5e+03$ -->
      <g transform="translate(49.9 257.727683) scale(0.1 -0.1)">
       <defs>
        <path id="DejaVuSans-35" d="M 691 4666 
L 3169 4666 
L 3169 4134 
L 1269 4134 
L 1269 2991 
Q 1406 3038 1543 3061 
Q 1681 3084 1819 3084 
Q 2600 3084 3056 2656 
Q 3513 2228 3513 1497 
Q 3513 744 3044 326 
Q 2575 -91 1722 -91 
Q 1428 -91 1123 -41 
Q 819 9 494 109 
L 494 744 
Q 775 591 1075 516 
Q 1375 441 1709 441 
Q 2250 441 2565 725 
Q 2881 1009 2881 1497 
Q 2881 1984 2565 2268 
Q 2250 2553 1709 2553 
Q 1456 2553 1204 2497 
Q 953 2441 691 2322 
L 691 4666 
z
" transform="scale(0.015625)"/>
        <path id="DejaVuSans-Oblique-65" d="M 3078 2063 
Q 3088 2113 3092 2166 
Q 3097 2219 3097 2272 
Q 3097 2653 2873 2875 
Q 2650 3097 2266 3097 
Q 1838 3097 1509 2826 
Q 1181 2556 1013 2059 
L 3078 2063 
z
M 3578 1613 
L 903 1613 
Q 884 1494 878 1425 
Q 872 1356 872 1306 
Q 872 872 1139 634 
Q 1406 397 1894 397 
Q 2269 397 2603 481 
Q 2938 566 3225 728 
L 3116 159 
Q 2806 34 2476 -28 
Q 2147 -91 1806 -91 
Q 1078 -91 686 257 
Q 294 606 294 1247 
Q 294 1794 489 2264 
Q 684 2734 1063 3103 
Q 1306 3334 1642 3459 
Q 1978 3584 2356 3584 
Q 2950 3584 3301 3228 
Q 3653 2872 3653 2272 
Q 3653 2128 3634 1964 
Q 3616 1800 3578 1613 
z
" transform="scale(0.015625)"/>
        <path id="DejaVuSans-2b" d="M 2944 4013 
L 2944 2272 
L 4684 2272 
L 4684 1741 
L 2944 1741 
L 2944 0 
L 2419 0 
L 2419 1741 
L 678 1741 
L 678 2272 
L 2419 2272 
L 2419 4013 
L 2944 4013 
z
" transform="scale(0.015625)"/>
        <path id="DejaVuSans-33" d="M 2597 2516 
Q 3050 2419 3304 2112 
Q 3559 1806 3559 1356 
Q 3559 666 3084 287 
Q 2609 -91 1734 -91 
Q 1441 -91 1130 -33 
Q 819 25 488 141 
L 488 750 
Q 750 597 1062 519 
Q 1375 441 1716 441 
Q 2309 441 2620 675 
Q 2931 909 2931 1356 
Q 2931 1769 2642 2001 
Q 2353 2234 1838 2234 
L 1294 2234 
L 1294 2753 
L 1863 2753 
Q 2328 2753 2575 2939 
Q 2822 3125 2822 3475 
Q 2822 3834 2567 4026 
Q 2313 4219 1838 4219 
Q 1578 4219 1281 4162 
Q 984 4106 628 3988 
L 628 4550 
Q 988 4650 1302 4700 
Q 1616 4750 1894 4750 
Q 2613 4750 3031 4423 
Q 3450 4097 3450 3541 
Q 3450 3153 3228 2886 
Q 3006 2619 2597 2516 
z
" transform="scale(0.015625)"/>
       </defs>
       <use xlink:href="#DejaVuSans-35" transform="translate(0 0.78125)"/>
       <use xlink:href="#DejaVuSans-Oblique-65" transform="translate(63.623047 0.78125)"/>
       <use xlink:href="#DejaVuSans-2b" transform="translate(144.628906 0.78125)"/>
       <use xlink:href="#DejaVuSans-30" transform="translate(247.900391 0.78125)"/>
       <use xlink:href="#DejaVuSans-33" transform="translate(311.523438 0.78125)"/>
      </g>
     </g>
    </g>
    <g id="ytick_3">
     <g id="line2d_19">
      <path d="M 94.5 216.008971 
L 450 216.008971 
" clip-path="url(#pb27707be57)" style="fill: none; stroke: #b0b0b0; stroke-width: 0.8; stroke-linecap: square"/>
     </g>
     <g id="line2d_20">
      <g>
       <use xlink:href="#m9f8f473eb5" x="94.5" y="216.008971" style="stroke: #000000; stroke-width: 0.8"/>
      </g>
     </g>
     <g id="text_11">
      <!-- $1e+04$ -->
      <g transform="translate(49.9 219.80819) scale(0.1 -0.1)">
       <use xlink:href="#DejaVuSans-31" transform="translate(0 0.78125)"/>
       <use xlink:href="#DejaVuSans-Oblique-65" transform="translate(63.623047 0.78125)"/>
       <use xlink:href="#DejaVuSans-2b" transform="translate(144.628906 0.78125)"/>
       <use xlink:href="#DejaVuSans-30" transform="translate(247.900391 0.78125)"/>
       <use xlink:href="#DejaVuSans-34" transform="translate(311.523438 0.78125)"/>
      </g>
     </g>
    </g>
    <g id="ytick_4">
     <g id="line2d_21">
      <path d="M 94.5 178.089478 
L 450 178.089478 
" clip-path="url(#pb27707be57)" style="fill: none; stroke: #b0b0b0; stroke-width: 0.8; stroke-linecap: square"/>
     </g>
     <g id="line2d_22">
      <g>
       <use xlink:href="#m9f8f473eb5" x="94.5" y="178.089478" style="stroke: #000000; stroke-width: 0.8"/>
      </g>
     </g>
     <g id="text_12">
      <!-- $1.5e+04$ -->
      <g transform="translate(40.4 181.888697) scale(0.1 -0.1)">
       <defs>
        <path id="DejaVuSans-2e" d="M 684 794 
L 1344 794 
L 1344 0 
L 684 0 
L 684 794 
z
" transform="scale(0.015625)"/>
       </defs>
       <use xlink:href="#DejaVuSans-31" transform="translate(0 0.78125)"/>
       <use xlink:href="#DejaVuSans-2e" transform="translate(63.623047 0.78125)"/>
       <use xlink:href="#DejaVuSans-35" transform="translate(95.410156 0.78125)"/>
       <use xlink:href="#DejaVuSans-Oblique-65" transform="translate(159.033203 0.78125)"/>
       <use xlink:href="#DejaVuSans-2b" transform="translate(240.039062 0.78125)"/>
       <use xlink:href="#DejaVuSans-30" transform="translate(343.310547 0.78125)"/>
       <use xlink:href="#DejaVuSans-34" transform="translate(406.933594 0.78125)"/>
      </g>
     </g>
    </g>
    <g id="ytick_5">
     <g id="line2d_23">
      <path d="M 94.5 140.169985 
L 450 140.169985 
" clip-path="url(#pb27707be57)" style="fill: none; stroke: #b0b0b0; stroke-width: 0.8; stroke-linecap: square"/>
     </g>
     <g id="line2d_24">
      <g>
       <use xlink:href="#m9f8f473eb5" x="94.5" y="140.169985" style="stroke: #000000; stroke-width: 0.8"/>
      </g>
     </g>
     <g id="text_13">
      <!-- $2e+04$ -->
      <g transform="translate(49.9 143.969204) scale(0.1 -0.1)">
       <use xlink:href="#DejaVuSans-32" transform="translate(0 0.78125)"/>
       <use xlink:href="#DejaVuSans-Oblique-65" transform="translate(63.623047 0.78125)"/>
       <use xlink:href="#DejaVuSans-2b" transform="translate(144.628906 0.78125)"/>
       <use xlink:href="#DejaVuSans-30" transform="translate(247.900391 0.78125)"/>
       <use xlink:href="#DejaVuSans-34" transform="translate(311.523438 0.78125)"/>
      </g>
     </g>
    </g>
    <g id="ytick_6">
     <g id="line2d_25">
      <path d="M 94.5 102.250492 
L 450 102.250492 
" clip-path="url(#pb27707be57)" style="fill: none; stroke: #b0b0b0; stroke-width: 0.8; stroke-linecap: square"/>
     </g>
     <g id="line2d_26">
      <g>
       <use xlink:href="#m9f8f473eb5" x="94.5" y="102.250492" style="stroke: #000000; stroke-width: 0.8"/>
      </g>
     </g>
     <g id="text_14">
      <!-- $2.5e+04$ -->
      <g transform="translate(40.4 106.049711) scale(0.1 -0.1)">
       <use xlink:href="#DejaVuSans-32" transform="translate(0 0.78125)"/>
       <use xlink:href="#DejaVuSans-2e" transform="translate(63.623047 0.78125)"/>
       <use xlink:href="#DejaVuSans-35" transform="translate(95.410156 0.78125)"/>
       <use xlink:href="#DejaVuSans-Oblique-65" transform="translate(159.033203 0.78125)"/>
       <use xlink:href="#DejaVuSans-2b" transform="translate(240.039062 0.78125)"/>
       <use xlink:href="#DejaVuSans-30" transform="translate(343.310547 0.78125)"/>
       <use xlink:href="#DejaVuSans-34" transform="translate(406.933594 0.78125)"/>
      </g>
     </g>
    </g>
    <g id="ytick_7">
     <g id="line2d_27">
      <path d="M 94.5 64.330999 
L 450 64.330999 
" clip-path="url(#pb27707be57)" style="fill: none; stroke: #b0b0b0; stroke-width: 0.8; stroke-linecap: square"/>
     </g>
     <g id="line2d_28">
      <g>
       <use xlink:href="#m9f8f473eb5" x="94.5" y="64.330999" style="stroke: #000000; stroke-width: 0.8"/>
      </g>
     </g>
     <g id="text_15">
      <!-- $3e+04$ -->
      <g transform="translate(49.9 68.130218) scale(0.1 -0.1)">
       <use xlink:href="#DejaVuSans-33" transform="translate(0 0.78125)"/>
       <use xlink:href="#DejaVuSans-Oblique-65" transform="translate(63.623047 0.78125)"/>
       <use xlink:href="#DejaVuSans-2b" transform="translate(144.628906 0.78125)"/>
       <use xlink:href="#DejaVuSans-30" transform="translate(247.900391 0.78125)"/>
       <use xlink:href="#DejaVuSans-34" transform="translate(311.523438 0.78125)"/>
      </g>
     </g>
    </g>
    <g id="ytick_8">
     <g id="line2d_29">
      <path d="M 94.5 26.411506 
L 450 26.411506 
" clip-path="url(#pb27707be57)" style="fill: none; stroke: #b0b0b0; stroke-width: 0.8; stroke-linecap: square"/>
     </g>
     <g id="line2d_30">
      <g>
       <use xlink:href="#m9f8f473eb5" x="94.5" y="26.411506" style="stroke: #000000; stroke-width: 0.8"/>
      </g>
     </g>
     <g id="text_16">
      <!-- $3.5e+04$ -->
      <g transform="translate(40.4 30.210725) scale(0.1 -0.1)">
       <use xlink:href="#DejaVuSans-33" transform="translate(0 0.78125)"/>
       <use xlink:href="#DejaVuSans-2e" transform="translate(63.623047 0.78125)"/>
       <use xlink:href="#DejaVuSans-35" transform="translate(95.410156 0.78125)"/>
       <use xlink:href="#DejaVuSans-Oblique-65" transform="translate(159.033203 0.78125)"/>
       <use xlink:href="#DejaVuSans-2b" transform="translate(240.039062 0.78125)"/>
       <use xlink:href="#DejaVuSans-30" transform="translate(343.310547 0.78125)"/>
       <use xlink:href="#DejaVuSans-34" transform="translate(406.933594 0.78125)"/>
      </g>
     </g>
    </g>
    <g id="text_17">
     <!-- Cumulative regret after $n$ evaluations: $\ \sum_t^n{\,\left[\,f\,\left(x_t\right) - f_{\mathrm{opt}}\,\right]}$ -->
     <g transform="translate(26.8 299.380937) rotate(-90) scale(0.1 -0.1)">
      <defs>
       <path id="DejaVuSans-43" d="M 4122 4306 
L 4122 3641 
Q 3803 3938 3442 4084 
Q 3081 4231 2675 4231 
Q 1875 4231 1450 3742 
Q 1025 3253 1025 2328 
Q 1025 1406 1450 917 
Q 1875 428 2675 428 
Q 3081 428 3442 575 
Q 3803 722 4122 1019 
L 4122 359 
Q 3791 134 3420 21 
Q 3050 -91 2638 -91 
Q 1578 -91 968 557 
Q 359 1206 359 2328 
Q 359 3453 968 4101 
Q 1578 4750 2638 4750 
Q 3056 4750 3426 4639 
Q 3797 4528 4122 4306 
z
" transform="scale(0.015625)"/>
       <path id="DejaVuSans-67" d="M 2906 1791 
Q 2906 2416 2648 2759 
Q 2391 3103 1925 3103 
Q 1463 3103 1205 2759 
Q 947 2416 947 1791 
Q 947 1169 1205 825 
Q 1463 481 1925 481 
Q 2391 481 2648 825 
Q 2906 1169 2906 1791 
z
M 3481 434 
Q 3481 -459 3084 -895 
Q 2688 -1331 1869 -1331 
Q 1566 -1331 1297 -1286 
Q 1028 -1241 775 -1147 
L 775 -588 
Q 1028 -725 1275 -790 
Q 1522 -856 1778 -856 
Q 2344 -856 2625 -561 
Q 2906 -266 2906 331 
L 2906 616 
Q 2728 306 2450 153 
Q 2172 0 1784 0 
Q 1141 0 747 490 
Q 353 981 353 1791 
Q 353 2603 747 3093 
Q 1141 3584 1784 3584 
Q 2172 3584 2450 3431 
Q 2728 3278 2906 2969 
L 2906 3500 
L 3481 3500 
L 3481 434 
z
" transform="scale(0.015625)"/>
       <path id="DejaVuSans-3a" d="M 750 794 
L 1409 794 
L 1409 0 
L 750 0 
L 750 794 
z
M 750 3309 
L 1409 3309 
L 1409 2516 
L 750 2516 
L 750 3309 
z
" transform="scale(0.015625)"/>
       <path id="DejaVuSansDisplay-2211" d="M 244 6509 
L 5803 6509 
L 5803 5656 
L 1566 5656 
L 4534 2488 
L 1469 -888 
L 5919 -888 
L 5919 -1738 
L 109 -1738 
L 109 -1078 
L 3316 2463 
L 244 5728 
L 244 6509 
z
" transform="scale(0.015625)"/>
       <path id="DejaVuSans-Oblique-74" d="M 2706 3500 
L 2619 3053 
L 1472 3053 
L 1100 1153 
Q 1081 1047 1072 975 
Q 1063 903 1063 863 
Q 1063 663 1183 572 
Q 1303 481 1569 481 
L 2150 481 
L 2053 0 
L 1503 0 
Q 991 0 739 200 
Q 488 400 488 806 
Q 488 878 497 964 
Q 506 1050 525 1153 
L 897 3053 
L 409 3053 
L 500 3500 
L 978 3500 
L 1172 4494 
L 1747 4494 
L 1556 3500 
L 2706 3500 
z
" transform="scale(0.015625)"/>
       <path id="STIXSizeOneSym-Regular-5b" d="M 2323 -1050 
L 1152 -1050 
L 1152 6822 
L 2323 6822 
L 2323 6611 
L 1600 6611 
L 1600 -838 
L 2323 -838 
L 2323 -1050 
z
" transform="scale(0.015625)"/>
       <path id="DejaVuSans-Oblique-66" d="M 3059 4863 
L 2969 4384 
L 2419 4384 
Q 2106 4384 1964 4261 
Q 1822 4138 1753 3809 
L 1691 3500 
L 2638 3500 
L 2553 3053 
L 1606 3053 
L 1013 0 
L 434 0 
L 1031 3053 
L 481 3053 
L 563 3500 
L 1113 3500 
L 1159 3744 
Q 1278 4363 1576 4613 
Q 1875 4863 2516 4863 
L 3059 4863 
z
" transform="scale(0.015625)"/>
       <path id="DejaVuSans-28" d="M 1984 4856 
Q 1566 4138 1362 3434 
Q 1159 2731 1159 2009 
Q 1159 1288 1364 580 
Q 1569 -128 1984 -844 
L 1484 -844 
Q 1016 -109 783 600 
Q 550 1309 550 2009 
Q 550 2706 781 3412 
Q 1013 4119 1484 4856 
L 1984 4856 
z
" transform="scale(0.015625)"/>
       <path id="DejaVuSans-Oblique-78" d="M 3841 3500 
L 2234 1784 
L 3219 0 
L 2559 0 
L 1819 1388 
L 531 0 
L -166 0 
L 1556 1844 
L 641 3500 
L 1300 3500 
L 1972 2234 
L 3144 3500 
L 3841 3500 
z
" transform="scale(0.015625)"/>
       <path id="DejaVuSans-29" d="M 513 4856 
L 1013 4856 
Q 1481 4119 1714 3412 
Q 1947 2706 1947 2009 
Q 1947 1309 1714 600 
Q 1481 -109 1013 -844 
L 513 -844 
Q 928 -128 1133 580 
Q 1338 1288 1338 2009 
Q 1338 2731 1133 3434 
Q 928 4138 513 4856 
z
" transform="scale(0.015625)"/>
       <path id="DejaVuSans-2212" d="M 678 2272 
L 4684 2272 
L 4684 1741 
L 678 1741 
L 678 2272 
z
" transform="scale(0.015625)"/>
       <path id="DejaVuSans-70" d="M 1159 525 
L 1159 -1331 
L 581 -1331 
L 581 3500 
L 1159 3500 
L 1159 2969 
Q 1341 3281 1617 3432 
Q 1894 3584 2278 3584 
Q 2916 3584 3314 3078 
Q 3713 2572 3713 1747 
Q 3713 922 3314 415 
Q 2916 -91 2278 -91 
Q 1894 -91 1617 61 
Q 1341 213 1159 525 
z
M 3116 1747 
Q 3116 2381 2855 2742 
Q 2594 3103 2138 3103 
Q 1681 3103 1420 2742 
Q 1159 2381 1159 1747 
Q 1159 1113 1420 752 
Q 1681 391 2138 391 
Q 2594 391 2855 752 
Q 3116 1113 3116 1747 
z
" transform="scale(0.015625)"/>
       <path id="STIXSizeOneSym-Regular-5d" d="M 1299 -1050 
L 128 -1050 
L 128 -838 
L 851 -838 
L 851 6611 
L 128 6611 
L 128 6822 
L 1299 6822 
L 1299 -1050 
z
" transform="scale(0.015625)"/>
      </defs>
      <use xlink:href="#DejaVuSans-43" transform="translate(0 0.346875)"/>
      <use xlink:href="#DejaVuSans-75" transform="translate(69.824219 0.346875)"/>
      <use xlink:href="#DejaVuSans-6d" transform="translate(133.203125 0.346875)"/>
      <use xlink:href="#DejaVuSans-75" transform="translate(230.615234 0.346875)"/>
      <use xlink:href="#DejaVuSans-6c" transform="translate(293.994141 0.346875)"/>
      <use xlink:href="#DejaVuSans-61" transform="translate(321.777344 0.346875)"/>
      <use xlink:href="#DejaVuSans-74" transform="translate(383.056641 0.346875)"/>
      <use xlink:href="#DejaVuSans-69" transform="translate(422.265625 0.346875)"/>
      <use xlink:href="#DejaVuSans-76" transform="translate(450.048828 0.346875)"/>
      <use xlink:href="#DejaVuSans-65" transform="translate(509.228516 0.346875)"/>
      <use xlink:href="#DejaVuSans-20" transform="translate(570.751953 0.346875)"/>
      <use xlink:href="#DejaVuSans-72" transform="translate(602.539062 0.346875)"/>
      <use xlink:href="#DejaVuSans-65" transform="translate(643.652344 0.346875)"/>
      <use xlink:href="#DejaVuSans-67" transform="translate(705.175781 0.346875)"/>
      <use xlink:href="#DejaVuSans-72" transform="translate(768.652344 0.346875)"/>
      <use xlink:href="#DejaVuSans-65" transform="translate(809.765625 0.346875)"/>
      <use xlink:href="#DejaVuSans-74" transform="translate(871.289062 0.346875)"/>
      <use xlink:href="#DejaVuSans-20" transform="translate(910.498047 0.346875)"/>
      <use xlink:href="#DejaVuSans-61" transform="translate(942.285156 0.346875)"/>
      <use xlink:href="#DejaVuSans-66" transform="translate(1003.564453 0.346875)"/>
      <use xlink:href="#DejaVuSans-74" transform="translate(1038.769531 0.346875)"/>
      <use xlink:href="#DejaVuSans-65" transform="translate(1077.978516 0.346875)"/>
      <use xlink:href="#DejaVuSans-72" transform="translate(1139.501953 0.346875)"/>
      <use xlink:href="#DejaVuSans-20" transform="translate(1180.615234 0.346875)"/>
      <use xlink:href="#DejaVuSans-Oblique-6e" transform="translate(1212.402344 0.346875)"/>
      <use xlink:href="#DejaVuSans-20" transform="translate(1275.78125 0.346875)"/>
      <use xlink:href="#DejaVuSans-65" transform="translate(1307.568359 0.346875)"/>
      <use xlink:href="#DejaVuSans-76" transform="translate(1369.091797 0.346875)"/>
      <use xlink:href="#DejaVuSans-61" transform="translate(1428.271484 0.346875)"/>
      <use xlink:href="#DejaVuSans-6c" transform="translate(1489.550781 0.346875)"/>
      <use xlink:href="#DejaVuSans-75" transform="translate(1517.333984 0.346875)"/>
      <use xlink:href="#DejaVuSans-61" transform="translate(1580.712891 0.346875)"/>
      <use xlink:href="#DejaVuSans-74" transform="translate(1641.992188 0.346875)"/>
      <use xlink:href="#DejaVuSans-69" transform="translate(1681.201172 0.346875)"/>
      <use xlink:href="#DejaVuSans-6f" transform="translate(1708.984375 0.346875)"/>
      <use xlink:href="#DejaVuSans-6e" transform="translate(1770.166016 0.346875)"/>
      <use xlink:href="#DejaVuSans-73" transform="translate(1833.544922 0.346875)"/>
      <use xlink:href="#DejaVuSans-3a" transform="translate(1885.644531 0.346875)"/>
      <use xlink:href="#DejaVuSans-20" transform="translate(1919.335938 0.346875)"/>
      <use xlink:href="#DejaVuSans-Oblique-6e" transform="translate(2010.593425 120.8) scale(0.7)"/>
      <use xlink:href="#DejaVuSansDisplay-2211" transform="translate(1983.593425 0.346875)"/>
      <use xlink:href="#DejaVuSans-Oblique-74" transform="translate(2016.593425 -94.7125) scale(0.7)"/>
      <use xlink:href="#STIXSizeOneSym-Regular-5b" transform="translate(2090.594727 -16.351562) scale(0.869499)"/>
      <use xlink:href="#DejaVuSans-Oblique-66" transform="translate(2140.151402 0.346875)"/>
      <use xlink:href="#DejaVuSans-28" transform="translate(2191.592156 0.346875)"/>
      <use xlink:href="#DejaVuSans-Oblique-78" transform="translate(2230.605828 0.346875)"/>
      <use xlink:href="#DejaVuSans-Oblique-74" transform="translate(2289.785516 -16.059375) scale(0.7)"/>
      <use xlink:href="#DejaVuSans-29" transform="translate(2319.96618 0.346875)"/>
      <use xlink:href="#DejaVuSans-2212" transform="translate(2378.462274 0.346875)"/>
      <use xlink:href="#DejaVuSans-Oblique-66" transform="translate(2481.733758 0.346875)"/>
      <use xlink:href="#DejaVuSans-6f" transform="translate(2516.938836 -16.059375) scale(0.7)"/>
      <use xlink:href="#DejaVuSans-70" transform="translate(2559.765984 -16.059375) scale(0.7)"/>
      <use xlink:href="#DejaVuSans-74" transform="translate(2604.199578 -16.059375) scale(0.7)"/>
      <use xlink:href="#STIXSizeOneSym-Regular-5d" transform="translate(2650.615919 -16.351562) scale(0.869499)"/>
     </g>
    </g>
   </g>
   <g id="line2d_31">
    <path d="M 110.659091 291.783494 
L 113.374905 288.742351 
L 116.090718 287.983961 
L 118.806532 284.920066 
L 121.522345 284.88973 
L 124.238159 282.550098 
L 126.953972 281.784124 
L 129.669786 278.742981 
L 132.3856 277.977007 
L 135.101413 277.548517 
L 137.817227 275.178548 
L 140.53304 269.395826 
L 143.248854 257.193333 
L 145.964668 256.404607 
L 148.680481 255.202559 
L 151.396295 255.194975 
L 154.112108 255.194975 
L 156.827922 243.053154 
L 159.543736 240.019594 
L 162.259549 237.695129 
L 164.975363 231.95791 
L 167.691176 231.927574 
L 170.40699 231.897239 
L 173.122804 231.866903 
L 175.838617 231.423247 
L 178.554431 231.3872 
L 181.270244 231.35694 
L 183.986058 231.32668 
L 186.701872 231.296421 
L 189.417685 231.271138 
L 192.133499 231.245855 
L 194.849312 231.220573 
L 197.565126 231.196984 
L 200.28094 231.173395 
L 202.996753 231.149806 
L 205.712567 231.127784 
L 208.42838 231.105762 
L 211.144194 231.08374 
L 213.860008 231.061749 
L 216.575821 231.039758 
L 219.291635 231.017767 
L 222.007448 230.995778 
L 224.723262 230.973788 
L 227.439076 230.951798 
L 230.154889 230.951798 
L 232.870703 230.951798 
L 235.586516 230.951798 
" clip-path="url(#pb27707be57)" style="fill: none; stroke-dasharray: 7.4,3.2; stroke-dashoffset: 0; stroke: #1f77b4; stroke-opacity: 0.7; stroke-width: 2"/>
    <defs>
     <path id="m33744a6adf" d="M 0 3 
C 0.795609 3 1.55874 2.683901 2.12132 2.12132 
C 2.683901 1.55874 3 0.795609 3 0 
C 3 -0.795609 2.683901 -1.55874 2.12132 -2.12132 
C 1.55874 -2.683901 0.795609 -3 0 -3 
C -0.795609 -3 -1.55874 -2.683901 -2.12132 -2.12132 
C -2.683901 -1.55874 -3 -0.795609 -3 0 
C -3 0.795609 -2.683901 1.55874 -2.12132 2.12132 
C -1.55874 2.683901 -0.795609 3 0 3 
z
" style="stroke: #1f77b4; stroke-opacity: 0.7"/>
    </defs>
    <g clip-path="url(#pb27707be57)">
     <use xlink:href="#m33744a6adf" x="140.53304" y="269.395826" style="fill: #1f77b4; fill-opacity: 0.7; stroke: #1f77b4; stroke-opacity: 0.7"/>
     <use xlink:href="#m33744a6adf" x="211.144194" y="231.08374" style="fill: #1f77b4; fill-opacity: 0.7; stroke: #1f77b4; stroke-opacity: 0.7"/>
    </g>
   </g>
   <g id="line2d_32">
    <path d="M 110.659091 291.756392 
L 113.374905 281.126642 
L 116.090718 277.142262 
L 118.806532 277.067994 
L 121.522345 275.082734 
L 124.238159 274.954368 
L 126.953972 274.26133 
L 129.669786 271.899826 
L 132.3856 269.354999 
L 135.101413 265.830398 
L 137.817227 263.529021 
L 140.53304 261.10329 
L 143.248854 260.999063 
L 145.964668 260.99255 
L 148.680481 252.459538 
L 151.396295 252.371179 
L 154.112108 249.513463 
L 156.827922 249.352868 
L 159.543736 244.269677 
L 162.259549 239.581517 
L 164.975363 239.56335 
L 167.691176 239.29959 
L 170.40699 239.085758 
L 173.122804 232.39824 
L 175.838617 232.377393 
L 178.554431 231.560638 
L 181.270244 231.547286 
L 183.986058 231.534572 
L 186.701872 231.17239 
L 189.417685 231.150323 
L 192.133499 229.51339 
L 194.849312 228.78031 
L 197.565126 225.799738 
L 200.28094 225.702459 
L 202.996753 225.687558 
L 205.712567 224.71451 
L 208.42838 221.619817 
L 211.144194 221.458671 
L 213.860008 220.014488 
L 216.575821 217.69162 
L 219.291635 217.689023 
L 222.007448 215.398187 
L 224.723262 215.384527 
L 227.439076 215.1513 
L 230.154889 207.217852 
L 232.870703 206.975868 
L 235.586516 206.925154 
L 238.30233 197.870142 
L 241.018144 197.51154 
L 243.733957 197.113055 
L 246.449771 197.078782 
L 249.165584 196.033374 
L 251.881398 195.968925 
L 254.597212 193.368353 
L 257.313025 191.988477 
L 260.028839 191.590541 
L 262.744652 184.035045 
L 265.460466 183.815645 
L 268.17628 182.444148 
L 270.892093 182.407035 
L 273.607907 180.61109 
L 276.32372 178.841801 
L 279.039534 178.669252 
L 281.755348 178.492154 
L 284.471161 178.355153 
L 287.186975 177.370815 
L 289.902788 174.03198 
L 292.618602 173.974128 
L 295.334416 173.137306 
L 298.050229 173.027769 
L 300.766043 170.743076 
L 303.481856 169.635826 
L 306.19767 169.538608 
L 308.913484 168.410487 
L 311.629297 166.866184 
L 314.345111 166.606866 
L 317.060924 166.542906 
L 319.776738 166.536426 
L 322.492552 166.504835 
L 325.208365 166.158833 
L 327.924179 166.151104 
L 330.639992 165.148683 
L 333.355806 164.166631 
L 336.07162 163.567004 
L 338.787433 162.347518 
L 341.503247 162.340683 
L 344.21906 161.857532 
L 346.934874 161.775908 
L 349.650688 160.587089 
L 352.366501 160.493753 
L 355.082315 155.999613 
L 357.798128 155.168956 
L 360.513942 155.092713 
L 363.229756 155.076436 
L 365.945569 153.728881 
L 368.661383 153.669053 
L 371.377196 153.280473 
L 374.09301 153.26139 
L 376.808824 153.092318 
L 379.524637 152.711603 
L 382.240451 152.680776 
L 384.956264 145.565696 
L 387.672078 145.559277 
L 390.387892 142.45041 
L 393.103705 142.31939 
L 395.819519 142.187852 
L 398.535332 142.172154 
L 401.251146 141.629239 
L 403.96696 140.192241 
L 406.682773 140.135939 
L 409.398587 139.02713 
L 412.1144 135.826751 
L 414.830214 135.744765 
L 417.546028 134.408948 
L 420.261841 134.335028 
L 422.977655 134.120725 
L 425.693468 134.074972 
L 428.409282 126.818394 
L 431.125095 126.611338 
L 433.840909 126.575772 
" clip-path="url(#pb27707be57)" style="fill: none; stroke-dasharray: 7.4,3.2; stroke-dashoffset: 0; stroke: #ff7f0e; stroke-opacity: 0.7; stroke-width: 2"/>
    <defs>
     <path id="mc8222ff91c" d="M -3 3 
L 3 3 
L 3 -3 
L -3 -3 
z
" style="stroke: #ff7f0e; stroke-opacity: 0.7; stroke-linejoin: miter"/>
    </defs>
    <g clip-path="url(#pb27707be57)">
     <use xlink:href="#mc8222ff91c" x="154.112108" y="249.513463" style="fill: #ff7f0e; fill-opacity: 0.7; stroke: #ff7f0e; stroke-opacity: 0.7; stroke-linejoin: miter"/>
     <use xlink:href="#mc8222ff91c" x="227.439076" y="215.1513" style="fill: #ff7f0e; fill-opacity: 0.7; stroke: #ff7f0e; stroke-opacity: 0.7; stroke-linejoin: miter"/>
     <use xlink:href="#mc8222ff91c" x="295.334416" y="173.137306" style="fill: #ff7f0e; fill-opacity: 0.7; stroke: #ff7f0e; stroke-opacity: 0.7; stroke-linejoin: miter"/>
     <use xlink:href="#mc8222ff91c" x="382.240451" y="152.680776" style="fill: #ff7f0e; fill-opacity: 0.7; stroke: #ff7f0e; stroke-opacity: 0.7; stroke-linejoin: miter"/>
    </g>
   </g>
   <g id="line2d_33">
    <path d="M 110.659091 288.63078 
L 113.374905 288.628662 
L 116.090718 286.199038 
L 118.806532 276.714209 
L 121.522345 273.299504 
L 124.238159 272.221877 
L 126.953972 270.931781 
L 129.669786 270.536621 
L 132.3856 270.427809 
L 135.101413 269.55382 
L 137.817227 269.238106 
L 140.53304 269.05933 
L 143.248854 266.749336 
L 145.964668 255.466776 
L 148.680481 255.290793 
L 151.396295 255.072398 
L 154.112108 255.066231 
L 156.827922 253.864405 
L 159.543736 253.050365 
L 162.259549 248.867914 
L 164.975363 247.539528 
L 167.691176 247.202949 
L 170.40699 245.716051 
L 173.122804 245.644257 
L 175.838617 245.59296 
L 178.554431 245.348478 
L 181.270244 240.230526 
L 183.986058 238.828454 
L 186.701872 233.328891 
L 189.417685 230.665959 
L 192.133499 230.224218 
L 194.849312 224.556382 
L 197.565126 217.880131 
L 200.28094 215.518953 
L 202.996753 204.802369 
L 205.712567 203.250694 
L 208.42838 203.167271 
L 211.144194 202.609287 
L 213.860008 202.514256 
L 216.575821 200.434232 
L 219.291635 199.816888 
L 222.007448 199.599921 
L 224.723262 198.686481 
L 227.439076 195.09791 
L 230.154889 192.129636 
L 232.870703 191.976082 
L 235.586516 189.404551 
L 238.30233 188.909158 
L 241.018144 188.591309 
L 243.733957 184.371252 
L 246.449771 173.757184 
L 249.165584 166.690332 
L 251.881398 166.688292 
L 254.597212 161.011827 
L 257.313025 151.339237 
L 260.028839 149.797263 
L 262.744652 149.378531 
L 265.460466 147.662631 
L 268.17628 147.010098 
L 270.892093 142.734104 
L 273.607907 139.799784 
L 276.32372 139.776121 
L 279.039534 137.565705 
L 281.755348 135.536609 
L 284.471161 129.911746 
L 287.186975 128.651503 
L 289.902788 125.537735 
L 292.618602 113.91682 
L 295.334416 113.825751 
L 298.050229 113.303741 
L 300.766043 109.258843 
L 303.481856 101.557112 
L 306.19767 101.390086 
L 308.913484 99.971023 
L 311.629297 98.370902 
L 314.345111 98.282585 
L 317.060924 98.173937 
L 319.776738 98.150466 
L 322.492552 95.239831 
L 325.208365 91.371793 
L 327.924179 83.462999 
L 330.639992 76.302082 
L 333.355806 75.238901 
L 336.07162 71.434369 
L 338.787433 70.737497 
L 341.503247 68.519099 
L 344.21906 68.362135 
L 346.934874 67.164651 
L 349.650688 65.002502 
L 352.366501 63.777303 
L 355.082315 63.271126 
L 357.798128 60.698887 
L 360.513942 59.990929 
L 363.229756 55.607477 
L 365.945569 53.551385 
L 368.661383 48.900326 
L 371.377196 45.966541 
L 374.09301 43.367926 
L 376.808824 40.769984 
L 379.524637 38.580287 
L 382.240451 38.579704 
L 384.956264 38.579596 
L 387.672078 38.579347 
L 390.387892 38.579346 
L 393.103705 38.578877 
L 395.819519 38.57886 
L 398.535332 38.578472 
L 401.251146 38.578466 
L 403.96696 38.578454 
L 406.682773 38.578451 
L 409.398587 38.578434 
L 412.1144 38.578403 
L 414.830214 38.578389 
L 417.546028 38.578381 
" clip-path="url(#pb27707be57)" style="fill: none; stroke-dasharray: 7.4,3.2; stroke-dashoffset: 0; stroke: #2ca02c; stroke-opacity: 0.7; stroke-width: 2"/>
    <defs>
     <path id="m2fde8fd86f" d="M -3 3 
L 3 -3 
M -3 -3 
L 3 3 
" style="stroke: #2ca02c; stroke-opacity: 0.7"/>
    </defs>
    <g clip-path="url(#pb27707be57)">
     <use xlink:href="#m2fde8fd86f" x="178.554431" y="245.348478" style="fill: #2ca02c; fill-opacity: 0.7; stroke: #2ca02c; stroke-opacity: 0.7"/>
     <use xlink:href="#m2fde8fd86f" x="238.30233" y="188.909158" style="fill: #2ca02c; fill-opacity: 0.7; stroke: #2ca02c; stroke-opacity: 0.7"/>
     <use xlink:href="#m2fde8fd86f" x="289.902788" y="125.537735" style="fill: #2ca02c; fill-opacity: 0.7; stroke: #2ca02c; stroke-opacity: 0.7"/>
     <use xlink:href="#m2fde8fd86f" x="344.21906" y="68.362135" style="fill: #2ca02c; fill-opacity: 0.7; stroke: #2ca02c; stroke-opacity: 0.7"/>
    </g>
   </g>
   <g id="patch_3">
    <path d="M 94.5 304.44375 
L 94.5 25.918125 
" style="fill: none; stroke: #000000; stroke-width: 0.8; stroke-linejoin: miter; stroke-linecap: square"/>
   </g>
   <g id="patch_4">
    <path d="M 450 304.44375 
L 450 25.918125 
" style="fill: none; stroke: #000000; stroke-width: 0.8; stroke-linejoin: miter; stroke-linecap: square"/>
   </g>
   <g id="patch_5">
    <path d="M 94.5 304.44375 
L 450 304.44375 
" style="fill: none; stroke: #000000; stroke-width: 0.8; stroke-linejoin: miter; stroke-linecap: square"/>
   </g>
   <g id="patch_6">
    <path d="M 94.5 25.918125 
L 450 25.918125 
" style="fill: none; stroke: #000000; stroke-width: 0.8; stroke-linejoin: miter; stroke-linecap: square"/>
   </g>
   <g id="text_18">
    <!-- Cumulative regret -->
    <g transform="translate(217.89 19.918125) scale(0.12 -0.12)">
     <use xlink:href="#DejaVuSans-43"/>
     <use xlink:href="#DejaVuSans-75" x="69.824219"/>
     <use xlink:href="#DejaVuSans-6d" x="133.203125"/>
     <use xlink:href="#DejaVuSans-75" x="230.615234"/>
     <use xlink:href="#DejaVuSans-6c" x="293.994141"/>
     <use xlink:href="#DejaVuSans-61" x="321.777344"/>
     <use xlink:href="#DejaVuSans-74" x="383.056641"/>
     <use xlink:href="#DejaVuSans-69" x="422.265625"/>
     <use xlink:href="#DejaVuSans-76" x="450.048828"/>
     <use xlink:href="#DejaVuSans-65" x="509.228516"/>
     <use xlink:href="#DejaVuSans-20" x="570.751953"/>
     <use xlink:href="#DejaVuSans-72" x="602.539062"/>
     <use xlink:href="#DejaVuSans-65" x="641.402344"/>
     <use xlink:href="#DejaVuSans-67" x="702.925781"/>
     <use xlink:href="#DejaVuSans-72" x="766.402344"/>
     <use xlink:href="#DejaVuSans-65" x="805.265625"/>
     <use xlink:href="#DejaVuSans-74" x="866.789062"/>
    </g>
   </g>
   <g id="legend_1">
    <g id="patch_7">
     <path d="M 329.178125 299.44375 
L 443 299.44375 
Q 445 299.44375 445 297.44375 
L 445 254.409375 
Q 445 252.409375 443 252.409375 
L 329.178125 252.409375 
Q 327.178125 252.409375 327.178125 254.409375 
L 327.178125 297.44375 
Q 327.178125 299.44375 329.178125 299.44375 
z
" style="fill: #ffffff; opacity: 0.8; stroke: #cccccc; stroke-linejoin: miter"/>
    </g>
    <g id="line2d_34">
     <path d="M 331.178125 260.507812 
L 341.178125 260.507812 
L 351.178125 260.507812 
" style="fill: none; stroke-dasharray: 7.4,3.2; stroke-dashoffset: 0; stroke: #1f77b4; stroke-opacity: 0.7; stroke-width: 2"/>
     <g>
      <use xlink:href="#m33744a6adf" x="341.178125" y="260.507812" style="fill: #1f77b4; fill-opacity: 0.7; stroke: #1f77b4; stroke-opacity: 0.7"/>
     </g>
    </g>
    <g id="text_19">
     <!-- method='shgo' -->
     <g transform="translate(359.178125 264.007812) scale(0.1 -0.1)">
      <defs>
       <path id="DejaVuSans-68" d="M 3513 2113 
L 3513 0 
L 2938 0 
L 2938 2094 
Q 2938 2591 2744 2837 
Q 2550 3084 2163 3084 
Q 1697 3084 1428 2787 
Q 1159 2491 1159 1978 
L 1159 0 
L 581 0 
L 581 4863 
L 1159 4863 
L 1159 2956 
Q 1366 3272 1645 3428 
Q 1925 3584 2291 3584 
Q 2894 3584 3203 3211 
Q 3513 2838 3513 2113 
z
" transform="scale(0.015625)"/>
       <path id="DejaVuSans-64" d="M 2906 2969 
L 2906 4863 
L 3481 4863 
L 3481 0 
L 2906 0 
L 2906 525 
Q 2725 213 2448 61 
Q 2172 -91 1784 -91 
Q 1150 -91 751 415 
Q 353 922 353 1747 
Q 353 2572 751 3078 
Q 1150 3584 1784 3584 
Q 2172 3584 2448 3432 
Q 2725 3281 2906 2969 
z
M 947 1747 
Q 947 1113 1208 752 
Q 1469 391 1925 391 
Q 2381 391 2643 752 
Q 2906 1113 2906 1747 
Q 2906 2381 2643 2742 
Q 2381 3103 1925 3103 
Q 1469 3103 1208 2742 
Q 947 2381 947 1747 
z
" transform="scale(0.015625)"/>
       <path id="DejaVuSans-3d" d="M 678 2906 
L 4684 2906 
L 4684 2381 
L 678 2381 
L 678 2906 
z
M 678 1631 
L 4684 1631 
L 4684 1100 
L 678 1100 
L 678 1631 
z
" transform="scale(0.015625)"/>
       <path id="DejaVuSans-27" d="M 1147 4666 
L 1147 2931 
L 616 2931 
L 616 4666 
L 1147 4666 
z
" transform="scale(0.015625)"/>
      </defs>
      <use xlink:href="#DejaVuSans-6d"/>
      <use xlink:href="#DejaVuSans-65" x="97.412109"/>
      <use xlink:href="#DejaVuSans-74" x="158.935547"/>
      <use xlink:href="#DejaVuSans-68" x="198.144531"/>
      <use xlink:href="#DejaVuSans-6f" x="261.523438"/>
      <use xlink:href="#DejaVuSans-64" x="322.705078"/>
      <use xlink:href="#DejaVuSans-3d" x="386.181641"/>
      <use xlink:href="#DejaVuSans-27" x="469.970703"/>
      <use xlink:href="#DejaVuSans-73" x="497.460938"/>
      <use xlink:href="#DejaVuSans-68" x="549.560547"/>
      <use xlink:href="#DejaVuSans-67" x="612.939453"/>
      <use xlink:href="#DejaVuSans-6f" x="676.416016"/>
      <use xlink:href="#DejaVuSans-27" x="737.597656"/>
     </g>
    </g>
    <g id="line2d_35">
     <path d="M 331.178125 275.185937 
L 341.178125 275.185937 
L 351.178125 275.185937 
" style="fill: none; stroke-dasharray: 7.4,3.2; stroke-dashoffset: 0; stroke: #ff7f0e; stroke-opacity: 0.7; stroke-width: 2"/>
     <g>
      <use xlink:href="#mc8222ff91c" x="341.178125" y="275.185937" style="fill: #ff7f0e; fill-opacity: 0.7; stroke: #ff7f0e; stroke-opacity: 0.7; stroke-linejoin: miter"/>
     </g>
    </g>
    <g id="text_20">
     <!-- method='sceua' -->
     <g transform="translate(359.178125 278.685937) scale(0.1 -0.1)">
      <use xlink:href="#DejaVuSans-6d"/>
      <use xlink:href="#DejaVuSans-65" x="97.412109"/>
      <use xlink:href="#DejaVuSans-74" x="158.935547"/>
      <use xlink:href="#DejaVuSans-68" x="198.144531"/>
      <use xlink:href="#DejaVuSans-6f" x="261.523438"/>
      <use xlink:href="#DejaVuSans-64" x="322.705078"/>
      <use xlink:href="#DejaVuSans-3d" x="386.181641"/>
      <use xlink:href="#DejaVuSans-27" x="469.970703"/>
      <use xlink:href="#DejaVuSans-73" x="497.460938"/>
      <use xlink:href="#DejaVuSans-63" x="549.560547"/>
      <use xlink:href="#DejaVuSans-65" x="604.541016"/>
      <use xlink:href="#DejaVuSans-75" x="666.064453"/>
      <use xlink:href="#DejaVuSans-61" x="729.443359"/>
      <use xlink:href="#DejaVuSans-27" x="790.722656"/>
     </g>
    </g>
    <g id="line2d_36">
     <path d="M 331.178125 289.864062 
L 341.178125 289.864062 
L 351.178125 289.864062 
" style="fill: none; stroke-dasharray: 7.4,3.2; stroke-dashoffset: 0; stroke: #2ca02c; stroke-opacity: 0.7; stroke-width: 2"/>
     <g>
      <use xlink:href="#m2fde8fd86f" x="341.178125" y="289.864062" style="fill: #2ca02c; fill-opacity: 0.7; stroke: #2ca02c; stroke-opacity: 0.7"/>
     </g>
    </g>
    <g id="text_21">
     <!-- method='smbo' -->
     <g transform="translate(359.178125 293.364062) scale(0.1 -0.1)">
      <use xlink:href="#DejaVuSans-6d"/>
      <use xlink:href="#DejaVuSans-65" x="97.412109"/>
      <use xlink:href="#DejaVuSans-74" x="158.935547"/>
      <use xlink:href="#DejaVuSans-68" x="198.144531"/>
      <use xlink:href="#DejaVuSans-6f" x="261.523438"/>
      <use xlink:href="#DejaVuSans-64" x="322.705078"/>
      <use xlink:href="#DejaVuSans-3d" x="386.181641"/>
      <use xlink:href="#DejaVuSans-27" x="469.970703"/>
      <use xlink:href="#DejaVuSans-73" x="497.460938"/>
      <use xlink:href="#DejaVuSans-6d" x="549.560547"/>
      <use xlink:href="#DejaVuSans-62" x="646.972656"/>
      <use xlink:href="#DejaVuSans-6f" x="710.449219"/>
      <use xlink:href="#DejaVuSans-27" x="771.630859"/>
     </g>
    </g>
   </g>
  </g>
 </g>
 <defs>
  <clipPath id="pb27707be57">
   <rect x="94.5" y="25.918125" width="355.5" height="278.525625"/>
  </clipPath>
 </defs>
</svg>
